<?xml version="1.0" encoding="utf-8"?>
<!-- Generator: Adobe Illustrator 19.0.0, SVG Export Plug-In . SVG Version: 6.00 Build 0)  -->
<svg version="1.1" id="Capa_1" xmlns="http://www.w3.org/2000/svg" xmlns:xlink="http://www.w3.org/1999/xlink" x="0px" y="0px"
	 viewBox="6 10 548.9 480" enable-background="new 6 10 548.9 480" xml:space="preserve">
	 <style>
	 	path{fill: #ffc808}
	 </style>
<g>
	<g>
		<path d="M554.9,249.9c0-3.8-2.2-7.3-5.7-9L150.7,52c-4-16.4-15.4-30.8-32.2-37.8C90.6,2.6,58.6,15.9,47,43.8
			C19.8,109.5,6,178.9,6,250c0,71.1,13.8,140.5,41,206.2c2.8,6.8,6.9,12.8,11.8,17.7c15.2,15.2,38.6,20.6,59.7,11.9
			c14.2-5.9,24.5-17,29.8-30.2L549.3,259C552.7,257.3,554.9,253.8,554.9,249.9z M196,95.6l42.2,20c-0.2,7.5-3.8,14.7-10,19.4
			c-5.4,4.1-12.1,5.9-18.8,5c-6.8-0.9-12.7-4.4-16.9-9.8c-4.1-5.4-5.9-12.1-5-18.8C188.3,105.3,191.3,99.7,196,95.6z M110.8,467.3
			c-17.7,7.3-38-1.1-45.3-18.8c-53-128-53-269.1,0-397.1c3.5-8.6,10.2-15.2,18.8-18.8c8.6-3.5,18-3.5,26.6,0s15.2,10.2,18.8,18.8
			c3.5,8.6,3.5,18,0,26.6c-22.7,54.8-34.2,112.7-34.2,172s11.5,117.2,34.2,172C136.9,439.7,128.5,460,110.8,467.3z M388.1,315.7
			c-0.6-0.7-1.2-1.3-1.8-2.1c-4.1-5.4-5.9-12.1-5-18.8c0.9-6.8,4.4-12.8,9.8-16.9c11.2-8.6,27.2-6.4,35.7,4.7
			c2.6,3.4,4.3,7.5,5,11.7L388.1,315.7z M450.2,285.3c-1.6-5.3-4.1-10.4-7.5-14.8c-15.3-19.9-43.9-23.7-63.8-8.4
			c-9.6,7.4-15.8,18.1-17.4,30.2c-1.5,11.6,1.4,23.1,8.2,32.5l-55.2,27l-3.8-28.6c-0.7-5.5-5.7-9.3-11.2-8.6
			c-5.5,0.7-9.3,5.7-8.6,11.2l4.6,35.2l-143.4,70.3c-0.4-5.7-1.7-11.5-4-17.1c-43.9-106-43.9-222.7,0-328.7
			c1.5-3.7,2.6-7.4,3.3-11.2l25.7,12.2c-5,6.4-8.3,14-9.4,22.3c-1.6,12,1.6,24,9,33.6c1.2,1.6,2.6,3.1,4,4.5
			c7,7,16.1,11.5,26.2,12.9c12,1.6,24-1.6,33.6-9c8.7-6.6,14.4-16,16.7-26.3l119.2,56.6l-4.7,11.4c-1.6,3.9-0.6,8.1,2.2,10.9
			c0.9,0.9,2,1.6,3.2,2.2c5.1,2.1,11-0.3,13.1-5.4l4.3-10.4l127.3,60.4L450.2,285.3z"/>
	</g>
</g>
<g>
	<g>
		<path d="M83.6,154c0-0.1,0-0.2,0.1-0.3c1.1-5.4-2.4-10.7-7.8-11.8c-5.4-1.1-10.7,2.4-11.8,7.8c-0.7,3.4,0.4,6.8,2.7,9.1
			c1.3,1.3,3,2.3,4.9,2.7C77.1,162.8,82.5,159.4,83.6,154z"/>
	</g>
</g>
<g>
	<g>
		<path d="M90.4,125.7c5.2-19,11.6-37.8,19.2-56c2.1-5.1-0.3-11-5.4-13.1c-5.1-2.1-11,0.3-13.1,5.4c-7.8,19-14.6,38.6-20,58.4
			c-1,3.6,0.1,7.3,2.6,9.7c1.2,1.2,2.7,2.1,4.4,2.6C83.5,134.2,89,131,90.4,125.7z"/>
	</g>
</g>
<g>
	<g>
		<path d="M327.7,199.7c-1.2-1.6-2.5-3.1-4-4.5c-16.1-16.1-41.8-17.7-59.8-3.9c-19.9,15.3-23.7,43.9-8.4,63.8c1.2,1.6,2.5,3.1,4,4.5
			c16.1,16.1,41.8,17.7,59.8,3.9C339.2,248.2,343,219.6,327.7,199.7z M307.2,247.7c-10.1,7.8-24.5,6.8-33.5-2.2
			c-0.8-0.8-1.5-1.6-2.2-2.5c-8.6-11.2-6.4-27.2,4.7-35.7c10.1-7.8,24.5-6.8,33.5,2.2c0.8,0.8,1.5,1.6,2.2,2.5
			C320.4,223.1,318.3,239.1,307.2,247.7z"/>
	</g>
</g>
<g>
	<g>
		<path d="M237.9,285.9c-1.2-1.6-2.5-3.1-4-4.5c-16.1-16.1-41.8-17.7-59.8-3.9c-9.6,7.4-15.8,18.1-17.4,30.2c-1.6,12,1.6,24,9,33.6
			c1.2,1.6,2.5,3.1,4,4.5c16.1,16.1,41.8,17.7,59.8,3.9C249.4,334.4,253.2,305.8,237.9,285.9z M217.4,333.8
			c-10.1,7.8-24.5,6.8-33.5-2.2c-0.8-0.8-1.5-1.6-2.2-2.5c-4.1-5.4-5.9-12.1-5-18.8s4.4-12.7,9.8-16.9c10.1-7.8,24.5-6.8,33.5,2.2
			c0.8,0.8,1.5,1.6,2.2,2.5C230.6,309.2,228.5,325.2,217.4,333.8z"/>
	</g>
</g>
<g>
	<g>
		<path d="M220.6,209.9l-18.9-24.6c-3.4-4.4-9.6-5.2-14-1.8c-4.4,3.4-5.2,9.6-1.8,14l18.9,24.6c0.3,0.4,0.6,0.7,0.9,1
			c3.5,3.5,9.1,3.9,13.1,0.9C223.1,220.6,224,214.3,220.6,209.9z"/>
	</g>
</g>
<g>
	<g>
		<path d="M157.4,251.1l12.7-16.5c3.4-4.4,2.5-10.7-1.8-14c-4.4-3.4-10.7-2.5-14,1.8l-12.7,16.5c-3.1,4-2.6,9.7,0.9,13.2
			c0.3,0.3,0.6,0.6,1,0.9C147.8,256.3,154,255.5,157.4,251.1z"/>
	</g>
</g>
</svg>
