<svg version="1" xmlns="http://www.w3.org/2000/svg" width="346.667" height="346.667" viewBox="0 0 260.000000 260.000000"><path d="M81 12.4c0 .2 1.1 2.3 2.4 4.7 1.4 2.4 2.4 5.8 2.4 7.5-.1 1.8 1.1 5.3 2.7 8 6.7 11.9 8.3 15.2 9.4 19.9.7 2.7 3.7 9.9 6.8 16 3 6 7.9 16.8 10.8 24 6.3 15.6 12.4 28.5 13.5 28.5 1.2 0 6-4.5 6-5.6 0-.6-1-1.9-2.1-3l-2.1-1.9.7 3.2c.6 2.9.4 3.3-1.4 3.3-2.1 0-5.6-5.1-4.4-6.4.4-.3-.2-1.3-1.3-2.1-1.7-1.3-1.7-1.4-.1-1.5 2.4 0 2.2-2-.3-2-2.2 0-2.6-2-.8-3.8 1.8-1.8 3.5-1.4 4.3 1 .8 2.2.8 2.2 1.2-.4.5-3.2-1.2-6.8-3.2-6.8-.8 0-2.4.9-3.5 2s-2 1.6-2 1c0-1.8 4.9-4.2 7.5-3.8 1.4.3 2.8.1 3.1-.3.3-.5 1.2-.9 2.1-.9 1.2 0 1.2.3-.4 1.7-1.6 1.5-1.8 2.6-1.2 5.8.5 3.5.7 3.7 1.4 1.7 1-3 3.9-2.8 5.4.5 1 2.2 1.4 2.4 2.2 1.2.5-.7.9-2.1.9-3 0-.9.7-2 1.6-2.3 1.5-.6 1.5-.9-.4-2.9-1.5-1.6-1.8-2.7-1.2-3.7.5-.8.7-2.3.4-3.3-.3-1.1 0-1.7 1-1.7.8 0 1.6 1 1.8 2.2.5 3.4 2.3 3.1 4.1-.7 2-4.1 1.3-7.3-1.1-5.3-.8.7-3.1 1.3-5 1.3-3.2 0-3.9.5-5.9 4.4-.1.1-.7 0-1.3-.4-.6-.4.5-2.4 3-5.2 5.2-5.9 6.2-11.6 3.5-20.1-.6-1.8-.4-2.2 1.5-2.2 2.8 0 9.8 7.4 10.3 10.9l.4 2.6.2-2.6c0-1.4-1-4.1-2.4-6l-2.6-3.4 3.2-.6c4.8-1 8.1-3.9 11-9.7 2.3-4.3 2.6-5.8 1.9-8.9-1.1-4.6-.8-5 2.7-3.4 2.4 1.1 2.9 1 4.1-.6.7-1 2.7-3.9 4.6-6.4l3.4-4.6-3.2-1.6c-10.6-5-29.4-8.1-49.6-8.1-15.6 0-26.2 1.5-35.3 5C87 25.4 87 25.4 87 23s-4.1-11-5.2-11c-.4 0-.8.2-.8.4zm20 12.1l2.5 1.3-2.6 1c-1.4.6-4 2.7-5.8 4.8-2.6 2.9-3.5 3.4-4.2 2.3-1.6-2.5-.9-5.9 1.6-8.4 2.7-2.8 4.9-3.1 8.5-1zm51 3.2l2.2 2.8-4.9.5c-2.6.3-6.6 1.5-8.8 2.7-2.2 1.1-5.2 2.3-6.7 2.7-4.6 1.1-3.7-3.1 1.4-7.6 3.8-3.3 5-3.7 9.5-3.8 4.5 0 5.4.4 7.3 2.7zm-43.9 5c-.3 4.4 1.2 6 2.2 2.3.3-1.1 1-2 1.6-2 1.4 0 4.1 5.3 4.1 8 0 1.8-.3 1.9-2 .8-2.9-1.9-3.8.1-1 2.3 3.5 2.7 6.3 2.1 7.1-1.6.4-1.7.7-2.4.8-1.7 0 .7 1.2 1.7 2.5 2.4 2.3 1 4.5 3.9 2.8 3.7-2.2-.4-4.2.2-3.7 1 .3.6-.4 1.5-1.6 2.1-1.1.7-2.7 2.6-3.4 4.4-.7 1.7-2.3 4-3.5 5.1-2.9 2.6-6.3 9.3-5.6 11.1.3.8.3 1.4.1 1.4-.3 0-1.8-2.7-3.5-6l-3.1-6.1 2.6 1.7c1.4.9 2.9 1.4 3.2 1 .4-.4-.3-.9-1.5-1.3-1.2-.3-2.2-.9-2.2-1.4 0-1.4 1.7-1 3.5.7 1.5 1.5 1.5 1.8 0 3.4-1.1 1.2-1.3 2-.6 2.5.6.3 1.6-.5 2.3-1.9 1.5-3.5-1.4-6.9-5.4-6.4-1.9.3-2.8-.1-3.1-1.4-.6-2.1-.6-2.1 4.7-.8 5.1 1.1 9-.5 13.4-5.4 3.3-3.8 3.5-7.1.3-4.2-1 .9-2.3 1.6-2.9 1.6-.7 0-1.2.8-1.2 1.8 0 1.8-3.7 4.2-6.3 4.2-.7-.1.3-.7 2.1-1.5 3.8-1.7 4-3.4.7-6.5-2.8-2.7-4.2-2.2-2.5.9.9 1.8.8 2.1-1 2.1-2.6 0-8-2.7-8-4 0-.6.9-1 2-1s2-.5 2-1.1c0-.8-1.3-1-3.8-.7-3.3.5-3.9.2-5-2-1-2.3-.9-3.1 1.4-6.4 1.5-2.1 2.9-3.8 3.2-3.8.2 0-.3 1-1.2 2.2-3.9 5.4-3.3 7.8 1.9 7.8 2.2 0 3.4-.4 3-1-.3-.6-1.3-1-2.1-1-2 0-1.8-1.4.6-3.5 2-1.8 2.1-1.8 2.7.3.6 2.5 2.3 3 2.3.8 0-.8-.5-2.7-1-4.1-.8-2-1.5-2.6-3-2.2-1.1.3-1.8.1-1.4-.4.3-.5 1.9-.8 3.7-.6 3.1.2 3.2.3 2.8 4.4zM116 30c1.4 1.1 2 2 1.3 2-.6 0-1.5-.5-1.8-1.1-.4-.6-1.7-1.4-2.9-1.9s-1.5-.9-.6-.9c.8 0 2.6.8 4 1.9zm4.4 7l.7 2.5-1.5-2.5c-1.7-2.8-2.1-5-.7-3.5.5.6 1.2 2.1 1.5 3.5zm9-1.4c.8 3.1-.1 6.4-1.7 6.4-2.3-.1-4.4-2.5-5.1-5.8-.7-3.1-.7-3.2 2.7-3.2 2.9 0 3.6.4 4.1 2.6zm19-1.4c.5 1 .7 1 1.2 0 .3-.6 1.5-1.2 2.7-1.1 2.2 0 2.2 0 0 .9-1.8.7-2.3 1.7-2.3 4.4 0 1.9.5 3.8 1 4.1.6.3 1-.3 1-1.4 0-1.2.6-2.1 1.4-2.1 2 0 4.6 3.9 4.6 6.7 0 2-.3 2.3-2.7 1.7-2.6-.7-2.7-.6-1.4 1 2.5 3 5 3.9 6.8 2.4 1.4-1.1 1.5-1.1 1.1.2-.2.8-1.4 1.6-2.6 1.8-1.3.2-2.2 1.1-2.2 2.1 0 2.6-2.2 4.1-6.7 4.6-2.1.2-2.9.2-1.8-.1 7.9-2.1 9.6-4.8 4.9-7.9-2.9-1.9-4.3-1.3-2.4 1 2.2 2.7-1.5 2.9-6.1.3-4-2.2-4.1-2.3-1.5-2.6 3.9-.5 3.2-2.2-.9-2.2-2.3 0-3.8.6-4.2 1.6-.4 1.2-.8 1.3-1.3.3-.5-.7-.3-2 .3-3 .9-1.5 1.9-1.7 4.9-1.2 2.5.4 3.8.2 3.8-.6 0-.6-.9-1.1-2-1.1-2.6 0-2.6-2.6.1-4 1.7-1 2.1-.8 2.6.9.3 1.2.9 2.1 1.4 2.1 1.4 0 1-4.4-.6-6.6-.8-1-1.5-2.2-1.5-2.7 0-1.2 1.8-.8 2.4.5zm-3.4.2c0 .2-.7.7-1.6 1-.8.3-1.2.2-.9-.4.6-1 2.5-1.4 2.5-.6zm16 4.9c1.1 1.8 2 4.8 1.9 6.7-.1 3.9-.4 3.3-1.4-2.4-.4-2.6-1.8-5-3.8-6.9-2.4-2.3-2.6-2.7-.9-1.8 1.3.7 3.2 2.7 4.2 4.4zm-20.5.1c-.9 4.4-2.8 6.1-7.1 6.1-2.8 0-3.4-.4-3.4-2.2 0-2.6 2.7-4.3 6.5-4.3 1.9 0 2.9-.6 3.2-2 .9-3.4 1.5-1.5.8 2.4zM105 53.3c1.3.5 1.3.6-.1.6-.8.1-2.4-.6-3.5-1.5-1.9-1.5-1.9-1.5.1-.6 1.1.5 2.7 1.2 3.5 1.5zm30.3.2c1.5 1.3 2.7 2.7 2.7 3.1 0 .4.8 1.3 1.8 2 .9.7 1.2 1.4.5 1.4-.6 0-1.8-.9-2.6-2s-1.6-1.7-2-1.4c-.3.3-1.6 0-2.9-.7-1.2-.7-2.6-1.2-2.9-1.1-.4.1-.5-.8-.2-1.8.7-2.6 2.2-2.5 5.6.5zm9.2 4.3c1.1.6 1.5 1.2.8 1.2s-2.2-1-3.5-2.3c-1.3-1.2-1.7-1.7-.8-1.1.8.6 2.4 1.6 3.5 2.2zm-16.4.4c-1.3.4-3.6 1.7-5.1 2.8-1.5 1.1-3.6 2-4.6 2-1.5 0-1.4-.3.6-2.5 2.3-2.4 4.7-3.5 3.5-1.5-.3.5-.1 1 .4 1 .6 0 1.1-.5 1.1-1 0-.6.7-1 1.5-1s1.5-.4 1.5-1c0-.5.7-.7 1.7-.3 1.4.5 1.3.8-.6 1.5zm7.3 1.9c1.4 1.1 3.3 3.4 4.1 4.9 2.8 5.4 1.3 14-2.5 14-1.3 0-2 .7-2 2 0 2.4-5.4 6-9 6-3.3 0-9.8-3.8-12.3-7.2-1.6-2.2-1.8-3.1-.9-5.6.7-2.1.7-3.3-.1-4.1-.8-.8-.7-2 .7-4.6 1.1-1.9 2.1-3.3 2.3-3.1.3.2-.3 1.6-1.2 3-1.4 2.1-1.5 2.9-.5 4.1 1.4 1.7 9.5 2.2 8.5.5-.3-.6-1.5-1-2.6-1-2.1 0-2.5-2-.7-3.8 1.8-1.8 3.5-1.4 4.1.9.8 3.1 2.4 1.5 1.9-1.9-.2-1.6.1-3.3.7-3.6.7-.5 1.1.7 1.1 3.3 0 2.3.5 4.1 1 4.1.6 0 1-.9 1-2.1 0-1.5.5-2 2.3-1.7 1.6.2 2.6 1.5 3.7 4.5 1.6 4.8 1.1 6-1.9 4.2-3.3-2.1-3.8.1-.6 2.7 3.6 2.9 5.1 3 6.5.5 2.5-4.7-.7-13.8-5.8-16.5-1.5-.8-2.2-1.5-1.6-1.6.6 0 2.3.9 3.8 2.1zm-7.8 28.4c3.6 0 6.8.5 7.7 1.4 1.5 1.1 1.8 1 2.9-1.5l1.2-2.9.4 2.9c.2 1.6-.1 3.3-.7 3.9-.6.6-1.1.7-1.1.1 0-.5-2.7-1.1-5.9-1.2-4.5-.2-7 .2-10.1 1.8-2.3 1.2-4.3 2-4.4 1.8-.1-.2-.8-2.1-1.5-4.3-.7-2.2-1.5-4.6-1.8-5.3-.2-.7 1.2-.2 3.3 1 2.8 1.7 5.4 2.3 10 2.3zM139 96c1.4 1.1 2.1 2 1.7 2-.5 0-2-.9-3.4-2s-2.2-2-1.7-2c.5 0 2 .9 3.4 2z"/><path d="M114.6 74.6c-1.4 1.4-1.4 1.8 0 4.5.8 1.7 3.3 3.9 5.9 5.1 3.9 1.9 4.9 2 8.3 1 5.1-1.6 5.8-3.5 2.4-6.7-3.9-3.6-5.3-3.3-3.2.6.9 1.7.7 1.9-1.6 1.9-1.5 0-4.3-1-6.3-2.3l-3.6-2.2 2.8-.3c1.5-.2 2.7-.9 2.7-1.8 0-1.9-5.4-1.8-7.4.2zM190.4 24.5c-.9 2.5-2.9 5.5-4.4 6.5-1.8 1.3-4.2 5.3-7 11.7-2.4 5.4-6.2 12.5-8.5 15.8-2.4 3.3-7.2 11.8-10.9 19-3.6 7.1-8.5 16.1-10.9 20-2.5 3.8-6.8 11.4-9.6 16.9-4.1 7.6-5 10.1-4 11 .9.8 1 .8.5-.2-.4-.6-.2-1.2.3-1.2.6 0 1.1.7 1.1 1.5s.6 1.2 1.4.9c1.1-.4 1.2-1.2.5-3.4-.8-2.1-.7-3.6.6-5.9 1.4-2.7 1.8-2.9 3.5-1.9 2.7 1.7 2.5 2.8-.2 2.5-2.4-.2-2.4-.1-1.9 6.5.1 2.2 2.4 2.3 4.1.3.7-.8 1.6-1.3 2-1 .5.3 1.5-.2 2.4-1 .8-.8 1.7-1.1 2-.6.3.5 1.5.7 2.6.4 1.1-.3 1.7-.9 1.4-1.4-.8-1.3 1-1.1 2.3.2 1.7 1.7 6.1-1.4 6.9-4.6.9-3.4-.1-5.3-3.3-6.7-1.5-.7-4.3-2.5-6.1-4-1.8-1.5-3.9-2.8-4.7-2.8-2.8 0-2.5-2.1 1-7.4 1.9-3 6.4-11.2 9.9-18.2 3.5-7.1 7.9-14.7 9.6-16.9 1.8-2.2 4.3-6.1 5.6-8.8 1.3-2.6 2.9-4.7 3.4-4.7 1.5 0 1.2 1-1.5 4.1-3 3.6-3.9 8.3-3 15.2.5 4.4 1.2 5.6 4.2 7.9 2 1.6 4.6 2.8 5.8 2.8 1.3 0 3.6.3 5.2.6 2.2.4 4-.2 8.2-3 2.9-2 5.4-3.6 5.6-3.6.1 0 1.4 1.7 2.8 3.9l2.6 3.9-2.9.6c-1.6.3-4.7 2.2-6.9 4.1l-4 3.7-.7-2.7c-.7-2.8-5.6-5.7-8.1-4.8-2.5 1-.8 8.3 1.9 8.3.9 0 .9-.3 0-1.2-.7-.7-1.2-2-1.2-3.1 0-1.7.2-1.7 2.9.5 3.5 2.7 3.7 3.5 1.4 4.2-1 .3-.5.4 1 .2 2.7-.3 2.8-.3 2.2 3.8-1 7.1.5 11.7 5.4 15.3 5.6 4.3 12.3 4.6 17.9.8 2.7-1.8 3.8-2.1 4.4-1.2.5.8 3.5 1.2 8.6 1.2h7.9l-1-3.5c-6.5-24.3-29.4-57-48-68.8-2.7-1.7-4.3-3.3-3.7-3.7 1.1-.7 7-10.5 7-11.8 0-.4-.4-.7-.9-.7s-1.7 2-2.7 4.5zm9 29.1c.3.8.1 1.4-.5 1.4-1.2 0-4.8-4-4.9-5.3 0-1.2 4.8 2.2 5.4 3.9zm-8.9-1.6c.3.5.2 1-.4 1-.5 0-1.3-.5-1.6-1-.3-.6-.2-1 .4-1 .5 0 1.3.4 1.6 1zm-8 1c.3.5-.3 1-1.5 1s-1.8-.5-1.5-1c.3-.6 1-1 1.5-1s1.2.4 1.5 1zm11.5.5c0 .8-.4 1.5-1 1.5-.5 0-1-.7-1-1.5s.5-1.5 1-1.5c.6 0 1 .7 1 1.5zm-7.2 3c0 1.4-.4 2.5-.9 2.5-1 0-1.1-1.2-.3-3.4.9-2.2 1.2-2 1.2.9zm-4.4 1.1c-.5 1.9-.4 2.5.5 2 .6-.4 1.1-.2 1.1.3 0 .6-.5 1.1-1.1 1.1-.5 0-.7.4-.4 1 .3.6-.1.7-.9.4-1.1-.4-1.9.2-2.5 1.7l-1 2.4v-2.3c-.1-1.2.4-2.2.9-2.2.7 0 .7-.6 0-1.9-.5-1.1-1-2.6-.9-3.3 0-.7.4-.4.8.7.8 1.9.8 1.9 2-.3 1.6-3 2.3-2.8 1.5.4zm9.4-.8c.2.7-.6 1.2-1.7 1.2-2.1 0-2.7-1.1-1.4-2.4.9-.9 2.6-.2 3.1 1.2zm4.2.7c0 .8-.4 1.5-.9 1.5s-1.1-.7-1.5-1.5c-.3-.9 0-1.5.9-1.5.8 0 1.5.7 1.5 1.5zm6 2.4c0 1.7-2 2.3-3.5 1.1-.8-.7-1.5-.9-1.5-.5s.8 1.4 1.7 2.1c1 .7 1.5 1.6 1.1 2-.4.4-1.5.1-2.4-.7-1.3-1.1-1.8-1.1-2.1-.2-.5 1.4-2.3 1.8-2.3.5 0-.5 1.4-2.5 3.2-4.4 2.6-3 3.4-3.4 4.5-2.3.7.8 1.3 1.8 1.3 2.4zm-12 .6c1.1 1.3.9 1.5-1.1 1.3-2.2-.3-2.4 0-2.1 3.9.3 4.6-1.2 5.8-2.2 1.8-.4-1.6-1.1-2.2-2.1-1.9-.8.4-1.5.1-1.5-.5s.5-1 1.1-.9c.6.2 1.6-.6 2.2-1.7 2.2-3.7 3.8-4.3 5.7-2zm2 4.1c0 .3-.6 1.2-1.4 2-.8.8-1.7 1.4-2 1.4-1.2 0-.6-2.8.7-3.3 1.7-.8 2.7-.8 2.7-.1zm11.4 1.5c-.3.5-.9.7-1.4.4-.4-.3-1 .1-1.3.7-.2.7-.8 1-1.2.6-1-1 1.8-3.6 3.2-3.1.7.3 1 .9.7 1.4zm-5.9 1c1.1 1.6.1 1.9-1.3.3-.7-.8-.8-1.4-.3-1.4s1.3.5 1.6 1.1zM182.8 69c.3.8.1 1.2-.3.8-.5-.4-1.4-.3-2.1.3-1.4 1.2-2.9-.5-1.9-2.2.9-1.4 3.7-.7 4.3 1.1zm11.9.6c1.9 2 2.2 2.9 1.2 3.5-1.3.8-3-.9-4.2-4.4-.9-2.4.2-2.1 3 .9zm6.3-.2c0 .3-.4.8-1 1.1-.5.3-1 .1-1-.4 0-.6.5-1.1 1-1.1.6 0 1 .2 1 .4zM188 74c0 .5-.2 1-.4 1-.3 0-.8-.5-1.1-1-.3-.6-.1-1 .4-1 .6 0 1.1.4 1.1 1zm5 0c0 .5-.6 1-1.4 1-.8 0-1.8-.5-2.1-1-.3-.6.3-1 1.4-1 1.2 0 2.1.4 2.1 1zm14.5 9c.3.5.1 1-.4 1-.6 0-1.1-.5-1.1-1 0-.6.2-1 .4-1 .3 0 .8.4 1.1 1zm10.6 2.1c1.1 1.1 1.8 2.3 1.5 2.6-.3.3-1.8-.6-3.2-2-1.5-1.5-2.2-2.7-1.5-2.7.6 0 2 .9 3.2 2.1zm-5.2.4c1.7 0 2.8 2.5 1.2 2.5-.6 0-1.1-.5-1.1-1 0-.6-.3-.9-.7-.9-1.9.3-3.3-.2-3.3-1.2 0-.6.5-.7 1.3-.2.6.4 1.8.8 2.6.8zm-10.4.5c.3.5-.1 1-1 1s-1.3-.5-1-1c.3-.6.8-1 1-1 .2 0 .7.4 1 1zm5 2c.3.5.1 1-.4 1-.6 0-1.1-.5-1.1-1 0-.6.2-1 .4-1 .3 0 .8.4 1.1 1zm4.5 2c0 1.3-.5 1.8-1.5 1.4-.8-.4-1.5-1.2-1.5-2s.7-1.4 1.5-1.4 1.5.9 1.5 2zm-10.7.7c.3-.9 1.2-1.7 1.9-1.7.9 0 .9.3 0 1.2-1.6 1.6-1.5 2.8.3 2.8.8 0 1.5.6 1.6 1.2 0 1 .2 1 .6 0 .7-1.8 5.3-1.5 5.3.4 0 1.3-.3 1.4-1.5.4-2-1.6-3.7-.3-2.9 2.3.9 3.1 1.1 3.1 3 1.3.9-.9 1.9-1.5 2.2-1.2.8.8-1.9 3.6-3.5 3.6-.8 0-1.1.4-.8 1 .3.5.1 1-.5 1-1.2 0-3.2-4.6-2.8-6.4.3-1.2-.4-1.6-2.7-1.6-1 0-1.5 1-1.5 2.7 0 2-.3 2.4-1.1 1.6-.8-.8-.8-1.7 0-3.2.6-1.1.9-3.3.6-4.8-.4-2.1-.3-2.3.3-.9.8 1.8.9 1.8 1.5.3zm15.2-.6c1.2 1.9-.5 2.3-2.2.6-1.6-1.6-1.6-1.7-.1-1.7.9 0 2 .5 2.3 1.1zm5.8 4c-.8.8-1.7.8-3.2 0-1.2-.7-2.1-.8-2.1-.2 0 .5.7 1.1 1.5 1.5.8.3 1.5 1 1.5 1.6 0 .7-.6.8-1.8.1-1.3-.7-2.3-.6-3 .1-.9.9-1.2.8-1.2-.5 0-.9.3-1.7.8-1.7.4 0 1.6-1.3 2.7-3 2-2.9 2-2.9 4-1 1.4 1.4 1.6 2.3.8 3.1zM208 91c0 .5-.7 1-1.5 1s-1.5-.5-1.5-1c0-.6.7-1 1.5-1s1.5.4 1.5 1zm16 8c0 .5-.7.7-1.5.4-.8-.4-1.5-.1-1.5.7 0 .7-.3 1-.6.6-.9-.9.5-2.7 2.2-2.7.8 0 1.4.4 1.4 1zm-5.6 1.5c.3.8.1 1.5-.4 1.5-.6 0-1-.5-1-1.1 0-.5-.5-.7-1.2-.3-.7.4-.8.3-.4-.4 1-1.6 2.3-1.5 3 .3zm-15.4 1.6c0 .6-.4.7-1 .4-.5-.3-1-.1-1 .4 0 .6-.4 1.1-1 1.1-1.4 0-1.2-2.7.3-3.3 1.5-.5 2.7.1 2.7 1.4zm11.6.4c.4.8 1.2 1.5 2 1.5 2.3 0 1.6 1.4-1.3 2.7-3.1 1.5-8.3 1.7-8.3.4 0-.4 1.5-.9 3.3-.9 5 0 5.3-.2 3.3-1.7-1.1-.8-1.6-1.5-1-1.5.5 0 .2-.5-.6-1-1.3-.8-1.2-1 .3-1 1 0 2 .7 2.3 1.5zm6.4.5c0 .5-.5 1-1.1 1-.5 0-.7-.5-.4-1 .3-.6.8-1 1.1-1 .2 0 .4.4.4 1zm-68 6c.6 1.1.8 2 .4 2-.7 0-5.4-4.8-5.4-5.6 0-1.1 4 1.8 5 3.6zm53-2.6c0 1.1-1.9 1.5-2.5.6-.3-.5.1-1 .9-1 .9 0 1.6.2 1.6.4zm-57.5 2.5c.3.5.1 1.2-.5 1.6-.5.3-1 .2-1-.4 0-.5-.8-1.2-1.7-1.4-1.4-.4-1.3-.5.4-.6 1.2 0 2.4.3 2.8.8zm13.3 2.7c1.2.8 2.2 2.1 2.1 2.7 0 .9-.2.9-.6 0-.3-.8-1.4-1.1-2.7-.7-1.5.3-2.8-.2-4-1.5-1.9-2.1-1.9-2.1.5-2.1 1.4 0 3.5.7 4.7 1.6zm-15.8.9c0 .8-.6 1.5-1.4 1.5-1.7 0-2.8-1.4-1.9-2.4 1.2-1.2 3.3-.6 3.3.9zm4.3 1.3c-.4 1.6.3 1.5 2.3-.5 1.6-1.6 1.6-1.6 1 .5-.5 1.3-.3 2.2.3 2.2s1.1-.6 1.1-1.3c0-.8.3-.7 1 .3 1.2 1.9-.8 3.2-3.1 2-1.2-.7-1.9-.3-2.9 1.8-1.2 2.3-1.4 2.4-1.8.8-.2-1 .2-2.2.9-2.7 1-.6.9-1.2-.6-3-2-2.1-2-2.1 0-1.7 1.1.2 1.9 1 1.8 1.6zm3.5 6c.2.7-.2 1-1.2.6-.9-.3-1.6-1.1-1.6-1.6 0-1.3 2.3-.5 2.8 1zm-7.8.8c0 .3-.7 1.2-1.5 2.1-2 1.9-3.2.9-1.5-1.2 1.2-1.5 3-2 3-.9z"/><path d="M199 59c0 .5.5 1 1.1 1 .5 0 .7-.5.4-1-.3-.6-.8-1-1.1-1-.2 0-.4.4-.4 1zM219 92c0 .5.5 1 1 1 .6 0 1-.5 1-1 0-.6-.4-1-1-1-.5 0-1 .4-1 1zM77 30.7C54.7 43.9 28.9 74.4 22.9 94.5l-1.2 4.1-5.1-1.8C11 94.9 8 94.5 8 95.9c0 .4 2 1.1 4.5 1.4 2.5.4 5.8 1.6 7.3 2.6 1.7 1.3 6.8 2.8 13.7 4 6.1 1 12.8 2.6 15 3.6 5.9 2.5 8.6 3.3 23.5 6.5 7.4 1.6 15.5 3.6 18 4.5 9.7 3.4 32 8.6 32 7.4 0-.4-.6-.9-1.4-1.2-.9-.4-1.2-1.4-.9-2.8.6-2 .5-2.1-.9-.8-.9.7-1.4 1.7-1.1 2.1.2.5-.3.8-1.2.8-1.2 0-1.4-.4-.5-1.9.8-1.6.6-2.2-.6-2.9-1.3-.7-1.4-1.3-.5-3.1.7-1.1.8-2.1.4-2.1s-1.5 1.5-2.3 3.3c-1.2 2.5-2.2 3.2-4.5 3.4-3.9.2-14.5-1.8-14.5-2.7 0-.6-2.7-1.9-5.2-2.4-1.3-.2-2.1-1.7-2.9-5.3l-.8-3.8.3 4.3.4 4.3-4.1-.6c-2.3-.4-4.6-1.1-5.1-1.5-1-1 .2-3.2 1.4-2.5.5.3 1.1-.4 1.5-1.4.3-1.2 1.2-1.8 2-1.5 2.6 1 4.2-5.9 1.7-7.5-1.1-.7-1.1-.9.1-1.4 2.3-.9.7-7.3-1.7-6.9-1 .2-1.5-.1-1.2-.6.3-.5-1.2-2.8-3.4-5.1-4.7-5-7.2-12.2-6-17.5.4-2 .4-3.6 0-3.6-2.6 0-1.8 12.6 1.2 17.8 2.3 4.2 2.3 6.2-.1 6.2-1.5 0-1.9-1-2.4-5.2-.4-3.2-1.4-6-2.6-7.2-2-1.9-2-1.9-.6 2 1.9 5.4 1.9 11.4 0 11.4-.8 0-1.5.4-1.5 1 0 .5.4 1 .8 1 .5 0 1.8 1.3 3 2.9l2.1 2.9-3.2-.3c-1.8-.2-3.1-.8-2.9-1.4.1-.6-.3-1.1-.9-1.1-.6 0-.9-.9-.6-2 .3-1.1.2-2-.2-2-1.7 0-1.9 1.4-.5 4.6 1.1 2.5 1.2 4 .4 5.4-1.3 2.4-5 4.6-5 2.9 0-.6-.6-.9-1.4-.6-.8.3-3.2.9-5.3 1.3-3.5.6-3.7.6-2.4-.9 1.2-1.5 1.1-1.7-.5-1.7-2.6-.1-5.8-2.6-4.9-3.9.3-.6-.1-1.1-.9-1.1-.9 0-1.6-.5-1.6-1 0-.6-.7-1-1.5-1-1.2 0-.9.9 1.1 4 1.5 2.2 3.1 4 3.7 4 .6 0 .8.3.4.6-1 1-11.7-1.7-11.7-2.9 0-.7.9-3 1.9-5.2 1-2.2 2.1-5.2 2.4-6.7.4-1.4 1.6-3.7 2.7-5 1.1-1.2 4.1-5.2 6.6-8.7l4.6-6.4 3.5 4.1C57 75.6 59 77 60.6 77c2.7 0 3.1-1.2.9-3-.8-.7-1.5-2-1.5-3s-.7-2.3-1.5-3c-.8-.7-1.2-1.7-.8-2.3.3-.5.1-.7-.5-.3-.6.3-1.3.3-1.6-.2-.3-.5 1.9-3.3 4.9-6.2 3.4-3.3 5.5-4.8 5.5-3.9 0 2.1 3.2 4.9 5.7 4.9 1.1 0 2.8-.9 3.7-1.9 2.2-2.5 1.3-5.6-2-7.4l-2.5-1.3 6.2-4.2c3.4-2.3 6.6-4.2 7.1-4.2s.4-1-.3-2.1c-.6-1.2-1.4-4.1-1.8-6.5l-.6-4.4-4.5 2.7zM57.5 70c1 1.1 1.6 2 1.3 2-.3 0-1.3-.9-2.3-2-1-1.1-1.6-2-1.3-2 .3 0 1.3.9 2.3 2zm13 31.4c-1.4 1-2.5 1.1-3.7.5-2.7-1.4-2.2-1.9 1.9-1.9 3.4 0 3.5.1 1.8 1.4zm4.8 1.3c-.7.2-1.9.2-2.5 0-.7-.3-.2-.5 1.2-.5s1.9.2 1.3.5zm-6.5 1.5c.5.7 1.3 2.8 1.7 4.6.6 3 .5 3.3-1.1 2.9-1.1-.3-5.3-1.3-9.4-2.3l-7.4-1.7 4.6-1.4c2.6-.7 5-1.8 5.3-2.3.9-1.4 5.1-1.2 6.3.2zM75 106c0 .5-.5 1-1.1 1-.5 0-.7-.5-.4-1 .3-.6.8-1 1.1-1 .2 0 .4.4.4 1zm40.3 15.7c-.6 1.4-4.3 1.8-4.3.5 0-1.4 1.1-2.1 3-1.9 1 .1 1.6.7 1.3 1.4z"/><path d="M82 58c0 1.6.4 1.8 2.3 1.1 2.2-.8 4.8-.4 5.7.9.9 1.3 5 2.2 5 1.1 0-1.5-7.4-5.1-10.5-5.1-1.8 0-2.5.5-2.5 2zM76.2 59c-1.3 1.1-2.1 2.4-1.8 2.9.4.5 1.8-.1 3.1-1.3 4-3.8 2.9-5.1-1.3-1.6zM61.8 63.2c.5.5 1.6.8 2.3.6.8-.3.3-.7-1-1.1-1.7-.4-2.1-.3-1.3.5zM62.3 66.5c0 .8.4 1.2.9.9.5-.3.6-1 .3-1.5-.9-1.3-1.2-1.1-1.2.6zM170.3 67c-2.8 1.1-5.7 5.5-4.9 7.5.8 2.1 6 1.9 8-.4 1-1.1 1.6-2.9 1.3-4.3-.4-2.1-.4-2-.6.5-.1 1.9-.9 3.1-2.6 3.9-3.4 1.5-4.3.3-1.9-2.5 5.1-5.8 5.2-6.5.7-4.7zM84.2 68.9c-1.1.6-.9.9.6 1.3 1.1.3 2.6 1.6 3.3 2.9 1.1 2.2 1.1 2.3-.4 1.1-2.4-2-4.1-1-4.3 2.5-.1 2.5.2 3 1.5 2.5 1.4-.5 1.4-.3.2 1.1-1.5 1.8-.5 2.2 1.8.8 1.2-.8 1.2-1.2.2-2.5-.9-1.1-1-1.6-.2-1.6.6 0 1.1.4 1.1.9s.6 1.1 1.3 1.4c1 .4 1.3-.2.9-1.9-.4-2.1 0-2.4 2.4-2.5 2.5-.1 2.6-.2.7-.7-1.2-.4-3.1-1.9-4.3-3.5-2.3-2.9-2.8-3.1-4.8-1.8zM49 79.5c-1.7 2-.1 12.7 2 13.3 1.2.4 1.3.2.3-.9-1.8-1.8-1.6-4 .2-3.3 2.3.9 6.5-2.3 6.5-5 0-4.5-6.3-7.4-9-4.1zm7 5.5c0 .5-.2 1-.4 1-.3 0-.8-.5-1.1-1-.3-.6-.1-1 .4-1 .6 0 1.1.4 1.1 1zM163.3 81c-5.4 3.2-8 10.4-6.7 18.5.5 3.9 1.3 5.1 4.6 7.5 2.2 1.7 5.8 3.1 8.6 3.5 9.2 1.2 18.1-6.7 18.2-16.1 0-4.4-5.3-12.2-9.5-14-4.8-2-11.4-1.8-15.2.6zm16.7 5c.6 1.1.8 2 .4 2-.7 0-5.4-4.8-5.4-5.6 0-1.1 4 1.8 5 3.6zm-4.5.1c1.1 1.7-1.2 1.7-3.5-.1l-2.4-1.8 2.7.5c1.5.3 3 .9 3.2 1.4zm-12-.1c.3.5-.3 1-1.5 1s-1.8-.5-1.5-1c.3-.6 1-1 1.5-1s1.2.4 1.5 1zm4.1 5.8c-1.1 1-1.5-.4-.8-2.8l.7-2.5.3 2.3c.2 1.3.1 2.6-.2 3zm-6.6-2.3c0 .8-.4 1.5-1 1.5-.5 0-.7-.7-.4-1.5.4-.8.8-1.5 1-1.5.2 0 .4.7.4 1.5zm2.4 1.1c-.5 1.8-.3 2.5.4 2 .6-.3 1.3-.2 1.7.4.4.6 1.3.7 2.3.1 1.9-.9 4.2-.4 4.2 1 0 .5-1 .8-2.2.6-2.1-.2-2.3.2-2 4.3.2 3.6.1 4.3-.9 3.2-.7-.6-1.3-2.8-1.3-4.7 0-2.3-.5-3.5-1.4-3.5-.7 0-1 .5-.7 1.1.4.6-.1.5-1.2-.2-1.8-1.1-1.9-1.4-.6-4 1.8-3.6 2.5-3.7 1.7-.3zm9.6-1.1c0 .8-.6 1.5-1.4 1.5-1.7 0-2.8-1.4-1.9-2.4 1.2-1.2 3.3-.6 3.3.9zm4.3 1.3c-.4 1.6.3 1.5 2.3-.5 1.6-1.6 1.6-1.6 1 .5-.5 1.3-.3 2.2.3 2.2s1.1-.6 1.1-1.3c0-.8.3-.7 1 .3 1.2 1.9-.8 3.2-3.1 2-1.2-.7-1.9-.3-2.9 1.8-1.2 2.3-1.4 2.4-1.8.8-.2-1 .2-2.2.9-2.7 1-.6.9-1.2-.6-3-2-2.1-2-2.1 0-1.7 1.1.2 1.9 1 1.8 1.6zM160.7 97c-.1 2.2-1.7 2.8-1.7.7 0-1.2.9-2.7 1.6-2.7.2 0 .2.9.1 2zm19.8-.9c1.1 1.7-.1 2.1-1.5.4-.8-.9-.8-1.5-.2-1.5.6 0 1.4.5 1.7 1.1zm-17 1.9c.3.5.1 1-.4 1-.6 0-1.1-.5-1.1-1 0-.6.2-1 .4-1 .3 0 .8.4 1.1 1zm9.5-.4c0 .3-.7 1.2-1.5 2.1-2 1.9-3.2.9-1.5-1.2 1.2-1.5 3-2 3-.9zm11.5.4c.3.5-.1 1-.9 1-.9 0-1.6.8-1.6 1.9 0 1.1-.4 2.2-.9 2.6-1.3.7-.9-3.7.4-5.2 1.2-1.5 2.2-1.6 3-.3zm-5.1 3.9c-.6.6-2.4-1.9-2.4-3.4.1-.6.7-.1 1.5.9.8 1.1 1.2 2.2.9 2.5zm-15.7-.4c.2.6-.6 1.1-1.7 1.2-1.2.1-2-.4-2-1.3 0-1.7 3.1-1.6 3.7.1zm13.9 2.5c2.1 0 1.7 1.7-.6 2.3-1.1.3-1.8.2-1.5-.3.3-.4-.2-1.3-1-2s-1.5-2-1.4-2.9c0-1.2.4-1.1 1.6.6.8 1.3 2.2 2.3 2.9 2.3zm-3.6 3c0 .5-.6 1-1.4 1-.8 0-1.8-.5-2.1-1-.3-.6.3-1 1.4-1 1.2 0 2.1.4 2.1 1zM92.2 83.4c.2.7 3 3.6 6.2 6.4 4.9 4.2 6.3 4.9 7.9 4.1 1.7-1 1.7-1.2.3-2.8-.9-1-1.6-2.3-1.6-2.9 0-.7-1.8-2.3-4-3.7-4.4-2.7-9.4-3.4-8.8-1.1zM85.3 86.7c-1.7.6-1.6 3.3.1 3.3.7 0 2.1 1.2 3.1 2.6 1.4 2.2 1.5 2.8.4 3.5-.8.5-1.7.9-2.2.9-.4 0-.2.9.5 2 1.5 2.3 4 2.7 3.2.5-.4-1 0-1.5 1.1-1.5 1.2 0 1.5-.5 1.1-1.6-.5-1.3-.1-1.4 2.2-1 1.6.4 3.5.1 4.6-.7 1.7-1.3 1.4-1.7-4.7-5-6.6-3.7-7.2-3.9-9.4-3zm6.8 5.1c-.7.2-1.8-.1-2.3-.6-.8-.8-.4-.9 1.3-.5 1.3.4 1.8.8 1 1.1zM97.2 98.2c-2.1 2.1-1.4 6.6 1.2 8.3 2.1 1.4 2.8 1.4 4.8.4 1.3-.7 2.7-1.2 3.2-1.1 1.3.4-.3-5.1-2.1-7.1-1.9-2-5.4-2.2-7.1-.5zM99 101c0 .5-.4 1-1 1-.5 0-1-.5-1-1 0-.6.5-1 1-1 .6 0 1 .4 1 1z"/><path d="M92 100.6c0 .8.5 1.2 1 .9.6-.4.8-1.1.5-1.6-.9-1.4-1.5-1.1-1.5.7zM17.7 106.7c-5.1 18.1 3.8 63.9 15.9 82.3l3.6 5.5-2.3 1.5c-4.2 2.8-7.9 6.2-7.9 7.3 0 .6 1.5-.4 3.3-2.1 1.9-1.8 4.9-3.7 6.8-4.2 2-.6 6.7-4 11.4-8.3 4.4-4.1 10.7-9.1 14-11.2 7.1-4.6 27.7-21.6 27-22.3-.3-.3-2.2.8-4.3 2.4-5.9 4.8-6 4.8-5.1.1.9-5 .3-8.3-1.7-9.1-2-.8-2.8 1.8-1.5 4.3 1.4 2.5 1.4 3.1.1 3.1-.5 0-1-.7-1-1.5s-.5-1.5-1.1-1.5c-.8 0-.9 1.5-.4 4.6.4 3.2.3 4.4-.4 3.9-.6-.3-1.1-1.4-1.1-2.3-.1-2.9-3 1.7-3 4.7 0 1.9-.3 2.2-.9 1.2-.7-1.1-1.1-.9-2.1 1-.7 1.3-2.2 3.4-3.3 4.6l-2 2.2 3.3-.9c5-1.4 4.7-.5-.7 2.6-2.6 1.5-7 4.5-9.7 6.7l-4.9 4.1-2.3-2.8c-1.3-1.5-2.9-2.4-3.5-2.1-.5.4-2.8-.5-5-1.9-3.3-2.3-3.8-2.9-2.9-4.6 1.6-3 1.2-3.8-2.9-6-2.2-1.1-4.2-2.8-4.6-3.9-.8-2.5 1.1-7 4.2-10.3 1.6-1.7 2.3-3.3 1.9-4.5-.5-1.6.1-1.8 4.3-1.9 2.7-.1 5.8-.7 6.9-1.3 1.9-1 1.9-.8 1.2 2.4-.4 1.9-.5 3.7 0 4 1.4.8 2-.8 2-5.4v-4.7l-4 .4c-2.2.2-4 .8-4 1.3s-.7.9-1.5.9c-.9 0-1.2-.6-.9-1.5.4-.9 0-1.5-1-1.5-.9 0-1.6-.5-1.6-1 0-.6-.9-1.9-2.1-3.1-1.5-1.5-1.8-2.4-1-3.2 1.3-1.3 1.5-2.7.4-2.7-1.9.1-3.2 1.8-3.8 4.7-.5 3-.2 3.4 3.7 5.2 2.4 1.1 3.6 2 2.8 2-2.3.1-8-3.7-8.1-5.4-.8-9-1.4-12.3-3-14.1-1-1.3-1.1-1.8-.2-2.1.8-.3.9-1.2.3-2.9-.5-1.3-.6-3.3-.2-4.4.7-1.9.9-1.8 2.5 1 1.6 2.7 2 2.8 3.3 1.5 1.7-1.6 7.8-3 9.3-2 2 1.2 12.3 3.5 13.2 2.9.5-.3.9 0 .9.7 0 .8 1 .9 3 .5s2.9-.2 2.5.4c-.7 1.1 3.6.7 5.5-.5 1.4-.9 1.3.8-.2 2.4-1.3 1.4-.5 1.3 6.2-.4l2.5-.6-2.4 1.4c-1.5.9-2 1.7-1.2 2.1 1.2.8 4.1-1.6 4.1-3.4 0-.8-1.1-1.1-3-.8-1.9.3-3.1 0-3.5-1-.3-.8-1.2-1.2-2.2-.8-.9.4-1.9.2-2.3-.4-.4-.7-1.7-.7-3.9.1-2.6.9-3.5.9-4.1 0-.4-.7-1.3-1.1-2.1-1-.8.1-3.6-.8-6.4-2.1-5.3-2.4-8.3-2.8-12.8-1.6-2.5.6-2.8.4-2.5-1.4.2-1.7-.6-2.5-4.7-3.9-2.7-1-5.7-2.1-6.7-2.5-1.1-.5-1.8-.2-2.1 1.1zm7.7 20.8c.3.8.1 1.5-.4 1.5-.6 0-1-.7-1-1.5s.2-1.5.4-1.5.6.7 1 1.5zm.6 4.6c0 .6-.4.7-1 .4-.5-.3-1-1.1-1-1.6 0-.6.5-.7 1-.4.6.3 1 1.1 1 1.6zm51.1 27.6c-1.2 2-1.4 1.4-.5-1.2.4-.9.9-1.4 1.1-1.1.3.2 0 1.3-.6 2.3zm-3.9 6.5c-.6.6-1.5.8-1.9.4-.4-.4-.1-1.1.7-1.6 1.9-1.2 2.7-.3 1.2 1.2zM190 106.1c-4 1.6-5.4 5.2-2.4 6.3.9.3 3 0 4.6-.9 2.8-1.4 3.1-1.3 4.8.8 1.7 2 1.9 2 2.5.5.4-.9-.1-3-1.1-4.7-1.9-3.3-4-3.7-8.4-2zm6.6 2.1c.5.7.2.9-.8.5-.9-.3-2-.1-2.5.4s-2.3 1.2-3.9 1.4l-2.9.5 2.4-2c2.6-2.2 6.6-2.6 7.7-.8zM134.2 109.2c.6 1.8 2.8 2.1 2.8.4 0-.9-.7-1.6-1.6-1.6-.9 0-1.4.5-1.2 1.2zM116.1 111.6c0 1.1.3 1.4.6.6.3-.7.2-1.6-.1-1.9-.3-.4-.6.2-.5 1.3zM248.5 111c-1.1.5-4 .6-6.5.4-3.2-.4-7 .3-13 2.1-4.7 1.4-12.4 3-17.1 3.5-4.7.5-14.1 2.3-21 3.9-6.8 1.6-16.9 3.7-22.4 4.6-17.9 2.9-32.6 6.7-31.3 8 .2.2 3.6-.5 7.6-1.5 3.9-1 9.1-2.2 11.4-2.5 2.4-.3 5.9-1 7.8-1.5 1.9-.4 5.8-1.1 8.5-1.5 2.8-.3 11.4-2.2 19.2-4.1 7.8-1.9 16.3-3.4 19-3.4 2.6 0 7.1-.6 10-1.4 5-1.3 5.1-1.3 5.7.8.3 1.1.6 3.2.6 4.5 0 1.3.8 3 1.8 3.7 1.4 1 1.7 2.8 1.7 9.1 0 7.5-.2 8.3-5.7 19.3-3.2 6.4-5.8 11.9-5.8 12.4 0 1.7-5.5 13.2-8.7 18.3L207 191l5.1 4.7c2.8 2.7 5.6 4.8 6.2 4.8 1.7 0 9.4-13.1 12.7-21.7 7.7-20 11.5-39.7 10.8-55.3l-.6-10.2 5.4-.6c5.9-.6 11-2.7 6.4-2.6-1.4 0-3.4.4-4.5.9z"/><path d="M32.4 117.9c-3.6 2.2-5.4 4.4-2.8 3.4 1.4-.5 1.5-.3.5 1.5-1.5 2.9-.6 2.8 3.1-.3 3.7-3.1 6.2-3.3 5.3-.5-.7 2.2.5 2.6 2.3.8 1.7-1.7 1.5-5.5-.4-6.2-2.7-1-4.8-.7-8 1.3zM169.2 117.2c-2 2-1.4 2.8 2.1 2.8s5.1-.8 5.5-2.8c.3-1.6-6-1.6-7.6 0zM44 119c.8.5 2.4.9 3.5.9h2l-2-.9c-1.1-.5-2.7-.9-3.5-.9-1.3-.1-1.3 0 0 .9zM85.2 123.5c-.6 1.4-.9 3-.7 3.7.2.7-.2 2.2-1 3.2-1.3 1.7-1.8 1.8-4 .8-4.6-2.1-5.1-1.2-.7 1 2.6 1.4 4.1 2.7 3.7 3.5-1.4 3.6-1.6 4.7-.3 2.7.7-1.2 1.9-1.9 2.6-1.7 1.2.5 1.6-.9 1.4-6.2 0-2 .1-2.3.5-1 .8 3 1.9 3.8 4.3 3 1.7-.5 2-1.2 1.5-3.2-.4-1.7 0-3.1 1-4.3 1.5-1.6 1.4-1.8-1.2-2.4-1.5-.4-3.5-.9-4.4-1.2-1-.3-2 .5-2.7 2.1zm3.1 1.5c-.3 1.2-.8 1.9-1.1 1.6-.5-.6.5-3.6 1.2-3.6.2 0 .2.9-.1 2zM215.1 123.6c0 1.1.3 1.4.6.6.3-.7.2-1.6-.1-1.9-.3-.4-.6.2-.5 1.3zM218.4 123.1c-.3.6-.1 1.5.5 2s.9.6.6.3c-.3-.4 0-1.3.6-2.1.8-.9.8-1.3.1-1.3-.6 0-1.4.5-1.8 1.1zM192.5 123.5c-.5.2-2.2.6-3.8.9-7.1 1.6-15.5 13.5-14.3 20.1.6 3.2-.9 8.5-2.5 8.5-.4 0-1.8-2.5-3-5.6-1.3-3.1-2.5-5.1-2.7-4.6-.2.6 1.3 4.3 3.3 8.2 2 4 3.4 7.4 3.2 7.7-1.2 1.1-8.8-4-13-8.7-3.9-4.3-5.5-7.4-8.4-16-.3-.9-.7-1.1-1-.4-.2.6.6 3.8 1.8 7 2.7 7.3 14.5 20.1 18.4 20.1 1.5 0 4.6 1.9 7.7 4.5 11.3 9.6 17 11.1 23 6 1.8-1.6 5.3-3.4 7.8-4.1 6.7-1.9 12.8-7.3 14.2-12.6.7-2.4 1.6-4.1 2.1-3.8 2 1.2-.1-7.5-2.8-11.5-2.8-4.3-10.6-10.2-13.4-10.2-.9 0-3.6-1.4-6-3-3.9-2.7-7.6-3.5-10.6-2.5zm8.2 5.7c.4.7.7 2.9.8 4.8 0 3 .4 3.5 2.6 3.8 1.4.2 3.1-.4 3.9-1.2 1.6-2 3.4-2 6.6 0 7.2 4.7 7 16.6-.2 22.3-2.9 2.3-5.5 2.4-12.5.6-2.4-.6-2.5-.5-2.1 2.8.3 2.7-.1 3.8-1.9 5.1-3.3 2.2-6 2-10-.9-1.9-1.3-4.4-2.9-5.6-3.4-3.1-1.4-5.5-5.5-5.1-8.8.2-2.4 1-3 5-4.4 6.5-2.1 6.7-2.6 1.6-3.6-4.5-.9-5.5-2.4-4.4-6.9.8-2.9 6.3-9.3 9-10.4 3.3-1.3 11.4-1.2 12.3.2z"/><path d="M191.5 132.1c-.4.6-.5 1.2-.2 1.5.2.3.7-.2 1-1.1.7-1.7.1-2-.8-.4zM190 144.8c.6 1.3 1.4 2.1 1.8 1.8.3-.4-.2-1.4-1.2-2.4-1.8-1.6-1.8-1.6-.6.6zM201.5 145c-.3.6.1.7.9.4 1.8-.7 2.1-1.4.7-1.4-.6 0-1.3.4-1.6 1zM210 146.7c-7 2.6-6.3 11.3.9 11.3 5.6 0 8.3-7.3 3.9-10.4-2.4-1.7-2.5-1.7-4.8-.9zm3.5 2.3c-.3.5-1 1-1.6 1-.5 0-.9-.5-.9-1 0-.6.7-1 1.6-1 .8 0 1.2.4.9 1zM198.5 148c-.3.6.1.7.9.4 1.8-.7 2.1-1.4.7-1.4-.6 0-1.3.4-1.6 1zM202.8 147.7c.7.3 1.6.2 1.9-.1.4-.3-.2-.6-1.3-.5-1.1 0-1.4.3-.6.6zM193.3 153.2c-3.1 4-2.7 5 .5 1.3 1.2-1.4 1.8-2.5 1.3-2.5s-1.3.6-1.8 1.2zM76 125c1.3.8 1.3 1 .1 1-1.9 0-.5 1.3 3.3 2.8l2.8 1.3-3-3.1c-1.7-1.6-3.4-3-3.9-3-.4 0-.1.5.7 1zM66.1 125.3c.2.2 2 1.4 3.9 2.6l3.5 2.3-2.8-2.6c-1.5-1.4-3.3-2.6-3.9-2.6-.6 0-.9.1-.7.3zM110.9 126.2c-.1.2-.3 3.1-.4 6.5-.3 6.5.5 7.8 2.7 4.3.7-1.1 1.7-2 2.2-2 .5 0 1.8-.7 2.7-1.6 1.4-1.3 1.6-2.1.8-3.5-1.5-2.8-2.7-2.3-3.2 1.3l-.4 3.3-.1-3.6c-.1-2.3-.8-3.9-1.8-4.3-1.7-.7-2.3-.7-2.5-.4zM31.8 128.7c-1.9.5-2.5 2.3-.9 2.3 1.7 0 4.1-1.2 4.1-2.1 0-.9-.4-1-3.2-.2zM95.1 130.7c.2 1 0 2.4-.5 3.2-1.7 2.6 3.3 4.1 5.4 1.6 1.4-1.6.6-6.5-1.1-6.5-.6 0-.7.5-.3 1.1.4.7-.1.7-1.6-.1-1.9-1-2.1-.9-1.9.7zM60.1 133.3c-.6.6-1.1 2.2-1.1 3.5 0 1.8.4 2.2 1.9 1.7 1.1-.3 2.2-.1 2.6.5 1.1 1.7 3.2 1.1 3.8-1.2.4-1.2.2-2.7-.4-3.4-1.4-1.7-5.6-2.3-6.8-1.1zm3.6 1.3c-.3.3-1.2.4-1.9.1-.8-.3-.5-.6.6-.6 1.1-.1 1.7.2 1.3.5zM41.8 134.1c-1 .5-1.8 1.7-1.8 2.5s.4 1.3.9 1c.5-.4.7.3.4 1.4-.6 2.3-.1 2.5 2.8.7 1.7-1 2.3-.9 2.6.1.8 2.1 2.3.3 2.3-2.8 0-3.7-3.4-5.1-7.2-2.9zM146.7 134.7c-1.1 1.1-.8 2.3.6 2.3.8 0 1.4-.7 1.4-1.5 0-1.6-.9-1.9-2-.8zM79.6 136.5c-.9 2.6-.7 3.2.5 1.2.6-1 .9-2.1.6-2.3-.2-.3-.7.2-1.1 1.1zM125 138.8c0 3.8-.2 4.2-2.4 4.2-1.4 0-2.8-.5-3.1-1-.8-1.3-2.5-1.3-2.5.1 0 .5.4.8.9.4.5-.3 1.2-.1 1.6.5.3.5-.1 1-.9 1-.9 0-1.6.4-1.6.9s1.2.8 2.7.6c5.3-.6 5.1-1.5 4.7 30.3-.2 16.3-.7 34.1-1 39.5l-.7 9.9-4.6-.7c-2.5-.3-7.2-1.3-10.4-2.2l-5.8-1.6 3.3-2.8c4.3-3.7 3.2-3.6-4.4.2-5.3 2.7-6.7 3-11.2 2.4-6.5-.9-12.4-3.9-13.8-7-.6-1.4-1.9-2.5-2.8-2.5-2.4 0-4.3-2.5-4.3-5.5.1-1.4-.3-2.5-.7-2.5-.4 0-3.7-2.7-7.3-6.1l-6.7-6.1-4.5 3.1c-2.5 1.7-5.2 3.1-6 3.1-3.7 0-2.4 2.7 3.9 8.8 16.4 15.4 46.3 30.4 66.9 33.3l8.4 1.3-.5 7.3c-.6 9.7 1.4 9.8 2.3 0 .7-8.1.6-4.8 1.8-65.5.7-33.3.6-45.7-.2-46.5-.8-.8-1.1 0-1.1 3.1zM136.6 140.9c3.8 2.6 7.6 5.7 8.4 6.7 1 1.3.7 1.2-1.1-.4-1.6-1.4-3.8-2.2-6.1-2.2-2.9 0-4.1.7-6.2 3.5-1.8 2.3-2.5 4.2-2.1 5.5.3 1 3.5 4.2 7 7 7.2 5.6 11.4 12.2 9.4 14.6-.8 1 .2.8 3.2-.6 2.4-1.1 5.6-2 7.2-2 2.3 0 2.7-.4 2.7-3 0-3.9-3.1-10.2-8.3-16.5-4.4-5.4-3-4.5 6.3 4.1 6.5 5.9 19.2 15.4 20.8 15.4.8 0-2.4-2.8-7-6.2-4.5-3.3-10.9-8.5-14.2-11.5-8.5-7.9-23.5-19.3-25.4-19.3-.8 0 1.6 2.2 5.4 4.9zm-4.3 12.8c.5 2.6.4 2.6-.9.9-.7-1-1.1-2.3-.8-2.7.8-1.4 1.1-1.1 1.7 1.8zm16.4 16.2c2.2 5.3.8 4.7-1.9-.9-1.5-3.1-1.9-4.5-1-3.7.8.6 2.1 2.7 2.9 4.6zM69.1 140.3c-1.8 1.8-1.3 4 .8 3.4 1-.2 2.5-.1 3.2.4 1 .6.8.9-.8.9-1.5 0-2.8 1-3.8 3-2 3.9-1.9 5 .6 5 1.2 0 1.7-.4 1.3-1.1-.4-.8 0-.9 1.5-.4 1.6.5 2.1.2 2.1-1 0-1.1-.5-1.5-1.5-1.1-.8.3-1.5.1-1.5-.4 0-.6.9-1 2-1 2.1 0 4-2.7 3.3-4.8-.8-2.2-5.8-4.3-7.2-2.9z"/><path d="M130.7 140.5c-.4.8-.2 1.7.3 2 .6.4 1 .1 1-.6 0-.8.4-.8 1.5.1 1.2 1 1.5 1 1.5-.3 0-.8-.7-1.8-1.6-2.1-2.1-.8-2.1-.8-2.7.9zM59.4 142.6c.3.9.6 1.8.6 2 0 .2.7.4 1.6.4 1.2 0 1.5.6 1 2.5-1 4.1 2.1 3.1 3.4-1.1 1.4-4.2.5-5.4-4.4-5.4-2.2 0-2.7.4-2.2 1.6zM79 144.2c-1.2 2.2-1.2 2.2.6.6 1-1 1.5-2 1.2-2.4-.4-.3-1.2.5-1.8 1.8zM91.4 145.5c.3.9-.1 1.8-.9 2.1-1.8.7-2 3.4-.2 3.4.7 0 1.9-.6 2.7-1.3 1.2-1 1.2-.9.1.5-1 1.3-1 1.8-.2 1.8.7 0 .9.5.5 1.2s-.3.8.5.4c.6-.4.9-1.1.6-1.6-.3-.5-.1-1.1.5-1.5 1.7-1 1.1-4.4-.9-5.5-2.7-1.4-3.4-1.3-2.7.5zM121 146.9c0 .5.5 1.3 1 1.6.6.3 1 .2 1-.4 0-.5-.4-1.3-1-1.6-.5-.3-1-.2-1 .4zM128.5 148c.3.5.8 1 1.1 1 .2 0 .4-.5.4-1 0-.6-.5-1-1.1-1-.5 0-.7.4-.4 1zM50 150.5c-1.1 2.7 2.5 5.6 6 4.8 3.7-.8 4.8-2.3 1.8-2.3-3.2 0-4.4-1.6-2.8-3.5 1-1.3.8-1.5-1.5-1.3-1.7.2-3 1-3.5 2.3zM117 151.1c0 1.3.4 1.8 1.2 1.3.6-.4.8-.3.5.2-.3.6-.2 1.6.4 2.4.7 1.2.9 1 .9-.7 0-2.8-1-5.3-2.1-5.3-.5 0-.9.9-.9 2.1zM115 153.8c0 .5.6 2.7 1.4 4.8.7 2.2 1.7 6.7 2.1 10.2.8 7.3 2.5 8.3 2.5 1.4 0-5.8-2.4-14.5-4.5-16.2-.8-.7-1.5-.8-1.5-.2zM64 155.1c0 .4 1.5 1 3.3 1.2 2.9.4 3 .5 1 1.2-1.3.4-2.3 1.4-2.3 2.1 0 1.9.6 1.8 3-.8 2.9-3.1 2.5-4.3-1.5-4.4-1.9 0-3.5.3-3.5.7zM94.9 157.3c-1.5 1.2-2.9 3.3-3.2 4.6-.5 2.1-.2 2 3.4-1.5 5.4-5.3 5.2-7.8-.2-3.1zM97.7 162.6c-6.4 7.1-8.9 11.3-4.9 8.3 6.3-4.9 16.1-14.2 15.6-15-1.3-2.2-4.4-.4-10.7 6.7zM121.5 158c-.4 1.6-.3 4 .1 5.2.4 1.3.7 3.6.6 5.3-.1 2.6 0 2.7.8.9.5-1.2.5-3.8 0-6s-.7-4.9-.3-6.2c.3-1.2.3-2.2 0-2.2s-.8 1.3-1.2 3zM57.5 157.1c-.4.6-.5 1.3-.2 1.6.7.7 2.7-.6 2.7-1.8 0-1.2-1.7-1.2-2.5.2zM61.9 160.2c0 1.3-.2 4.3-.4 6.7l-.3 4.3 2-3.3c1.4-2.2 1.7-3.4.9-3.7-.8-.3-.9-.8-.1-1.7 1.1-1.3.4-4.5-1.1-4.5-.5 0-.9 1-1 2.2zM33.2 163.9c0 2.4.3 2.8 1.9 2.4 1.3-.4 1.9 0 1.9 1.1 0 .9.4 1.6.8 1.6 1.5 0 3.2-2.4 3.2-4.6 0-2.3-1.7-3.4-5.4-3.4-1.8 0-2.3.6-2.4 2.9zM133 162.4c0 .8.5 1.8 1.2 2.2.7.4.8.3.4-.4-.9-1.6.7-1.5 2.2 0 .7.7 1.2.8 1.2.2 0-1.4-2.2-3.4-3.7-3.4-.7 0-1.3.6-1.3 1.4zM161.7 166.9c.3 1.2 1 2.1 1.5 2.1 1.3 0 .6-3.2-.9-3.7-.7-.3-.9.3-.6 1.6zM84.3 169.6l-2.8 2.6 3.3-2.2c2.9-2 3.9-3 2.8-3-.3 0-1.8 1.2-3.3 2.6z"/><path d="M115.6 175.9l.7 8.1-2.9.1c-1.6 0-3.8.4-4.9.9-1.7.7-1.5.9 1.2.9 1.7.1 3.5.6 3.9 1.3.5.8.2.9-1.1.5-.9-.4-2.3-.3-3 .3-1.9 1.5-4.8.1-4.2-2.1.7-2.8-.2-2.3-1.3.6-.5 1.4-1.6 2.5-2.4 2.5-1.1 0-1.3-.6-.6-3 .5-1.7.6-3 .3-3s0-.6.6-1.4c.9-1.1.9-1.6 0-2.2-1.5-.9-3.8 2.1-4.6 5.8-.3 1.7-1 2.5-1.8 2.1-1-.3-1.2.2-.8 1.6.3 1.2.9 2.1 1.4 2.1.5 0 .6.7.3 1.5-1 2.5-5.1 1.7-7.6-1.4-1.9-2.4-2.7-2.7-4.6-2-2.3.9-2.3.9 1.2 4 2.7 2.3 4.3 3 6.8 2.7 2.9-.3 3.2 0 3.9 3 .7 3.6 2.9 6.7 2.9 4.2 0-.7.3-1 .7-.7.8.9 3.3-1.2 3.3-2.7 0-.6-.5-.3-1.1.7-1.3 2.3-2.9 1.3-2.9-1.8 0-2.1.4-2.4 2.8-2.2 1.5.2 3.4.6 4.2 1 .8.3 2.4.7 3.5.9 1.7.3 2 1.1 2 4.8 0 2.5-.4 5.6-.8 7-.8 2.4-.7 2.4.7.6.9-1.1 1.6-2.9 1.6-4.1 0-1.2.6-2.7 1.3-3.4 1-1.1 1-1.3 0-.7-.9.5-1.3.1-1.3-1.1 0-2.4 1.6-4.4 5.3-6.7 1.7-1 2.5-2.1 2-2.9-.5-.8-.9-.7-1.1.6-.3 1.3-1 1.6-3 1.1-2.9-.7-6.2-3.2-6.2-4.6 0-.5.6-.8 1.3-.5.6.2 1.1.9 1 1.4-.1.5 1.1 1 2.7 1 3.1 0 4.7-2.4 6-9 .8-4.2.4-4.8-1.1-1.5-.8 2-.9 1.9-.5-.8.3-1.7.1-3.5-.4-4s-1-2.2-1.2-3.8c-.2-1.6-.9-3.1-1.6-3.4-1.1-.3-1.2 1.2-.6 7.7zM134.1 169.4c-.7.8-2.1 1.2-3.3.8-1.8-.4-2-.2-1.6 2.2.3 1.4.2 2.9-.2 3.1-1.1.7.7 9.1 2.5 11.9 1.1 1.7 2.2 2.3 3.3 1.9 1.5-.6 1.5-.5.3 1-.7.9-1.7 1.5-2.1 1.2-1.9-1.2-2 3.7-.2 7.2 1.1 2.1 2.5 5.7 3.1 8 .6 2.3 2.3 5.6 3.8 7.4 3 3.6 3.9 8.9 2.2 13.1-1.6 3.9-6.3 4.2-8.9.6-1.3-2-1.5-1.6-2.7 5.8-.6 4.3-1 8.1-.7 8.3.9.9 17.3-2.2 26.4-5.1 10.9-3.4 28.7-11.8 37.5-17.7 3.4-2.2 9-6.7 12.6-10l6.6-6 3.2 3.2c3 2.9 3 2.7-.8-2.3-2.3-3.1-6.6-7.2-10.1-9.5-4.8-3.1-6.7-5.2-9-9.6-2.8-5.5-7.9-10.9-10.3-10.9-.7 0-2.3-.3-3.7-.6-1.4-.4-.2.6 2.6 2 13.2 6.8 16.8 25.4 6.8 34.8-3.5 3.3-10.8 5.1-15.3 3.8-2.7-.7-3.1-.7-2.2.4 2.4 2.8-6.8 7.6-14.6 7.6-8.8-.1-15.6-4.8-20.4-14.2-1.1-2.2-1.9-4.2-1.6-4.4.2-.2 1.9.8 3.8 2.2 7.4 5.7 13 7.5 22.3 7.2 4.7-.1 8-.5 7.4-.9-.6-.4.6-1.6 3-2.8 4.9-2.5 5.6-2.6 4.9-.6-.4.8-.3 1.7.2 1.9 1.6 1 8.5-1.7 11.3-4.4 3.2-3.2 4-6.4.9-3.6-1.5 1.4-2.4 1.5-4 .7-2.6-1.4-3.1-1.4-3.1.4 0 .9.6 1.2 1.5.9 2.6-1.1 1.6 1.1-1.4 2.9-3.7 2.2-4.4 2.1-3.1-.2.5-1.1.9-3.5.9-5.3-.1-1.8-.3-2.5-.6-1.5s-1.2 1.7-2.1 1.5c-1.3-.2-1.9-1.8-2.3-5.8-.6-5.7-2.3-9.7-5.9-13.9-1.9-2.3-2.1-2.3-3.9-.6-4.7 4.2-6.1 12-3.5 18.8.4 1.2.1 1.7-1 1.7-.9 0-1.9-.6-2.2-1.4-.3-.8-1.3-1.2-2.3-.9-1.3.3-4-1.5-8.5-5.7-6.5-6.1-6.5-6.2-4.8-8.6 2.2-3 3.2-3 3.2-.1 0 3.1 2.7 6.7 5 6.7 1.4 0 1.7.5 1.3 2.2-.4 1.7-.2 2 .5.9.8-1.1 1.1-.9 1.5 1l.4 2.4.2-2.6c0-1.4-.4-3-1-3.6-.8-.8-.6-2.8.7-7.2 1.8-5.9 2-6.2 4.7-5.9 1.6.2 3-.2 3.1-.7.2-1.7-7.5-1.7-12 0-2.4.9-5.8 3.3-7.5 5.3-2.5 2.8-4 3.7-6.7 3.8-2.9.1-3.7-.5-5.8-3.7-2.8-4.4-3-6.1-.9-5.3 1 .4 1.5 0 1.5-1.1 0-1.7.1-1.7 1.8-.2 3.6 3.3 9.2.8 9.2-4 0-4.3-7.2-7.2-9.9-3.9zm1.4 3.6c.3.5.1 1-.4 1-.6 0-1.1-.5-1.1-1 0-.6.2-1 .4-1 .3 0 .8.4 1.1 1zm36.5 12.9c.7 1.3.1 1.6-3.1 1.6-4.4.1-4.5-.1-2.3-3.3 1.3-1.9 1.9-2.1 3-1.1.9.7 1.9 1.9 2.4 2.8zm-30.6 4c.3.4-.6.6-1.9.3-1.4-.2-2.5-.6-2.5-.8 0-.8 3.9-.4 4.4.5zm58.3 4.3c-.3.8-.6.5-.6-.6-.1-1.1.2-1.7.5-1.3.3.3.4 1.2.1 1.9zm-23.9 6.3c-.2.2-2.5.5-5.2.6-3.2.2-5.1-.1-5.4-.9-.2-.8.9-1.2 3.3-1.2 2.9 0 3.9-.5 5.3-3l1.7-3 .3 3.6c.2 2 .2 3.7 0 3.9zM203 199c0 .5-.5 1-1.1 1-.5 0-.7-.5-.4-1 .3-.6.8-1 1.1-1 .2 0 .4.4.4 1zm-43 4.2c3.2.7 3.2.7-.9.3-2.4-.2-5.1-1.1-6-2-1.5-1.6-1.4-1.6.9-.4 1.4.7 4.1 1.6 6 2.1zm-11.2 18.7c1.1.7 1.1.9-.1 1.4-.9.3-1.8-.1-2.1-.9-.6-1.6.2-1.8 2.2-.5zm1.7 4.1c.3.5.1 1-.4 1-.6 0-1.1-.5-1.1-1 0-.6.2-1 .4-1 .3 0 .8.4 1.1 1zM49 171.5c-2.3 2.4-2.3 2.5-.3 2.5 1.2 0 2.3.8 2.6 2 .5 2.1 2.7 2.8 2.7.9 0-.5.5-.7 1-.4 1.8 1.1 1.1-4.1-.8-5.8-2.4-2.2-2.4-2.2-5.2.8zm5.9 2.9c-.3.3-1.1-.5-1.8-1.7-1.3-2.1-1.2-2.1.5-.5 1 1 1.6 2 1.3 2.2z"/><path d="M165.9 173.5c4.2 1.9 5 1.9 2.5 0-1-.8-2.8-1.4-3.9-1.4-1.4 0-1 .4 1.4 1.4zM205.6 176.8c-.2.4-.1 1.4.5 2.2.6 1.1.9 1.1.9.2 0-.8.9-1 2.8-.6 2.6.6 2.6.6.7-.9-2.2-1.8-4.1-2.1-4.9-.9zM173.6 177.9c-.3.4.3 1.6 1.3 2.5 1.1 1 2.5 3.1 3.1 4.7.7 1.6 1.5 2.7 1.8 2.5.2-.3-.7-2.5-2.2-5l-2.6-4.5 2.2-.4c2-.4 2-.4-.4-.6-1.5 0-2.9.3-3.2.8zM134 180.3c0 .7.9 1.3 2 1.3 2.4 0 2.6-1.1.4-2-2.2-.8-2.4-.8-2.4.7zM183.5 185.3c-1.7 1.3-1.6 1.4 1.3 2 3.1.6 6.2 4.7 6.2 8.2 0 .9.5 1.3 1 1 1.5-.9 1.2-6.2-.5-9.5s-4.8-3.9-8-1.7zM180.7 188.7c-1.2 1.2-.7 5.9.8 7.9 1.4 1.8 1.4 1.8 1.5-.8 0-1.4-.6-2.9-1.2-3.1-1-.4-1-.7-.1-1.4.7-.5.8-1.4.4-2.1-.4-.7-1-.9-1.4-.5z"/><path d="M185.4 190c.9 1.3 1.6 3.2 1.6 4.2s.5 1.8 1 1.8c1.8 0 1-2.9-1.6-5.7-2.2-2.5-2.4-2.5-1-.3zM135.1 219.6c-2.5 3.1-2.8 5.6-.6 4.8.8-.4 1.5-1.5 1.5-2.6 0-1 .4-1.7.9-1.4.5.3 1.1-.1 1.5-.9 1-2.6-1.2-2.6-3.3.1zM140.5 220.4c.3 1-.1 2.9-1 4.2-.9 1.4-1.1 2.5-.5 2.9 1.7 1 3.3-4.6 2-7-.9-1.7-1-1.7-.5-.1z"/></svg>