<?xml version="1.0" encoding="utf-8"?>
<!-- Generator: Adobe Illustrator 19.0.0, SVG Export Plug-In . SVG Version: 6.00 Build 0)  -->
<svg version="1.1" id="Capa_1" xmlns="http://www.w3.org/2000/svg" xmlns:xlink="http://www.w3.org/1999/xlink" x="0px" y="0px"
	 viewBox="174.5 -145.8 512 512" style="enable-background:new 174.5 -145.8 512 512;" xml:space="preserve">
<path d="M477.9,132.5l72.4,72.4c-4.2,3.7-9.2,5.6-14.9,5.6H325.6c-5.7,0-10.7-1.9-14.9-5.6l72.4-72.4c1.8,1.3,3.5,2.5,5,3.6
	c5.4,4,9.8,7.1,13.2,9.3c3.4,2.2,7.9,4.5,13.5,6.8c5.6,2.3,10.8,3.5,15.7,3.5h0.1h0.1c4.8,0,10.1-1.2,15.7-3.5
	c5.6-2.3,10.1-4.6,13.5-6.8c3.4-2.2,7.8-5.3,13.2-9.3C474.5,135,476.2,133.8,477.9,132.5z M317.2,87c-5.4-3.6-10.2-7.7-14.4-12.4
	v110.1l63.8-63.8C353.8,112,337.3,100.7,317.2,87z M543.9,87c-19.4,13.1-35.9,24.4-49.5,33.9l63.7,63.8V74.6
	C554.1,79.1,549.3,83.3,543.9,87z M327.3,71.7c3.2,2.3,13,9.1,29.2,20.3c8.8,6.1,16.4,11.4,23,15.9c5.6,3.9,10.4,7.3,14.4,10.1
	c0.5,0.3,1.2,0.8,2.1,1.5c1,0.7,2.3,1.7,3.9,2.8c3.1,2.2,5.7,4,7.7,5.4c2,1.4,4.5,2.9,7.4,4.6c2.9,1.7,5.6,3,8.2,3.8
	c2.6,0.9,4.9,1.3,7.1,1.3h0.1h0.1c2.2,0,4.6-0.4,7.1-1.3c2.6-0.9,5.3-2.1,8.2-3.8c2.9-1.7,5.4-3.3,7.4-4.6c2-1.4,4.6-3.2,7.7-5.4
	c1.6-1.2,2.9-2.1,3.9-2.8c1-0.7,1.7-1.2,2.1-1.5c3.1-2.2,7.9-5.5,14.4-10c11.8-8.2,29.2-20.3,52.3-36.3c6.9-4.8,12.7-10.7,17.4-17.5
	c4.6-6.8,7-14,7-21.5c0-6.3-2.3-11.6-6.8-16.1c-4.5-4.5-9.9-6.7-16-6.7H325.6c-7.3,0-12.9,2.5-16.9,7.4c-3.9,4.9-5.9,11.1-5.9,18.5
	c0,6,2.6,12.5,7.8,19.5C315.8,62.2,321.4,67.7,327.3,71.7z M430.5-145.8c-141.4,0-256,114.6-256,256s114.6,256,256,256
	s256-114.6,256-256S571.8-145.8,430.5-145.8z M430.5,334.2c-123.5,0-224-100.5-224-224s100.5-224,224-224s224,100.5,224,224
	S554,334.2,430.5,334.2z"/>
</svg>
