<?xml version="1.0" encoding="utf-8"?>
<!-- Generator: Adobe Illustrator 19.0.0, SVG Export Plug-In . SVG Version: 6.00 Build 0)  -->
<svg version="1.1" id="Capa_1" xmlns="http://www.w3.org/2000/svg" xmlns:xlink="http://www.w3.org/1999/xlink" x="0px" y="0px"
	 viewBox="111 -111.9 482.9 482.9" enable-background="new 111 -111.9 482.9 482.9" xml:space="preserve">
<path d="M356.2,134.1c0.3,0,0.6,0,0.9,0c0.1,0,0.2,0,0.3,0c0.2,0,0.4,0,0.6,0c16.3-0.3,29.6-6,39.3-17
	c21.5-24.2,17.9-65.7,17.5-69.6c-1.4-29.7-15.4-43.9-27-50.6c-8.6-5-18.7-7.6-30-7.9h-0.4c-0.1,0-0.2,0-0.2,0h-0.3
	c-6.2,0-18.3,1-30,7.6c-11.7,6.6-26,20.9-27.4,50.8c-0.4,4-4,45.4,17.5,69.6C326.6,128.1,339.8,133.8,356.2,134.1z M314.3,48.9
	c0-0.2,0.1-0.3,0.1-0.4c1.8-40,30.2-44.3,42.4-44.3h0.2c0.1,0,0.3,0,0.4,0c15.1,0.3,40.7,6.5,42.4,44.3c0,0.2,0,0.3,0.1,0.4
	c0.1,0.4,4,38.3-13.8,58.3c-7,7.9-16.4,11.8-28.7,11.9c-0.1,0-0.2,0-0.3,0l0,0c-0.1,0-0.2,0-0.3,0c-12.3-0.1-21.7-4-28.7-11.9
	C310.5,87.3,314.3,49.2,314.3,48.9z M471.7,202.9c0-0.1,0-0.1,0-0.2c0-0.4-0.1-0.9-0.1-1.4c-0.3-11-1.1-36.9-25.3-45.1
	c-0.2-0.1-0.4-0.1-0.6-0.2c-25.1-6.4-46.1-20.9-46.3-21.1c-3.4-2.4-8.1-1.6-10.5,1.8c-2.4,3.4-1.6,8.1,1.8,10.5
	c0.9,0.7,23.1,16.1,50.9,23.3c13,4.6,14.4,18.5,14.8,31.2c0,0.5,0,0.9,0.1,1.4c0.1,5-0.3,12.8-1.2,17.2c-9,5.1-44.4,22.9-98.3,22.9
	c-53.6,0-89.3-17.8-98.4-22.9c-0.9-4.5-1.3-12.2-1.2-17.2c0-0.4,0.1-0.9,0.1-1.4c0.4-12.7,1.8-26.6,14.8-31.2
	c27.8-7.1,50-22.6,50.9-23.3c3.4-2.4,4.2-7.1,1.8-10.5c-2.4-3.4-7.1-4.2-10.5-1.8c-0.2,0.2-21,14.7-46.3,21.1
	c-0.2,0.1-0.4,0.1-0.6,0.2c-24.2,8.3-24.9,34.1-25.3,45.1c0,0.5,0,0.9-0.1,1.4c0,0.1,0,0.1,0,0.2c-0.1,2.9-0.1,17.8,2.8,25.3
	c0.6,1.4,1.6,2.7,2.9,3.5c1.7,1.1,41.8,26.7,108.8,26.7s107.2-25.6,108.8-26.7c1.3-0.8,2.3-2.1,2.9-3.5
	C471.8,220.7,471.7,205.8,471.7,202.9z M352.5,371c-32.6,0-64.2-6.4-94-19c-28.8-12.2-54.6-29.6-76.7-51.7
	c-22.2-22.2-39.6-48-51.7-76.7c-12.6-29.8-19-61.4-19-94s6.4-64.2,19-94c12.2-28.8,29.6-54.6,51.7-76.7s48-39.6,76.7-51.7
	c29.8-12.6,61.4-19,94-19s64.2,6.4,94,19c28.8,12.2,54.6,29.6,76.7,51.7c22.2,22.2,39.6,48,51.7,76.7c12.6,29.8,19,61.4,19,94
	s-6.4,64.2-19,94c-12.2,28.8-29.6,54.6-51.7,76.7c-22.2,22.2-48,39.6-76.7,51.7C416.7,364.6,385,371,352.5,371z M352.5-95.2
	c-123.9,0-224.7,100.8-224.7,224.7s100.8,224.7,224.7,224.7s224.7-100.8,224.7-224.7S476.4-95.2,352.5-95.2z"/>
</svg>
