<?xml version="1.0" encoding="iso-8859-1"?>
<!-- Generator: Adobe Illustrator 19.0.0, SVG Export Plug-In . SVG Version: 6.00 Build 0)  -->
<svg version="1.1" id="Capa_1" xmlns="http://www.w3.org/2000/svg" xmlns:xlink="http://www.w3.org/1999/xlink" x="0px" y="0px"
	 viewBox="0 0 503.873 503.873" style="enable-background:new 0 0 503.873 503.873;" xml:space="preserve">
<g>
	<g>
		<path d="M251.937,50.387c-44.698,0-80.457,36.571-80.457,80.457c0,44.698,36.571,80.457,80.457,80.457
			c44.698,0,80.457-35.759,80.457-80.457S295.822,50.387,251.937,50.387z M251.937,195.048c-34.946,0-64.203-28.444-64.203-64.203
			s29.257-64.203,64.203-64.203c34.946,0,64.203,29.257,64.203,64.203S286.883,195.048,251.937,195.048z"/>
	</g>
</g>
<g>
	<g>
		<path d="M459.987,292.571H295.822c36.571-46.324,85.333-117.029,85.333-161.727c0-71.517-57.702-129.219-129.219-129.219
			S122.718,59.327,122.718,130.844c0,44.698,48.762,115.403,85.333,161.727H43.886L0,502.248h503.873L459.987,292.571z
			 M138.971,130.844c0-62.578,50.387-112.965,112.965-112.965s112.965,50.387,112.965,112.965
			c0,54.451-88.584,161.727-112.965,189.359C227.556,292.571,138.971,185.295,138.971,130.844z M154.413,308.013h66.641
			c13.816,17.067,23.568,28.444,25.194,29.257l5.689,6.502l5.689-6.502c1.625-1.625,11.378-13.003,25.194-29.257h82.895
			L379.53,421.79H223.492l2.438-80.457h-75.581L154.413,308.013z M56.889,308.013h81.27l-4.063,33.321H49.575L56.889,308.013z
			 M19.505,485.994l26.819-128.406h163.352l-2.438,80.457h174.73l5.689,47.949H19.505z M381.968,308.013h65.016l23.568,113.778
			h-74.768L381.968,308.013z M398.222,438.044h75.581l9.752,47.949h-79.644L398.222,438.044z"/>
	</g>
</g>
<g>
	<g>
		<rect x="243.81" y="122.717" width="16.254" height="16.254"/>
	</g>
</g>
<g>
	<g>
		<rect x="276.317" y="122.717" width="16.254" height="16.254"/>
	</g>
</g>
<g>
	<g>
		<rect x="211.302" y="122.717" width="16.254" height="16.254"/>
	</g>
</g>
<g>
</g>
<g>
</g>
<g>
</g>
<g>
</g>
<g>
</g>
<g>
</g>
<g>
</g>
<g>
</g>
<g>
</g>
<g>
</g>
<g>
</g>
<g>
</g>
<g>
</g>
<g>
</g>
<g>
</g>
</svg>
