<?xml version="1.0" encoding="utf-8"?>
<!-- Generator: Adobe Illustrator 19.0.0, SVG Export Plug-In . SVG Version: 6.00 Build 0)  -->
<svg version="1.1" id="Слой_1" xmlns="http://www.w3.org/2000/svg" xmlns:xlink="http://www.w3.org/1999/xlink" x="0px" y="0px"
	 viewBox="0 0 325.5 69" enable-background="new 0 0 325.5 69" xml:space="preserve">
<path fill-rule="evenodd" clip-rule="evenodd" fill="#6985af" d="M280.9,5.2h-6.8l-10.4,15l3.4-15h-5.7l-4.8,22.6h6.9l10.4-15
	l-3.6,15h5.7L280.9,5.2z M257.8,5.2H250l-9.3,8.8l2-8.8h-5.9L232,27.7h5.9l1.5-6.9l3-2.6l4.7,9.4h6.7L247,14.4L257.8,5.2z
	 M230.4,19.4h-5.9c-0.7,2.7-2.3,4.2-4.7,4.2c-2.7,0-4.3-2-4.3-5.4c0-3.7,1.8-8.7,6.1-8.7c2.6,0,3.7,1.3,3.8,3.8h5.7v-0.5
	c0-4.9-3.6-8.1-9.3-8.1c-7.7,0-12.3,6-12.3,13.6c0,6.4,3.6,10,9.8,10C225.2,28.2,229.2,25,230.4,19.4z M193,17.9h3.6
	c1.8,0,4.1-0.1,4.1,2.3c0,2.7-2.5,2.9-4.6,2.9h-4.3L193,17.9z M194.7,9.7h3.5c1.3,0,3.3-0.1,3.3,1.8c0,2-1.6,2.6-3.4,2.6h-4.4
	L194.7,9.7z M190,5.2l-4.8,22.6h11.1c2.9,0,5.7,0,8-2.1c1.4-1.3,2.3-3.4,2.3-5.4c0-2.3-1.1-3.9-3.2-4.6c2.5-0.5,4.2-2.6,4.2-5.3
	c0-4.6-4.1-5.2-7.7-5.2H190z M174,9.4c3.1,0,4.3,2.3,4.3,5.1c0,3.6-1.9,9.1-6.3,9.1c-2.8,0-4.5-1.9-4.5-5.1
	C167.5,14.5,169.4,9.4,174,9.4z M184.3,14.3c0-6.2-4.1-9.6-10-9.6c-7.8,0-12.6,6-12.6,13.5c0,6.4,3.7,10.1,10,10.1
	C179.7,28.3,184.3,21.9,184.3,14.3z M160.8,5.2h-16.6l-3.1,13c-1.1,4.5-2.2,5.3-3.7,5.3c-0.4,0-1.4-0.1-1.7-0.3l-1,4.6
	c0.6,0.2,2.1,0.4,3,0.4c4.9,0,7.3-2.8,8.9-9.2l2.2-8.9h5L150,27.7h5.9L160.8,5.2z M124.9,9.9h3.3c1.8,0,3.5,0.3,3.5,2.4
	c0,2.4-1.7,3.2-4,3.2h-4L124.9,9.9z M120.1,5.2l-4.8,22.6h5.9l1.6-7.5h4.4c2.2,0,4.8-0.2,6.7-1.4c2.2-1.4,3.6-4.1,3.6-7
	c0-4.9-3.2-6.7-7.8-6.7H120.1z M104.2,9.4c3.1,0,4.3,2.3,4.3,5.1c0,3.6-1.9,9.1-6.3,9.1c-2.8,0-4.5-1.9-4.5-5.1
	C97.8,14.5,99.6,9.4,104.2,9.4z M114.5,14.3c0-6.2-4.1-9.6-10-9.6c-7.8,0-12.6,6-12.6,13.5c0,6.4,3.7,10.1,10,10.1
	C109.9,28.3,114.5,21.9,114.5,14.3z M302.3-0.7h-2.7c-0.3,1.3-2,1.8-3.5,1.8c-1.5,0-2.7-0.6-2.7-1.8h-2.7c-0.1,0.4-0.1,0.8-0.1,1.1
	c0,2.6,2.7,3.7,5.3,3.7C298.9,4.1,301.8,2.8,302.3-0.7z M305.7,5.2H299l-10.4,15l3.4-15h-5.7l-4.8,22.5h6.9l10.4-15l-3.6,15h5.7
	L305.7,5.2z M56.4,36.3h-3.9c-0.4,1.8-1.5,2.8-3.1,2.8c-1.8,0-2.9-1.3-2.9-3.6c0-2.5,1.2-5.8,4.1-5.8c1.7,0,2.5,0.9,2.5,2.6h3.8
	v-0.3c0-3.3-2.4-5.4-6.2-5.4c-5.1,0-8.2,4-8.2,9c0,4.2,2.4,6.7,6.5,6.7C53,42.2,55.7,40.1,56.4,36.3z M20.7,29.7
	c2.1,0,2.9,1.5,2.9,3.4c0,2.4-1.3,6-4.2,6c-1.9,0-3-1.3-3-3.4C16.4,33.1,17.6,29.7,20.7,29.7z M27.5,32.9c0-4.1-2.7-6.4-6.7-6.4
	c-5.2,0-8.4,4-8.4,9c0,4.3,2.5,6.7,6.7,6.7C24.5,42.2,27.5,38,27.5,32.9z M325.5,38.9h-19.2l-1,4.9h6.7l-3.8,17.6h5.9l3.8-17.6h6.5
	L325.5,38.9z M297.6,38.9l-4.8,22.6h5.9l4.8-22.6H297.6z M286.5,53.6c0,2.4-1.7,3.2-4,3.2h-3.1l1.2-5.6h2.4
	C284.8,51.1,286.5,51.4,286.5,53.6z M292.3,53.1c0-4.9-3.2-6.7-7.8-6.7h-3l1.6-7.5h-5.9l-4.8,22.6h9.6c2.2,0,4.8-0.2,6.7-1.4
	C290.9,58.7,292.3,56,292.3,53.1z M265,53.6c0,2.4-1.7,3.2-4,3.2h-4.8l1.2-5.6h4.1C263.3,51.1,265,51.4,265,53.6z M271.6,38.9h-17.5
	l-4.8,22.6h11.2c2.2,0,4.8-0.2,6.7-1.4c2.2-1.4,3.6-4.1,3.6-7c0-4.9-3.2-6.7-7.8-6.7h-4.7l0.6-2.8h11.7L271.6,38.9z M247.8,53.2
	h-5.9c-0.7,2.7-2.3,4.2-4.7,4.2c-2.7,0-4.3-2-4.3-5.4c0-3.7,1.8-8.7,6.1-8.7c2.6,0,3.7,1.3,3.8,3.8h5.7v-0.5c0-4.9-3.6-8.1-9.3-8.1
	c-7.7,0-12.3,6.1-12.3,13.6c0,6.4,3.6,10,9.8,10C242.6,62,246.7,58.8,247.8,53.2z M214.2,43.2c3.1,0,4.3,2.3,4.3,5.1
	c0,3.6-1.9,9.1-6.3,9.1c-2.9,0-4.5-1.9-4.5-5.1C207.8,48.3,209.6,43.2,214.2,43.2z M224.5,48.1c0-6.2-4.1-9.6-10-9.6
	c-7.8,0-12.6,6-12.6,13.5c0,6.4,3.7,10.1,10,10.1C219.9,62.1,224.5,55.7,224.5,48.1z M180.9,61.5h5.9l3.7-17.6h10.7l1-4.9h-16.7
	L180.9,61.5z M168.5,43.7h3.3c1.8,0,3.5,0.3,3.5,2.4c0,2.4-1.7,3.2-4,3.2h-4L168.5,43.7z M163.6,38.9l-4.8,22.6h5.9l1.6-7.5h4.4
	c2.2,0,4.8-0.2,6.7-1.4c2.2-1.4,3.6-4.1,3.6-7c0-4.9-3.2-6.7-7.8-6.7H163.6z M159.5,38.9h-17.9l-4.8,22.6H155l1-4.9h-12.3l0.9-4.4
	h11.2l1-4.6h-11.2l0.8-3.9h12.1L159.5,38.9z M137,38.9h-5.9l-1.7,8.2h-7.9l1.7-8.2h-5.9l-4.8,22.6h5.9l2-9.3h7.8l-2,9.3h5.9
	L137,38.9z M111.7,48.5c0-6.4-3.6-10-9.8-10c-5.5,0-9.4,2.9-10.8,7.9h6c0.8-2.1,2.3-3.2,4.4-3.2c2.4,0,4,1.6,4.3,4.4h-7.2l-1,4.6
	h7.7c-0.8,2.7-2.6,5.1-5.6,5.1c-2.6,0-3.7-1.3-3.8-3.8h-5.7v0.5c0,4.9,3.6,8.1,9.3,8.1C107.1,62,111.7,56,111.7,48.5z M59.8,58
	c12.5-13.5,12.2-34.7-0.9-47.9c-10.5-10.5-26-12.8-38.7-7l4.5,8.3L4,4l25.7,25.2c1.3-1.7,3.4-2.7,5.9-2.7c4.1,0,6.5,2.5,6.5,6.7
	c0,2.2-0.6,4.2-1.7,5.8L59.8,58z M9.2,11C3.1,17.6,0,26.1,0,34.5c0,8.8,3.4,17.7,10.1,24.4c10.5,10.5,26,12.8,38.7,7l-4.5-8.3L65,65
	l-25.5-25c-1.4,1.4-3.3,2.2-5.6,2.2c-3.8,0-6.2-2.1-6.2-5.4v-0.3h3.8c0,1.7,0.8,2.6,2.5,2.6c2,0,3.2-1.6,3.7-3.4h-5.1l0.7-3h4.8
	c-0.2-1.9-1.2-2.9-2.9-2.9c-1.4,0-2.4,0.7-2.9,2.1h-4c0.1-0.5,0.3-0.9,0.5-1.4L9.2,11z"/>
</svg>
