<?xml version="1.0" encoding="utf-8"?>
<!-- Generator: Adobe Illustrator 19.0.0, SVG Export Plug-In . SVG Version: 6.00 Build 0)  -->
<svg version="1.1" id="Слой_1" xmlns="http://www.w3.org/2000/svg" xmlns:xlink="http://www.w3.org/1999/xlink" x="0px" y="0px"
	 viewBox="0 0 410.3 87.9" enable-background="new 0 0 410.3 87.9" xml:space="preserve">
<path fill-rule="evenodd" clip-rule="evenodd" fill="#F28C00" d="M12.7,13.6C4.2,22.1,0,33.3,0,44.4c0,11.1,4.2,22.3,12.7,30.8
	C25.9,88.4,45.5,91.3,61.5,84l-5.7-10.4L82,82.9L12.7,13.6z"/>
<path fill-rule="evenodd" clip-rule="evenodd" fill="#00447E" d="M74.3,75.2c17-17,17-44.6,0-61.6C61.1,0.4,41.5-2.5,25.5,4.8
	l5.7,10.4L5,5.9L74.3,75.2z"/>
<path fill-rule="evenodd" clip-rule="evenodd" fill="#00447E" d="M410.3,50h-24.2l-1.3,6.2h8.5l-4.8,22.2h7.5l4.8-22.2h8.2L410.3,50
	z M375.2,50l-6,28.4h7.4l6-28.4H375.2z M361.2,68.4c0,3.1-2.2,4-5.1,4h-4l1.5-7.1h3.1C359,65.4,361.2,65.7,361.2,68.4z M368.5,67.9
	c0-6.2-4.1-8.4-9.8-8.4h-3.8l2-9.5h-7.4l-6,28.4h12.1c2.8,0,6-0.2,8.4-1.8C366.7,74.9,368.5,71.5,368.5,67.9z M334,68.4
	c0,3.1-2.2,4-5.1,4h-6l1.5-7.1h5.1C331.9,65.4,334,65.7,334,68.4z M342.4,50h-22.1l-6,28.4h14.2c2.8,0,6-0.2,8.4-1.8
	c2.8-1.8,4.5-5.2,4.5-8.8c0-6.2-4.1-8.4-9.8-8.4h-5.9l0.7-3.5h14.7L342.4,50z M312.4,67.9H305c-0.8,3.4-2.9,5.2-5.9,5.2
	c-3.4,0-5.4-2.5-5.4-6.8c0-4.6,2.2-11,7.8-11c3.3,0,4.7,1.7,4.8,4.8h7.2v-0.6c0-6.2-4.6-10.2-11.7-10.2c-9.7,0-15.5,7.6-15.5,17.1
	c0,8,4.6,12.7,12.3,12.7C305.8,79.1,310.9,75.1,312.4,67.9z M270.1,55.3c3.9,0,5.4,2.8,5.4,6.4c0,4.5-2.4,11.4-7.9,11.4
	c-3.6,0-5.7-2.4-5.7-6.5C261.9,61.8,264.3,55.3,270.1,55.3z M283,61.5c0-7.8-5.1-12.1-12.6-12.1c-9.9,0-15.9,7.5-15.9,17.1
	c0,8.1,4.7,12.7,12.6,12.7C277.2,79.2,283,71.1,283,61.5z M228,78.4h7.5l4.7-22.2h13.5l1.3-6.2h-21L228,78.4z M212.4,56h4.2
	c2.3,0,4.4,0.3,4.4,3.1c0,3.1-2.2,4-5.1,4h-5L212.4,56z M206.3,50l-6,28.4h7.4l2-9.5h5.6c2.8,0,6-0.2,8.4-1.8
	c2.8-1.8,4.5-5.2,4.5-8.8c0-6.2-4.1-8.4-9.8-8.4H206.3z M201.1,50h-22.6l-6,28.4h22.9l1.3-6.2h-15.5l1.2-5.6h14.1l1.2-5.8h-14.1
	l1-4.9h15.2L201.1,50z M172.7,50h-7.5L163,60.3h-9.9l2.2-10.3h-7.5l-6,28.4h7.5l2.5-11.7h9.9l-2.5,11.7h7.5L172.7,50z M140.8,62
	c0-8-4.6-12.7-12.3-12.7c-6.9,0-11.8,3.6-13.6,10h7.5c1-2.6,2.9-4,5.6-4c3.1,0,5,2,5.4,5.5h-9.1l-1.2,5.8h9.7
	c-1,3.4-3.2,6.5-7.1,6.5c-3.3,0-4.7-1.7-4.8-4.8h-7.2v0.6c0,6.2,4.6,10.2,11.7,10.2C135,79.1,140.8,71.5,140.8,62z"/>
<path fill-rule="evenodd" clip-rule="evenodd" fill="#FFFFFF" d="M71.1,46.7h-5c-0.6,2.3-1.9,3.5-3.9,3.5c-2.3,0-3.6-1.7-3.6-4.5
	c0-3.1,1.5-7.3,5.2-7.3c2.2,0,3.1,1.1,3.2,3.2h4.8v-0.4c0-4.2-3.1-6.8-7.8-6.8c-6.5,0-10.3,5.1-10.3,11.4c0,5.4,3,8.4,8.2,8.4
	C66.8,54.2,70.2,51.5,71.1,46.7 M53.1,42.8c0-5.4-3-8.4-8.2-8.4c-4.6,0-7.9,2.4-9,6.7h5c0.7-1.8,1.9-2.7,3.7-2.7
	c2.1,0,3.4,1.3,3.6,3.7h-6l-0.8,3.8h6.4c-0.7,2.3-2.2,4.3-4.7,4.3c-2.2,0-3.1-1.1-3.2-3.2H35v0.4c0,4.2,3.1,6.8,7.8,6.8
	C49.3,54.2,53.1,49.1,53.1,42.8z M26.1,38.3c2.6,0,3.6,1.9,3.6,4.3c0,3-1.6,7.6-5.3,7.6c-2.4,0-3.8-1.6-3.8-4.3
	C20.6,42.6,22.2,38.3,26.1,38.3z M34.7,42.4c0-5.2-3.4-8.1-8.4-8.1c-6.6,0-10.6,5-10.6,11.4c0,5.4,3.1,8.5,8.4,8.5
	C30.8,54.2,34.7,48.8,34.7,42.4z"/>
<path fill-rule="evenodd" clip-rule="evenodd" fill="#00447E" d="M354.1,7.4h-8.5l-13.1,18.9l4.3-18.9h-7.2l-6,28.4h8.7l13.1-18.9
	l-4.6,18.9h7.2L354.1,7.4z M325,7.4h-9.8l-11.8,11.1l2.5-11.1h-7.4l-6,28.4h7.4l1.8-8.7l3.8-3.2l5.9,11.9h8.4l-8.5-16.7L325,7.4z
	 M290.4,25.3H283c-0.8,3.4-2.9,5.2-5.9,5.2c-3.4,0-5.4-2.5-5.4-6.8c0-4.6,2.2-11,7.8-11c3.3,0,4.7,1.7,4.8,4.8h7.2V17
	c0-6.2-4.6-10.2-11.7-10.2c-9.7,0-15.5,7.6-15.5,17.1c0,8,4.6,12.7,12.3,12.7C283.9,36.5,289,32.5,290.4,25.3z M243.3,23.5h4.6
	c2.2,0,5.2-0.1,5.2,2.9c0,3.4-3.2,3.7-5.8,3.7h-5.4L243.3,23.5z M245.5,13.1h4.5c1.7,0,4.2-0.1,4.2,2.3c0,2.5-2,3.2-4.3,3.2h-5.5
	L245.5,13.1z M239.5,7.4l-6.1,28.4h14c3.6,0,7.2,0,10-2.6c1.8-1.7,2.9-4.2,2.9-6.8c0-2.9-1.4-4.9-4-5.8c3.2-0.6,5.3-3.2,5.3-6.6
	c0-5.8-5.1-6.6-9.7-6.6H239.5z M219.3,12.8c3.9,0,5.4,2.8,5.4,6.4c0,4.5-2.4,11.4-7.9,11.4c-3.6,0-5.7-2.4-5.7-6.5
	C211.2,19.2,213.6,12.8,219.3,12.8z M232.3,18.9c0-7.8-5.1-12.1-12.6-12.1c-9.9,0-15.9,7.5-15.9,17.1c0,8.1,4.7,12.7,12.6,12.7
	C226.5,36.6,232.3,28.5,232.3,18.9z M202.7,7.4h-20.9l-4,16.3c-1.4,5.6-2.7,6.7-4.6,6.7c-0.5,0-1.7-0.2-2.1-0.3l-1.2,5.8
	c0.8,0.3,2.7,0.5,3.8,0.5c6.2,0,9.2-3.6,11.2-11.6l2.7-11.2h6.3l-4.7,22.2h7.5L202.7,7.4z M157.5,13.4h4.2c2.3,0,4.4,0.3,4.4,3.1
	c0,3.1-2.2,4-5.1,4h-5L157.5,13.4z M151.4,7.4l-6,28.4h7.4l2-9.5h5.6c2.8,0,6-0.2,8.4-1.8c2.8-1.8,4.5-5.2,4.5-8.8
	c0-6.2-4.1-8.4-9.8-8.4H151.4z M131.4,12.8c3.9,0,5.4,2.8,5.4,6.4c0,4.5-2.4,11.4-7.9,11.4c-3.6,0-5.7-2.4-5.7-6.5
	C123.2,19.2,125.6,12.8,131.4,12.8z M144.4,18.9c0-7.8-5.1-12.1-12.6-12.1c-9.9,0-15.9,7.5-15.9,17.1c0,8.1,4.7,12.7,12.6,12.7
	C138.5,36.6,144.4,28.5,144.4,18.9z M381.1,0h-3.4c-0.4,1.6-2.5,2.3-4.4,2.3c-1.9,0-3.4-0.8-3.4-2.3h-3.4c-0.1,0.5-0.1,1-0.1,1.4
	c0,3.3,3.4,4.6,6.7,4.6C376.8,6,380.4,4.4,381.1,0z M385.4,7.4h-8.5l-13.1,18.9l4.3-18.9h-7.2l-6,28.4h8.7l13.1-18.9l-4.6,18.9h7.2
	L385.4,7.4z"/>
</svg>
