<?xml version="1.0" encoding="utf-8"?>
<!-- Generator: Adobe Illustrator 19.0.0, SVG Export Plug-In . SVG Version: 6.00 Build 0)  -->
<svg version="1.1" id="Слой_1" xmlns="http://www.w3.org/2000/svg" xmlns:xlink="http://www.w3.org/1999/xlink" x="0px" y="0px"
	 viewBox="90 90 320 320" style="enable-background:new 90 90 320 320;" xml:space="preserve">
<path d="M222.4,130.1c-9,2.4-17.5,7.1-24.7,13.9l-0.9,0.8l-0.7,0.7l-1.4,1.4l-2.8,2.8l-5.4,5.6c-3.5,3.8-6.9,7.6-10.3,11.4
	c-3.3,3.9-6.7,7.8-9.9,11.7c-3.2,4-6.4,7.9-9.5,12s-6.2,8.2-9.1,12.4l-4.4,6.3c-1.4,2.2-2.8,4.3-4.2,6.5c-2.9,4.3-5.5,8.8-8.2,13.2
	c-1.4,2.2-2.6,4.5-3.9,6.8c-1.3,2.3-2.6,4.6-3.8,6.9l-3.6,7c-1.2,2.3-2.3,4.7-3.5,7.1l-1.7,3.6l-1.6,3.6c-1.1,2.4-2.2,4.8-3.2,7.3
	c-1,2.4-2,4.9-3,7.4s-1.9,5.1-2.8,7.6c-1.8,5.1-3.5,10.3-5,15.5c-1.6,5.3-2.9,10.6-4,16s-2.1,10.8-2.7,16.4
	c-0.3,2.8-0.6,5.6-0.7,8.4c-0.1,1.4-0.2,2.8-0.2,4.2c-0.1,1.4-0.1,2.8-0.1,4.2c0.1,5.7,0.4,11.4,1.5,17.1l0.3,1.7
	c0.3,1.6,1.9,2.7,3.6,2.4c1-0.3,1.8-1,2.2-1.9c1.7-4.4,3.7-8.7,5.9-12.9c2.1-4.2,4.4-8.4,6.8-12.5c2.3-4.1,4.9-8.2,7.5-12.2
	s5.3-8,8.1-11.9c2.8-3.9,5.5-7.8,8.4-11.6c2.8-3.8,5.7-7.6,8.7-11.4c5.9-7.6,12-15,18.3-22.3c3.1-3.7,6.3-7.3,9.5-10.9l9.6-10.8
	c6.4-7.1,13-14.2,19.6-21.2c6.7-7,13.4-13.9,20.2-20.7c3.4-3.4,6.8-6.7,10.3-10.1c2-1.9,4-3.8,6-5.7l18,17.1
	c7.4,7.2,14.8,14.4,22.2,21.6c7.3,7.3,14.6,14.6,21.9,21.9l21.7,22.1c7.2,7.3,14.3,14.8,21.4,22.3c3.5,3.7,7,7.5,10.5,11.3
	s7,7.6,10.4,11.5l10.3,11.5c3.4,3.9,6.8,7.8,10.1,11.7c1.7,1.9,3.4,3.9,5,5.9s3.3,4,4.9,6c1.7,2,3.3,4,4.9,6l4.8,6.1
	c1,1.3,2.9,1.5,4.2,0.5c0.7-0.6,1.1-1.6,1.1-2.5l-0.1-1.9c0-1.6-0.2-3.1-0.3-4.6l-0.5-4.5c-0.2-1.5-0.5-2.9-0.7-4.4
	c-0.3-1.4-0.5-2.9-0.8-4.4c-0.6-3-1.3-5.8-1.9-8.7c-0.7-2.9-1.4-5.7-2.2-8.5c-0.7-2.8-1.5-5.6-2.4-8.3c-0.9-2.8-1.8-5.5-2.7-8.2
	c-2-5.4-3.9-10.7-6.1-15.9c-2.2-5.3-4.4-10.3-6.8-15.4c-1.2-2.5-2.4-5-3.6-7.5l-3.8-7.4c-2.6-4.9-5.2-9.7-8-14.4l-2.1-3.5l-2.1-3.5
	c-1.4-2.3-2.8-4.6-4.3-6.9c-3-4.6-5.9-9.1-9-13.5c-3-4.5-6.2-8.8-9.4-13.1c-1.6-2.2-3.3-4.3-4.9-6.4c-1.7-2.1-3.3-4.3-5-6.3
	c-3.4-4.1-6.7-8.3-10.2-12.3l-5.2-6l-5.4-5.9c-3.6-4-7.3-7.8-11-11.6l-2.8-2.9l-2.8-2.8l-5.7-5.6c-1.8-1.9-3.8-3.7-5.8-5.5l-6.1-5.6
	l-0.7-0.6c-9.4-8.6-20.9-13.6-32.7-14.9c5.8,1.4,11.3,4.2,15.9,8.6l0.1,0.1l5.8,5.5c1.9,1.8,3.8,3.6,5.7,5.4
	c3.7,3.7,7.5,7.3,11.1,11.1c3.6,3.7,7.2,7.5,10.8,11.3l5.3,5.7l5.3,5.8c3.5,3.9,6.9,7.9,10.3,11.8c1.8,2,3.4,4,5.1,6
	c1.7,2,3.4,4,5,6c3.3,4.1,6.6,8.1,9.8,12.3c3.2,4.2,6.4,8.4,9.5,12.6c3.1,4.3,6.2,8.5,9.2,12.9c3,4.4,5.9,8.8,8.8,13.2
	c2.8,4.5,5.6,9,8.4,13.5c2.8,4.6,5.4,9.2,8,13.9c1.4,2.3,2.6,4.7,3.8,7.1l3.7,7.1c2.3,4.9,4.7,9.7,6.8,14.7c1,2.5,2.1,5,3.1,7.5
	s2,5,2.9,7.6c0.9,2.6,1.8,5.2,2.6,7.8l1.2,3.9l1.1,4l0.2,0.7c0.2,0.7-0.1,1.5-0.7,2c-0.9,0.6-2.1,0.5-2.7-0.4l-4.6-6.2
	c-1.6-2.1-3.1-4.1-4.7-6.1s-3.2-4-4.8-6s-3.2-4-4.8-6c-3.3-4-6.6-7.9-9.9-11.8c-3.4-3.9-6.7-7.8-10.1-11.6s-6.8-7.7-10.2-11.5
	s-6.8-7.6-10.3-11.4c-6.9-7.6-13.9-15.1-21-22.5L309,241.4l-10.6-10.9c-7.2-7.4-14.4-14.7-21.6-22c-7.3-7.3-14.6-14.5-21.9-21.7
	l-11-10.7l-8.4-8.1c-2.6,2.4-5.1,4.9-7.6,7.4c-3.4,3.4-6.7,6.8-10.1,10.2c-6.7,6.8-13.4,13.8-19.9,20.8s-13,14.1-19.3,21.3
	c-6.4,7.2-12.7,14.4-18.8,21.8c-6.1,7.4-12.1,14.9-17.9,22.5c-2.9,3.8-5.8,7.6-8.6,11.5c-2.8,3.8-5.5,7.8-8.2,11.7
	c-2.7,4-5.4,8-7.9,12c-2.6,4.1-5.1,8.1-7.4,12.3c-4.7,8.3-8.9,16.8-12.3,25.7c-0.3,0.7-1,1.2-1.8,1.2c-1,0-1.9-0.8-1.9-1.9v-0.7
	c-0.1-5.2,0.5-10.4,1.2-15.5c0.1-1.3,0.4-2.5,0.6-3.8s0.4-2.5,0.7-3.8c0.4-2.6,1.1-5.1,1.7-7.6s1.3-5,2-7.5c0.8-2.5,1.6-5,2.4-7.4
	c1.5-4.9,3.4-9.6,5.3-14.4c1.8-4.7,4-9.4,6.1-14c1.1-2.3,2.2-4.6,3.3-6.9c1.2-2.3,2.3-4.6,3.5-6.8l3.6-6.7l1.8-3.3l1.9-3.3
	c2.5-4.4,5.1-8.7,7.8-13c2.7-4.2,5.4-8.4,8.2-12.6c2.8-4.1,5.7-8.3,8.6-12.3l4.4-6l4.5-6c3-4,6.1-7.8,9.2-11.7s6.3-7.7,9.5-11.5
	c3.2-3.8,6.5-7.5,9.8-11.2c3.4-3.6,6.8-7.3,10.2-10.9l5.2-5.4l2.7-2.7l1.4-1.4c0.5-0.5,0.9-0.9,1.5-1.5
	C214.2,133.5,217.8,131.1,222.4,130.1z"/>
</svg>
