<?xml version="1.0" encoding="utf-8"?>
<!-- Generator: Adobe Illustrator 19.0.0, SVG Export Plug-In . SVG Version: 6.00 Build 0)  -->
<svg version="1.1" id="Слой_1" xmlns="http://www.w3.org/2000/svg" xmlns:xlink="http://www.w3.org/1999/xlink" x="0px" y="0px"
	 viewBox="-67.5 53.8 660.9 310.2" style="enable-background:new -67.5 53.8 660.9 310.2;" xml:space="preserve">
<path id="XMLID_2_" d="M590.8,272c0,0-2.4-0.8-6.8-2.3c-4.5-1.4-11-3.5-19.4-5.9c-8.4-2.4-18.6-5.3-30.4-8.6
	c-5.9-1.6-12.1-3.2-18.8-4.9c-6.6-1.6-13.5-3.3-20.8-5c-14.6-3.4-30.4-6.9-47.1-10.1c-8.4-1.6-17-3.2-25.9-4.8
	c-8.9-1.6-17.9-3.1-27.1-4.5c-18.4-2.9-37.5-5.2-56.9-7.3c-19.4-2.1-39.1-3.6-58.9-4.6c-19.8-0.9-39.4-1-58.8-0.3
	c-4.8,0.1-9.6,0.4-14.4,0.6c-4.8,0.3-9.5,0.5-14.2,0.7c-4.7,0.3-9.4,0.5-14,0.8c-4.6,0.3-9.2,0.5-13.8,0.9
	c-18.3,1.2-35.9,2.4-52.6,3.9c-16.7,1.5-32.5,3.3-47.1,5.3c-3.7,0.4-7.3,1-10.7,1.6c-3.5,0.5-6.9,1-10.2,1.6
	c-3.3,0.5-6.5,1.1-9.7,1.6c-3.1,0.6-6.2,1.1-9.2,1.6c-1.5,0.3-3,0.5-4.3,0.8c-1.4,0.2-2.8,0.5-4.2,0.8c-2.8,0.5-5.5,1-8,1.5
	c-5.1,1-9.9,2-14.2,2.9c-8.6,1.8-15.4,3.3-20,4.3c-4.6,1.1-7.1,1.5-7.1,1.5l0,0c-0.9,0.2-1.9-0.4-2-1.4c-0.1-0.7,0.2-1.4,0.8-1.8
	c0,0,2.1-1.4,6.1-4c2.1-1.3,4.6-2.9,7.6-4.6c3-1.7,6.6-3.7,10.4-5.8c4-2.1,8.4-4.3,13.2-6.6c5-2.2,10.2-4.8,16-7
	c2.9-1.2,5.9-2.4,9-3.6c3.2-1.2,6.3-2.3,9.6-3.5c3.3-1.2,6.7-2.3,10.2-3.5c3.4-1.2,7.2-2.3,10.8-3.4c3.6-1.1,7.5-2.2,11.4-3.2
	c3.9-1,7.8-2,11.9-3.1c4.1-0.9,8.2-1.8,12.4-2.7c4.2-0.9,8.5-1.6,12.8-2.6c17.4-3.3,35.9-5.5,55.1-6.7c4.8-0.3,9.6-0.4,14.5-0.6
	c4.9-0.1,9.8-0.1,14.7-0.1c4.9,0.2,9.9,0.2,14.9,0.4s10,0.4,15,0.7c20.1,1.2,40.4,3,60.6,5.2c20.2,2.1,40.3,5,60,8.2
	c19.7,3.2,38.9,7.1,57.4,11.4s36.3,8.6,53,13.3c16.7,4.6,32.4,9.4,46.8,14c14.4,4.6,27.5,9.2,39,13.4c5.8,2.1,11.1,4.1,16.1,6
	c5,1.9,9.5,3.7,13.5,5.4c8.2,3.3,14.5,6,18.8,7.8c4.3,1.8,6.6,3,6.6,3c0.9,0.4,1.2,1.5,0.8,2.4C592.5,271.8,591.5,272.2,590.8,272z"
	/>
<path id="XMLID_3_" d="M165.7,305.8c3.3,13.2,7.9,25.9,13.4,38.1c1.4,3.1,2.8,6.1,4.3,9.3l1.1,2.4c0.4,0.9,0.7,1.7,1,2.7
	c0.1,0.3,0.2,0.6,0.2,1.1c0.1,0.2,0.1,0.5,0,0.9c0,0.3,0,0.4-0.1,0.6c0,0.1-0.1,0.4-0.2,0.4c0,0.1-0.1,0.4-0.2,0.5
	c-0.1,0.2-0.2,0.3-0.3,0.6c-0.2,0.2-0.3,0.4-0.5,0.6c-0.4,0.3-0.9,0.6-1.4,0.7c-0.4,0.1-0.9,0.3-1.1,0.2c-0.1,0-0.3,0-0.4,0l-0.3,0
	c-0.8-0.1-1.1-0.3-1.5-0.4c-0.7-0.3-1.1-0.6-1.6-0.8c-0.4-0.3-0.8-0.5-1.2-0.7c-3-2.1-5.7-4.1-8.5-6l-8.2-6
	c-10.9-8-22-15.9-33.3-23.5c-5.6-3.8-11.2-7.6-16.9-11.3l-2.1-1.4l-0.5-0.4c-0.1-0.1,0.1,0.1,0.1,0.1l-0.1-0.1l-0.1-0.1l-0.3-0.2
	l-1-0.7l-4.3-2.7l-8.7-5.4l-4.3-2.7c-1.5-0.8-2.9-1.7-4.4-2.5l-8.8-4.8l-4.3-2.4c-1.5-0.8-3-1.4-4.5-2.2l-9-4.3
	c-1.5-0.7-3-1.4-4.5-2.1l-4.6-1.8l-9.2-3.8c-1.5-0.7-3.1-1.2-4.6-1.7l-4.7-1.6l-4.7-1.6c-0.8-0.2-1.5-0.6-2.3-0.9l-2.4-0.6l-9.5-2.8
	c-1.5-0.5-3.2-0.7-4.8-1.1L2,266c-1.5-0.3-3.2-0.7-4.8-1l-4.8-0.7l-4.8-0.7c-1.6-0.3-3.2-0.3-4.8-0.6l-4.8-0.4
	c-1.6-0.1-3.2-0.2-4.7-0.2c-1.6-0.1-3.2-0.2-4.8-0.2l-4.7,0.1c-0.8,0-1.6,0-2.4,0.1l-2.3,0.1c-1.6,0.1-3.1,0.2-4.5,0.4
	c-1.5,0.2-3.1,0.4-4.5,0.6c-0.7,0.1-1.4,0.2-2.1,0.4L-53,264c-0.1,0-0.4,0.1-0.4,0.1l-0.2,0.1c-5.6,1.7-11.6-1.4-13.4-7.2
	c-1-3.1-0.4-6.3,1.1-8.9l0.2-0.3l8.9-14l8.9-13.9l17.9-27.4l9.1-13.6c3-4.5,6.2-9.1,9.3-13.5c3.2-4.5,6.3-8.9,9.6-13.3l1.4-1.9
	l1.3-1.6l2.4-3.2l5-6.5l1.3-1.6l1.3-1.7l2.9-3.4c1.8-2.1,3.7-4.4,5.5-6.5s3.8-4.1,5.7-6.3l5.7-6.2l6.1-6c2-1.9,4-4,6.1-5.9
	c4.2-3.8,8.3-7.7,12.7-11.1c4.3-3.6,8.9-7.1,13.4-10.5c4.6-3.2,9.2-6.6,14-9.6c4.8-3.1,9.7-5.9,14.7-8.6c2.5-1.3,5-2.7,7.7-3.8
	c1.3-0.7,2.6-1.2,3.9-1.8c0.7-0.3,1.3-0.5,2-0.8l2.2-0.8l0.9-0.3c2.9-1.1,6.1,0.3,7.3,3.2c0.6,1.6,0.5,3.4-0.4,4.9
	c-0.3,0.6-0.7,1.2-1.1,1.9l-1,2c-0.7,1.3-1.4,2.8-2,4.2c-0.6,1.4-1.2,2.8-1.8,4.2c-0.3,0.7-0.6,1.4-0.8,2.2l-0.8,2.2
	c-0.5,1.5-1.1,2.9-1.5,4.4c-0.2,0.8-0.5,1.5-0.6,2.2c-0.2,0.8-0.4,1.5-0.6,2.2l-0.5,2.2c-0.2,0.8-0.3,1.5-0.5,2.2
	c-0.1,0.8-0.3,1.5-0.4,2.3l-0.3,2.3l0,0.1c-0.1,0.8-0.7,1.2-1.5,1.2c-0.6-0.1-1-0.5-1.2-1.1l-0.4-2.5c-0.2-0.8-0.2-1.6-0.3-2.5
	s-0.2-1.6-0.1-2.5l-0.1-2.5c0-0.8,0.1-1.7,0-2.5c0-0.8,0.1-1.7,0.2-2.5c0.1-1.7,0.3-3.3,0.4-4.9c0.3-1.6,0.5-3.3,0.7-4.9
	c0.3-1.6,0.6-3.3,0.9-4.9c0.3-1.7,0.7-3.2,1.2-4.9l0.6-2.4c0.2-0.8,0.5-1.5,0.8-2.5l7.9,7.7l-1.5,1c-0.5,0.3-1.1,0.7-1.6,1.1
	c-1.1,0.7-2.2,1.5-3.3,2.2c-1.1,0.7-2.1,1.6-3.2,2.3c-1,0.8-2.1,1.6-3.1,2.4c-2,1.6-4.2,3.3-6.2,5c-2,1.7-4.1,3.3-6,5.1l-3,2.7
	l-1.5,1.3l-1.5,1.4l-5.8,5.4c-3.7,3.8-7.6,7.4-11.2,11.3c-3.7,3.8-7.3,7.8-10.8,11.6c-1.8,1.9-3.5,4-5.2,6l-5.2,6.1
	c-3.2,4.1-6.7,8.2-9.9,12.4c-1.6,2.1-3.1,4.1-4.7,6.2l-2.4,3l-1.2,1.5l-1.2,1.7L20.8,168c-3.1,4.4-6.3,8.9-9.5,13.3
	c-3.3,4.4-6.4,8.8-9.7,13.2l-9.8,13.1l-19.7,26l-9.8,13.1l-4.8,6.6l-4.6,6.5l-12-16.3l1-0.3c0.4-0.1,0.6-0.1,0.8-0.2l1.6-0.2
	c1.1-0.2,1.9-0.3,2.9-0.4c1.9-0.3,3.8-0.4,5.7-0.5s3.7-0.2,5.6-0.2l2.8,0c0.9,0,1.8,0.1,2.8,0l5.5,0.2c1.8,0.1,3.6,0.3,5.4,0.4
	c1.8,0.2,3.7,0.3,5.4,0.5l5.4,0.7c1.8,0.3,3.6,0.5,5.3,0.8l5.3,1.1l5.3,1.1c1.8,0.4,3.4,0.9,5.1,1.4l5.1,1.4
	c1.7,0.5,3.4,0.9,5.1,1.5l10,3.4l2.4,0.9c0.8,0.3,1.6,0.7,2.4,1l4.9,2l4.9,2c1.6,0.7,3.3,1.3,4.8,2.1l9.5,4.6l4.7,2.3
	c1.5,0.8,3.1,1.7,4.6,2.6l9.1,5c1.5,0.9,3.1,1.7,4.6,2.6l4.4,2.8l8.9,5.6c1.5,1,3,1.9,4.4,2.8l4.1,3l8.4,5.9l4.1,3l1.1,0.7l0.7,0.4
	l0.5,0.4l2,1.6c5.5,4.1,10.9,8.3,16.3,12.4c10.8,8.4,21.5,17,32,25.8l7.8,6.6c2.6,2.2,5.2,4.4,7.7,6.3c0.3,0.2,0.6,0.5,0.9,0.7
	s0.6,0.4,0.7,0.4c0.1,0.1,0.1,0.1-0.3,0l-0.1,0c-0.1,0-0.1,0-0.3,0c-0.1,0-0.5,0.1-0.8,0.2c-0.4,0.1-0.8,0.3-1.1,0.6
	c-0.1,0.1-0.3,0.3-0.4,0.6c-0.1,0.1-0.2,0.3-0.3,0.4c-0.1,0.2-0.2,0.3-0.2,0.4c-0.1,0.1-0.1,0.2-0.1,0.4c0,0.1-0.1,0.2-0.1,0.4
	c0,0.1,0.1,0.2,0.1,0.2s0,0,0-0.1c-0.1-0.5-0.4-1.3-0.6-2l-0.8-2.4c-1.2-3.2-2.5-6.3-3.6-9.6c-4.7-13-8.3-26.3-10.7-39.8l0,0
	c-0.1-0.7,0.3-1.4,1-1.5C164.9,304.7,165.5,305.1,165.7,305.8z"/>
</svg>
