<?xml version="1.0" encoding="utf-8"?>
<!-- Generator: Adobe Illustrator 19.0.0, SVG Export Plug-In . SVG Version: 6.00 Build 0)  -->
<svg version="1.1" id="Слой_1" xmlns="http://www.w3.org/2000/svg" xmlns:xlink="http://www.w3.org/1999/xlink" x="0px" y="0px"
	 viewBox="90 90 320 320" style="enable-background:new 90 90 320 320;" xml:space="preserve">
<path d="M210.8,363.4c-0.6-0.6-1-1-1.5-1.5l-1.4-1.4l-2.7-2.7l-5.2-5.4c-3.4-3.6-6.8-7.3-10.2-10.9c-3.3-3.7-6.6-7.4-9.8-11.2
	c-3.2-3.8-6.4-7.6-9.5-11.5s-6.2-7.7-9.2-11.7l-4.5-6l-4.4-6c-2.9-4-5.8-8.2-8.6-12.3c-2.8-4.2-5.5-8.4-8.2-12.6
	c-2.7-4.3-5.3-8.6-7.8-13l-1.9-3.3l-1.8-3.3l-3.6-6.7c-1.2-2.2-2.3-4.5-3.5-6.8c-1.1-2.3-2.2-4.6-3.3-6.9c-2.1-4.6-4.3-9.3-6.1-14
	c-1.9-4.8-3.8-9.5-5.3-14.4c-0.8-2.4-1.6-4.9-2.4-7.4c-0.7-2.5-1.4-5-2-7.5s-1.3-5-1.7-7.6c-0.3-1.3-0.5-2.5-0.7-3.8
	s-0.5-2.5-0.6-3.8c-0.7-5.1-1.3-10.3-1.2-15.5v-0.7c0-1.1,0.9-1.9,1.9-1.9c0.8,0,1.5,0.5,1.8,1.2c3.4,8.9,7.6,17.4,12.3,25.7
	c2.3,4.2,4.8,8.2,7.4,12.3c2.5,4,5.2,8,7.9,12c2.7,3.9,5.4,7.9,8.2,11.7c2.8,3.9,5.7,7.7,8.6,11.5c5.8,7.6,11.8,15.1,17.9,22.5
	c6.1,7.4,12.4,14.6,18.8,21.8c6.3,7.2,12.8,14.3,19.3,21.3s13.2,14,19.9,20.8c3.4,3.4,6.7,6.8,10.1,10.2c2.5,2.5,5,5,7.6,7.4
	l8.4-8.1l11-10.7c7.3-7.2,14.6-14.4,21.9-21.7c7.2-7.3,14.4-14.6,21.6-22l10.6-10.9l10.6-11.1c7.1-7.4,14.1-14.9,21-22.5
	c3.5-3.8,6.9-7.6,10.3-11.4s6.8-7.7,10.2-11.5s6.7-7.7,10.1-11.6c3.3-3.9,6.6-7.8,9.9-11.8c1.6-2,3.2-4,4.8-6s3.2-4,4.8-6
	s3.1-4,4.7-6.1l4.6-6.2c0.6-0.9,1.8-1,2.7-0.4c0.6,0.5,0.9,1.3,0.7,2l-0.2,0.7l-1.1,4l-1.2,3.9c-0.8,2.6-1.7,5.2-2.6,7.8
	c-0.9,2.6-1.9,5.1-2.9,7.6s-2.1,5-3.1,7.5c-2.1,5-4.5,9.8-6.8,14.7l-3.7,7.1c-1.2,2.4-2.4,4.8-3.8,7.1c-2.6,4.7-5.2,9.3-8,13.9
	c-2.8,4.5-5.6,9-8.4,13.5c-2.9,4.4-5.8,8.8-8.8,13.2c-3,4.4-6.1,8.6-9.2,12.9c-3.1,4.2-6.3,8.4-9.5,12.6c-3.2,4.2-6.5,8.2-9.8,12.3
	c-1.6,2-3.3,4-5,6c-1.7,2-3.3,4-5.1,6c-3.4,3.9-6.8,7.9-10.3,11.8l-5.3,5.8l-5.3,5.7c-3.6,3.8-7.2,7.6-10.8,11.3
	c-3.6,3.8-7.4,7.4-11.1,11.1c-1.9,1.8-3.8,3.6-5.7,5.4l-5.8,5.5l-0.1,0.1c-4.6,4.4-10.1,7.2-15.9,8.6c11.8-1.3,23.3-6.3,32.7-14.9
	l0.7-0.6l6.1-5.6c2-1.8,4-3.6,5.8-5.5l5.7-5.6l2.8-2.8l2.8-2.9c3.7-3.8,7.4-7.6,11-11.6l5.4-5.9l5.2-6c3.5-4,6.8-8.2,10.2-12.3
	c1.7-2,3.3-4.2,5-6.3c1.6-2.1,3.3-4.2,4.9-6.4c3.2-4.3,6.4-8.6,9.4-13.1c3.1-4.4,6-8.9,9-13.5c1.5-2.3,2.9-4.6,4.3-6.9l2.1-3.5
	l2.1-3.5c2.8-4.7,5.4-9.5,8-14.4l3.8-7.4c1.2-2.5,2.4-5,3.6-7.5c2.4-5.1,4.6-10.1,6.8-15.4c2.2-5.2,4.1-10.5,6.1-15.9
	c0.9-2.7,1.8-5.4,2.7-8.2c0.9-2.7,1.7-5.5,2.4-8.3c0.8-2.8,1.5-5.6,2.2-8.5c0.6-2.9,1.3-5.7,1.9-8.7c0.3-1.5,0.5-3,0.8-4.4
	c0.2-1.5,0.5-2.9,0.7-4.4l0.5-4.5c0.1-1.5,0.3-3,0.3-4.6l0.1-1.9c0-0.9-0.4-1.9-1.1-2.5c-1.3-1-3.2-0.8-4.2,0.5l-4.8,6.1
	c-1.6,2-3.2,4-4.9,6c-1.6,2-3.3,4-4.9,6s-3.3,4-5,5.9c-3.3,3.9-6.7,7.8-10.1,11.7l-10.3,11.5c-3.4,3.9-6.9,7.7-10.4,11.5
	s-7,7.6-10.5,11.3c-7.1,7.5-14.2,15-21.4,22.3l-21.7,22.1c-7.3,7.3-14.6,14.6-21.9,21.9c-7.4,7.2-14.8,14.4-22.2,21.6l-18,17.1
	c-2-1.9-4-3.8-6-5.7c-3.5-3.4-6.9-6.7-10.3-10.1c-6.8-6.8-13.5-13.7-20.2-20.7c-6.6-7-13.2-14.1-19.6-21.2l-9.6-10.8
	c-3.2-3.6-6.4-7.2-9.5-10.9c-6.3-7.3-12.4-14.7-18.3-22.3c-3-3.8-5.9-7.6-8.7-11.4c-2.9-3.8-5.6-7.7-8.4-11.6
	c-2.8-3.9-5.5-7.9-8.1-11.9s-5.2-8.1-7.5-12.2c-2.4-4.1-4.7-8.3-6.8-12.5c-2.2-4.2-4.2-8.5-5.9-12.9c-0.4-0.9-1.2-1.6-2.2-1.9
	c-1.7-0.3-3.3,0.8-3.6,2.4l-0.3,1.7c-1.1,5.7-1.4,11.4-1.5,17.1c0,1.4,0,2.8,0.1,4.2c0,1.4,0.1,2.8,0.2,4.2c0.1,2.8,0.4,5.6,0.7,8.4
	c0.6,5.6,1.6,11,2.7,16.4s2.4,10.7,4,16c1.5,5.2,3.2,10.4,5,15.5c0.9,2.5,1.8,5.1,2.8,7.6s2,5,3,7.4c1,2.5,2.1,4.9,3.2,7.3l1.6,3.6
	l1.7,3.6c1.2,2.4,2.3,4.8,3.5,7.1l3.6,7c1.2,2.3,2.5,4.6,3.8,6.9c1.3,2.3,2.5,4.6,3.9,6.8c2.7,4.4,5.3,8.9,8.2,13.2
	c1.4,2.2,2.8,4.3,4.2,6.5l4.4,6.3c2.9,4.2,6,8.3,9.1,12.4s6.3,8,9.5,12c3.2,3.9,6.6,7.8,9.9,11.7c3.4,3.8,6.8,7.6,10.3,11.4l5.4,5.6
	l2.8,2.8l1.4,1.4l0.7,0.7l0.9,0.8c7.2,6.8,15.7,11.5,24.7,13.9C217.8,368.9,214.2,366.5,210.8,363.4z"/>
</svg>
