<?xml version="1.0" encoding="utf-8"?>
<!-- Generator: Adobe Illustrator 19.0.0, SVG Export Plug-In . SVG Version: 6.00 Build 0)  -->
<svg version="1.1" id="Слой_1" xmlns="http://www.w3.org/2000/svg" xmlns:xlink="http://www.w3.org/1999/xlink" x="0px" y="0px"
	 viewBox="120 -120 608 500" enable-background="new 120 -120 608 500" xml:space="preserve">
<path  d="M208.2,197.5c-30.6-0.7-67.1-23-81.1-45.2c-18.4-29.1,3.7-65.9,15.8-85.4C200.2-25.5,335.8-85.4,468.1-93.6
	c43.1-2.7,119.5-6.5,185.7,32.7c15.7,9.3,54.5,38.8,71.6,82.3c25.7,65.6-142.6,80.3-137.1,105.8c2.6,12.3,42.3-4.5,55.2-5.5
	c103.6-7.5,77.8,42.5,68.6,59.1c-29.7,53.3-211.6,145.6-329.9,165.1c-54.9,9.1-157.1,18.6-187.7-10.7
	c-18.5-17.8-25.2-52.6-10.5-73.8c24.6-35.5,43.2-43.8,131.1-81.8c35-15.2,115.1-39.7,109.5-56.1
	C416.7,100.7,284.2,199.2,208.2,197.5z"/>
<path id="XMLID_1_" fill="#CE2C17" d="M605.6,238.8C605.6,238.8,605.5,238.8,605.6,238.8c-2.3,0-230.4,0.8-259,0
	c-11.3-0.3-21.1-0.7-25.5-2.4c-1.3-0.5-2.5-1-4.4-6.6c-0.6-1.9,0.8-10.1,15-24.8c7.6-7.9,15.8-14.5,20-17.7l232.4-24.5
	c6.6-0.7,11.8-5.8,12.7-12.3l23-165.4c0.6-4-0.6-8.1-3.2-11.2c-2.6-3.1-6.4-5-10.5-5.1L271.2-43.5l-23-55c-2-4.8-6.5-8.2-11.7-8.8
	l-100.6-10.6c-7.9-0.9-15,4.9-15.8,12.8c-0.8,7.9,4.9,15,12.8,15.8l92.1,9.8l103.7,248.3c-5,4.1-11.3,9.6-17.5,16
	c-19.7,20.4-27.1,38.6-21.8,54.3c9.3,27.3,29,27.8,56.4,28.6c9.9,0.3,42.3,0.3,81,0.3c74.6,0,172.6-0.3,178.8-0.3
	c7.9,0,14.4-6.5,14.3-14.4C619.9,245.3,613.5,238.8,605.6,238.8z M283.4-14.2L589.1-3.1l-19.3,138.4L355.3,158L283.4-14.2z
	 M337.4,274.9c-28.5,0-51.6,23.2-51.6,51.6c0,28.5,23.2,51.6,51.6,51.6S389,355,389,326.5C389,298.1,365.8,274.9,337.4,274.9z
	 M337.4,349.4c-12.6,0-22.8-10.2-22.8-22.8c0-12.6,10.2-22.8,22.8-22.8s22.8,10.2,22.8,22.8C360.2,339.1,350,349.4,337.4,349.4z
	 M557.2,274.9c-28.5,0-51.6,23.2-51.6,51.6c0,28.5,23.2,51.6,51.6,51.6c28.5,0,51.6-23.2,51.6-51.6
	C608.8,298.1,585.7,274.9,557.2,274.9z M557.2,349.4c-12.6,0-22.8-10.2-22.8-22.8c0-12.6,10.2-22.8,22.8-22.8
	c12.6,0,22.8,10.2,22.8,22.8C580.1,339.1,569.8,349.4,557.2,349.4z"/>
</svg>
