<?xml version="1.0" encoding="utf-8"?>
<!-- Generator: Adobe Illustrator 19.0.0, SVG Export Plug-In . SVG Version: 6.00 Build 0)  -->
<svg version="1.1" id="Слой_1" xmlns="http://www.w3.org/2000/svg" xmlns:xlink="http://www.w3.org/1999/xlink" x="0px" y="0px"
	 viewBox="0 0 500 500" enable-background="new 0 0 500 500" xml:space="preserve">
<g id="XMLID_1_">
	<path id="XMLID_12_" d="M485.6,358.8C485.6,358.8,485.5,358.8,485.6,358.8c-2.3,0-230.4,0.8-259,0c-11.3-0.3-21.1-0.7-25.5-2.4
		c-1.3-0.5-2.5-1-4.4-6.6c-0.6-1.9,0.8-10.1,15-24.8c7.6-7.9,15.8-14.5,20-17.7l232.4-24.5c6.6-0.7,11.8-5.8,12.7-12.3l23-165.4
		c0.6-4-0.6-8.1-3.2-11.2c-2.6-3.1-6.4-5-10.5-5.1L151.2,76.5l-23-55c-2-4.8-6.5-8.2-11.7-8.8L15.9,2.1C8,1.2,0.9,7,0.1,14.9
		c-0.8,7.9,4.9,15,12.8,15.8l92.1,9.8l103.7,248.3c-5,4.1-11.3,9.6-17.5,16c-19.7,20.4-27.1,38.6-21.8,54.3
		c9.3,27.3,29,27.8,56.4,28.6c9.9,0.3,42.3,0.3,81,0.3c74.6,0,172.6-0.3,178.8-0.3c7.9,0,14.4-6.5,14.3-14.4
		C499.9,365.3,493.5,358.8,485.6,358.8z M163.4,105.8l305.7,11.1l-19.3,138.4L235.3,278L163.4,105.8z"/>
	<path id="XMLID_15_" d="M217.4,394.9c-28.5,0-51.6,23.2-51.6,51.6c0,28.5,23.2,51.6,51.6,51.6S269,475,269,446.5
		C269,418.1,245.8,394.9,217.4,394.9z M217.4,469.4c-12.6,0-22.8-10.2-22.8-22.8c0-12.6,10.2-22.8,22.8-22.8
		c12.6,0,22.8,10.2,22.8,22.8C240.2,459.1,230,469.4,217.4,469.4z"/>
	<path id="XMLID_18_" d="M437.2,394.9c-28.5,0-51.6,23.2-51.6,51.6c0,28.5,23.2,51.6,51.6,51.6c28.5,0,51.6-23.2,51.6-51.6
		C488.8,418.1,465.7,394.9,437.2,394.9z M437.2,469.4c-12.6,0-22.8-10.2-22.8-22.8c0-12.6,10.2-22.8,22.8-22.8
		c12.6,0,22.8,10.2,22.8,22.8C460.1,459.1,449.8,469.4,437.2,469.4z"/>
</g>
</svg>
