<?xml version="1.0" encoding="utf-8"?>
<!-- Generator: Adobe Illustrator 19.0.0, SVG Export Plug-In . SVG Version: 6.00 Build 0)  -->
<svg version="1.1" id="Capa_1" xmlns="http://www.w3.org/2000/svg" xmlns:xlink="http://www.w3.org/1999/xlink" x="0px" y="0px"
	 viewBox="-49 51 400 400" style="enable-background:new -49 51 400 400;" xml:space="preserve">
<g>
	<g>
		<path d="M151,51C40.7,51-49,140.7-49,251c0,110.3,89.7,200,200,200c110.3,0,200-89.7,200-200C351,140.7,261.3,51,151,51z
			 M151,395.3C71.4,395.3,6.7,330.6,6.7,251c0-79.6,64.7-144.3,144.3-144.3c79.6,0,144.3,64.7,144.3,144.3
			C295.3,330.6,230.6,395.3,151,395.3z"/>
	</g>
</g>
<g>
	<path d="M258,251c0,10.3-8.4,18.7-18.7,18.7h-69.5v69.5c0,10.3-8.4,18.7-18.7,18.7c-5.2,0-9.9-2.1-13.2-5.5
		c-3.4-3.4-5.5-8.1-5.5-13.2l0-69.6H62.7c-5.2,0-9.8-2.1-13.2-5.5c-3.4-3.4-5.5-8.1-5.5-13.2c0-10.3,8.4-18.7,18.7-18.7h69.5v-69.5
		c0-10.3,8.4-18.7,18.7-18.7c10.3,0,18.7,8.4,18.7,18.7v69.6h69.6C249.6,232.3,258,240.7,258,251z"/>
</g>
</svg>
