<svg width="512" height="324" viewBox="0 0 512 324" version="1.1" xmlns="http://www.w3.org/2000/svg" xmlns:xlink="http://www.w3.org/1999/xlink">
<g id="Canvas" fill="none">
<g id="Vector">
<path d="M 476.158 137.301L 462.899 84.266C 466.524 83.496 469.244 80.28 469.244 76.427L 469.244 67.876C 469.244 49.31 454.139 34.206 435.574 34.206L 375.182 34.206L 375.182 16.568C 375.182 7.432 367.75 0 358.614 0L 50.772 0C 41.636 0 34.204 7.432 34.204 16.568L 34.204 161.938C 34.204 166.365 37.793 169.955 42.221 169.955C 46.648 169.955 50.238 166.366 50.238 161.938L 50.238 16.568C 50.238 16.273 50.477 16.034 50.772 16.034L 358.613 16.034C 358.908 16.034 359.147 16.273 359.147 16.568L 359.147 161.94C 359.147 166.367 362.736 169.957 367.164 169.957C 371.591 169.957 375.181 166.368 375.181 161.94L 375.181 152.852L 469.75 152.852C 469.758 152.852 469.764 152.854 469.771 152.854C 469.779 152.854 469.786 152.853 469.793 152.853C 481.43 152.861 491.311 160.499 494.705 171.024L 469.777 171.024C 465.35 171.024 461.76 174.613 461.76 179.041L 461.76 196.143C 461.76 209.994 473.028 221.262 486.879 221.262L 495.965 221.262L 495.965 256.535L 475.003 256.535C 468.117 236.652 449.216 222.33 427.021 222.33C 404.826 222.33 385.924 236.652 379.039 256.535L 375.179 256.535L 375.179 196.142C 375.179 191.715 371.59 188.125 367.162 188.125C 362.735 188.125 359.145 191.714 359.145 196.142L 359.145 256.533L 192.817 256.533C 185.931 236.65 167.03 222.328 144.835 222.328C 122.64 222.328 103.738 236.65 96.853 256.533L 50.772 256.533C 50.477 256.533 50.238 256.294 50.238 255.999L 50.238 238.362L 84.977 238.362C 89.404 238.362 92.994 234.773 92.994 230.345C 92.994 225.917 89.405 222.328 84.977 222.328L 8.017 222.328C 3.59 222.328 0 225.917 0 230.345C 0 234.773 3.589 238.362 8.017 238.362L 34.205 238.362L 34.205 255.999C 34.205 265.135 41.637 272.567 50.773 272.567L 94.077 272.567C 94.075 272.745 94.063 272.922 94.063 273.101C 94.063 301.097 116.84 323.873 144.835 323.873C 172.83 323.873 195.607 301.097 195.607 273.101C 195.607 272.921 195.595 272.745 195.593 272.567L 376.263 272.567C 376.261 272.745 376.249 272.922 376.249 273.101C 376.249 301.097 399.026 323.873 427.021 323.873C 455.016 323.873 477.793 301.097 477.793 273.101C 477.793 272.921 477.781 272.745 477.779 272.567L 503.982 272.567C 508.409 272.567 511.999 268.978 511.999 264.55L 511.999 179.039C 512 157.927 496.423 140.386 476.158 137.301ZM 375.182 50.239L 435.574 50.239C 445.299 50.239 453.211 58.151 453.211 67.876L 453.211 68.41L 375.182 68.41L 375.182 50.239ZM 375.182 136.819L 375.182 84.443L 446.417 84.443L 459.511 136.819L 375.182 136.819ZM 144.835 307.842C 125.68 307.842 110.096 292.259 110.096 273.103C 110.096 253.947 125.68 238.364 144.835 238.364C 163.99 238.364 179.574 253.947 179.574 273.103C 179.574 292.259 163.99 307.842 144.835 307.842ZM 427.023 307.842C 407.868 307.842 392.284 292.259 392.284 273.103C 392.284 253.947 407.868 238.364 427.023 238.364C 446.178 238.364 461.762 253.947 461.762 273.103C 461.762 292.259 446.178 307.842 427.023 307.842ZM 495.967 205.228L 486.881 205.228C 481.871 205.228 477.795 201.152 477.795 196.142L 477.795 187.056L 495.966 187.056L 495.966 205.228L 495.967 205.228Z" fill="black"/>
<path d="M 144.835 256.535C 135.699 256.535 128.267 263.967 128.267 273.103C 128.267 282.239 135.699 289.671 144.835 289.671C 153.971 289.671 161.403 282.239 161.403 273.103C 161.403 263.967 153.971 256.535 144.835 256.535Z" fill="black"/>
<path d="M 427.023 256.535C 417.887 256.535 410.455 263.967 410.455 273.103C 410.455 282.239 417.887 289.671 427.023 289.671C 436.159 289.671 443.591 282.239 443.591 273.103C 443.591 263.967 436.159 256.535 427.023 256.535Z" fill="black"/>
<path d="M 332.96 222.331L 213.244 222.331C 208.817 222.331 205.227 225.92 205.227 230.348C 205.227 234.776 208.816 238.365 213.244 238.365L 332.96 238.365C 337.387 238.365 340.977 234.776 340.977 230.348C 340.977 225.92 337.388 222.331 332.96 222.331Z" fill="black"/>
<path d="M 127.733 188.126L 25.1186 188.126C 20.6916 188.126 17.1016 191.715 17.1016 196.143C 17.1016 200.571 20.6906 204.16 25.1186 204.16L 127.733 204.16C 132.16 204.16 135.75 200.571 135.75 196.143C 135.75 191.715 132.16 188.126 127.733 188.126Z" fill="black"/>
<path d="M 278.771 79.3081C 275.641 76.1781 270.564 76.1781 267.434 79.3091L 196.142 150.6L 159.055 113.513C 155.924 110.382 150.848 110.382 147.718 113.513C 144.587 116.644 144.587 121.719 147.718 124.85L 190.474 167.606C 192.039 169.172 194.091 169.954 196.142 169.954C 198.193 169.954 200.246 169.172 201.81 167.606L 278.77 90.6461C 281.901 87.5141 281.901 82.4391 278.771 79.3081Z" fill="black"/>
</g>
</g>
</svg>

