<?xml version="1.0" encoding="utf-8"?>
<!-- Generator: Adobe Illustrator 19.0.0, SVG Export Plug-In . SVG Version: 6.00 Build 0)  -->
<svg version="1.1" id="Слой_1" xmlns="http://www.w3.org/2000/svg" xmlns:xlink="http://www.w3.org/1999/xlink" x="0px" y="0px"
	 viewBox="0 0 500 500" style="enable-background:new 0 0 500 500;" xml:space="preserve">
<path d="M9.2,211.4c0.6-0.6,1-1,1.5-1.5l1.4-1.4l2.7-2.7l5.4-5.2c3.6-3.4,7.3-6.8,10.9-10.2c3.7-3.3,7.4-6.6,11.2-9.8
	c3.8-3.2,7.6-6.4,11.5-9.5s7.7-6.2,11.7-9.2l6-4.5l6-4.4c4-2.9,8.2-5.8,12.3-8.6c4.2-2.8,8.4-5.5,12.6-8.2c4.3-2.7,8.6-5.3,13-7.8
	l3.3-1.9l3.3-1.8l6.7-3.6c2.2-1.2,4.5-2.3,6.8-3.5c2.3-1.1,4.6-2.2,6.9-3.3c4.6-2.1,9.3-4.3,14-6.1c4.8-1.9,9.5-3.8,14.4-5.3
	c2.4-0.8,4.9-1.6,7.4-2.4c2.5-0.7,5-1.4,7.5-2s5-1.3,7.6-1.7c1.3-0.3,2.5-0.5,3.8-0.7s2.5-0.5,3.8-0.6c5.1-0.7,10.3-1.3,15.5-1.2
	h0.7c1.1,0,1.9,0.9,1.9,1.9c0,0.8-0.5,1.5-1.2,1.8c-8.9,3.4-17.4,7.6-25.7,12.3c-4.2,2.3-8.2,4.8-12.3,7.4c-4,2.5-8,5.2-12,7.9
	c-3.9,2.7-7.9,5.4-11.7,8.2c-3.9,2.8-7.7,5.7-11.5,8.6c-7.6,5.8-15.1,11.8-22.5,17.9c-7.4,6.1-14.6,12.4-21.8,18.8
	c-7.2,6.3-14.3,12.8-21.3,19.3s-14,13.2-20.8,19.9c-3.4,3.4-6.8,6.7-10.2,10.1c-2.5,2.5-5,5-7.4,7.6l8.1,8.4l10.7,11
	c7.2,7.3,14.4,14.6,21.7,21.9c7.3,7.2,14.6,14.4,22,21.6l10.9,10.6l11.1,10.6c7.4,7.1,14.9,14.1,22.5,21c3.8,3.5,7.6,6.9,11.4,10.3
	c3.8,3.4,7.7,6.8,11.5,10.2s7.7,6.7,11.6,10.1c3.9,3.3,7.8,6.6,11.8,9.9c2,1.6,4,3.2,6,4.8s4,3.2,6,4.8s4,3.1,6.1,4.7l6.2,4.6
	c0.9,0.6,1,1.8,0.4,2.7c-0.5,0.6-1.3,0.9-2,0.7l-0.7-0.2l-4-1.1l-3.9-1.2c-2.6-0.8-5.2-1.7-7.8-2.6c-2.6-0.9-5.1-1.9-7.6-2.9
	s-5-2.1-7.5-3.1c-5-2.1-9.8-4.5-14.7-6.8l-7.1-3.7c-2.4-1.2-4.8-2.4-7.1-3.8c-4.7-2.6-9.3-5.2-13.9-8c-4.5-2.8-9-5.6-13.5-8.4
	c-4.4-2.9-8.8-5.8-13.2-8.8c-4.4-3-8.6-6.1-12.9-9.2c-4.2-3.1-8.4-6.3-12.6-9.5c-4.2-3.2-8.2-6.5-12.3-9.8c-2-1.6-4-3.3-6-5
	c-2-1.7-4-3.3-6-5.1c-3.9-3.4-7.9-6.8-11.8-10.3l-5.8-5.3l-5.7-5.3c-3.8-3.6-7.6-7.2-11.3-10.8c-3.8-3.6-7.4-7.4-11.1-11.1
	c-1.8-1.9-3.6-3.8-5.4-5.7l-5.5-5.8l-0.1-0.1c-4.4-4.6-7.2-10.1-8.6-15.9c1.3,11.8,6.3,23.3,14.9,32.7l0.6,0.7l5.6,6.1
	c1.8,2,3.6,4,5.5,5.8l5.6,5.7l2.8,2.8l2.9,2.8c3.8,3.7,7.6,7.4,11.6,11l5.9,5.4l6,5.2c4,3.5,8.2,6.8,12.3,10.2c2,1.7,4.2,3.3,6.3,5
	c2.1,1.6,4.2,3.3,6.4,4.9c4.3,3.2,8.6,6.4,13.1,9.4c4.4,3.1,8.9,6,13.5,9c2.3,1.5,4.6,2.9,6.9,4.3l3.5,2.1l3.5,2.1
	c4.7,2.8,9.5,5.4,14.4,8l7.4,3.8c2.5,1.2,5,2.4,7.5,3.6c5.1,2.4,10.1,4.6,15.4,6.8c5.2,2.2,10.5,4.1,15.9,6.1
	c2.7,0.9,5.4,1.8,8.2,2.7c2.7,0.9,5.5,1.7,8.3,2.4c2.8,0.8,5.6,1.5,8.5,2.2c2.9,0.6,5.7,1.3,8.7,1.9c1.5,0.3,3,0.5,4.4,0.8
	c1.5,0.2,2.9,0.5,4.4,0.7l4.5,0.5c1.5,0.1,3,0.3,4.6,0.3l1.9,0.1c0.9,0,1.9-0.4,2.5-1.1c1-1.3,0.8-3.2-0.5-4.2l-6.1-4.8
	c-2-1.6-4-3.2-6-4.9c-2-1.6-4-3.3-6-4.9c-2-1.6-4-3.3-5.9-5c-3.9-3.3-7.8-6.7-11.7-10.1l-11.5-10.3c-3.9-3.4-7.7-6.9-11.5-10.4
	s-7.6-7-11.3-10.5c-7.5-7.1-15-14.2-22.3-21.4l-22.1-21.7c-7.3-7.3-14.6-14.6-21.9-21.9c-7.2-7.4-14.4-14.8-21.6-22.2l-17.1-18
	c1.9-2,3.8-4,5.7-6c3.4-3.5,6.7-6.9,10.1-10.3c6.8-6.8,13.7-13.5,20.7-20.2c7-6.6,14.1-13.2,21.2-19.6l10.8-9.6
	c3.6-3.2,7.2-6.4,10.9-9.5c7.3-6.3,14.7-12.4,22.3-18.3c3.8-3,7.6-5.9,11.4-8.7c3.8-2.9,7.7-5.6,11.6-8.4c3.9-2.8,7.9-5.5,11.9-8.1
	s8.1-5.2,12.2-7.5c4.1-2.4,8.3-4.7,12.5-6.8c4.2-2.2,8.5-4.2,12.9-5.9c0.9-0.4,1.6-1.2,1.9-2.2c0.3-1.7-0.8-3.3-2.4-3.6l-1.7-0.3
	c-5.7-1.1-11.4-1.4-17.1-1.5c-1.4,0-2.8,0-4.2,0.1c-1.4,0-2.8,0.1-4.2,0.2c-2.8,0.1-5.6,0.4-8.4,0.7c-5.6,0.6-11,1.6-16.4,2.7
	s-10.7,2.4-16,4c-5.2,1.5-10.4,3.2-15.5,5c-2.5,0.9-5.1,1.8-7.6,2.8s-5,2-7.4,3c-2.5,1-4.9,2.1-7.3,3.2l-3.6,1.6l-3.6,1.7
	c-2.4,1.2-4.8,2.3-7.1,3.5l-7,3.6c-2.3,1.2-4.6,2.5-6.9,3.8c-2.3,1.3-4.6,2.5-6.8,3.9c-4.4,2.7-8.9,5.3-13.2,8.2
	c-2.2,1.4-4.3,2.8-6.5,4.2l-6.3,4.4c-4.2,2.9-8.3,6-12.4,9.1s-8,6.3-12,9.5c-3.9,3.2-7.8,6.6-11.7,9.9c-3.8,3.4-7.6,6.8-11.4,10.3
	l-5.6,5.4l-2.8,2.8l-1.4,1.4l-0.7,0.7l-0.8,0.9c-6.8,7.2-11.5,15.7-13.9,24.7C3.7,218.4,6.1,214.7,9.2,211.4z"/>
<path d="M128.7,222c9.5-1.2,19.9-2.2,30.8-2.9c10.9-0.7,22.4-1.2,34.3-0.9c5.9,0.2,12,0.5,18.1,0.9c6.1,0.5,12.3,1.1,18.5,1.7
	s12.5,1.3,18.8,1.8c6.3,0.6,12.6,1.1,19,1.5c12.7,0.8,25.4,1.6,37.8,2.5c12.5,0.8,24.8,1.8,36.6,2.7c11.9,1,23.4,1.9,34.3,2.9
	c10.9,1,21.2,1.9,30.7,2.7c9.5,0.8,18.2,1.7,25.9,2.4c7.7,0.7,14.5,1.4,20,2c11.2,1.1,17.5,1.8,17.5,1.8c1.1,0.1,1.9,1.1,1.8,2.2
	c-0.1,1-0.9,1.7-1.8,1.8c0,0-6.4,0.5-17.5,1.3c-5.6,0.4-12.3,0.9-20,1.4c-7.7,0.5-16.5,1.1-26,1.6s-19.8,1.1-30.8,1.8
	c-10.9,0.6-22.4,1.2-34.3,1.8c-11.9,0.6-24.2,1.2-36.7,1.7s-25.2,0.9-37.9,1.4c-6.3,0.3-12.7,0.5-19,0.9c-6.3,0.4-12.6,0.8-18.9,1.3
	c-6.3,0.4-12.5,0.9-18.6,1.1c-6.1,0.3-12.2,0.4-18.1,0.4c-11.9-0.1-23.4-0.8-34.3-1.9c-10.9-1-21.2-2.4-30.7-3.8
	c-1.2-0.2-2.4-0.4-3.5-0.6c1.2,0.4,2.3,0.7,3.5,1.1c7.7,2.3,16.4,4.6,25.9,6.7c4.7,1,9.7,2,14.8,2.9c5.1,0.9,10.4,1.7,15.9,2.4
	c10.9,1.5,22.4,2.5,34.3,2.5c5.9,0,12-0.3,18.1-0.7c6.1-0.5,12.3-1.1,18.6-1.8c12.5-1.4,25.2-2.7,37.9-3.4
	c12.7-0.8,25.4-1.4,37.9-2.3c12.5-0.8,24.8-1.8,36.7-2.7c11.9-1,23.4-1.9,34.3-2.9c5.5-0.5,10.8-0.9,15.9-1.4
	c5.1-0.5,10.1-0.9,14.9-1.4c9.5-0.9,18.3-1.8,26-2.5c7.7-0.8,14.5-1.5,20.1-2.1c5.6-0.6,9.9-1.1,12.9-1.4c3-0.4,4.6-0.5,4.6-0.5
	c1.3-0.2,2.3-1.1,2.5-2.5c0.2-1.6-0.9-3.1-2.5-3.3c0,0-1.6-0.2-4.6-0.7c-3-0.4-7.3-1-12.9-1.8c-5.5-0.8-12.3-1.7-20-2.7
	c-7.7-1-16.4-2.1-25.9-3.3c-4.8-0.6-9.7-1.2-14.8-1.8c-5.1-0.6-10.4-1.2-15.9-1.9c-10.9-1.3-22.4-2.5-34.2-3.9
	c-11.9-1.2-24.2-2.6-36.6-3.7c-12.5-1.2-25.1-2.3-37.8-3.4c-12.7-1.1-25.3-2.8-37.8-4.6c-6.2-0.9-12.4-1.7-18.5-2.3
	c-6.1-0.6-12.2-1.1-18.1-1.2c-11.9-0.4-23.4,0.4-34.3,1.5c-5.5,0.6-10.8,1.2-15.9,2s-10.1,1.6-14.9,2.5c-9.5,1.8-18.3,3.8-26.1,5.9
	c-3,0.8-5.8,1.6-8.5,2.4C123,222.7,125.8,222.3,128.7,222z"/>
</svg>
