<svg width="500" height="318" viewBox="0 0 500 318" xmlns="http://www.w3.org/2000/svg">
<path d="M490.323 198.1C489.723 198.7 489.323 199.1 488.823 199.6L484.723 203.7L479.323 208.9C475.723 212.3 472.023 215.7 468.423 219.1C464.723 222.4 461.023 225.7 457.223 228.9C453.423 232.1 449.623 235.3 445.723 238.4C441.823 241.5 438.023 244.6 434.023 247.6L428.023 252.1L422.023 256.5C418.023 259.4 413.823 262.3 409.723 265.1C405.523 267.9 401.323 270.6 397.123 273.3C392.823 276 388.523 278.6 384.123 281.1L380.823 283L377.523 284.8L370.823 288.4C368.623 289.6 366.323 290.7 364.023 291.9C361.723 293 359.423 294.1 357.123 295.2C352.523 297.3 347.823 299.5 343.123 301.3C338.323 303.2 333.623 305.1 328.723 306.6C326.323 307.4 323.823 308.2 321.323 309C318.823 309.7 316.323 310.4 313.823 311C311.323 311.6 308.823 312.3 306.223 312.7C304.923 313 303.723 313.2 302.423 313.4C301.123 313.6 299.923 313.9 298.623 314C293.523 314.7 288.323 315.3 283.123 315.2H282.423C281.323 315.2 280.523 314.3 280.523 313.3C280.523 312.5 281.023 311.8 281.723 311.5C290.623 308.1 299.123 303.9 307.423 299.2C311.623 296.9 315.623 294.4 319.723 291.8C323.723 289.3 327.723 286.6 331.723 283.9C335.623 281.2 339.623 278.5 343.423 275.7C347.323 272.9 351.123 270 354.923 267.1C362.523 261.3 370.023 255.3 377.423 249.2C384.823 243.1 392.023 236.8 399.223 230.4C406.423 224.1 413.523 217.6 420.523 211.1C427.523 204.6 434.523 197.9 441.323 191.2C444.723 187.8 448.123 184.5 451.523 181.1C454.023 178.6 456.523 176.1 458.923 173.5L450.823 165.1L440.123 154.1C432.923 146.8 425.723 139.5 418.423 132.2C411.123 125 403.823 117.8 396.423 110.6L385.523 100L374.423 89.4C367.023 82.3 359.523 75.3 351.923 68.4C348.123 64.9 344.323 61.5 340.523 58.1C336.723 54.7 332.823 51.3 329.023 47.9C325.223 44.5 321.323 41.2 317.423 37.8C313.523 34.5 309.623 31.2 305.623 27.9C303.623 26.3 301.623 24.7 299.623 23.1C297.623 21.5 295.623 19.9 293.623 18.3C291.623 16.7 289.623 15.2 287.523 13.6L281.323 9C280.423 8.4 280.323 7.2 280.923 6.3C281.423 5.7 282.223 5.4 282.923 5.6L283.623 5.8L287.623 6.9L291.523 8.1C294.123 8.9 296.723 9.8 299.323 10.7C301.923 11.6 304.423 12.6 306.923 13.6C309.423 14.6 311.923 15.7 314.423 16.7C319.423 18.8 324.223 21.2 329.123 23.5L336.223 27.2C338.623 28.4 341.023 29.6 343.323 31C348.023 33.6 352.623 36.2 357.223 39C361.723 41.8 366.223 44.6 370.723 47.4C375.123 50.3 379.523 53.2 383.923 56.2C388.323 59.2 392.523 62.3 396.823 65.4C401.023 68.5 405.223 71.7 409.423 74.9C413.623 78.1 417.623 81.4 421.723 84.7C423.723 86.3 425.723 88 427.723 89.7C429.723 91.4 431.723 93 433.723 94.8C437.623 98.2 441.623 101.6 445.523 105.1L451.323 110.4L457.023 115.7C460.823 119.3 464.623 122.9 468.323 126.5C472.123 130.1 475.723 133.9 479.423 137.6C481.223 139.5 483.023 141.4 484.823 143.3L490.323 149.1L490.423 149.2C494.823 153.8 497.623 159.3 499.023 165.1C497.723 153.3 492.723 141.8 484.123 132.4L483.523 131.7L477.923 125.6C476.123 123.6 474.323 121.6 472.423 119.8L466.823 114.1L464.023 111.3L461.123 108.5C457.323 104.8 453.523 101.1 449.523 97.5L443.623 92.1L437.623 86.9C433.623 83.4 429.423 80.1 425.323 76.7C423.323 75 421.123 73.4 419.023 71.7C416.923 70.1 414.823 68.4 412.623 66.8C408.323 63.6 404.023 60.4 399.523 57.4C395.123 54.3 390.623 51.4 386.023 48.4C383.723 46.9 381.423 45.5 379.123 44.1L372.123 39.9C367.423 37.1 362.623 34.5 357.723 31.9L350.323 28.1C347.823 26.9 345.323 25.7 342.823 24.5C337.723 22.1 332.723 19.9 327.423 17.7C322.223 15.5 316.923 13.6 311.523 11.6C308.823 10.7 306.123 9.8 303.323 8.9C300.623 8 297.823 7.2 295.023 6.5C292.223 5.7 289.423 5 286.523 4.3C283.623 3.7 280.823 3 277.823 2.4C276.323 2.1 274.823 1.9 273.423 1.6C271.923 1.4 270.523 1.1 269.023 0.900002L264.523 0.400002C263.023 0.300002 261.523 0.0999985 259.923 0.0999985L258.023 0C257.123 0 256.123 0.399998 255.523 1.1C254.523 2.4 254.723 4.3 256.023 5.3L262.123 10.1C264.123 11.7 266.123 13.3 268.123 15C270.123 16.6 272.123 18.3 274.123 19.9C276.123 21.5 278.123 23.2 280.023 24.9C283.923 28.2 287.823 31.6 291.723 35L303.223 45.3C307.123 48.7 310.923 52.2 314.723 55.7C318.523 59.2 322.323 62.7 326.023 66.2C333.523 73.3 341.023 80.4 348.323 87.6L370.423 109.3C377.723 116.6 385.023 123.9 392.323 131.2C399.523 138.6 406.723 146 413.923 153.4L431.023 171.4C429.123 173.4 427.223 175.4 425.323 177.4C421.923 180.9 418.623 184.3 415.223 187.7C408.423 194.5 401.523 201.2 394.523 207.9C387.523 214.5 380.423 221.1 373.323 227.5L362.523 237.1C358.923 240.3 355.323 243.5 351.623 246.6C344.323 252.9 336.923 259 329.323 264.9C325.523 267.9 321.723 270.8 317.923 273.6C314.123 276.5 310.223 279.2 306.323 282C302.423 284.8 298.423 287.5 294.423 290.1C290.423 292.7 286.323 295.3 282.223 297.6C278.123 300 273.923 302.3 269.723 304.4C265.523 306.6 261.223 308.6 256.823 310.3C255.923 310.7 255.223 311.5 254.923 312.5C254.623 314.2 255.723 315.8 257.323 316.1L259.023 316.4C264.723 317.5 270.423 317.8 276.123 317.9C277.523 317.9 278.923 317.9 280.323 317.8C281.723 317.8 283.123 317.7 284.523 317.6C287.323 317.5 290.123 317.2 292.923 316.9C298.523 316.3 303.923 315.3 309.323 314.2C314.723 313.1 320.023 311.8 325.323 310.2C330.523 308.7 335.723 307 340.823 305.2C343.323 304.3 345.923 303.4 348.423 302.4C350.923 301.4 353.423 300.4 355.823 299.4C358.323 298.4 360.723 297.3 363.123 296.2L366.723 294.6L370.323 292.9C372.723 291.7 375.123 290.6 377.423 289.4L384.423 285.8C386.723 284.6 389.023 283.3 391.323 282C393.623 280.7 395.923 279.5 398.123 278.1C402.523 275.4 407.023 272.8 411.323 269.9C413.523 268.5 415.623 267.1 417.823 265.7L424.123 261.3C428.323 258.4 432.423 255.3 436.523 252.2C440.623 249.1 444.523 245.9 448.523 242.7C452.423 239.5 456.323 236.1 460.223 232.8C464.023 229.4 467.823 226 471.623 222.5L477.223 217.1L482.123 212.2L482.923 211.3C489.723 204.1 494.423 195.6 496.823 186.6C495.823 191.1 493.423 194.8 490.323 198.1Z"/>
<path d="M370.823 187.5C361.323 188.7 350.923 189.7 340.023 190.4C329.123 191.1 317.623 191.6 305.723 191.3C299.823 191.1 293.723 190.8 287.623 190.4C281.523 189.9 275.323 189.3 269.123 188.7C262.923 188.1 256.623 187.4 250.323 186.9C244.023 186.3 237.723 185.8 231.323 185.4C218.623 184.6 205.923 183.8 193.523 182.9C181.023 182.1 168.723 181.1 156.923 180.2C145.023 179.2 133.523 178.3 122.623 177.3C111.723 176.3 101.423 175.4 91.9235 174.6C82.4235 173.8 73.7235 172.9 66.0235 172.2C58.3235 171.5 51.5235 170.8 46.0235 170.2C34.8235 169.1 28.5235 168.4 28.5235 168.4C27.4235 168.3 26.6235 167.3 26.7235 166.2C26.8235 165.2 27.6235 164.5 28.5235 164.4C28.5235 164.4 34.9235 163.9 46.0235 163.1C51.6235 162.7 58.3235 162.2 66.0235 161.7C73.7235 161.2 82.5235 160.6 92.0235 160.1C101.523 159.6 111.823 159 122.823 158.3C133.723 157.7 145.223 157.1 157.123 156.5C169.023 155.9 181.323 155.3 193.823 154.8C206.323 154.3 219.023 153.9 231.723 153.4C238.023 153.1 244.423 152.9 250.723 152.5C257.023 152.1 263.323 151.7 269.623 151.2C275.923 150.8 282.123 150.3 288.223 150.1C294.323 149.8 300.423 149.7 306.323 149.7C318.223 149.8 329.723 150.5 340.623 151.6C351.523 152.6 361.823 154 371.323 155.4C372.523 155.6 373.723 155.8 374.823 156C373.623 155.6 372.523 155.3 371.323 154.9C363.623 152.6 354.923 150.3 345.423 148.2C340.723 147.2 335.723 146.2 330.623 145.3C325.523 144.4 320.223 143.6 314.723 142.9C303.823 141.4 292.323 140.4 280.423 140.4C274.523 140.4 268.423 140.7 262.323 141.1C256.223 141.6 250.023 142.2 243.723 142.9C231.223 144.3 218.523 145.6 205.823 146.3C193.123 147.1 180.423 147.7 167.923 148.6C155.423 149.4 143.123 150.4 131.223 151.3C119.323 152.3 107.823 153.2 96.9235 154.2C91.4235 154.7 86.1235 155.1 81.0235 155.6C75.9235 156.1 70.9235 156.5 66.1235 157C56.6235 157.9 47.8235 158.8 40.1235 159.5C32.4235 160.3 25.6235 161 20.0235 161.6C14.4235 162.2 10.1235 162.7 7.12345 163C4.12345 163.4 2.52345 163.5 2.52345 163.5C1.22345 163.7 0.223455 164.6 0.0234546 166C-0.176545 167.6 0.923455 169.1 2.52345 169.3C2.52345 169.3 4.12345 169.5 7.12345 170C10.1235 170.4 14.4235 171 20.0235 171.8C25.5235 172.6 32.3235 173.5 40.0235 174.5C47.7235 175.5 56.4235 176.6 65.9235 177.8C70.7235 178.4 75.6234 179 80.7234 179.6C85.8234 180.2 91.1235 180.8 96.6235 181.5C107.523 182.8 119.023 184 130.823 185.4C142.723 186.6 155.023 188 167.423 189.1C179.923 190.3 192.523 191.4 205.223 192.5C217.923 193.6 230.523 195.3 243.023 197.1C249.223 198 255.423 198.8 261.523 199.4C267.623 200 273.723 200.5 279.623 200.6C291.523 201 303.023 200.2 313.923 199.1C319.423 198.5 324.723 197.9 329.823 197.1C334.923 196.3 339.923 195.5 344.723 194.6C354.223 192.8 363.023 190.8 370.823 188.7C373.823 187.9 376.623 187.1 379.323 186.3C376.523 186.8 373.723 187.2 370.823 187.5Z"/>
</svg>
