<?xml version="1.0" encoding="utf-8"?>
<!-- Generator: Adobe Illustrator 19.0.0, SVG Export Plug-In . SVG Version: 6.00 Build 0)  -->
<svg version="1.1" id="Layer_1" xmlns="http://www.w3.org/2000/svg" xmlns:xlink="http://www.w3.org/1999/xlink" x="0px" y="0px"
	 viewBox="69.8 -121.1 600 500" enable-background="new 69.8 -121.1 600 500" xml:space="preserve">
<path fill="#FFC808" d="M156.8,207.9c-30.2-0.7-66.2-22.7-80-44.6c-18.2-28.7,3.7-65.1,15.6-84.3C149-12.2,282.7-71.3,413.3-79.3
	C455.8-82,531.2-85.7,596.5-47c15.5,9.2,53.8,38.2,70.7,81.2c25.3,64.7-140.7,79.3-135.3,104.4c2.6,12.1,41.8-4.5,54.5-5.4
	c102.2-7.4,76.8,41.9,67.7,58.4c-29.3,52.6-208.9,143.6-325.5,163c-54.2,9-155.1,18.3-185.2-10.6c-18.3-17.5-24.8-51.9-10.4-72.8
	c24.3-35.1,42.6-43.2,129.3-80.7c34.6-15,113.6-39.1,108.1-55.3C362.7,112.4,231.8,209.6,156.8,207.9z"/>
<path fill="#CE2A0D" d="M417.3,166.5c-15.3,0-27.8-12.5-27.8-27.8s12.5-27.9,27.8-27.9c15.3,0,27.8,12.5,27.8,27.8
	S432.6,166.5,417.3,166.5z M417.3,127c-6.5,0-11.7,5.2-11.7,11.7s5.2,11.7,11.7,11.7s11.7-5.3,11.7-11.7
	C429,132.2,423.7,127,417.3,127z M445.1,24.3c-23.3,0-42.3-19-42.3-42.3s19-42.3,42.3-42.3c23.3,0,42.3,19,42.3,42.3
	S468.5,24.3,445.1,24.3z M445.1-35.9c-9.8,0-17.8,8-17.8,17.8s8,17.8,17.8,17.8c9.8,0,17.8-8,17.8-17.8S454.9-35.9,445.1-35.9z
	 M200.6-55.4c3.3,5.7,6.7,11.5,9.9,17.2l9.8,17.3L230-3.6c3.2,5.8,6.4,11.6,9.6,17.3l-7.4-2.2c3.2-2.2,6.6-4,10.1-5.5
	c3.6-1.5,7.3-2.6,11.2-3.3c1.9-0.4,3.9-0.6,5.8-0.7l1.5-0.1h1.7h2.6h1.3c0.5,0,1,0.1,1.5,0.1l3.1,0.3l1.6,0.2l1.5,0.3l2.9,0.6
	c1,0.2,1.9,0.5,2.9,0.8l2.9,0.9c1,0.3,1.9,0.7,2.8,1.1l2.8,1.2c1.8,0.9,3.5,1.9,5.3,2.9c1.7,1.1,3.3,2.2,5,3.5l2.2,2
	c0.8,0.7,1.6,1.3,2.3,2l2.1,2.2l1.1,1.1c0.3,0.4,0.7,0.8,1,1.2l1.9,2.4c0.3,0.4,0.7,0.8,0.9,1.2l0.9,1.3c1.1,1.7,2.3,3.4,3.2,5.2
	l1.4,2.7c0.5,0.9,0.8,1.9,1.2,2.8l1.2,2.9c0.3,1,0.6,2,0.9,3c0.3,1,0.6,2,0.9,3l0.6,3.1c0.2,1,0.4,2,0.5,3.1l0.3,3.1l0.1,1.6
	l0.1,0.8v0.2v0.1l0,0c0-0.1,0,0.8,0,0.4v0.3v2.6v0.6V63v0.4l-0.1,1.7c-0.1,1.1-0.2,2.3-0.3,3.4c-0.3,2.1-0.6,4.2-1.2,6.2
	c-0.3,1-0.5,2.1-0.8,3.1l-1,3c-1.4,4-3.2,7.9-5.4,11.5c-1,1.9-2.4,3.5-3.6,5.3c-1.4,1.6-2.7,3.4-4.2,4.9c-2.9,3.2-6.2,5.9-9.7,8.4
	s-7.4,4.5-11.3,6.3l6.7-17.6l22.2,40.5l22.4,40.4c7.5,13.5,15,26.8,22.6,40.2c7.6,13.4,15.2,26.7,23,39.8
	c7.8,13.1,15.6,26.3,23.7,39c4,6.4,8.2,12.6,12.4,18.7c2.1,3,4.2,6,6.4,8.9c2.1,2.9,4.3,5.7,6.4,8.2c1.1,1.3,2.1,2.5,3.1,3.6
	s2,2,2.7,2.7c0.4,0.3,0.7,0.6,0.8,0.6c0.1,0.1,0.1,0-0.7-0.4c-0.1-0.1-0.2-0.1-0.3-0.1l-0.5-0.2c-0.2-0.1-0.3-0.1-0.5-0.2
	c-0.2-0.1-0.5-0.2-0.7-0.2l-0.8-0.2c-0.3-0.1-0.7-0.1-1-0.1c-0.4,0-0.9-0.1-1.3-0.1h-0.7c-0.3,0-0.5,0-0.8,0c-2,0.1-4.7,0.8-6.8,2.1
	c-1.1,0.6-1.9,1.3-2.7,2c-0.4,0.3-0.7,0.6-1,1c-0.2,0.2-0.3,0.3-0.4,0.5l-0.3,0.4c-0.2,0.3-0.4,0.6-0.6,0.9
	c-0.2,0.2-0.3,0.4-0.4,0.7c-0.3,0.5-0.4,0.8-0.6,1.1c-0.3,0.6-0.4,1-0.5,1.2c-0.1,0.4-0.1,0.4-0.1,0.2l0.5-5.6l1.2-11.5l1.7-12.1
	c0.6-4,1.1-8.1,1.8-11.9l1.9-11.6c0.6-3.9,1.3-7.7,2-11.6c1.4-7.7,2.8-15.4,4.2-23l4.5-22.9c3.1-15.2,6.3-30.4,9.6-45.5
	c3.3-15.1,6.7-30.2,10.1-45.3c3.5-15.1,6.9-30.1,10.5-45.2c3.5-15.1,7.2-30.1,10.9-45.1c3.7-15,7.3-30,11.1-45l11.3-44.9l11.4-44.8
	l4.2,14.5c-4.2-4.4-8.8-8.4-13.8-12s-10.4-6.8-16-9.5c-5.7-2.7-11.7-5-17.9-6.9c-6.2-1.9-12.6-3.5-19.1-4.7
	c-6.5-1.2-13.2-2.1-19.9-2.7c-6.7-0.6-13.5-0.9-20.3-0.9c-6.8-0.1-13.7,0.1-20.6,0.4c-6.9,0.3-13.8,0.9-20.7,1.6
	c-6.9,0.7-13.8,1.5-20.7,2.6c-6.9,1-13.8,2.2-20.7,3.5c-13.8,2.5-27.5,5.6-41.2,9c-6.8,1.7-13.6,3.5-20.4,5.4
	c-6.8,1.9-13.6,3.9-20.4,6c-6.8,2-13.5,4.2-20.2,6.5c-3.4,1.1-6.7,2.3-10.1,3.4C207.2-57.8,203.9-56.6,200.6-55.4z M200.6-55.4
	c6.2-3.5,12.5-6.8,18.9-10c6.4-3.2,12.8-6.2,19.3-9.2c6.5-2.9,13.1-5.8,19.7-8.5c6.6-2.7,13.3-5.3,20-7.9c6.7-2.5,13.5-4.9,20.3-7.2
	c6.8-2.3,13.7-4.4,20.6-6.5c6.9-2,13.9-3.9,20.9-5.6c7-1.7,14.1-3.3,21.2-4.7c7-1.2,14.2-2.4,21.4-3.3c7.2-1,14.5-1.8,21.9-2.2
	c7.4-0.5,14.8-0.7,22.2-0.6c7.5,0.1,15,0.6,22.5,1.4c7.5,0.8,15.1,2.2,22.5,4c7.5,1.8,14.9,4.2,22.2,7.1c7.3,3,14.4,6.6,21.2,10.9
	c6.8,4.3,13.2,9.3,19.1,14.9c3.8,3.6,5.3,8.8,4.4,13.7l-0.2,0.8c-3.1,15.2-6.1,30.3-9.3,45.4l-9.6,45.3l-19.5,90.4l-9.8,45.2
	c-3.2,15.1-6.5,30.1-9.6,45.1c-3.2,15-6.3,30.1-9.4,45.1l-4.5,22.5l-4.3,22.5c-0.7,3.8-1.4,7.5-2,11.2l-1.9,11.2
	c-0.7,3.8-1.2,7.4-1.8,11l-1.7,10.8l-1.3,11.5l-0.7,5.9c-0.2,1.7-0.5,3.5-1.1,5.8c-0.3,1.2-0.8,2.4-1.4,4c-0.4,0.8-0.7,1.5-1.2,2.4
	c-0.3,0.4-0.5,0.9-0.8,1.3c-0.3,0.5-0.7,1-1,1.4l-0.6,0.7l-0.7,0.8c-0.5,0.5-0.9,1-1.5,1.5c-1.2,1-2.4,2-3.9,2.8
	c-1.4,0.9-3.1,1.5-4.7,2c-0.8,0.2-1.6,0.4-2.4,0.6c-0.8,0.2-1.5,0.2-2.3,0.3c-0.4,0-0.8,0-1.1,0.1c-0.3,0-0.7,0-1,0
	c-0.7,0-1.4-0.1-2-0.1c-0.6-0.1-1.1-0.2-1.7-0.3l-0.8-0.2l-0.7-0.2c-0.5-0.1-0.9-0.3-1.4-0.4c-0.4-0.1-0.8-0.3-1.2-0.4
	s-0.8-0.3-1.1-0.4l-1-0.4c-2.5-1.2-4.2-2.3-5.7-3.4s-2.6-2.1-3.7-3c-2.1-1.9-3.9-3.7-5.4-5.5c-1.6-1.8-3-3.5-4.4-5.2
	c-5.5-6.8-10-13.5-14.4-20.3c-4.4-6.7-8.5-13.5-12.6-20.3c-8.1-13.6-15.8-27.1-23.2-40.9c-7.4-13.7-14.6-27.5-21.7-41.3
	c-7.1-13.8-14-27.7-20.8-41.6c-6.9-13.9-13.6-27.9-20.2-41.8l-9.9-21c-3.3-7-6.5-14-9.7-21.1l-0.3-0.6c-2.9-6.3-0.1-13.7,6.1-16.6
	c0.3-0.1,0.6-0.3,0.9-0.4c2.4-0.9,4.8-1.9,7.1-3.2c2.2-1.4,4.4-2.9,6.3-4.7c1-0.8,1.9-1.9,2.8-2.8c0.8-1,1.7-2,2.5-3.1
	c1.6-2.1,2.9-4.5,4-6.9l0.8-1.9c0.3-0.6,0.4-1.3,0.7-1.9c0.5-1.3,0.7-2.6,1.1-3.9c0.1-0.6,0.2-1.2,0.3-1.8l0.2-0.9
	c0-0.1,0-0.1,0-0.2v-0.3l0.1-0.6l0.2-2.6V58c0-0.4,0,0.5,0,0.4l0,0v-0.1v-0.1v-0.5v-1v-2.1c0-0.7-0.1-1.4-0.2-2.1l-0.2-2.1
	c-0.1-0.7-0.3-1.4-0.4-2l-0.4-2l-0.6-2c-0.2-0.7-0.4-1.4-0.6-2l-0.8-1.9c-0.5-1.3-1.2-2.5-1.9-3.8l-0.5-0.9
	c-0.2-0.3-0.4-0.6-0.6-0.9l-1.2-1.8c-0.2-0.3-0.4-0.6-0.6-0.9l-0.7-0.8l-1.3-1.7c-0.4-0.6-1-1-1.5-1.6l-1.5-1.5
	c-1.1-1-2.2-1.9-3.3-2.8c-1.2-0.8-2.4-1.7-3.6-2.4l-1.9-1.1c-0.6-0.3-1.3-0.8-1.9-1l-2-0.9c-0.7-0.3-1.3-0.6-2.1-0.8l-2.1-0.7
	l-1.1-0.3l-1-0.2l-2-0.5c-0.3-0.1-0.6-0.2-1-0.2l-1.3-0.1l-2.6-0.3l-0.6-0.1H261h-0.1l0,0c-0.1,0,0.6,0,0.3,0h-0.1H260
	c-1.5,0-3,0-4.5,0.1c-3,0.2-6,0.7-9,1.6c-2.9,0.8-5.8,2-8.6,3.4l-0.6,0.3c-2.4,1.3-5.4,0.3-6.7-2.1c-0.1-0.1-0.1-0.3-0.2-0.4
	c-2.5-6.1-5.1-12.2-7.6-18.4l-7.5-18.4l-7.4-18.4C205.4-43,203-49.2,200.6-55.4z"/>
</svg>
