<?xml version="1.0" encoding="utf-8"?>
<!-- Generator: Adobe Illustrator 19.0.0, SVG Export Plug-In . SVG Version: 6.00 Build 0)  -->
<svg version="1.1" id="Слой_1" xmlns="http://www.w3.org/2000/svg" xmlns:xlink="http://www.w3.org/1999/xlink" x="0px" y="0px"
	 viewBox="58.1 -120 600.3 500" enable-background="new 58.1 -120 600.3 500" xml:space="preserve">
<path fill="#FFC808" d="M145.2,197.1c-30.2-0.7-66.2-22.7-80.1-44.6c-18.2-28.7,3.7-65.1,15.6-84.3C137.3-23,271.1-82.2,401.8-90.2
	c42.5-2.6,117.9-6.4,183.3,32.3c15.5,9.2,53.9,38.3,70.7,81.3c25.4,64.8-140.8,79.3-135.4,104.5c2.6,12.1,41.8-4.5,54.5-5.4
	c102.2-7.4,76.9,41.9,67.7,58.4c-29.4,52.7-209,143.7-325.7,163c-54.2,9-155.1,18.3-185.3-10.6c-18.3-17.5-24.8-51.9-10.4-72.9
	c24.3-35.1,42.7-43.2,129.4-80.8c34.6-15,113.6-39.2,108.2-55.4C351.1,101.6,220.2,198.8,145.2,197.1z"/>
<path fill="#CE2A0D" d="M570.2,380c-5.1,0-54.3-0.4-116.9-16c-38.1-9.5-73.3-22.6-104.5-39.1c-39.4-20.8-72.6-46.9-98.8-77.6
	c-56.9-66.9-92-119.6-113.7-170.9c-21-49.7-29.5-98.6-27.7-158.7c0.2-5.6,3.7-10.5,9-12.4c3.7-1.3,91.4-32.9,145.4-22
	c3.3,0.7,6.3,2.5,8.3,5.3C296.1-78,324.2,3,319.1,40.1c-0.6,4-2.9,7.6-6.3,9.7c-23.6,14.6-39.8,27.5-48.3,34.8
	c4.7,9.4,13.9,25.7,28.5,44.8c19.9,26,54.2,62.2,106.2,91.2c12.6-13.9,27.9-36,34.3-45.2c2.7-3.8,7.2-6.1,11.8-5.9
	c76.2,3.5,142.6,33.4,158.4,49.3c2.4,2.4,3.8,5.6,4,9c4.7,93.6-24.4,143.7-25.7,145.7c-2.4,4.1-6.9,6.6-11.7,6.7
	C570.5,380,570.4,380,570.2,380z M135.7-72c-1.2,105.2,33.8,182.7,135,301.6c54.2,63.7,132.4,93.8,188.4,107.8
	c46.7,11.7,86.3,14.5,102.9,15.1c6.7-15.2,20.9-55.2,18.8-117.5c-15.6-10.6-66.7-33.5-129.2-37.9c-10.2,14.5-27.3,38.2-40.6,50.3
	c-4.2,3.9-10.4,4.7-15.5,2c-61.9-32.2-102-74.5-124.8-104.4c-24.9-32.7-35.1-57.8-35.5-58.8c-2-5.1-0.8-10.9,3-14.7
	c0.8-0.8,18.8-18.6,54.2-41.2c0.1-29.1-20.3-91.2-40-121.1C214.6-95.9,157.4-79.1,135.7-72z M432.8,61.6c-3.5,0-7-1.3-9.7-4
	c-5.3-5.3-5.3-14,0-19.3l85.1-85.1c5.3-5.3,14-5.3,19.3,0s5.3,14,0,19.3l-85.1,85.1C439.8,60.2,436.3,61.6,432.8,61.6z M466.4,125.3
	l113.1-22.7c7.4-1.5,12.2-8.7,10.7-16.1c-1.5-7.4-8.7-12.2-16.1-10.7L461,98.5c-7.4,1.5-12.2,8.7-10.7,16.1c1.3,6.5,7,11,13.4,11
	C464.6,125.5,465.5,125.5,466.4,125.3z M383.6,16.7l32.9-102.5c2.3-7.2-1.6-14.9-8.8-17.2c-7.2-2.3-14.9,1.6-17.2,8.8L357.6,8.3
	c-2.3,7.2,1.6,14.9,8.8,17.2c1.4,0.4,2.8,0.7,4.2,0.7C376.4,26.2,381.7,22.5,383.6,16.7z"/>
</svg>
