<svg width="600" height="501" viewBox="0 0 600 501" version="1.1" xmlns="http://www.w3.org/2000/svg" xmlns:xlink="http://www.w3.org/1999/xlink">
<path d="M 86.9594 288.752C 56.7594 288.052 20.7594 266.052 6.95936 244.152C -11.2406 215.452 10.6594 179.052 22.5594 159.852C 79.1594 68.6519 212.859 9.55186 343.459 1.55186C 385.959 -1.14814 461.359 -4.84814 526.659 33.8519C 542.159 43.0519 580.459 72.0519 597.359 115.052C 622.659 179.752 456.659 194.352 462.059 219.452C 464.659 231.552 503.859 214.952 516.559 214.052C 618.759 206.652 593.359 255.952 584.259 272.452C 554.959 325.052 375.359 416.052 258.759 435.452C 204.559 444.452 103.659 453.752 73.5594 424.852C 55.2594 407.352 48.7594 372.952 63.1594 352.052C 87.4594 316.952 105.759 308.852 192.459 271.352C 227.059 256.352 306.059 232.252 300.559 216.052C 292.859 193.252 161.959 290.452 86.9594 288.752Z" transform="translate(0 40.2734)" fill="#ffa508"/>
<path d="M 397.908 213.709C 397.908 215.509 397.908 217.209 397.808 219.009C 397.708 220.809 397.708 222.609 397.608 224.409C 397.508 226.209 397.408 228.009 397.308 229.809C 397.208 231.609 397.008 233.409 396.908 235.209C 396.308 242.409 395.308 249.509 394.008 256.609C 391.508 270.909 387.708 285.009 382.608 298.809C 380.008 305.709 377.108 312.509 373.808 319.209C 370.508 325.909 366.908 332.509 362.808 338.809C 360.808 342.009 358.708 345.109 356.508 348.209L 355.908 349.109L 355.808 349.209C 355.808 349.209 355.608 349.409 355.708 349.409L 355.608 349.509L 354.808 350.609L 353.208 352.709L 349.908 356.909C 347.708 359.709 345.308 362.609 343.008 365.409C 340.708 368.309 338.408 371.009 336.008 373.809C 331.308 379.309 326.708 384.809 321.908 390.109C 317.108 395.509 312.308 400.809 307.508 406.009L 300.208 413.809L 292.808 421.609L 285.308 429.309L 277.708 436.909C 272.608 441.909 267.508 446.909 262.408 451.909L 254.708 459.309L 246.908 466.609C 241.708 471.509 236.408 476.309 231.108 481.109C 225.808 485.909 220.508 490.609 215.008 495.309L 213.908 496.209C 207.508 501.709 197.908 501.309 192.108 495.309C 178.308 481.109 164.808 466.709 151.508 452.009C 138.108 437.409 125.008 422.609 111.708 407.909C 98.4075 393.209 85.1075 378.609 71.8075 363.909L 61.8075 352.809L 56.8075 347.209L 55.7075 346.009L 55.0075 345.209L 54.4075 344.509C 53.6075 343.509 52.8075 342.609 52.0075 341.709C 48.7075 337.709 45.6075 333.709 42.7075 329.609C 39.7075 325.509 36.9075 321.309 34.2075 317.009C 23.4075 299.809 14.9075 281.009 9.10754 261.309C 3.20754 241.609 0.00753792 220.909 0.00753792 199.909C -0.0924621 189.409 0.807539 178.909 2.40754 168.409C 3.20754 163.209 4.20754 157.909 5.50754 152.809C 6.80754 147.609 8.30754 142.509 9.90754 137.409C 11.6075 132.309 13.5075 127.309 15.6075 122.409C 17.7075 117.509 20.1075 112.709 22.6075 107.909C 25.1075 103.209 27.9075 98.609 30.8075 94.009C 33.7075 89.509 36.8075 85.109 40.1075 80.809C 53.2075 63.709 69.1075 48.509 87.0075 36.109C 104.908 23.709 124.808 14.009 145.808 7.90902C 156.308 4.80902 167.108 2.60902 178.008 1.40902C 183.408 0.709017 188.908 0.409017 194.408 0.109017C 199.808 -0.090983 205.408 0.00901699 210.608 0.209017L 214.908 0.409017L 219.008 0.709017C 220.408 0.809017 221.708 1.00902 223.108 1.10902C 224.508 1.20902 225.808 1.40902 227.208 1.60902C 232.608 2.30902 238.008 3.20902 243.408 4.30902C 248.708 5.40902 254.008 6.80902 259.308 8.40902C 264.508 10.009 269.708 11.709 274.708 13.709C 295.008 21.709 313.608 33.309 329.508 47.709C 345.408 62.009 358.508 79.009 368.708 97.109C 378.908 115.309 386.108 134.609 391.008 154.209C 395.708 173.809 398.008 193.809 397.908 213.709ZM 393.908 213.709C 393.808 194.209 390.108 174.709 383.008 156.809C 375.908 138.809 365.408 122.409 352.808 108.409C 346.508 101.409 339.708 94.909 332.508 89.109C 328.908 86.109 325.308 83.409 321.508 80.709C 317.808 78.009 314.008 75.509 310.108 73.209C 294.608 63.709 278.208 56.409 261.308 51.209C 252.908 48.609 244.308 46.609 235.608 45.209C 231.308 44.509 226.908 44.009 222.508 43.609C 221.408 43.509 220.308 43.409 219.208 43.309C 218.108 43.209 217.008 43.109 215.908 43.109L 212.608 43.009L 209.508 42.909C 204.808 42.809 200.608 42.909 196.208 43.109C 191.808 43.309 187.508 43.709 183.108 44.209C 174.408 45.209 165.808 46.909 157.308 49.109C 140.408 53.509 124.108 60.509 109.008 69.709C 93.9075 78.909 80.2075 90.509 68.5075 104.009C 62.6075 110.709 57.3075 117.909 52.4075 125.509C 50.0075 129.309 47.6075 133.109 45.5075 137.109C 43.3075 141.009 41.3075 145.109 39.3075 149.209C 35.5075 157.409 32.2075 165.909 29.5075 174.709C 28.1075 179.109 27.0075 183.509 26.0075 188.009C 25.0075 192.509 24.1075 197.009 23.5075 201.609C 20.8075 220.009 20.9075 239.009 24.4075 257.609C 25.3075 262.209 26.3075 266.909 27.6075 271.409C 28.9075 276.009 30.3075 280.509 32.0075 284.909C 35.4075 293.809 39.5075 302.409 44.4075 310.609C 49.3075 318.809 54.9075 326.609 61.1075 333.709C 61.9075 334.609 62.7075 335.509 63.5075 336.409L 64.1075 337.109L 66.0075 339.009L 71.0075 344.309C 74.4075 347.809 77.9075 351.309 81.4075 354.709C 95.4075 368.409 110.108 381.609 124.908 394.509C 139.808 407.409 154.908 420.109 169.908 432.809C 185.008 445.409 200.108 458.209 214.908 471.009L 192.008 471.009C 196.908 465.909 201.908 460.909 206.908 455.809C 211.908 450.809 217.008 445.809 222.008 440.809L 229.608 433.409L 245.008 418.609L 252.708 411.309C 257.908 406.409 263.108 401.609 268.308 396.809C 273.508 392.009 278.808 387.209 284.008 382.509C 289.308 377.809 294.508 373.009 299.908 368.309L 315.808 354.209C 321.208 349.509 326.208 345.009 331.508 340.209C 336.908 335.209 341.808 331.009 346.608 326.109C 351.408 321.309 355.908 316.209 360.108 310.809C 364.308 305.409 368.308 299.709 371.808 293.809C 375.408 287.909 378.508 281.609 381.308 275.209C 384.108 268.809 386.408 262.209 388.208 255.409C 390.008 248.609 391.508 241.709 392.408 234.709C 392.608 233.009 392.908 231.209 393.008 229.509C 393.208 227.709 393.308 226.009 393.408 224.209C 393.808 220.709 393.908 217.209 393.908 213.709Z" transform="translate(101 0)" fill="#CE2A0D"/>
<path d="M 305.308 220.409C 305.308 220.409 305.308 221.009 305.208 222.209C 305.108 223.409 305.108 225.109 304.808 227.509C 304.408 232.209 303.508 239.009 301.308 247.409C 301.008 248.409 300.708 249.509 300.408 250.609C 300.008 251.709 299.708 252.809 299.308 254.009C 299.008 255.209 298.508 256.309 298.108 257.509C 297.708 258.709 297.308 259.909 296.708 261.109C 294.808 266.009 292.308 271.209 289.208 276.509C 286.108 281.809 282.408 287.309 278.008 292.609C 273.508 298.009 268.308 303.309 262.208 308.109C 256.108 312.909 249.108 317.409 241.408 320.909C 233.608 324.509 225.008 327.109 216.008 328.709C 214.908 328.909 213.708 329.009 212.608 329.209C 211.408 329.309 210.308 329.509 209.108 329.609C 207.908 329.709 206.808 329.809 205.608 329.909L 203.808 330.009L 201.908 330.009C 200.808 330.009 199.708 330.009 198.708 330.109C 198.208 330.109 197.508 330.109 196.908 330.109L 195.008 330.009C 192.408 329.909 190.108 329.709 187.608 329.509C 182.708 328.909 177.808 328.209 173.008 326.909C 170.508 326.409 168.108 325.609 165.708 324.909C 164.508 324.509 163.308 324.109 162.108 323.709L 160.308 323.109L 158.508 322.409C 149.008 318.609 139.808 313.309 131.408 306.809C 127.208 303.509 123.208 299.909 119.408 296.009C 115.608 292.109 112.208 287.809 109.008 283.409C 105.808 278.909 103.008 274.209 100.408 269.209C 97.8075 264.309 95.8075 259.109 93.9075 253.709C 92.1075 248.409 90.8075 242.909 89.7075 237.309L 89.0075 233.109C 88.8075 231.709 88.7075 230.309 88.5075 228.909C 88.3075 227.509 88.2075 226.109 88.1075 224.709L 88.0075 222.609L 87.9075 221.509L 87.9075 220.709C 87.9075 220.409 87.9075 220.909 87.9075 220.009L 87.9075 215.409C 87.9075 215.109 87.9075 214.809 87.9075 214.409L 88.1075 209.809C 88.1075 209.009 88.2075 208.309 88.3075 207.609L 88.7075 203.309C 88.8075 201.909 89.1075 200.509 89.3075 199.109L 89.6075 197.009L 90.0075 194.909C 90.3075 193.509 90.5075 192.109 90.8075 190.709L 91.8075 186.509C 94.7075 175.409 99.1075 164.709 105.008 154.909C 108.008 150.009 111.308 145.309 114.908 140.909C 118.508 136.509 122.508 132.409 126.708 128.609C 135.208 121.009 144.708 114.809 154.808 110.309L 156.708 109.409L 158.608 108.609C 159.908 108.109 161.208 107.609 162.508 107.109C 165.108 106.209 167.708 105.309 170.308 104.609C 171.608 104.309 172.908 103.909 174.208 103.609C 175.508 103.309 176.808 103.009 178.208 102.709C 179.508 102.409 180.908 102.209 182.208 102.009C 183.508 101.809 184.808 101.609 186.208 101.409C 188.808 101.109 191.508 100.809 194.108 100.709C 195.408 100.709 196.708 100.609 198.008 100.609C 199.308 100.609 200.608 100.609 201.908 100.609L 204.308 100.609L 205.908 100.709C 207.008 100.809 208.008 100.909 209.108 100.909C 210.408 101.009 211.808 101.209 213.208 101.409C 214.608 101.609 215.908 101.709 217.108 102.009C 227.008 103.709 236.408 106.809 244.708 111.009C 246.808 112.109 248.808 113.109 250.808 114.309C 251.808 114.909 252.708 115.509 253.708 116.109C 254.608 116.709 255.608 117.309 256.508 118.009C 260.208 120.409 263.608 123.209 266.808 126.009C 273.108 131.609 278.308 137.709 282.708 143.709C 287.108 149.809 290.508 155.909 293.308 161.709C 296.108 167.609 298.208 173.109 299.808 178.409C 301.408 183.609 302.608 188.409 303.308 192.809C 304.908 201.609 305.308 208.509 305.408 213.209C 305.508 215.509 305.408 217.309 305.408 218.609C 305.308 219.709 305.308 220.309 305.308 220.409ZM 301.308 220.309C 301.308 220.309 301.308 219.709 301.208 218.509C 301.108 217.309 301.108 215.609 300.808 213.409C 300.308 209.009 299.208 202.409 296.208 194.709C 293.308 187.009 288.408 178.009 280.808 169.809C 273.308 161.509 263.108 154.109 251.308 149.009C 239.508 143.909 226.408 140.909 212.808 140.609C 211.908 140.509 211.208 140.609 210.408 140.609C 209.608 140.609 208.908 140.609 208.108 140.609C 207.008 140.609 206.008 140.709 204.908 140.709L 203.308 140.709C 202.808 140.709 203.808 140.709 203.608 140.709L 202.508 140.709C 201.608 140.809 200.808 140.809 199.908 140.909C 199.008 141.009 198.208 141.109 197.308 141.209C 195.608 141.409 193.908 141.709 192.108 142.009C 188.708 142.709 185.208 143.409 181.808 144.509C 180.108 145.009 178.408 145.609 176.708 146.209C 175.908 146.509 175.008 146.909 174.208 147.209L 172.908 147.709L 171.708 148.309C 165.008 151.109 158.608 154.909 152.608 159.509C 149.608 161.709 146.708 164.309 143.908 167.009C 141.108 169.709 138.608 172.609 136.208 175.709C 133.808 178.809 131.708 182.109 129.708 185.609C 127.708 189.109 126.208 192.809 124.708 196.509C 123.308 200.309 122.208 204.209 121.408 208.209L 120.908 211.209C 120.808 211.709 120.708 212.209 120.708 212.609L 120.308 215.409C 120.308 215.609 120.208 215.909 120.208 216.209L 120.108 217.109L 119.908 220.809L 119.908 223.509C 119.908 224.509 119.908 225.609 120.008 226.609C 120.108 227.609 120.008 228.709 120.108 229.709L 120.408 232.809C 120.908 236.909 121.608 241.009 122.608 245.009C 124.708 253.009 128.008 260.709 132.208 267.809C 140.808 282.009 153.508 293.609 168.008 300.809L 169.308 301.509L 170.708 302.109C 171.608 302.509 172.508 302.909 173.508 303.309C 175.408 304.009 177.208 304.809 179.108 305.409C 182.908 306.709 186.708 307.709 190.608 308.509C 192.508 308.809 194.508 309.209 196.308 309.409L 197.708 309.609C 198.208 309.709 198.608 309.709 199.108 309.809C 200.208 309.909 201.308 309.909 202.308 310.009L 203.108 310.109L 203.708 310.109C 203.808 310.109 203.308 310.109 203.608 310.109L 205.108 310.109C 206.108 310.109 207.008 310.209 208.008 310.209C 209.008 310.209 209.908 310.209 210.908 310.109C 211.908 310.109 212.808 310.109 213.808 310.009C 215.708 309.909 217.608 309.809 219.508 309.609C 220.408 309.509 221.408 309.409 222.308 309.309C 223.208 309.209 224.208 309.009 225.108 308.909C 226.008 308.809 226.908 308.609 227.908 308.409C 228.808 308.209 229.708 308.009 230.608 307.809C 231.508 307.609 232.408 307.309 233.308 307.109C 234.208 306.909 235.108 306.709 236.008 306.409C 243.008 304.409 249.708 301.709 255.808 298.409C 261.908 295.109 267.408 291.209 272.308 287.009C 277.108 282.809 281.308 278.209 284.808 273.509C 291.808 264.209 295.908 254.609 298.208 246.509C 300.608 238.409 301.208 231.709 301.408 227.309C 301.608 225.109 301.508 223.309 301.508 222.109C 301.308 220.909 301.308 220.309 301.308 220.309Z" transform="translate(101 0)" fill="#CE2A0D"/>
</svg>