<?xml version="1.0" encoding="utf-8"?>
<!-- Generator: Adobe Illustrator 19.0.0, SVG Export Plug-In . SVG Version: 6.00 Build 0)  -->
<svg version="1.1" id="Layer_1" xmlns="http://www.w3.org/2000/svg" xmlns:xlink="http://www.w3.org/1999/xlink" x="0px" y="0px"
	 viewBox="70 -120 600 500" enable-background="new 70 -120 600 500" xml:space="preserve">
<path fill="#FFC808" d="M157,207.5c-30.2-0.7-66.2-22.7-80-44.6c-18.2-28.7,3.7-65.1,15.6-84.3c56.6-91.3,190.4-150.4,321-158.4
	c42.5-2.6,117.9-6.4,183.2,32.3c15.5,9.2,53.8,38.2,70.7,81.2c25.3,64.7-140.7,79.3-135.3,104.4c2.6,12.1,41.8-4.5,54.5-5.4
	c102.2-7.4,76.8,41.9,67.7,58.4c-29.3,52.6-208.9,143.6-325.5,163c-54.2,9-155.1,18.3-185.2-10.6c-18.3-17.5-24.8-51.9-10.4-72.8
	c24.3-35.1,42.6-43.2,129.3-80.7c34.6-15,113.6-39.1,108.1-55.3C362.8,112,232,209.2,157,207.5z"/>
<path fill="#CE2A0D" d="M563.5,61.4c0,0,0.5,1.3,1.6,3.8c1.1,2.5,2.6,6.2,4.4,11.1c1.7,5,3.9,11.1,5.8,18.5c1.9,7.4,4,16,5.3,25.8
	c1.4,9.8,2.3,20.8,2.2,32.8c-0.1,12.1-1.3,25-4.1,38.8c-0.7,3.5-1.5,6.8-2.3,10.4c-0.5,1.7-1,3.5-1.4,5.3c-0.5,1.7-1.1,3.5-1.6,5.3
	c-2.2,7-5,14.3-8.3,21.4c-6.5,14.4-15.1,28.7-26,42.3c-10.8,13.6-24,26.3-39.2,37.4c-15.2,10.9-32.5,20.4-51.2,27.3
	c-18.7,6.8-38.9,11.4-59.9,12.9c-20.8,1.5-42.4,0-63.5-5c-21.1-5-41.7-13.4-60.6-24.6c-19-11.3-36.4-25.4-51.6-41.7
	c-15.2-16.2-28.3-34.6-38.6-54.6c-10.3-20-17.7-41.6-22-63.8c-4.2-22.3-5.2-45.2-2.8-67.9c1.2-11.3,3.4-22.6,6.3-33.6
	c1.5-5.5,3.2-10.9,5.1-16.3c1.9-5.3,4.1-10.6,6.4-15.8c9.3-20.8,22.1-39.8,37.1-56.5s32.4-30.8,51.1-42.2s38.8-19.7,59.3-24.9
	c10.2-2.7,20.5-4.5,30.8-5.6c2.6-0.3,5.1-0.5,7.7-0.7c2.6-0.1,5.1-0.4,7.7-0.4c1.2,0,2.6-0.1,3.8-0.1s2.6,0,3.8,0h1.9h1.9
	c1.2,0,2.3,0,3.6,0.1c40.6,1.1,77.6,13.5,107.5,31.5c7.5,4.5,14.5,9.3,21.1,14.4c6.5,5.1,12.8,10.4,18.4,15.9
	c5.7,5.5,10.9,11.1,15.7,16.9c4.8,5.7,9.1,11.5,13.1,17.4c7.9,11.5,14.2,23.1,19,34.1c2.5,5.5,4.6,10.9,6.3,16.1
	c1.8,5.2,3.4,10.2,4.6,15c5.1,19.2,6.4,34.8,6.8,45.4c0.2,5.3,0.1,9.3,0.1,12.1c-0.1,2.8-0.1,4.1-0.1,4.1l-2.1,0.1
	c0,0-0.1-1.3-0.4-4.1c-0.3-2.7-0.8-6.6-1.5-11.7c-0.8-5.1-1.9-11.3-3.8-18.6c-1.8-7.3-4.1-15.5-7.5-24.4
	c-6.6-17.9-17.1-38.7-33.2-59.3c-4.1-5.1-8.5-10.2-13.3-15.3c-4.8-5-9.9-10-15.4-14.7c-11-9.6-23.6-18.5-37.6-26
	c-14.4-8.1-29.8-14.4-46.4-18.9c-8.3-2.2-16.8-4-25.4-5.2c-4.4-0.6-8.8-1.1-13.2-1.5c-2.2-0.2-4.5-0.3-6.7-0.4
	c-2.2-0.1-4.4-0.1-6.6-0.2c-1.2,0-2.3,0-3.6,0h-1.6h-1.7c-1.1,0-2.2,0-3.5,0c-1.1,0-2.2,0.1-3.5,0.1c-2.2,0.1-4.6,0.3-6.9,0.4
	c-2.3,0.2-4.6,0.4-6.9,0.6l-3.5,0.4l-3.5,0.5c-2.3,0.3-4.6,0.7-6.9,1c-4.6,0.8-9.3,1.7-13.9,3c-18.5,4.5-36.8,11.6-54,21.4
	s-33.4,22.3-47.6,37.1s-26.4,31.9-36.1,50.6c-4.8,9.4-9,19.1-12.5,29.2c-3.5,10.1-6.1,20.4-8.1,31.1c-3.9,21.1-4.5,43.2-1.4,64.8
	c3,21.7,9.6,42.8,19.4,62.3s22.9,37.3,38.3,52.3c15.4,15,33.1,27.3,51.9,36.5c18.8,9.2,38.5,15.3,58.3,18.7
	c39.5,6.6,79.2,3.1,113.6-9.1c17.2-6.1,33.1-14.4,47.2-24.2c14.1-9.8,26.5-21.1,36.9-33.3c10.4-12.2,18.9-25,25.5-38.1
	c6.6-13.1,11.4-26.1,14.8-38.9c3.4-12.7,5.2-24.9,6.1-36.4c0.9-11.4,0.7-22,0.1-31.6c-0.6-9.5-1.7-18.1-3.1-25.4
	c-0.3-1.8-0.6-3.6-1-5.3s-0.7-3.3-1-4.9c-0.6-3.2-1.3-5.9-1.9-8.5c-1.2-5-2.3-8.8-3.1-11.4c-0.7-2.6-1.1-3.9-1.1-3.9L563.5,61.4z
	 M301.4-93.4c0,0,1.5-0.5,4.4-1.5c2.9-1.1,7.3-2.6,13-4.3c5.7-1.7,12.9-3.8,21.3-5.5c8.5-1.8,18.4-3.6,29.5-4.7
	c11.1-1,23.7-1.6,37.3-0.8c13.6,0.7,28.2,2.8,43.5,6.5c3.9,0.9,7.7,2,11.6,3.2c1.9,0.6,3.9,1.2,5.8,1.9c1.9,0.6,3.9,1.4,5.9,2
	c7.9,2.9,15.8,6.3,23.8,10.3c15.8,8,31.7,18.3,46.4,31.2c14.8,12.8,28.5,28.1,40.3,45.7c11.7,17.6,21.6,37.3,28.6,58.6
	c6.9,21.3,11.3,44.2,12.2,67.7c1,23.5-1.4,47.7-7.6,71.3c-6.1,23.6-16,46.6-29.2,67.7c-6.6,10.5-14,20.7-22.1,30.3
	c-4.1,4.8-8.3,9.4-12.7,14c-4.4,4.5-9,8.9-13.7,13.1c-18.9,16.8-40.2,31.1-63.3,41.9c-23.1,10.8-47.9,18.4-73.3,22.1
	c-25.4,3.7-51.5,3.7-76.9-0.2c-25.5-4-50.5-11.8-73.3-23.4c-5.7-2.9-11.3-5.9-16.8-9.3c-5.4-3.3-10.7-6.8-15.9-10.5
	c-10.3-7.5-20.1-15.5-29.1-24.3C173.1,292,157.9,272,146,250.4c-11.8-21.4-20.4-44.3-25.5-67.5c-1.3-5.8-2.2-11.5-3.2-17.4
	c-0.8-5.8-1.5-11.5-1.9-17.4c-0.2-2.9-0.3-5.7-0.5-8.7c-0.1-2.9-0.2-5.7-0.2-8.6c0-1.4,0-2.9,0-4.3s0.1-2.9,0.1-4.3v-2.1l0.1-2.1
	c0.1-1.3,0.1-2.8,0.2-4.1c0.2-2.9,0.4-5.7,0.7-8.5c0.3-2.8,0.5-5.5,0.9-8.3c0.7-5.5,1.6-10.9,2.7-16.3c2.1-10.7,4.9-21.1,8.3-31.3
	c3.4-10,7.3-19.7,11.7-28.9c4.4-9.2,9.3-18,14.6-26.3s10.8-16,16.8-23.3c5.9-7.3,12.2-14,18.5-20.2c6.3-6.2,12.9-12.1,19.4-17.3
	c6.5-5.3,13.3-10,19.8-14.3c13.3-8.6,26.5-15.4,39-20.6c6.3-2.7,12.4-4.9,18.3-6.8c5.9-1.9,11.6-3.6,17.1-4.9
	c21.8-5.3,39.4-6.5,51.4-6.9c6-0.1,10.6,0,13.7,0.1s4.7,0.2,4.7,0.2v1.6c0,0-1.5,0.1-4.6,0.2s-7.6,0.5-13.5,1
	c-5.9,0.6-13.1,1.5-21.4,3.2c-8.4,1.6-18,3.8-28.4,7.1c-20.8,6.5-45.5,17.4-70.1,34.9c-6.1,4.4-12.3,9.2-18.3,14.5
	c-6,5.2-12.1,10.9-17.9,17.1c-11.6,12.3-22.5,26.5-32,42.2C157,18,148.9,35.6,143,54.5c-3,9.5-5.4,19.3-7.3,29.3
	c-0.9,5-1.7,10.1-2.2,15.3c-0.3,2.6-0.5,5.2-0.8,7.8c-0.2,2.7-0.4,5.1-0.5,7.8c-0.1,1.3-0.1,2.8-0.2,4.1l-0.1,1.9v1.9
	c0,1.3-0.1,2.7-0.1,4c0,1.3,0,2.7,0,4c0,2.7,0.1,5.3,0.2,8.1c0.2,2.7,0.2,5.4,0.5,8.1c0.1,1.3,0.2,2.7,0.3,4.1
	c0.1,1.3,0.3,2.7,0.4,4.1c0.2,2.7,0.6,5.4,1,8.1c0.8,5.4,1.7,10.8,2.9,16.2c4.6,21.7,12.2,43.1,23.1,63.4
	c10.8,20.3,24.7,39.4,41.5,56.4c4.2,4.2,8.5,8.4,13,12.3c4.5,3.9,9.1,7.8,14,11.3c9.6,7.3,19.8,13.8,30.4,19.7
	c21.3,11.6,44.6,20.3,68.9,25.2c24.3,4.9,49.5,6.1,74.5,3.3c24.9-2.9,49.3-9.7,72.1-20.2c22.7-10.5,43.6-24.7,61.5-41.8
	c9-8.5,17.3-17.7,24.6-27.3c3.7-4.8,7.3-9.8,10.6-14.8c3.3-5.1,6.4-10.3,9.3-15.5c11.6-21,19.7-43.5,24.7-66.2
	c1.2-5.7,2.2-11.3,3.1-17.1c0.8-5.7,1.5-11.3,1.9-17.1c0.3-2.9,0.4-5.6,0.5-8.4c0.1-1.4,0.1-2.9,0.2-4.4V137v-1v-2.1
	c0-2.9,0.1-5.6,0-8.4c0-1.4,0-2.8-0.1-4.2c-0.1-1.4-0.1-2.8-0.2-4.2c-1-22.3-5-43.8-11.3-63.9c-6.5-20.1-15.5-38.8-26.4-55.6
	c-10.8-16.8-23.6-31.4-37.3-43.8s-28.4-22.6-43.3-30.6S462.5-90.8,448-95c-14.5-4.2-28.6-6.7-41.7-8c-13.1-1.3-25.2-1.4-36.3-0.9
	c-10.9,0.5-20.7,1.6-29.2,3c-2.1,0.3-4.2,0.7-6.1,1c-1.9,0.4-3.8,0.7-5.6,1.1c-3.6,0.6-6.7,1.4-9.7,2c-5.7,1.7-10.1,2.9-13.1,3.7
	c-3,0.8-4.5,1.2-4.5,1.2L301.4-93.4z M376.1,283c-5.8,0-10.6-4.8-10.6-10.6V168.7c-20.6-4.8-36.2-23.4-36.2-45.6
	c0-9.6,2.9-18.5,7.9-25.9l-54.6-54.6c-4.2-4.2-4.2-10.8,0-15c4.2-4.2,10.8-4.2,15,0l55.2,55.2c6.8-4,14.8-6.2,23.3-6.2
	c25.7,0,46.7,20.9,46.7,46.7c0,22.2-15.4,40.7-36.2,45.6v103.7C386.7,278.3,382,283,376.1,283z M376.1,97.7
	c-14.1,0-25.5,11.4-25.5,25.5c0,14.1,11.4,25.5,25.5,25.5s25.5-11.4,25.5-25.5C401.6,109.1,390.2,97.7,376.1,97.7z M377.4-44.4
	c0,4.3-3.5,7.8-7.8,7.8s-7.8-3.5-7.8-7.8s3.5-7.8,7.8-7.8S377.4-48.7,377.4-44.4z M539.5,120.9c-4.3,0-7.8,3.5-7.8,7.8
	c0,4.3,3.5,7.8,7.8,7.8c4.3,0,7.8-3.5,7.8-7.8S543.8,120.9,539.5,120.9z M373.8,300.4c-4.3,0-7.8,3.5-7.8,7.8c0,4.3,3.5,7.8,7.8,7.8
	c4.3,0,7.8-3.5,7.8-7.8C381.6,303.8,378.1,300.4,373.8,300.4z M187.9,120.9c-4.3,0-7.8,3.5-7.8,7.8c0,4.3,3.5,7.8,7.8,7.8
	c4.3,0,7.8-3.5,7.8-7.8C195.8,124.4,192.3,120.9,187.9,120.9z M212.1,39.9c-4.3,0-7.8,3.5-7.8,7.8c0,4.3,3.5,7.8,7.8,7.8
	c4.3,0,7.8-3.5,7.8-7.8S216.4,39.9,212.1,39.9z M273.7-22.8c-4.3,0-7.8,3.5-7.8,7.8s3.5,7.8,7.8,7.8s7.8-3.5,7.8-7.8
	S278-22.8,273.7-22.8z M455.3-25c-4.3,0-7.8,3.5-7.8,7.8s3.5,7.8,7.8,7.8s7.8-3.5,7.8-7.8S459.6-25,455.3-25z M512.6,35.1
	c-4.3,0-7.8,3.5-7.8,7.8c0,4.3,3.5,7.8,7.8,7.8c4.3,0,7.8-3.5,7.8-7.8C520.5,38.6,516.9,35.1,512.6,35.1z M509,205.5
	c-4.3,0-7.8,3.5-7.8,7.8c0,4.3,3.5,7.8,7.8,7.8s7.8-3.5,7.8-7.8C516.7,208.9,513.2,205.5,509,205.5z M455.3,269.9
	c-4.3,0-7.8,3.5-7.8,7.8c0,4.3,3.5,7.8,7.8,7.8s7.8-3.5,7.8-7.8C463.1,273.4,459.6,269.9,455.3,269.9z M278.6,271.9
	c-4.3,0-7.8,3.5-7.8,7.8s3.5,7.8,7.8,7.8s7.8-3.5,7.8-7.8S282.9,271.9,278.6,271.9z M209.7,200.3c-4.3,0-7.8,3.5-7.8,7.8
	c0,4.3,3.5,7.8,7.8,7.8s7.8-3.5,7.8-7.8C217.4,203.7,214,200.3,209.7,200.3z M373.8,316.5c-4.6,0-8.3-3.8-8.3-8.3
	c0-4.6,3.8-8.3,8.3-8.3s8.3,3.8,8.3,8.3C382.1,312.7,378.4,316.5,373.8,316.5z M373.8,300.9c-4,0-7.3,3.3-7.3,7.3
	c0,4,3.3,7.3,7.3,7.3s7.3-3.3,7.3-7.3C381.1,304.1,377.8,300.9,373.8,300.9z M278.6,288c-4.6,0-8.3-3.8-8.3-8.3
	c0-4.5,3.8-8.3,8.3-8.3s8.3,3.8,8.3,8.3C286.9,284.2,283.2,288,278.6,288z M278.6,272.4c-4,0-7.3,3.3-7.3,7.3s3.3,7.3,7.3,7.3
	s7.3-3.3,7.3-7.3C285.9,275.6,282.6,272.4,278.6,272.4z M455.3,286.1c-4.6,0-8.3-3.8-8.3-8.3c0-4.6,3.8-8.3,8.3-8.3
	c4.6,0,8.3,3.8,8.3,8.3S459.9,286.1,455.3,286.1z M455.3,270.4c-4,0-7.3,3.3-7.3,7.3c0,4,3.3,7.3,7.3,7.3s7.3-3.3,7.3-7.3
	C462.6,273.7,459.3,270.4,455.3,270.4z M509,221.6c-4.6,0-8.3-3.8-8.3-8.3c0-4.5,3.8-8.3,8.3-8.3c4.6,0,8.3,3.8,8.3,8.3
	C517.2,217.8,513.5,221.6,509,221.6z M509,206.1c-4,0-7.3,3.3-7.3,7.3c0,4,3.3,7.3,7.3,7.3c4,0,7.3-3.3,7.3-7.3
	C516.2,209.2,512.9,206.1,509,206.1z M209.7,216.4c-4.6,0-8.3-3.8-8.3-8.3c0-4.6,3.8-8.3,8.3-8.3c4.6,0,8.3,3.8,8.3,8.3
	C218,212.6,214.3,216.4,209.7,216.4z M209.7,200.9c-4,0-7.3,3.3-7.3,7.3c0,4,3.3,7.3,7.3,7.3s7.3-3.3,7.3-7.3
	C216.9,204,213.7,200.9,209.7,200.9z M539.5,137c-4.6,0-8.3-3.8-8.3-8.3c0-4.6,3.8-8.3,8.3-8.3c4.6,0,8.3,3.8,8.3,8.3
	C547.8,133.3,544.1,137,539.5,137z M539.5,121.4c-4,0-7.3,3.3-7.3,7.3c0,4,3.3,7.3,7.3,7.3s7.3-3.3,7.3-7.3
	C546.7,124.7,543.5,121.4,539.5,121.4z M187.9,137c-4.6,0-8.3-3.8-8.3-8.3c0-4.6,3.8-8.3,8.3-8.3c4.6,0,8.3,3.8,8.3,8.3
	C196.3,133.3,192.5,137,187.9,137z M187.9,121.4c-4,0-7.3,3.3-7.3,7.3c0,4,3.3,7.3,7.3,7.3s7.3-3.3,7.3-7.3
	C195.2,124.7,192,121.4,187.9,121.4z M212.1,55.9c-4.6,0-8.3-3.8-8.3-8.3s3.8-8.3,8.3-8.3s8.3,3.8,8.3,8.3S216.7,55.9,212.1,55.9z
	 M212.1,40.4c-4,0-7.3,3.3-7.3,7.3c0,4,3.3,7.3,7.3,7.3s7.3-3.3,7.3-7.3S216.1,40.4,212.1,40.4z M512.6,51.1c-4.6,0-8.3-3.8-8.3-8.3
	c0-4.6,3.8-8.3,8.3-8.3c4.6,0,8.3,3.8,8.3,8.3C521,47.5,517.2,51.1,512.6,51.1z M512.6,35.6c-4,0-7.3,3.3-7.3,7.3
	c0,4,3.3,7.3,7.3,7.3s7.3-3.3,7.3-7.3C519.9,38.9,516.6,35.6,512.6,35.6z M273.7-6.7c-4.6,0-8.3-3.8-8.3-8.3s3.8-8.3,8.3-8.3
	s8.3,3.8,8.3,8.3S278.3-6.7,273.7-6.7z M273.7-22.3c-4,0-7.3,3.3-7.3,7.3s3.3,7.3,7.3,7.3s7.3-3.3,7.3-7.3
	C281-19,277.7-22.3,273.7-22.3z M455.3-8.8c-4.6,0-8.3-3.8-8.3-8.3c0-4.6,3.8-8.3,8.3-8.3c4.6,0,8.3,3.8,8.3,8.3
	C463.6-12.6,459.9-8.8,455.3-8.8z M455.3-24.4c-4,0-7.3,3.3-7.3,7.3s3.3,7.3,7.3,7.3s7.3-3.3,7.3-7.3
	C462.6-21.2,459.3-24.4,455.3-24.4z M369.5-36.1c-4.6,0-8.3-3.8-8.3-8.3c0-4.6,3.8-8.3,8.3-8.3c4.5,0,8.3,3.8,8.3,8.3
	C377.9-39.8,374.1-36.1,369.5-36.1z M369.5-51.6c-4,0-7.3,3.3-7.3,7.3s3.3,7.3,7.3,7.3s7.3-3.3,7.3-7.3
	C376.8-48.5,373.6-51.6,369.5-51.6z"/>
</svg>
