<?xml version="1.0" encoding="utf-8"?>
<!-- Generator: Adobe Illustrator 19.0.0, SVG Export Plug-In . SVG Version: 6.00 Build 0)  -->
<svg version="1.1" id="Layer_1" xmlns="http://www.w3.org/2000/svg" xmlns:xlink="http://www.w3.org/1999/xlink" x="0px" y="0px"
	 viewBox="-15 -61.6 517.9 383.6" enable-background="new -15 -61.6 517.9 383.6" xml:space="preserve">
<path d="M60,187.7C34,187.1,2.9,168.1-9.1,149.2c-15.7-24.8,3.2-56.2,13.4-72.7C53.3-2.3,168.7-53.4,281.5-60.3
	c36.7-2.3,101.8-5.5,158.2,27.9c13.4,7.9,46.5,33,61,70.1c21.9,55.9-121.5,68.4-116.8,90.2c2.2,10.5,36.1-3.9,47-4.6
	c88.2-6.4,66.3,36.2,58.4,50.4C464,219.1,309,297.6,208.2,314.3c-46.8,7.7-133.9,15.8-159.9-9.1c-15.8-15.1-21.4-44.8-9-62.9
	C60.3,212,76.2,205,151,172.6c29.8-12.9,98-33.8,93.3-47.8C237.7,105.2,124.8,189.1,60,187.7z"/>
<path fill="#5B7016" d="M307.9,50.4h-12c-4.4,0-8,3.6-8,8s3.6,8,8,8h12c4.4,0,8-3.6,8-8S312.3,50.4,307.9,50.4z M367.9-13.6h-48
	c0-26.4-21.6-48-48-48h-60c-26.4,0-48,21.6-48,48h-44c-22,0-40,18-40,40v16c0,12,9.2,22,20.8,23.6l20.4,219.6
	c2,20.8,19.2,36.4,40,36.4h165.6c20.8,0,38-15.6,40-36.4L387.1,66c11.6-1.6,20.8-11.6,20.8-23.6v-16
	C407.9,4.4,389.9-13.6,367.9-13.6z M211.9-45.6h60c17.6,0,32,14.4,32,32h-124C179.9-31.2,194.3-45.6,211.9-45.6z M391.9,42.4
	c0,4.4-3.6,8-8,8h-4c-4,0-7.6,3.2-8,7.2l-21.2,226.8c-1.2,12.4-11.6,22-24,22H161.1c-12.4,0-22.8-9.6-24-22l-20.4-218h143.2
	c4.4,0,8-3.6,8-8s-3.6-8-8-8h-152h-4c-4.4,0-8-3.6-8-8v-16c0-13.2,10.8-24,24-24h248c13.2,0,24,10.8,24,24V42.4z M179.9,98.4
	c-4.4,0-8,3.6-8,8v152c0,4.4,3.6,8,8,8s8-3.6,8-8v-152C187.9,102,184.3,98.4,179.9,98.4z M243.9,98.4c-4.4,0-8,3.6-8,8v152
	c0,4.4,3.6,8,8,8s8-3.6,8-8v-152C251.9,102,248.3,98.4,243.9,98.4z M307.9,98.4c-4.4,0-8,3.6-8,8v152c0,4.4,3.6,8,8,8s8-3.6,8-8
	v-152C315.9,102,312.3,98.4,307.9,98.4z"/>
</svg>
