<?xml version="1.0" encoding="utf-8"?>
<!-- Generator: Adobe Illustrator 19.0.0, SVG Export Plug-In . SVG Version: 6.00 Build 0)  -->
<svg version="1.1" id="Слой_1" xmlns="http://www.w3.org/2000/svg" xmlns:xlink="http://www.w3.org/1999/xlink" x="0px" y="0px"
	 viewBox="-19.5 116.3 99.9 28.6" style="enable-background:new -19.5 116.3 99.9 28.6;" xml:space="preserve">
<g id="XMLID_2_">
	<path d="M17,126.5v-8.3h3.5c2.6,0,4.4,1.5,4.4,4.2c0,2.5-1.9,4.2-4.4,4.2H17V126.5z M22.7,122.3c0-1.3-0.8-2.3-2.3-2.3H19v4.5h1.4
		C21.9,124.6,22.7,123.6,22.7,122.3 M25.7,122.3c0-2.5,1.9-4.3,4.4-4.3s4.4,1.7,4.4,4.3s-1.9,4.3-4.4,4.3S25.7,124.9,25.7,122.3
		 M32.4,122.3c0-1.4-0.9-2.4-2.3-2.4c-1.4,0-2.3,1-2.3,2.4c0,1.3,0.9,2.4,2.3,2.4C31.5,124.7,32.4,123.7,32.4,122.3 M40.4,126.5
		l-1.4-2.8h-1.1v2.8h-2.1v-8.3H40c1.8,0,2.8,1.2,2.8,2.8c0,1.5-0.9,2.2-1.7,2.5l1.7,3.1h-2.4V126.5z M40.7,121c0-0.6-0.4-0.9-1-0.9
		H38v1.7h1.7C40.2,121.8,40.7,121.5,40.7,121 M43.7,122.3c0-2.5,1.9-4.3,4.4-4.3s4.4,1.7,4.4,4.3s-1.9,4.3-4.4,4.3
		S43.7,124.9,43.7,122.3 M50.3,122.3c0-1.4-0.9-2.4-2.3-2.4s-2.3,1-2.3,2.4c0,1.3,0.9,2.4,2.3,2.4S50.3,123.7,50.3,122.3
		 M59.4,126.5v-3.4H56v3.4h-2.2v-8.3H56v3.1h3.4v-3.1h2.1v8.3H59.4z M62.7,122.3c0-2.5,1.9-4.3,4.4-4.3c2.5,0,4.4,1.7,4.4,4.3
		s-1.9,4.3-4.4,4.3C64.6,126.6,62.7,124.9,62.7,122.3 M69.4,122.3c0-1.4-0.9-2.4-2.3-2.4c-1.4,0-2.3,1-2.3,2.4
		c0,1.3,0.9,2.4,2.3,2.4C68.6,124.7,69.4,123.7,69.4,122.3 M74.7,126.5l-3.1-8.3H74l2,6l2-6h2.4l-3.1,8.3H74.7z M17,143.4v-11.4h4.8
		c3.6,0,6.1,2.1,6.1,5.7c0,3.5-2.6,5.7-6.1,5.7L17,143.4L17,143.4z M24.9,137.7c0-1.8-1.1-3.1-3.1-3.1h-1.9v6.2h1.9
		C23.8,140.8,24.9,139.4,24.9,137.7 M29.6,143.4v-11.4h8.3v2.6h-5.3v1.8h5.2v2.5h-5.2v1.9h5.3v2.6H29.6z M39.2,141.8l1.5-2.2
		c0.8,0.8,2.1,1.5,3.6,1.5c1,0,1.6-0.4,1.6-0.9c0-1.5-6.4-0.3-6.4-4.7c0-1.9,1.6-3.6,4.5-3.6c1.8,0,3.4,0.5,4.6,1.6l-1.6,2.1
		c-1-0.8-2.2-1.2-3.3-1.2c-0.8,0-1.2,0.3-1.2,0.8c0,1.4,6.4,0.4,6.4,4.6c0,2.3-1.7,3.8-4.7,3.8C42,143.6,40.4,142.9,39.2,141.8
		 M50.7,132h2.9v11.3h-2.9V132z M55.4,137.7c0-3.6,2.8-5.9,6.1-5.9c2.5,0,4.1,1.3,4.8,2.8l-2.4,1.3c-0.4-0.7-1.3-1.4-2.4-1.4
		c-1.9,0-3.2,1.4-3.2,3.3s1.3,3.3,3.2,3.3c0.8,0,1.7-0.3,2.1-0.7v-0.9H61v-2.6h5.5v4.5c-1.2,1.3-2.9,2.2-5,2.2
		C58.1,143.6,55.4,141.3,55.4,137.7 M76.3,143.4l-4.8-6.6v6.6h-2.9v-11.4h3l4.6,6.3v-6.3h2.9v11.4H76.3z"/>
	<path d="M-8.2,116.3h-11.3v28.6h11.4c9.6,0,15.7-5.6,15.7-14.3S1.4,116.3-8.2,116.3 M-8.4,139.2h-5.1v-16.8h5.1c6,0,10,2.4,10,8.1
		C1.7,135.3-2.1,139.2-8.4,139.2 M-7.3,127.2h-1.3v6.8h1.3c2.6,0,4.1-1.5,4.1-3.5C-3.2,128.2-4.9,127.2-7.3,127.2"/>
</g>
</svg>
