<?xml version="1.0" encoding="utf-8"?>
<!-- Generator: Adobe Illustrator 19.0.0, SVG Export Plug-In . SVG Version: 6.00 Build 0)  -->
<svg version="1.1" id="Capa_1" xmlns="http://www.w3.org/2000/svg" xmlns:xlink="http://www.w3.org/1999/xlink" x="0px" y="0px"
	 viewBox="-75.1 10.7 599.9 480.3" enable-background="new -75.1 10.7 599.9 480.3" xml:space="preserve">
<path fill="#ff8508" d="M11.8,314.6c-30.2-0.7-66.2-22.7-80-44.6c-18.2-28.7,3.7-65.1,15.6-84.3C4,94.5,137.7,35.4,268.3,27.4
	c42.5-2.7,117.9-6.4,183.2,32.3c15.5,9.2,53.8,38.2,70.7,81.2c25.3,64.7-140.7,79.3-135.3,104.4c2.6,12.1,41.8-4.5,54.5-5.4
	c102.2-7.4,76.8,41.9,67.7,58.4c-29.3,52.6-208.9,143.6-325.5,163c-54.2,9-155.1,18.3-185.2-10.6c-18.3-17.5-24.8-51.9-10.4-72.8
	c24.3-35.1,42.6-43.2,129.3-80.7c34.6-15,113.6-39.1,108.1-55.3C217.7,219.1,86.8,316.3,11.8,314.6z"/>
<path fill="#fff" d="M238.9,244.8V24.2c0-7.5-6-13.5-13.5-13.5s-13.5,6-13.5,13.5v220.6c-31.3,6.3-55,34-55,67.2
	s23.7,60.9,55,67.2v98.2c0,7.5,6,13.5,13.5,13.5s13.5-6,13.5-13.5v-98.2c31.3-6.3,55-34,55-67.2
	C293.9,278.9,270.3,251.1,238.9,244.8z M225.4,353.5c-22.9,0-41.5-18.6-41.5-41.5s18.6-41.5,41.5-41.5s41.5,18.6,41.5,41.5
	S248.3,353.5,225.4,353.5z M73.6,131.6V24.2c0-7.5-6-13.5-13.5-13.5s-13.5,6-13.5,13.5v107.4c-31.3,6.3-55,34-55,67.2
	s23.7,60.9,55,67.2v211.4c0,7.5,6,13.5,13.5,13.5s13.5-6,13.5-13.5V265.9c31.3-6.3,55-34,55-67.2S104.9,137.9,73.6,131.6z
	 M60.1,240.3c-22.9,0-41.5-18.6-41.5-41.5s18.6-41.5,41.5-41.5s41.5,18.6,41.5,41.5S82.9,240.3,60.1,240.3z M403.2,131.6V24.2
	c0-7.5-6-13.5-13.5-13.5s-13.5,6-13.5,13.5v107.4c-31.3,6.3-55,34-55,67.2s23.7,60.9,55,67.2v211.5c0,7.5,6,13.5,13.5,13.5
	s13.5-6,13.5-13.5V265.9c31.3-6.3,55-34,55-67.2S434.6,137.9,403.2,131.6z M389.7,240.3c-22.9,0-41.5-18.6-41.5-41.5
	s18.6-41.5,41.5-41.5s41.5,18.6,41.5,41.5S412.6,240.3,389.7,240.3z"/>
</svg>
