<?xml version="1.0" encoding="utf-8"?>
<!-- Generator: Adobe Illustrator 19.0.0, SVG Export Plug-In . SVG Version: 6.00 Build 0)  -->
<svg version="1.1" id="Capa_1" xmlns="http://www.w3.org/2000/svg" xmlns:xlink="http://www.w3.org/1999/xlink" x="0px" y="0px"
	 viewBox="48.6 -115 655.4 490" enable-background="new 48.6 -115 655.4 490" xml:space="preserve">
<path fill="#F8902F" d="M143.7,202.5c-33-0.7-72.3-24.8-87.4-48.7c-19.8-31.4,4-71.1,17-92c61.9-99.7,208-164.3,350.6-173.1
	c46.5-2.9,128.8-7,200.2,35.3c17,10,58.8,41.8,77.2,88.7c27.7,70.7-153.7,86.6-147.8,114.1c2.8,13.2,45.6-4.9,59.5-5.9
	c111.6-8.1,83.9,45.8,73.9,63.8c-32.1,57.5-228.2,156.9-355.6,178c-59.2,9.8-169.4,20-202.4-11.6c-20-19.1-27.1-56.7-11.3-79.6
	c26.5-38.3,46.6-47.2,141.3-88.2c37.8-16.4,124.1-42.8,118.1-60.4C368.5,98.1,225.6,204.3,143.7,202.5z"/>
<path fill="#FFFFFF" d="M630.4,69.3c-4.7-14.6-17.1-25-32.3-27.2L469.6,23.4L412.2-92.8c-6.8-13.7-20.5-22.2-35.8-22.2
	c-15.3,0-29,8.5-35.8,22.2L283.1,23.4L154.6,42.1c-15.2,2.2-27.5,12.6-32.3,27.2c-4.7,14.6-0.8,30.2,10.1,40.9l92.9,90.4
	l-21.9,127.7c-2.6,15.1,3.5,30,15.9,39c12.4,9,28.5,10.2,42.1,3.1l114.9-60.3l114.9,60.3c13.7,7.2,29.9,5.8,42.1-3.1
	c12.4-9,18.5-24,15.9-39l-21.9-127.7l92.9-90.4C631.2,99.5,635.1,83.8,630.4,69.3z M491.9,179.3c-4.7,4.6-6.9,11.2-5.8,17.7
	l23.7,137.9l-124.2-65.1c-5.8-3.1-12.8-3.1-18.6,0l-124.2,65.1L266.6,197c1.1-6.5-1-13.1-5.8-17.7L160.5,81.6l138.7-20.1
	c6.5-0.9,12.1-5,15.1-10.9L376.4-75l62.1,125.6c2.9,5.9,8.5,10,15.1,10.9l138.7,20.1L491.9,179.3z"/>
</svg>
