<?xml version="1.0" encoding="utf-8"?>
<!-- Generator: Adobe Illustrator 19.0.0, SVG Export Plug-In . SVG Version: 6.00 Build 0)  -->
<svg version="1.1" id="Layer_1" xmlns="http://www.w3.org/2000/svg" xmlns:xlink="http://www.w3.org/1999/xlink" x="0px" y="0px"
	 viewBox="67.5 -45.7 544.7 403.2" enable-background="new 67.5 -45.7 544.7 403.2" xml:space="preserve">
<path fill="#739900" d="M146.5,216.5c-27.4-0.6-60.1-20.6-72.7-40.5c-16.5-26.1,3.3-59.1,14.1-76.5C139.4,16.6,260.8-37,379.4-44.3
	c38.6-2.4,107-5.8,166.4,29.3c14.1,8.3,48.9,34.7,64.1,73.7c23,58.8-127.8,72-122.9,94.8c2.4,11,37.9-4,49.5-4.9
	c92.8-6.7,69.7,38.1,61.4,53c-26.6,47.8-189.6,130.4-295.6,148c-49.2,8.1-140.8,16.6-168.2-9.6c-16.6-15.9-22.5-47.1-9.4-66.1
	c22-31.8,38.7-39.2,117.4-73.3c31.4-13.6,103.1-35.5,98.1-50.2C333.4,129.7,214.6,218,146.5,216.5z"/>
<path fill="#FFFFFF" d="M320.7,357.5c0.1-4.7,0.2-9.2,0.2-13.9c0-4.6,0-9.3-0.1-13.9s-0.2-9.3-0.4-13.9c-0.2-4.6-0.4-9.3-0.7-13.9
	c-0.3-4.6-0.6-9.2-1-13.9c-0.4-4.6-0.8-9.2-1.2-13.8l-0.7-6.9l-0.8-6.9c-0.6-4.6-1.2-9.2-1.9-13.7c-0.3-2.3-0.7-4.6-1.1-6.8
	c-0.4-2.3-0.8-4.6-1.2-6.8c-0.4-2.3-0.9-4.5-1.3-6.8l-1.4-6.8c-1-4.5-2.1-9-3.3-13.4c-0.6-2.2-1.2-4.4-1.9-6.6
	c-0.6-2.2-1.3-4.4-2-6.6c-1.4-4.4-3-8.7-4.6-12.9c-0.9-2.1-1.7-4.2-2.6-6.3l-2.9-6.2l-3.1-6l-3.4-5.8c-1.2-1.9-2.5-3.7-3.8-5.5
	c-1.3-1.8-2.7-3.5-4.1-5.2l6.3,0.5c-3,2.5-6,4.3-9.1,6c-3.1,1.6-6.2,3.1-9.4,4.4c-6.4,2.6-12.9,4.5-19.6,6
	c-6.7,1.4-13.5,2.4-20.3,2.7c-6.9,0.3-13.8,0-20.7-1s-13.6-2.8-20.2-5.3c-6.5-2.5-12.8-5.8-18.6-9.8c-5.8-4-11.1-8.6-15.9-13.6
	c-4.8-5.1-9-10.6-12.7-16.4c-3.7-5.8-7-11.9-9.8-18.1c-2.8-6.2-5.2-12.6-7.3-19.1c-1-3.2-2-6.5-2.9-9.7c-0.4-1.6-0.9-3.3-1.3-4.9
	l-1.2-4.9c-0.4-1.6-0.7-3.3-1.1-4.9l-1-5c-0.6-3.3-1.2-6.6-1.7-9.9c-1-6.6-1.8-13.3-2.5-20c-0.3-3.3-0.6-6.7-0.8-10s-0.5-6.7-0.6-10
	c-0.1-3.3-0.3-6.7-0.4-10s-0.2-6.7-0.2-10s0-6.7,0-10l0.2-10l0.1-7.7l7.9,0.1l8.5,0c2.8,0,5.7,0.1,8.5,0.1l8.5,0.2l8.6,0.4l4.3,0.2
	l4.3,0.3c2.9,0.2,5.7,0.3,8.6,0.6l8.6,0.7c2.9,0.2,5.7,0.6,8.6,0.9c1.4,0.2,2.9,0.3,4.3,0.5l4.3,0.6c2.9,0.4,5.7,0.7,8.6,1.3
	c2.9,0.5,5.7,0.9,8.6,1.5l8.5,1.7l8.5,2c2.8,0.7,5.7,1.5,8.5,2.3s5.6,1.8,8.4,2.6c2.8,0.9,5.6,2,8.4,3c2.8,1.1,5.5,2.3,8.3,3.5
	c2.7,1.3,5.4,2.6,8.1,4l4,2.2l2,1.1l1.9,1.2l3.9,2.5c1.3,0.8,2.5,1.8,3.7,2.7c5,3.6,9.6,7.8,14,12.2l3.1,3.5l1.6,1.8l1.4,1.9
	l2.9,3.7c0.9,1.3,1.7,2.6,2.6,3.9c1.8,2.6,3.2,5.4,4.7,8.1c0.8,1.4,1.3,2.8,2,4.2l1,2.1l0.5,1.1l0.4,1.1c1.1,2.9,2.3,5.8,3.1,8.7
	l1.4,4.4l1.1,4.5c1.5,6,2.3,12,3,17.9c0.3,3,0.5,6,0.7,9l0.3,8.9l0.1,2.9l-1.6,2.5c-0.6,1-1.2,2-2.7,3.5l-0.5,0.5
	c-0.2,0.2-0.5,0.4-0.7,0.6c-0.2,0.2-0.5,0.4-0.8,0.5l-0.4,0.3l-0.5,0.3c-0.7,0.4-1.3,0.7-2.1,0.9c-0.8,0.3-1.7,0.5-2.5,0.5
	c-0.9,0.1-1.8,0.1-2.6,0c-0.8-0.1-1.6-0.2-2.3-0.4c-0.6-0.2-1.2-0.4-1.8-0.7c-0.5-0.2-0.9-0.5-1.4-0.7c-1.6-1-2.6-1.9-3.3-2.6
	c-1.5-1.5-2.3-2.7-3.2-3.8c-0.8-1.1-1.5-2.2-2.1-3.2c-2.4-4-4.4-7.6-6.5-11.2c-4.1-7.1-8.2-13.7-12.9-19.8
	c-4.7-6.1-9.9-11.5-15.6-16c-2.9-2.2-5.9-4.2-9-5.9c-0.8-0.4-1.6-0.8-2.4-1.2l-2.8-1.4c-2-1-3.9-2-5.9-3.1
	c-3.8-2.1-7.6-4.2-11.3-6.4l-5.4-3.2l-2.6-1.5c-0.8-0.5-1.6-0.9-2.3-1.2c-0.2-0.1-0.3-0.1-0.4-0.2c-0.1-0.1-0.2-0.1-0.3-0.1l0,0l0,0
	c0,0,0,0,0.1,0c0.1,0,0.2,0.1,0.4,0.1l0.3,0.1c0.2,0,0.3,0.1,0.5,0.1l0.7,0.1c0.4,0,0.7,0,1.1,0l0.7-0.1c0.4,0,0.7-0.1,1.1-0.2
	c0.4-0.1,0.7-0.2,1.1-0.3c0.3-0.1,0.7-0.2,1.3-0.5c1.1-0.5,2.1-1.2,2.9-2s1.6-1.7,2.1-2.7c0.3-0.5,0.5-1.1,0.6-1.3
	c0.1-0.3,0.2-0.7,0.3-1s0.2-0.7,0.2-1c0.1-0.4,0.1-0.7,0.1-0.8c0-0.3,0-0.7,0-1s-0.1-0.8-0.1-0.8c0-0.3-0.1-0.6-0.1-0.9
	c0-0.2-0.1-0.5-0.1-0.4l0,0l0.1,0.1l0.1,0.1l0.1,0.2c0.1,0.2,0.3,0.6,0.5,0.9c0.4,0.7,0.8,1.5,1.3,2.3c1.9,3.3,4.1,6.8,6.3,10.3
	l26.8,42.5l1.7,2.7l0.8,1.3l0.9,1.6l3.2,5.4c2.1,3.6,4.3,7.2,6.4,10.8l6.2,11.5c1,1.9,2.1,3.8,3.1,5.8l2.9,5.8
	c1.9,3.9,3.8,7.7,5.7,11.6l5.3,11.7c1.8,3.9,3.4,7.9,5,11.8c1.6,4,3.3,7.9,4.8,11.9c1.5,4,3.1,8,4.5,12l4.1,12.1
	c2.7,8.1,5.4,16.3,7.7,24.5c2.4,8.2,4.6,16.5,6.7,24.9c1,4.2,2,8.4,2.9,12.6c0.5,2.1,0.9,4.2,1.3,6.4l0.6,3.2
	c0.2,1.1,0.4,2.1,0.6,3.4l-27.3-0.4l0.6-3l0.6-2.9c0.4-1.9,0.8-3.8,1.2-5.7c0.8-3.8,1.7-7.5,2.7-11.2c1.9-7.4,4.1-14.8,6.5-22.1
	c4.8-14.6,10.6-29.1,18-43.2c3.8-7,8-13.9,12.9-20.6c2.4-3.3,5.1-6.6,7.9-9.8c1.4-1.6,2.9-3.1,4.4-4.7l4-4c2.6-2.6,5.3-5.2,8-7.8
	s5.4-5.2,8.2-7.8l8.2-7.7c2.8-2.5,5.5-5.1,8.4-7.6c11.2-10,22.8-19.8,34.9-29.1c6.1-4.7,12.3-9.2,18.8-13.5l4.9-3.2l5-3.1
	c1.7-1,3.4-2,5.2-3l2.4-1.4l0.6-0.3l0.3-0.2c0.2-0.1,0.4-0.3,0.6-0.4c0.5-0.3,0.7-0.5,0.8-0.6l0,0c0,0-0.2,0.1-0.3,0.2l-0.1,0.1
	l-0.2,0.2c-0.1,0.1-0.2,0.2-0.3,0.3l-0.4,0.6c-0.2,0.2-0.4,0.5-0.5,0.8c-0.1,0.1-0.3,0.4-0.4,0.7c-0.1,0.2-0.3,0.5-0.4,0.7
	c-0.1,0.3-0.2,0.5-0.3,0.8c-0.2,0.4-0.3,0.9-0.5,1.3c-0.1,0.5-0.2,0.9-0.3,1.4c-0.1,0.4-0.2,1.1-0.3,1.8c-0.1,0.7-0.1,1.4,0,2.1
	c0.1,0.7,0.1,1.4,0.3,2.3c0.3,1.6,1.1,3.3,1.7,4.6c0.4,0.7,0.8,1.3,1.3,1.9c0.5,0.6,0.9,1,1.2,1.4c0.4,0.4,0.8,0.7,1.2,1.1
	c0.4,0.3,0.9,0.7,1.1,0.8c0.5,0.4,1.1,0.7,1.7,1l0.6,0.3c0.2,0.1,0.3,0.1,0.5,0.2s0.4,0.1,0.5,0.2l0.3,0.1c0.4,0.1,0.9,0.2,1,0.2
	c0.2,0,0.4,0.1,0.5,0.1s0.2,0,0.2,0h-0.7c-0.4,0-1,0.1-1.6,0.2c-1.2,0.2-2.6,0.4-4.1,0.7c-5.9,1.3-12.2,3.4-18.3,5.8
	c-12.2,5-23.8,11.6-33.6,19.7c-1.2,1-2.4,2-3.6,3.1l-1.8,1.7l-2,1.9c-2.6,2.5-5.2,5-7.8,7.5c-5.3,5.1-10.5,10.3-16.2,15.6
	c-2.9,2.6-5.8,5.3-9.2,8c-1.7,1.4-3.5,2.8-5.6,4.2s-4.4,2.9-7.8,4.4c-1.7,0.7-3.7,1.4-6.4,1.9c-0.7,0.1-1.5,0.2-2.2,0.3
	c-0.8,0.1-1.6,0.1-2.4,0.1c-0.9,0-1.8-0.1-2.7-0.2c-0.9-0.2-1.9-0.4-2.9-0.6c-1-0.3-1.9-0.6-2.9-1.1c-0.9-0.4-1.8-0.9-2.6-1.4
	c-0.8-0.5-1.6-1.1-2.3-1.7c-0.7-0.6-1.4-1.2-1.9-1.8s-1.1-1.2-1.5-1.8s-0.8-1.1-1.2-1.7c-0.7-1.1-1.3-2.2-1.7-3.1
	c-0.5-1-0.8-1.8-1.2-2.8c-0.3-0.8-0.6-1.7-0.8-2.4c-0.2-0.8-0.4-1.5-0.6-2.2l-0.2-1.1l-0.2-1c-0.5-2.6-0.7-5-0.9-7.3
	c-0.3-4.5-0.3-8.6-0.3-12.7l0.1-3.4l0.2-2.8l0.1-1.4V88l0.1-0.9l0.4-3.5l0.2-1.7l0.3-1.6l0.5-3.2c0.4-2.1,0.9-4.3,1.4-6.4
	c0.5-2.1,1.2-4.2,1.7-6.3c0.7-2.1,1.4-4.1,2.2-6.2c6.2-16.3,16.8-31.1,29.8-42.2c6.5-5.6,13.5-10.4,20.7-14.5
	c7.3-4.1,14.8-7.3,22.4-10.2c15.2-5.4,30.8-8.8,46.3-10.7c15.5-1.9,30.9-2.5,46.2-2.2c15.3,0.3,30.4,1.5,45.4,3.2l12.8,1.4
	l-1.3,12.3c-0.7,6.6-1.2,13.4-1.7,20.2l-1.3,20.6C568.2,50,567.3,64,565.6,78c-1.6,14.1-3.8,28.2-7.5,42.3c-1.8,7-4.1,14-6.9,20.8
	s-6.1,13.5-10.2,19.9c-4.1,6.3-9.1,12.3-14.8,17.4c-5.7,5.1-12.3,9.3-19.3,12.4c-7,3.1-14.3,5.1-21.6,6.1c-7.3,1-14.7,1.2-21.9,0.8
	c-7.2-0.4-14.3-1.5-21.3-2.9s-13.8-3.3-20.5-5.3l-5-1.6c-1.7-0.5-3.3-1.2-5-1.7c-3.3-1.1-6.6-2.4-9.8-3.7c-3.3-1.2-6.4-2.7-9.7-4
	c-3.2-1.4-6.4-2.9-9.5-4.3l1.2-3l9.8,3.3c3.3,1,6.6,2.1,9.9,3s6.6,1.9,9.9,2.7c3.3,0.9,6.7,1.6,10,2.4c6.7,1.4,13.4,2.7,20.1,3.4
	c6.7,0.8,13.4,1.2,20,1.1s13.2-0.8,19.5-2.2c6.3-1.4,12.3-3.5,17.8-6.4s10.5-6.7,14.8-11.1s8-9.5,11.1-15c3.1-5.5,5.5-11.4,7.6-17.5
	c2.1-6.1,3.7-12.5,5-18.9c1.3-6.5,2.3-13.1,3.1-19.7c0.8-6.6,1.3-13.4,1.8-20.1c0.8-13.5,1.1-27.2,1.3-41s0.3-27.8,1.2-42.1
	l11.4,13.8c-14.4-1-28.8-1.5-43-1.3S486.7,6.9,473,9.1s-27.1,5.5-39.6,10.4c-6.1,2.6-12.1,5.3-17.7,8.7c-5.5,3.4-10.6,7.1-15.3,11.3
	c-9.3,8.3-16.1,18.6-20.2,29.9l-1.4,4.3c-0.4,1.5-0.8,2.9-1.1,4.4c-0.3,1.5-0.6,3-0.9,4.5l-0.3,2.3l-0.2,1.1l-0.1,1l-0.2,2l-0.1,0.5
	v0.7l-0.1,1.4l-0.1,2.8c0,0.2,0-0.7,0-0.3v0.2v0.3v0.6v1.3c0,3.3,0.1,6.6,0.3,9.5c0.1,1.4,0.3,2.7,0.5,3.7l0.1,0.4l0.1,0.3
	c0,0.2,0.1,0.3,0.1,0.5s0.1,0.1,0.1,0.2c0-0.1,0,0-0.1-0.2c-0.1-0.1-0.2-0.4-0.4-0.7c-0.1-0.2-0.3-0.4-0.4-0.6
	c-0.2-0.2-0.4-0.5-0.6-0.7s-0.6-0.6-0.9-0.8c-0.3-0.3-0.8-0.6-1.2-0.9c-0.9-0.6-1.9-1-3-1.3c-2.1-0.6-3.8-0.5-4.7-0.3
	c-0.9,0.1-1.1,0.3-1.2,0.3l0.5-0.3c0.3-0.2,0.8-0.5,1.2-0.8c1-0.7,2.1-1.6,3.3-2.5c2.3-2,4.9-4.3,7.4-6.7c5.1-4.8,10.3-10,15.7-15.2
	c2.7-2.6,5.4-5.2,8.1-7.8l2.1-2l1-1l1.2-1.1c1.6-1.4,3.2-2.8,4.8-4.2c13.1-10.7,27.4-18.8,42.6-24.9c3.8-1.5,7.7-2.9,11.6-4.2
	c4-1.3,8-2.4,12.3-3.3c2.2-0.4,4.4-0.8,6.8-1.1c1.2-0.2,2.5-0.3,3.9-0.4c1.4-0.1,2.9-0.1,4.8,0c0.4,0,1,0.1,1.5,0.1s1.2,0.1,1.8,0.3
	c0.6,0.1,1.5,0.3,2.3,0.5c0.2,0.1,0.4,0.1,0.7,0.2l0.9,0.3l0.8,0.3c0.3,0.1,0.5,0.2,0.9,0.4c0.8,0.4,1.6,0.8,2.3,1.3
	c0.3,0.2,0.9,0.6,1.4,1s1,0.8,1.4,1.3c0.4,0.4,0.9,0.9,1.5,1.6c0.5,0.7,1,1.4,1.5,2.2c0.8,1.4,1.6,3.3,2,5.2c0.8,3.6,0.2,7.1-0.4,9
	c-0.2,0.6-0.4,1.1-0.6,1.7c-0.2,0.4-0.3,0.7-0.5,1.1c-0.2,0.4-0.4,0.7-0.5,1c-0.2,0.3-0.4,0.7-0.6,1c-0.3,0.4-0.6,0.9-0.9,1.3
	l-0.5,0.6c-0.2,0.2-0.3,0.3-0.4,0.5l-0.8,0.9l-0.4,0.4l-0.3,0.3c-0.4,0.4-0.9,0.8-1.3,1.2l-1.1,0.9c-1.4,1.1-2.6,1.9-3.7,2.6
	c-0.6,0.4-1.1,0.7-1.7,1.1l-0.9,0.5l-0.6,0.4l-2.4,1.4c-1.5,0.8-3,1.6-4.4,2.5l-4.4,2.6l-4.4,2.8c-5.8,3.8-11.6,7.8-17.4,12
	c-2.9,2.1-5.7,4.3-8.5,6.4c-2.8,2.2-5.7,4.4-8.4,6.7c-5.6,4.5-11.2,9.1-16.7,13.8c-2.8,2.3-5.5,4.7-8.2,7.1l-8.2,7.2
	c-2.7,2.4-5.4,4.9-8.1,7.3c-2.7,2.4-5.3,4.9-8,7.4l-4,3.7c-1.1,1.1-2.2,2.1-3.3,3.3c-2.1,2.3-4.2,4.7-6.2,7.3
	c-4,5.1-7.6,10.8-11,16.7c-6.7,11.9-12.3,24.8-16.9,38.1c-2.3,6.7-4.5,13.4-6.4,20.3c-1,3.4-1.9,6.8-2.7,10.3l-1.2,5.1l-0.6,2.5
	l-0.5,2.4L328,330.3l-11.8-74.2l-0.4-2.8c-0.1-1-0.3-2-0.5-2.9c-0.3-2-0.7-4-1.1-5.9c-0.8-4-1.7-8-2.5-11.9
	c-1.8-7.9-3.8-15.9-6-23.8c-2.1-7.9-4.5-15.7-7-23.5l-3.9-11.7c-1.4-3.9-2.8-7.7-4.2-11.6c-1.3-3.9-2.9-7.7-4.4-11.5
	c-1.5-3.8-2.9-7.6-4.6-11.4l-4.9-11.3c-1.7-3.7-3.5-7.4-5.2-11.1l-2.6-5.5c-0.9-1.8-1.8-3.6-2.8-5.4l-5.6-10.7
	c-2-3.6-4.1-7.3-6.2-10.9l-3.1-5.5l-0.7-1.1l-0.8-1.3l-1.6-2.7l-26.1-43c-2.2-3.7-4.4-7.3-6.6-11.3c-0.6-1-1.1-2.1-1.7-3.2
	c-0.3-0.6-0.6-1.2-0.9-1.9l-0.2-0.5l-0.2-0.6l-0.2-0.6l-0.3-0.8c-0.2-0.4-0.4-1.3-0.5-1.9c-0.1-0.5-0.2-1.1-0.3-1.6
	c0-0.2-0.1-0.8-0.1-1.2c0-0.5,0-0.9,0-1.4c0-0.2,0.1-0.6,0.1-1c0.1-0.4,0.2-0.8,0.3-1.2c0.1-0.4,0.2-0.8,0.4-1.2
	c0.1-0.3,0.4-0.9,0.7-1.5c0.6-1.1,1.4-2.2,2.3-3.1c0.9-0.9,2.1-1.6,3.2-2.2c0.7-0.3,1.1-0.4,1.4-0.6c0.4-0.1,0.8-0.2,1.3-0.3
	c0.4-0.1,0.9-0.2,1.3-0.2c0.5-0.1,0.6,0,0.9-0.1c0.5,0,1,0,1.5,0c0.2,0,0.5,0,0.7,0.1l0.4,0.1c0.3,0,0.6,0.1,0.9,0.2l0.4,0.1
	l0.3,0.1c0.4,0.1,0.7,0.2,1.1,0.3l0.8,0.3l0.4,0.2l0.3,0.1c0.4,0.2,0.8,0.4,1.2,0.5c0.4,0.2,0.7,0.3,1,0.5c1.2,0.6,2.3,1.2,3.2,1.8
	l2.8,1.7l5.4,3.3c3.5,2.1,7,4.2,10.5,6.1c1.7,1,3.5,2,5.2,2.8l2.8,1.4c1.1,0.6,2.1,1.1,3.2,1.7c4.2,2.4,8.2,5.1,11.8,8.1
	c7.4,6,13.7,12.9,19.2,20.2s10.1,15,14.2,22.5c2.1,3.7,4.1,7.5,5.9,10.7c0.5,0.8,0.9,1.5,1.3,2.1c0.4,0.6,0.8,1.1,0.8,1.1
	s-0.2-0.2-0.9-0.6c-0.2-0.1-0.4-0.2-0.7-0.3c-0.3-0.2-0.7-0.3-1.1-0.4c-0.4-0.1-1-0.3-1.5-0.3c-0.5-0.1-1.2-0.1-1.8,0
	s-1.2,0.2-1.8,0.4s-1,0.4-1.4,0.6l-0.5,0.3c-0.2,0.1-0.3,0.2-0.4,0.3c-0.1,0.1-0.3,0.2-0.4,0.3c-0.1,0.1-0.2,0.1-0.2,0.2
	c-0.7,0.7-0.7,0.8-0.8,1l-1.5,5.4l-0.1-8c-0.2-2.6-0.3-5.3-0.5-7.9c-0.5-5.2-1.2-10.4-2.3-15.4l-0.8-3.8l-1.1-3.7
	c-0.6-2.5-1.6-4.8-2.4-7.2l-0.3-0.9l-0.4-0.9l-0.8-1.7c-0.5-1.1-1-2.3-1.6-3.4c-1.2-2.2-2.3-4.5-3.7-6.6c-0.7-1.1-1.3-2.1-2-3.2
	l-2.2-3l-1.1-1.5l-1.2-1.4l-2.4-2.9c-3.5-3.6-7.1-7.2-11.3-10.2c-1-0.8-2-1.6-3.1-2.3L264.7,1l-1.6-1.1l-1.7-1l-3.4-2
	c-2.3-1.3-4.7-2.4-7-3.6c-2.4-1.1-4.8-2.2-7.3-3.2s-5-2-7.5-2.9c-2.6-0.8-5.1-1.8-7.7-2.6l-7.8-2.3l-7.9-2l-8-1.8
	c-2.7-0.6-5.4-1-8.1-1.5s-5.4-0.9-8.1-1.4l-4.1-0.6c-1.4-0.2-2.7-0.4-4.1-0.5c-2.7-0.3-5.5-0.7-8.2-1l-8.3-0.9
	c-2.8-0.3-5.5-0.5-8.3-0.7l-4.2-0.3l-4.2-0.3l-8.3-0.5l-7.8-0.1c-2.8-0.1-5.6-0.2-8.4-0.3l-8.4-0.3l8-7.6l-0.3,9.7
	c-0.1,3.2-0.1,6.5-0.2,9.7c-0.1,3.2,0,6.5,0,9.7s0.1,6.5,0.1,9.7s0.2,6.5,0.4,9.7c0.1,3.2,0.4,6.4,0.6,9.6
	c0.4,6.4,1.1,12.8,1.9,19.2c0.4,3.2,0.9,6.3,1.4,9.5l0.9,4.7c0.3,1.6,0.6,3.1,0.9,4.7l1,4.7c0.3,1.6,0.8,3.1,1.1,4.6
	c0.7,3.1,1.7,6.1,2.5,9.2c1.9,6.1,4,12,6.4,17.8c2.5,5.8,5.3,11.4,8.6,16.7c6.5,10.6,14.8,20.1,24.7,27.2c5,3.6,10.4,6.6,16,8.9
	c5.7,2.3,11.6,4.1,17.8,5.1c6.1,1,12.4,1.5,18.6,1.3c6.3-0.1,12.5-0.8,18.7-2c6.2-1.2,12.3-2.9,18.2-5.1c2.9-1.1,5.8-2.3,8.6-3.7
	c2.7-1.4,5.4-3,7.5-4.6l3.7-3l2.6,3.5c1.5,2,2.9,3.9,4.4,5.9c1.3,2,2.7,4,3.9,6.1c1.2,2.1,2.4,4.2,3.5,6.3l3.2,6.4l2.9,6.6
	c0.9,2.2,1.7,4.4,2.6,6.6c1.6,4.5,3.1,8.9,4.5,13.5c0.7,2.3,1.3,4.5,1.9,6.8c0.6,2.3,1.2,4.5,1.8,6.8c1.1,4.6,2.1,9.2,3,13.8
	l1.3,6.9c0.4,2.3,0.8,4.6,1.2,6.9s0.7,4.6,1,6.9c0.4,2.3,0.7,4.6,0.9,7c0.6,4.6,1.1,9.3,1.6,13.9l0.7,7l0.6,7
	c0.3,4.7,0.7,9.3,0.9,14c0.2,4.7,0.5,9.3,0.6,14c0.2,4.7,0.3,9.3,0.3,14c0.1,4.7,0.1,9.3,0,14c0,4.7-0.1,9.3-0.2,14
	c-0.1,4.6-0.3,9.4-0.6,14L320.7,357.5z"/>
</svg>
