<?xml version="1.0" encoding="utf-8"?>
<!-- Generator: Adobe Illustrator 19.0.0, SVG Export Plug-In . SVG Version: 6.00 Build 0)  -->
<svg version="1.1" id="Layer_1" xmlns="http://www.w3.org/2000/svg" xmlns:xlink="http://www.w3.org/1999/xlink" x="0px" y="0px"
	 viewBox="19 -103.8 631.5 467.8" enable-background="new 19 -103.8 631.5 467.8" xml:space="preserve">
<path fill="#0F8286" d="M110.6,200.2c-31.8-0.7-69.7-23.9-84.3-46.9c-19.1-30.2,3.8-68.5,16.4-88.7
	c59.6-96.1,200.4-158.3,337.9-166.8c44.8-2.8,124.1-6.7,192.9,34c16.3,9.7,56.7,40.3,74.4,85.5c26.7,68.2-148.1,83.5-142.5,109.9
	c2.7,12.7,44-4.7,57.4-5.7c107.6-7.8,80.9,44.1,71.2,61.4c-30.9,55.4-219.9,151.2-342.7,171.6c-57.1,9.4-163.2,19.3-195-11.2
	c-19.3-18.4-26.1-54.7-10.9-76.7c25.5-36.9,44.9-45.5,136.2-85c36.4-15.8,119.6-41.2,113.8-58.2C327.3,99.6,189.6,202,110.6,200.2z"
	/>
<path fill="#FFFFFF" d="M493.7,70c-10.1,0-18.3,8.2-18.3,18.3s8.2,18.3,18.3,18.3S512,98.4,512,88.3S503.8,70,493.7,70z M499.1,91.3
	c-4.2,0-7.5-3.4-7.5-7.5s3.4-7.5,7.5-7.5c4.2,0,7.5,3.4,7.5,7.5S503.3,91.3,499.1,91.3z M263.6,239.4L263.6,239.4
	C263.9,239.4,264,239.4,263.6,239.4z M570.1,154.8c-13.4,2.8-26.8,5.5-40.3,7.9c-13.4,2.4-26.9,4.6-40.4,6.3
	c-6.7,0.8-13.5,1.6-20.2,2.2c-6.7,0.7-13.5,1.2-20.2,1.5c-11.6,0.6-23.2,0.8-34.7,0.1c-0.1-0.3-0.2-0.5-0.4-0.9
	c-0.7-1.6-1.8-3.8-3-6.7c-0.6-1.5-1.3-3-2-4.7c-0.8-1.7-1.4-3.6-2.2-5.5c-0.4-1-0.8-1.9-1.2-2.9c-0.4-1-0.7-2.1-1.1-3.2
	c-0.4-1.1-0.8-2.1-1.2-3.2c-0.4-1.1-0.7-2.3-1.1-3.4c-0.4-1.2-0.8-2.3-1.1-3.5c-0.4-1.2-0.7-2.4-1-3.7c-0.3-1.2-0.7-2.5-1-3.7
	c-0.3-1.3-0.6-2.6-0.9-3.9c-0.7-2.6-1.1-5.3-1.7-7.9c-0.5-2.7-0.9-5.4-1.3-8.2c-0.1-1.4-0.3-2.8-0.5-4.2c-0.1-0.7-0.2-1.4-0.2-2.1
	s-0.1-1.4-0.1-2.1c-0.1-1.4-0.2-2.8-0.3-4.2c0-1.4-0.1-2.8-0.1-4.3c0-0.7-0.1-1.4-0.1-2.1l0.1-2.1c0-0.7,0-1.4,0-2.1s0-1.4,0-2.1
	c0.3-2.8,0.3-5.9,0.7-8.3l0.2-1.9l0.1-1v-0.2l0.1-0.3l0.1-0.6c0.3-1.7,0.5-3.4,0.8-5.1l0.2-1.3v-0.1l0.1-0.4l0.4-2.1
	c0.2-1.4,0.7-2.8,0.9-4.2c1.3-5.5,3-10.9,4.9-16.1s4.1-10.2,6.5-15s4.9-9.3,7.4-13.5s5-8,7.4-11.4c1.2-1.7,2.3-3.3,3.4-4.8
	s2.1-2.9,3-4.1c1.9-2.5,3.4-4.5,4.4-5.9c1.1-1.4,1.6-2.2,1.6-2.2s-1,0-2.7,0.3c-0.9,0.1-2,0.3-3.2,0.5c-1.3,0.2-2.7,0.6-4.3,1
	c-3.2,0.8-7,2.1-11.2,3.9s-8.9,4.3-13.7,7.4c-4.8,3.2-9.8,7.1-14.6,11.8c-4.8,4.7-9.4,10.3-13.5,16.6s-7.6,13.3-10.3,20.8
	c-0.6,1.9-1.3,3.8-1.8,5.7l-0.8,2.9l-0.2,0.7l-0.1,0.4v0.1l-0.1,0.7v0.2l-0.3,1.3c-0.3,1.7-0.7,3.4-1,5.1l-0.1,0.6l-0.1,0.3
	l-0.1,0.4l-0.2,1.6l-0.4,3.2c-0.6,4.4-0.6,8.3-0.7,12.4c0,2,0.1,4,0.3,6c0.1,2,0.2,4,0.5,5.9c0.3,2,0.6,3.9,0.8,5.8
	c0.4,1.9,0.8,3.8,1.3,5.7c0.2,0.9,0.4,1.9,0.7,2.8c0.2,0.9,0.5,1.8,0.8,2.7c0.6,1.8,1.2,3.6,1.7,5.4c0.6,1.8,1.4,3.4,2.1,5.1
	s1.4,3.4,2.2,4.9c1.6,3.2,3.2,6.3,5.1,9.1c0.9,1.4,1.8,2.8,2.7,4.2c1,1.3,1.9,2.6,2.9,3.8s1.9,2.5,2.9,3.6s2,2.2,3,3.3
	c1,1,1.9,2.1,2.9,3s2,1.8,3,2.7s1.9,1.7,2.9,2.5s1.9,1.5,2.9,2.1c3.7,2.8,7.2,4.8,10.1,6.3c0.7,0.4,1.4,0.8,2.1,1.1s1.3,0.6,1.9,0.8
	c0.2,0.1,0.3,0.1,0.5,0.2c-0.3,0-0.6,0-0.9-0.1c-13.1-1.1-26-3.2-37.4-7.6c-0.7-0.3-1.4-0.5-2.1-0.8l-2.2-0.9l-4.7-2l-9.4-4.1
	l-18.9-8.1l-18.9-8.1c-6.3-2.7-12.6-5.4-18.9-8.1c-6.3-2.7-12.6-5.3-19.1-8c-3.2-1.3-6.5-2.6-9.9-3.9s-7.1-2.6-11.2-3.7
	c-2-0.5-4-0.9-5.9-1.3l-5.1-1c-3.5-0.7-7-1.3-10.7-1.9c-7.3-1.1-14.9-1.8-22.8-1.8c-7.9,0.1-16,0.9-24.1,2.9s-16.2,5.3-23.6,10
	c-0.9,0.6-1.8,1.1-2.7,1.8l-1.3,0.9l-0.7,0.5l-0.2,0.1l-0.4,0.3l-0.3,0.2l-2.1,1.6l-2.8,2.3c-3.3,2.9-6.3,6-9.1,9.4
	c-1.4,1.7-2.7,3.4-3.9,5.2c0-1.5,0.1-2.9,0.2-4.4c0.3-6.4,0.9-12.9,1.8-19.5c1.8-13,4.4-26.1,8.4-38.9c1.9-6.4,4.3-12.7,6.8-18.9
	c0.7-1.5,1.3-3.1,2-4.6l1-2.3l1.1-2.3l2.2-4.5l2.4-4.4c6.2-11.9,14-22.9,22.8-32.9c2.1-2.6,4.6-4.9,6.8-7.3c1.1-1.2,2.4-2.3,3.6-3.5
	l3.7-3.5l3.6-3.1l1.8-1.5c0.6-0.5,1.1-1,2-1.6l4.5-3.4l2.3-1.7l0.3-0.2c0,0,0.1,0,0.1-0.1l0.3-0.2l1-0.7c11-7.7,22.9-14.1,35.3-19.1
	c12.5-4.8,25.5-8.3,38.8-10.2c1.7-0.2,3.3-0.5,5-0.7s3.3-0.3,5-0.5L306-44l2.5-0.2c1.7-0.1,3.4-0.2,5-0.3c6.7-0.3,13.4-0.3,20.1-0.1
	c13.4,0.7,26.7,2.4,39.6,5.1c13,2.7,25.4,6.3,37.4,10.7c3,1.1,6,2.1,8.8,3.4c2.9,1.3,5.8,2.4,8.6,3.7c2.8,1.4,5.5,2.7,8.3,4.1
	c2.7,1.4,5.3,2.9,8,4.4c10.5,6,20.3,12.7,29.3,19.8c9,7.2,17.2,14.9,24.7,22.6c7.6,7.7,14.2,15.8,20.3,23.7c1.5,2,3.1,3.9,4.5,5.9
	s2.8,3.9,4.2,5.9s2.6,3.9,3.9,5.8c1.3,1.9,2.5,3.8,3.7,5.7c2.5,3.8,4.7,7.5,6.8,11.1c1,1.8,2.1,3.6,3.1,5.4s2,3.5,2.9,5.2
	c3.8,6.9,6.9,13.4,9.7,19.3c0.7,1.5,1.4,2.9,2,4.3s1.2,2.8,1.8,4.1c1.2,2.7,2.2,5.2,3.2,7.5c1.9,4.7,3.5,8.8,4.7,12.1
	c2.5,6.6,3.6,10.3,3.6,10.3s-0.1-0.9-0.3-2.8c-0.2-1.8-0.5-4.5-1.1-8.1c-1.1-7-3-17.4-6.5-30.3c-1.8-6.5-3.9-13.6-6.6-21.2
	c-2.7-7.7-5.9-15.8-9.8-24.4c-3.9-8.6-8.4-17.6-13.8-26.8c-0.7-1.2-1.3-2.3-2-3.5c-0.7-1.1-1.4-2.3-2.2-3.5
	c-0.7-1.2-1.5-2.3-2.2-3.5s-1.5-2.3-2.3-3.5c-1.6-2.3-3.2-4.7-4.8-7c-1.7-2.3-3.5-4.7-5.2-7c-7.2-9.4-15.4-18.6-24.6-27.7
	c-9.3-8.9-19.7-17.4-31-25.2c-11.3-7.9-23.9-14.7-37.2-20.7c-1.7-0.7-3.3-1.5-5-2.2c-0.4-0.2-0.8-0.4-1.3-0.6l-1.2-0.5l-2.5-1
	c-3.4-1.4-6.8-2.6-10.3-3.8c-7-2.4-14.1-4.6-21.4-6.5c-1.4-0.4-2.8-0.7-4.3-1.1c-0.2-0.1-0.4-0.3-0.6-0.4c-4-2.7-9.8-6.3-16.9-9.9
	c-3.6-1.8-7.5-3.7-11.7-5.4c-4.2-1.8-8.7-3.4-13.4-5c-2.4-0.7-4.7-1.5-7.2-2.1c-1.2-0.3-2.4-0.7-3.7-1c-1.2-0.3-2.5-0.6-3.8-0.9
	s-2.5-0.6-3.8-0.8c-1.3-0.2-2.5-0.5-3.8-0.7c-2.6-0.4-5.1-0.8-7.7-1.1c-2.6-0.3-5.2-0.6-7.8-0.7c-1.3-0.1-2.6-0.2-3.9-0.2
	c-1.3-0.1-2.6-0.1-3.8-0.1c-1.3,0-2.5,0-3.8-0.1c-1.3,0-2.5,0.1-3.7,0.1s-2.5,0.1-3.7,0.1c-1.2,0.1-2.4,0.2-3.6,0.3
	c-1.2,0.1-2.4,0.2-3.5,0.3c-1.2,0.2-2.3,0.3-3.5,0.5c-1.1,0.2-2.3,0.3-3.4,0.4c-1.1,0.2-2.2,0.4-3.3,0.6c-4.3,0.7-8.3,1.7-12,2.6
	c-1.8,0.5-3.5,1-5.2,1.5c-0.8,0.2-1.6,0.5-2.4,0.7c-0.8,0.2-1.5,0.5-2.2,0.8c-1.4,0.5-2.8,1-4,1.4c-0.6,0.2-1.2,0.4-1.8,0.6
	s-1.1,0.4-1.6,0.7c-4,1.7-6.3,2.6-6.3,2.6s2.4-0.5,6.7-1.4c0.5-0.1,1.1-0.2,1.7-0.3c0.6-0.1,1.2-0.2,1.9-0.3
	c1.3-0.2,2.7-0.4,4.2-0.6c0.7-0.1,1.5-0.2,2.3-0.3c0.8-0.1,1.6-0.2,2.4-0.2c1.7-0.2,3.4-0.3,5.2-0.5c3.7-0.2,7.6-0.4,11.8-0.3
	c1,0,2.1,0,3.2,0c1.1,0.1,2.1,0.1,3.2,0.2s2.2,0.1,3.3,0.2c1.1,0.1,2.2,0.2,3.3,0.4c1.1,0.1,2.2,0.2,3.4,0.4
	c1.1,0.2,2.3,0.4,3.4,0.5c1.1,0.2,2.3,0.4,3.4,0.5c1.1,0.2,2.3,0.5,3.4,0.7c1.1,0.3,2.3,0.4,3.4,0.7c1.1,0.3,2.3,0.6,3.4,0.9
	c2.3,0.5,4.5,1.3,6.8,2c2.2,0.7,4.4,1.5,6.6,2.3c1.1,0.4,2.2,0.9,3.2,1.3c1.1,0.4,2.1,0.9,3.2,1.3c0.1,0,0.2,0.1,0.2,0.1
	c-0.8,0-1.5,0-2.3,0c-2,0-4,0.1-6,0.2l-3,0.1l-3,0.2c-2,0.2-4,0.3-6,0.5s-4,0.5-6,0.7s-4,0.5-6,0.8s-4,0.6-6,1
	c-4,0.8-8.1,1.5-12,2.6c-8,1.8-15.9,4.5-23.7,7.3c-15.5,5.9-30.4,13.9-44,23.4l-1.3,0.9l-0.3,0.2c0.3-0.2-0.8,0.6-0.7,0.5l-0.6,0.4
	l-2.2,1.7l-4.5,3.4c-0.7,0.5-1.6,1.3-2.4,2l-2.5,2.1c-1.7,1.4-3.4,2.8-5,4.3l-4.5,4.3c-1.5,1.4-3.1,2.8-4.4,4.4
	c-2.8,3.1-5.8,6-8.4,9.2c-10.8,12.6-20,26.5-27.3,41c-0.9,1.8-1.8,3.6-2.7,5.5c-0.8,1.8-1.6,3.7-2.5,5.5l-1.2,2.8l-1.1,2.8
	c-0.7,1.9-1.5,3.7-2.2,5.6c-2.7,7.5-5.1,15.1-7.1,22.7c-1.9,7.6-3.6,15.2-4.9,22.8c-1.3,7.6-2.2,15.2-2.8,22.7
	c-0.6,7.5-0.9,15-0.8,22.4c0,3.7,0.1,7.4,0.3,11.1c0.1,1.9,0.2,3.7,0.4,5.6l0.3,2.9l0.1,0.8c0,0.1,0.1,0.6,0.1,0.5v0.3l0.2,1.3
	l0.3,2.5l0.4,2.8l0.4,2.8l0.5,2.7c0.6,3.5,1.3,7,2.1,10.5c1.5,6.9,3.3,13.6,5.4,20.2c4.1,13.1,9,25.5,14.8,37.1
	c2.9,5.8,6.1,11.4,9.5,16.8c3.4,5.4,7.1,10.5,11.2,15.3c4.1,4.8,8.6,9.2,13.6,13.1c0.6,0.5,1.3,1,1.9,1.4c0.7,0.5,1.3,0.9,2,1.3
	c0.7,0.4,1.3,0.9,2,1.3c0.7,0.4,1.4,0.8,2.1,1.2c1.3,0.8,2.9,1.5,4.3,2.2c0.8,0.4,1.4,0.6,2,0.9c0.5,0.2,1.1,0.4,1.6,0.7
	c4,1.7,7.2,3.7,10.4,6.4l1,0.9c0.3,0.3,0.7,0.7,1,1c0.7,0.7,1.3,1.4,1.9,2.2c1.2,1.5,2.3,3.1,3.3,4.8c4,6.7,6,14.5,7.2,21.9
	c0.6,3.7,1,7.4,1.3,11c0.3,3.6,0.5,7,0.9,10.5c0.1,0.9,0.2,1.8,0.4,2.7c0.1,0.5,0.2,1,0.3,1.5s0.3,1.1,0.7,1.9
	c0.1,0.2,0.2,0.4,0.3,0.6c0.2,0.2,0.3,0.5,0.5,0.7c0.3,0.3,0.5,0.5,0.8,0.7c0.4,0.2,0.7,0.5,1.2,0.6c0.2,0.1,0.4,0.1,0.7,0.2
	c1.4,0.2,0.5,0,0.8,0.1h0.4c0.8-0.1,2-0.6,2.1-0.7c0.8-0.5,1.1-1,1.6-1.4c0.3-0.4,0.6-0.8,0.8-1.2c0.9-1.6,1.5-3,2-4.3
	c0.5-1.4,1-2.7,1.4-3.9c1.6-5,2.6-9.3,3.4-12.8c0.8-3.5,1.3-6.1,1.7-7.9s0.5-2.7,0.5-2.7s-1.5,3.5-4.5,9.9
	c-1.5,3.2-3.3,7.2-5.7,11.6c-0.4,0.8-0.9,1.6-1.3,2.3c0.2-2.6,0.5-5.4,0.7-8.3c0.3-3.7,0.5-7.7,0.5-11.9s-0.2-8.6-1-13.3
	c-0.7-4.6-1.9-9.5-3.9-14.5c-1-2.5-2.2-4.9-3.7-7.4c-0.1-0.2-0.3-0.4-0.4-0.7c7.7-0.2,15.6-1.9,22.9-4.9c8.1-3.3,15.1-8.3,20.9-14
	l-0.1,0.3c-0.1,0.5-0.2,1.1-0.4,1.6c-0.3,1.1-0.6,2.3-1,3.4c-0.4,1.1-0.8,2.2-1.3,3.4c-0.5,1.1-1,2.2-1.5,3.3s-1.1,2.2-1.8,3.3
	c-1.3,2.1-2.7,4.2-4.2,6.3l0,0c-0.5,0.6-0.5,1.5-0.1,2.1c0.6,0.9,1.7,1.2,2.6,0.6c2.3-1.4,4.5-3,6.6-4.9c2.1-1.8,4.1-3.8,5.9-5.9
	c0.9-1.1,1.8-2.2,2.7-3.4c0.8-1.2,1.6-2.4,2.4-3.6c0.4-0.6,0.8-1.2,1.1-1.9c0.4-0.7,0.8-1.4,1-1.9l0.4-0.9l0.2-0.4l0.1-0.1l0,0
	c0,0.1,0.1-0.2,0.1-0.1l0,0V279l0.1-0.3c0.3-0.7,0.6-1.3,0.9-2c1.1-2.7,2-5.5,2.7-8.3s1.3-5.7,1.7-8.6c0.2-1.5,0.3-3,0.4-4.5
	c0.1-1.6,0.1-3.1-0.1-5c-0.1-1-0.2-1.9-0.6-3.5c-0.1-0.4-0.3-0.9-0.6-1.5c-0.2-0.4-0.3-0.7-0.6-1.2l-0.2-0.3l-0.3-0.4l-0.3-0.4
	c-0.2-0.2-0.3-0.4-0.5-0.6l-0.3-0.3l-0.3-0.3c-0.3-0.2-0.6-0.5-0.8-0.7l-0.2-0.2l-0.3-0.2c-0.3-0.2-0.7-0.4-1.1-0.6
	c-0.4-0.2-0.8-0.3-1.2-0.5c-0.4-0.1-0.9-0.3-0.8-0.2l0,0c-0.5-0.1-1.6-0.3-1.6-0.3H262c-0.4,0-0.7,0-1.1,0c-0.7,0-1.3,0.1-1.9,0.3
	l-0.5,0.1l-0.4,0.1c-0.2,0.1-0.5,0.2-0.7,0.3s-0.5,0.2-0.7,0.3l-0.5,0.3c-0.3,0.2-0.7,0.4-0.9,0.6c-0.2,0.2-0.5,0.3-0.7,0.5
	c-0.2,0.1-0.3,0.3-0.5,0.4l-0.2,0.2l-0.2,0.2l-0.3,0.4c-0.2,0.2-0.4,0.4-0.5,0.6c-0.6,0.7-0.9,1.2-1.1,1.6c-0.2,0.4-0.4,0.7-0.6,1
	c-0.3,0.5-0.5,0.9-0.7,1.3c-2,2.1-4.1,4.1-6.2,6c-2.2,1.9-4.5,3.7-6.9,5.2s-4.7,2.8-7.1,3.8c-2.4,1-4.8,1.7-7.2,2.3
	c-4.8,1-9.6,1-14.5,0.3l-0.9-0.1l-0.8-0.2l-2.2-0.5l-1.6-0.4c-0.6-0.2-1.1-0.3-1.7-0.5c-2.2-0.7-4.4-1.7-6.4-2.8s-4-2.5-5.9-4
	c-1.9-1.5-3.7-3.2-5.5-5.1c-1.7-1.9-3.4-3.9-4.9-6.1c-1.6-2.1-3.1-4.5-4.5-6.8c-2.8-4.8-5.3-10-7.3-15.3c-0.5-1.3-1-2.6-1.4-3.9
	l-0.9-2.1c-0.2-0.6-0.3-1.2-0.4-1.4l0,0v-0.2l-0.2-1c-0.1-0.7-0.2-1.3-0.3-2c-0.2-1.3-0.4-2.7-0.5-4c-1.2-10.8-0.3-22,2.9-31.9
	c1.6-5,3.8-9.6,6.6-13.7c1.4-2.1,3-4,4.7-5.8c0.4-0.4,0.7-0.7,1.1-1.1c0,0,0.1-0.1,0.2-0.2l0.2-0.2l0.5-0.4l1-0.9l0.2-0.2
	c-0.1,0.1,0.4-0.3-0.2,0.1l0.1-0.1l0.4-0.3l0.7-0.6c0.5-0.4,1-0.8,1.5-1.2c4-3,8.5-5.4,13.6-7.1c5-1.7,10.6-2.7,16.4-3.1
	c5.8-0.4,11.9-0.2,18.2,0.4c3.1,0.3,6.3,0.7,9.6,1.1l5,0.7c1.5,0.2,2.9,0.4,4.2,0.7c5.1,1,11.6,3.3,17.9,5.4
	c6.4,2.2,12.8,4.5,19.2,6.8c6.4,2.3,12.9,4.7,19.3,6.9l19.4,6.8l19.4,6.8l9.7,3.4l4.8,1.7l2.6,0.9c0.9,0.3,1.8,0.6,2.7,0.9
	c14.6,4.4,29.1,5.7,43.3,5.7c14.2,0,28.2-1.1,42-2.9c13.8-1.8,27.5-4.3,41-7.2s26.9-6.2,40.2-9.8s26.5-7.5,39.5-11.6l0,0
	c0.9-0.3,1.5-1.2,1.3-2.2C572.1,155.3,571.1,154.6,570.1,154.8z M213.6,357.4c0,0,0,0,0.3-0.1l-0.1,0.1
	C213.6,357.5,213.4,357.6,213.6,357.4z M252.7,253.6c0.1,0.3,0.3,0.8,0.4,1.2l-0.1-0.1c-0.2-0.4-0.3-0.5-0.4-0.7
	c-0.1-0.3-0.2-0.5-0.2-0.6C252.4,252.9,252.6,253.3,252.7,253.6z M164.2,215.7L164.2,215.7L164.2,215.7L164.2,215.7L164.2,215.7z"/>
</svg>
