<?xml version="1.0" encoding="utf-8"?>
<!-- Generator: Adobe Illustrator 19.0.0, SVG Export Plug-In . SVG Version: 6.00 Build 0)  -->
<svg version="1.1" id="Слой_1" xmlns="http://www.w3.org/2000/svg" xmlns:xlink="http://www.w3.org/1999/xlink" x="0px" y="0px"
	 viewBox="0 0 674.9 500" enable-background="new 0 0 674.9 500" xml:space="preserve">
<path id="XMLID_1_"  d="M97.9,324.9c-34-0.8-74.5-25.5-90.1-50.2c-20.4-32.3,4.1-73.2,17.5-94.8
	C89.1,77.3,239.6,10.7,386.5,1.7C434.4-1.2,519.2-5.5,592.7,38c17.5,10.3,60.6,43,79.5,91.4c28.5,72.9-158.4,89.2-152.3,117.5
	c2.9,13.6,47-5,61.3-6.1c115-8.3,86.5,47.2,76.1,65.7c-33,59.2-235,161.6-366.3,183.4c-61,10.1-174.5,20.6-208.4-11.9
	c-20.6-19.7-27.9-58.4-11.7-81.9c27.3-39.5,48-48.6,145.5-90.8c38.9-16.8,127.8-44,121.6-62.3C329.5,217.5,182.3,326.8,97.9,324.9z"
	/>
<path id="XMLID_12_" fill="#CE2C17" d="M337.5,444.2c-107.1,0-194.2-87.1-194.2-194.2c0-107.1,87.1-194.2,194.2-194.2
	c107.1,0,194.2,87.1,194.2,194.2C531.6,357.1,444.5,444.2,337.5,444.2z M337.5,145.1c-57.9,0-104.9,47.1-104.9,104.9
	s47.1,104.9,104.9,104.9S442.4,307.9,442.4,250S395.3,145.1,337.5,145.1z"/>
</svg>
