<?xml version="1.0" encoding="utf-8"?>
<!-- Generator: Adobe Illustrator 19.0.0, SVG Export Plug-In . SVG Version: 6.00 Build 0)  -->
<svg version="1.1" id="_x31_" xmlns="http://www.w3.org/2000/svg" xmlns:xlink="http://www.w3.org/1999/xlink" x="0px" y="0px"
	 viewBox="0 0 479.7 202.1" enable-background="new 0 0 479.7 202.1" xml:space="preserve">
<path fill-rule="evenodd" clip-rule="evenodd" d="M233.4,189.8c0,1.8-1.1,3.1-3.4,3.9c-2.3,0.8-5.5,1.2-9.7,1.2
	c-8.3,0.1-12.5-1.7-12.5-5.3c0-0.9,0.2-1.6,0.5-2.2c0.3-0.6,0.9-1.1,1.7-1.4c0.5-0.2,0.8-0.4,1.1-0.7c0.3-0.3,0.5-0.7,0.7-1.3
	c0.2-0.6,0.3-1.3,0.3-2.3c0.1-0.9,0.1-2.1,0.1-3.6l0-4c0-1.9-0.4-2.8-1-2.8c-0.9,0-1.9,0.5-3.1,1.5l-7.5,6c-1.3,1-2.1,1.9-2.5,2.5
	c-0.4,0.7-0.6,1.6-0.6,2.8c0,0.5,0.2,1,0.5,1.3c0.3,0.3,0.7,0.6,1.1,0.8c0.8,0.4,1.4,0.8,2,1.4s0.8,1.3,0.8,2.2
	c0,3.6-4.3,5.4-13.1,5.5c-4,0-7.1-0.4-9.3-1.3c-2.2-0.9-3.3-2.2-3.3-3.9c0-1.4,0.4-2.4,1.1-2.7c0.7-0.4,1.5-0.8,2.4-1.2
	c1.1-0.5,1.6-5.6,1.5-15c0-5.5-0.1-9.7-0.2-12.7c-0.1-2.9-0.4-4.7-0.8-5.2c-0.2-0.2-0.5-0.4-0.9-0.6c-0.4-0.2-0.9-0.4-1.4-0.7
	c-0.5-0.3-0.9-0.7-1.3-1.1c-0.4-0.5-0.6-1.1-0.6-1.9c0-3.1,4.3-4.7,13-4.8c4.2,0,7.3,0.3,9.4,1c2.1,0.7,3.2,1.9,3.2,3.6
	c0,1-0.2,1.7-0.5,2.3c-0.3,0.6-0.9,1.1-1.6,1.5c-0.9,0.6-1.5,1.2-1.8,1.9c-0.3,0.7-0.4,1.9-0.4,3.5l0,6c0,1.5,0.1,2.5,0.2,2.9
	c0.2,0.4,0.4,0.6,0.7,0.6c1.1,0,2.2-0.5,3.5-1.6l7.5-6.2c1.1-0.9,1.9-1.7,2.2-2.4c0.4-0.7,0.6-1.4,0.6-2.2c0-0.4-0.1-0.8-0.4-1.3
	c-0.3-0.4-0.8-0.9-1.7-1.4c-0.6-0.4-1.2-0.9-1.6-1.5c-0.4-0.6-0.7-1.3-0.7-2.3c0-2,1.1-3.2,3.3-3.8c2.2-0.6,5.6-0.9,10.2-0.9
	c4.1,0,7.2,0.3,9.2,0.9c2,0.7,3,1.9,3,3.6c0,0.7-0.1,1.3-0.4,1.7c-0.3,0.4-0.6,0.8-1,1.1c-0.4,0.3-0.8,0.6-1.3,0.8
	c-0.5,0.2-0.9,0.5-1.2,0.8c-0.6,0.5-0.9,2-1,4.6c-0.1,2.6-0.2,6.3-0.1,11.2c0,3.6,0,6.5,0.1,8.7c0.1,2.2,0.1,3.9,0.3,5.1
	c0.1,1.2,0.3,2.1,0.5,2.6c0.2,0.5,0.5,0.8,0.9,1c0.6,0.3,1.4,0.7,2.2,1.2C232.9,187.7,233.3,188.5,233.4,189.8z M170.8,186.7
	c-0.4-0.1-0.8-0.4-1-0.8c-0.3-0.4-0.5-1.2-0.7-2.4c-0.2-1.2-0.3-2.9-0.4-5.2c-0.1-2.3-0.1-5.3-0.1-9.1c0-3.9,0-6.9,0.1-9.1
	c0.1-2.2,0.2-3.8,0.4-4.9c0.2-1.1,0.5-1.8,0.8-2.1c0.3-0.3,0.8-0.5,1.3-0.6c0.8-0.2,1.4-0.6,1.8-1.3c0.4-0.7,0.7-1.5,0.7-2.3
	c0-1.6-1.2-2.7-3.5-3.5c-2.3-0.7-5.4-1.1-9.2-1.1c-1.8,0-3.4,0.1-4.7,0.1c-1.3,0.1-2.5,0.2-3.6,0.2c-1.1,0.1-2.1,0.2-3.1,0.2
	c-1,0.1-2.1,0.1-3.3,0.1c-1.2,0-2.4,0-3.4-0.1c-1-0.1-2-0.1-3-0.2c-1-0.1-2.1-0.1-3.3-0.2c-1.2-0.1-2.5-0.1-4.1-0.1
	c-4.3,0-7.7,0.4-10.1,1.2c-2.4,0.8-3.6,2-3.6,3.6c0,0.7,0.2,1.3,0.6,2c0.4,0.6,1.1,1.2,2.1,1.5c0.5,0.2,0.8,0.4,1.1,0.7
	c0.3,0.3,0.5,1,0.7,2c0.2,1.1,0.3,2.7,0.4,4.9c0.1,2.2,0.1,5.2,0.1,9.2c0,3.8,0,6.9-0.1,9.1c-0.1,2.2-0.2,3.9-0.5,5.1
	c-0.2,1.2-0.5,2-0.9,2.4c-0.4,0.4-0.9,0.7-1.5,0.9c-1.4,0.5-2.1,1.6-2.1,3.3c0,1.8,1.2,3.1,3.5,4c2.3,0.8,5.2,1.2,8.7,1.2
	c4.6,0,8-0.5,10.2-1.3c2.2-0.8,3.3-2.2,3.3-4.1c0-1.2-0.2-2-0.7-2.3c-0.5-0.3-1-0.6-1.5-1c-0.5-0.4-1-1.2-1.5-2.3
	c-0.5-1.1-0.7-3.1-0.7-6l0-14.5c0-2.7,0-4.8,0.2-6.3c0.1-1.5,0.4-2.7,0.8-3.5c0.4-0.8,1.1-1.2,1.9-1.4c0.8-0.2,1.9-0.3,3.3-0.3
	c1.3,0,2.4,0.1,3.2,0.2c0.8,0.2,1.4,0.6,1.8,1.4c0.4,0.8,0.7,1.9,0.8,3.4c0.1,1.5,0.2,3.6,0.2,6.3l0,14.5c0,2.9-0.2,4.9-0.7,6
	c-0.5,1.1-1,1.9-1.5,2.3c-0.5,0.4-1,0.7-1.5,1c-0.5,0.3-0.7,1-0.7,2.3c0,1.9,1.1,3.2,3.2,4c2.1,0.8,5.3,1.2,9.4,1.2
	c3.9,0,7.1-0.5,9.4-1.3c2.4-0.8,3.6-2.2,3.6-4.1c0-0.9-0.3-1.6-0.9-2.2C172.2,187.3,171.6,186.9,170.8,186.7z M185.8,134.7
	c1.1-0.1,2.3-0.2,3.4-0.3c1.1-0.1,2.3-0.2,3.6-0.3c1.3-0.1,3-0.2,5-0.2c3.4-0.1,6.3-0.1,8.5,0c2.2,0.1,4,0.2,5.3,0.3
	c1.4,0.1,2.4,0.2,3,0.4c0.7,0.1,1.1,0.2,1.4,0.2c0.9,0,1.7-0.4,2.4-1.1c0.7-0.7,1.2-1.5,1.6-2.6c0.4-1,0.7-2.2,0.9-3.4
	c0.2-1.2,0.3-2.4,0.3-3.5c0-2-0.2-3.7-0.5-5c-0.3-1.3-0.7-2.3-1.2-3c-0.5-0.7-1.1-1.2-1.8-1.4c-0.7-0.2-1.4-0.3-2.2-0.3
	c-1,0-1.7,0.6-2.1,1.6c-0.4,1-0.9,2.2-1.6,3.4c-0.7,1.2-1.7,2.4-3.2,3.4c-1.4,1.1-3.7,1.6-6.7,1.7c-1.7,0-3,0-3.9-0.1
	c-0.9-0.1-1.6-0.3-2.1-0.7c-0.2-0.1-0.4-0.3-0.5-0.5c-0.2-0.2-0.3-0.6-0.4-1.2c-0.1-0.6-0.2-1.4-0.2-2.4c0-1-0.1-2.5-0.1-4.2
	c0-2,0.1-3.3,0.3-3.9c0.3-0.6,1.1-1,2.5-1c1.4,0,2.3,0.4,2.8,1.3c0.5,0.9,0.7,1.8,0.7,2.6c0.1,2.8,1.1,4.2,3,4.1
	c1.7,0,3-1.2,3.9-3.4c0.9-2.2,1.2-5.3,1.1-9.2c-0.1-3.7-0.6-6.5-1.6-8.4c-1-1.9-2.3-2.8-4-2.8c-1,0-1.7,0.5-2.1,1.4
	c-0.4,0.9-0.6,2.1-0.6,3.7c0,0.7-0.2,1.3-0.7,1.8c-0.5,0.5-1.4,0.8-2.7,0.8c-1.6,0-2.5-0.2-2.8-0.7c-0.3-0.5-0.5-1.7-0.6-3.7
	c0-1.6,0-2.9,0-3.9c0-1,0.1-1.7,0.1-2.3c0.1-0.5,0.1-0.9,0.3-1.2c0.1-0.2,0.2-0.4,0.4-0.6c0.9-0.7,3.1-1.1,6.6-1.2
	c2,0,3.6,0.2,5,0.6c1.4,0.5,2.6,1.3,3.7,2.6c0.7,0.7,1.4,1.6,2.2,2.5c0.7,1,1.5,1.4,2.4,1.4c1.4,0,2.4-0.9,3.2-2.5
	c0.8-1.6,1.1-3.9,1.1-6.8c-0.1-2.3-0.5-4.3-1.3-5.8c-0.8-1.5-1.9-2.2-3.2-2.2c-0.7,0-1.5,0.1-2.3,0.2c-0.8,0.1-1.9,0.3-3.2,0.5
	c-1.3,0.2-3,0.3-5,0.5c-2,0.2-4.6,0.3-7.7,0.4c-4.8,0.1-8.8,0.2-11.8,0.1c-3.1,0-5.3-0.1-6.7,0c-4,0.1-6,1.5-5.9,4.2
	c0,0.8,0.2,1.4,0.5,1.8c0.3,0.4,0.7,0.8,1.2,1.1c0.5,0.3,0.9,0.6,1.4,0.8c0.5,0.2,0.9,0.5,1.2,0.9c0.3,0.3,0.6,0.8,0.8,1.3
	c0.2,0.5,0.4,1.4,0.5,2.5c0.1,1.1,0.2,2.7,0.3,4.6c0.1,1.9,0.2,4.4,0.2,7.5c0.1,6.3,0.1,11.1-0.1,14.3c-0.2,3.2-0.8,5.3-1.6,6.3
	c-0.4,0.4-0.8,0.7-1.2,0.9c-0.4,0.3-0.8,0.6-1.1,0.9c-0.4,0.3-0.6,0.7-0.9,1.2c-0.2,0.5-0.3,1.1-0.3,1.8c0,1.1,0.9,2.1,2.7,2.9
	c1.8,0.8,3.8,1.2,6.2,1.1C183.2,134.8,184.6,134.8,185.8,134.7z M49.3,116.2c-1.2,0-2.2,0.3-3,1c-0.8,0.7-1.6,1.3-2.3,1.8
	c-1.3,0.9-2.7,1.6-4.2,2.1c-1.5,0.5-3.1,0.8-4.8,0.7c-4.9-0.1-8.8-1.7-11.7-4.9c-2.9-3.2-4.3-7.9-4.2-14c0-3.1,0.8-5.4,2.3-7
	c1.5-1.6,3.6-2.4,6.3-2.3c3,0,5.3,0.6,6.9,1.6c1.6,1.1,3.1,2.7,4.3,5.1c0.9,1.8,1.9,3,2.7,3.8c0.9,0.7,2.1,1.1,3.7,1.2
	c1.9,0,3.6-0.7,5-2c1.4-1.4,2.1-3.3,2.1-5.7c0-1.7-0.2-3.3-0.6-4.8c-0.4-1.6-1-2.9-1.8-4.1c-0.7-1.2-1.6-2.1-2.5-2.9
	c-0.9-0.7-1.9-1.1-2.9-1.1c-0.7,0-1.4,0.1-2,0.3c-0.6,0.2-1.2,0.3-1.8,0.3c-0.5,0-1.1-0.1-1.8-0.4c-0.8-0.3-1.7-0.6-2.8-0.9
	c-1.1-0.3-2.4-0.6-3.8-0.9c-1.4-0.3-3-0.4-4.8-0.5c-3.8-0.1-7.4,0.6-10.8,2c-3.4,1.4-6.3,3.3-8.8,5.7c-2.5,2.4-4.5,5.2-6,8.5
	C0.8,102,0,105.4,0,109.1c0,3.6,0.6,7,2,10.2c1.4,3.2,3.3,6,5.8,8.4c2.5,2.4,5.4,4.4,8.7,5.8c3.3,1.4,6.9,2.2,10.8,2.2
	c3.2,0,5.7-0.2,7.7-0.7c2-0.5,3.6-1,4.9-1.7c1.3-0.6,2.3-1.2,3.1-1.7c0.8-0.5,1.6-0.8,2.4-0.7c0.8,0,1.6-0.3,2.5-0.8
	c0.8-0.6,1.6-1.3,2.3-2.2c0.7-0.9,1.3-2,1.7-3.1c0.4-1.2,0.7-2.3,0.7-3.4c0-1.5-0.3-2.7-1-3.6C51,116.7,50.2,116.2,49.3,116.2z
	 M132.5,133.5c2.4-0.9,3.7-2.3,3.7-4.2c0-1.3-0.2-2.1-0.7-2.4c-0.5-0.3-1-0.6-1.6-1c-0.6-0.4-1.1-1.2-1.5-2.4
	c-0.5-1.2-0.6-3.2-0.5-6.3l0.5-15.2c0.1-2.8,0.2-5,0.4-6.6c0.2-1.6,0.5-2.8,1-3.6c0.5-0.8,1.2-1.3,2.1-1.5c0.9-0.2,2.1-0.3,3.6-0.3
	c1.4,0,2.6,0.1,3.5,0.2c0.9,0.2,1.5,0.7,1.9,1.5c0.4,0.8,0.7,2,0.7,3.6c0.1,1.6,0.1,3.8,0,6.6l-0.5,15.2c-0.1,3-0.4,5.1-1,6.3
	c-0.5,1.2-1.1,2-1.7,2.4c-0.6,0.4-1.1,0.8-1.6,1.1c-0.5,0.3-0.8,1.1-0.8,2.4c-0.1,2,1,3.4,3.3,4.2c2.3,0.8,5.7,1.3,10.2,1.2
	c4.2,0,7.6-0.5,10.2-1.3c2.6-0.9,3.9-2.3,4-4.2c0-1-0.3-1.7-0.9-2.3c-0.7-0.5-1.4-0.9-2.2-1.2c-0.4-0.1-0.8-0.4-1.1-0.9
	c-0.3-0.4-0.5-1.3-0.6-2.5c-0.1-1.3-0.2-3.1-0.2-5.4c0-2.4,0.1-5.6,0.2-9.6c0.1-4.1,0.3-7.2,0.4-9.5c0.2-2.3,0.4-4,0.6-5.1
	c0.3-1.1,0.6-1.9,1-2.2c0.4-0.3,0.9-0.5,1.4-0.6c0.9-0.2,1.5-0.6,2-1.4c0.5-0.8,0.8-1.6,0.8-2.5c0.1-1.7-1.2-2.9-3.6-3.7
	c-2.5-0.8-5.8-1.2-9.9-1.2c-2,0-3.7,0.1-5.1,0.1c-1.4,0.1-2.7,0.2-3.9,0.2c-1.2,0.1-2.3,0.2-3.3,0.2c-1,0.1-2.2,0.1-3.5,0.1
	c-1.3,0-2.6,0-3.6-0.1c-1.1-0.1-2.1-0.1-3.2-0.2c-1.1-0.1-2.3-0.1-3.5-0.2c-1.3-0.1-2.7-0.1-4.4-0.1c-4.7,0-8.3,0.4-11,1.3
	c-2.6,0.8-4,2.1-4,3.7c0,0.7,0.2,1.4,0.6,2.1c0.4,0.7,1.2,1.2,2.3,1.6c0.5,0.2,0.9,0.4,1.2,0.7c0.3,0.3,0.6,1,0.7,2.1
	c0.2,1.1,0.2,2.8,0.2,5.1c0,2.3-0.1,5.5-0.2,9.6c-0.1,4-0.3,7.2-0.5,9.5c-0.2,2.3-0.4,4.1-0.7,5.4c-0.3,1.2-0.7,2.1-1.1,2.5
	c-0.4,0.5-1,0.8-1.6,1c-1.5,0.5-2.3,1.7-2.4,3.5c-0.1,1.9,1.1,3.3,3.6,4.2c2.5,0.9,5.6,1.3,9.4,1.3
	C126.4,134.8,130,134.4,132.5,133.5z M221,83.5c-0.1-1.5,0.5-2.6,1.8-3.2c1.3-0.7,3.2-1,5.7-1.1c1.1,0,2.1,0,3,0.1
	c0.9,0.1,1.7,0.1,2.3,0.1c2.4,0,4.9-0.2,7.7-0.5c2.8-0.3,5.8-0.5,8.9-0.6c14.2-0.2,21.6,5.5,22.1,17.2c0.3,5.9-1.4,10.6-5,14
	c-3.6,3.4-8.8,5.1-15.6,5.2c-1.5,0-3,0-4.6-0.2c0,0.5,0,1.1,0,1.6c0,0.5,0,1,0,1.4c0.1,2,0.3,3.6,0.5,4.8c0.3,1.2,0.7,2,1.3,2.5
	c0.4,0.3,0.8,0.6,1.2,0.8c0.4,0.2,0.9,0.4,1.3,0.7c0.4,0.3,0.7,0.6,1,1.1c0.3,0.4,0.4,1,0.5,1.8c0.1,2.1-1,3.6-3.3,4.5
	c-2.3,1-5.9,1.5-10.7,1.5c-5.1,0.1-8.9-0.4-11.5-1.3c-2.5-0.9-3.9-2.5-3.9-4.6c0-0.8,0.1-1.5,0.5-2c0.4-0.5,0.8-0.9,1.3-1.3
	c0.5-0.4,1-0.7,1.5-0.9c0.5-0.3,0.8-0.6,1.1-1c0.5-0.8,0.7-3.7,0.6-8.6c-0.1-4.9-0.4-11.9-0.7-21c-0.1-2-0.3-3.5-0.7-4.6
	c-0.4-1-1.1-1.8-2.2-2.3c-1.1-0.6-2.1-1-2.9-1.4C221.5,85.7,221,84.9,221,83.5z M245.9,94.6l0.1,2.2l0.2,3.5c0.1,2,0.2,3.3,0.4,3.9
	c0.2,0.6,0.6,0.9,1.4,0.9c2,0,3.5-0.8,4.5-2.2c1.1-1.4,1.6-3.5,1.4-6.1c-0.1-2.9-0.8-5.1-1.9-6.7c-1.1-1.5-2.6-2.3-4.3-2.3
	c-0.9,0-1.5,0.5-1.6,1.6C245.9,90.5,245.8,92.2,245.9,94.6z M105.6,82.5c-1.6-0.7-3.8-1-6.6-0.9c-3.6,0.1-6.3,0.6-8,1.5
	c-1.7,0.9-2.5,2-2.5,3.4c0,0.5,0.2,1,0.6,1.4c0.4,0.4,0.8,0.7,1.3,1.1c0.5,0.3,0.9,0.7,1.3,1c0.4,0.4,0.6,0.8,0.6,1.2
	c0,0.2-0.2,1-0.7,2.3c-0.5,1.3-1,2.7-1.6,4.1c-0.6,1.4-1.3,2.7-2,3.9c-0.7,1.2-1.4,1.8-1.9,1.8c-0.8,0-1.5-0.5-2.1-1.4
	c-0.7-1-1.2-2.1-1.7-3.4c-0.5-1.3-0.9-2.6-1.2-3.8c-0.3-1.2-0.5-2-0.5-2.4c0-0.5,0.2-0.9,0.6-1.3c0.4-0.4,0.8-0.8,1.2-1.2
	c0.4-0.4,0.8-0.8,1.2-1.3c0.4-0.5,0.6-1.1,0.6-1.8c0-1.9-1.5-3.1-4.4-3.6c-3-0.4-6.8-0.6-11.4-0.4c-5.6,0.2-9.4,0.6-11.6,1.4
	c-2.1,0.7-3.2,2-3.2,3.6c0,1.3,0.3,2.2,0.9,2.7c0.6,0.5,1.5,1,2.8,1.4s2.2,1.3,2.9,2.6c0.7,1.3,1.3,2.6,1.9,3.7l6.5,12.1
	c1.9,3.5,3.5,6.5,4.6,8.9c1.1,2.4,1.7,4.3,1.7,5.7c0,0.8-0.2,1.6-0.7,2.2c-0.5,0.6-1.1,1-2,1c-1,0-1.7-0.1-2-0.4
	c-0.3-0.3-0.5-0.7-0.5-1.2c0-0.6,0.1-1,0.2-1.2c0.2-0.2,0.2-0.8,0.2-1.7c0-1.4-0.5-2.6-1.6-3.6c-1.1-1-2.6-1.5-4.7-1.4
	c-2.2,0.1-3.9,0.7-5,2c-1.2,1.3-1.8,2.9-1.8,5c0,1.6,0.4,3,1.1,4.3c0.7,1.3,1.8,2.4,3.1,3.3c1.3,0.9,2.9,1.6,4.7,2.1
	c1.8,0.5,3.8,0.7,6,0.6c3.6-0.1,6.7-1.1,9.3-2.8c2.6-1.8,4.9-4.7,7.1-8.7c2.2-4.1,4.1-8.5,5.9-13.2c1.8-4.6,3.6-9.3,5.6-14
	c0.6-1.4,1-2.5,1.5-3.3c0.4-0.9,0.8-1.5,1.2-2c0.4-0.5,0.8-0.9,1.2-1.2c0.4-0.3,0.9-0.5,1.6-0.7c0.9-0.3,1.6-0.9,2.1-1.7
	c0.5-0.8,0.8-1.5,0.8-2.3C108.1,84.3,107.3,83.2,105.6,82.5z M375,153c2.2-3.7,4.3-7.4,6.3-11.2c0.9,0.1,1.7,0.2,2.5,0.3
	c1.3,0.3,2.4,0.9,3.5,1.8c1,1,2,2.3,3,4.1c1,1.8,2.1,4.3,3.3,7.3l6.5,16c0.7,1.6,1.3,3.1,1.8,4.6c0.6,1.5,1.1,2.9,1.6,4.1
	c0.5,1.2,1,2.2,1.5,3c0.5,0.8,0.9,1.3,1.3,1.4c1.5,0.6,2.5,1.2,3,1.8c0.5,0.6,0.7,1.5,0.7,2.7c0,0.6-0.2,1.1-0.6,1.7
	c-0.4,0.6-1.1,1.1-2.2,1.5c-1,0.4-2.4,0.8-4.2,1.1c-1.8,0.3-3.9,0.4-6.6,0.4c-4.9,0-8.4-0.3-10.6-1c-2.2-0.7-3.3-1.9-3.3-3.5
	c0-0.9,0.2-1.6,0.6-2.1c0.4-0.5,0.9-0.8,1.4-1.1c0.5-0.3,1-0.6,1.4-0.9c0.4-0.3,0.6-0.7,0.6-1.3c0-1.9-2.5-2.9-7.3-2.8l-2.7,0
	c-2.5,0-4.4,0.2-5.6,0.6c-1.2,0.4-1.8,1.2-1.8,2.4c0,0.7,0.2,1.2,0.7,1.4c0.4,0.3,0.9,0.5,1.5,0.8c0.6,0.2,1,0.6,1.5,1
	c0.4,0.4,0.7,1.1,0.7,2c0,1.6-0.8,2.8-2.6,3.5c-1.7,0.7-4.3,1.1-7.8,1.1c-3.4,0-5.8-0.4-7.3-1.1c-1.1-0.6-1.8-1.3-2.1-2.2
	c0.1,0.9,0.2,1.8,0.2,2.8c0,0.9-0.1,1.8-0.2,2.8c-0.2,1-0.4,1.9-0.7,2.7c-0.3,0.8-0.7,1.5-1.2,2.1c-0.5,0.6-1,0.8-1.5,0.8
	c-0.8,0-1.5-0.3-2.2-0.9c-0.7-0.6-1.4-1.7-2.3-3.1c-0.5-0.8-1.1-1.4-1.8-1.9c-0.8-0.5-1.9-1-3.4-1.3c-1.5-0.3-3.5-0.6-6.1-0.7
	c-2.5-0.1-5.7-0.2-9.6-0.2c-2.2,0-3.9,0.1-5.1,0.1c-1.2,0.1-2.4,0.2-3.4,0.2c-1,0.1-2.2,0.2-3.4,0.2c-1.2,0.1-2.8,0.1-4.9,0.1
	c-3.8,0-6.8-0.3-9.2-1.1c-2.3-0.8-3.5-1.9-3.5-3.5c0-0.8,0.2-1.5,0.7-2.3c0.5-0.8,1.1-1.2,1.8-1.4c0.5-0.1,0.9-0.3,1.3-0.6
	c0.3-0.3,0.6-1,0.8-2.1c0.2-1.1,0.3-2.7,0.4-4.9c0.1-2.2,0.1-5.2,0.1-9.1c0-3.8-0.1-6.9-0.1-9.1c-0.1-2.3-0.2-4-0.4-5.2
	c-0.2-1.2-0.4-2-0.7-2.4c-0.3-0.4-0.6-0.7-1-0.8c-0.8-0.2-1.5-0.6-2.1-1.1c-0.6-0.5-0.9-1.2-0.9-2.2c0-1.9,1.2-3.2,3.5-4.1
	c2.3-0.8,5.5-1.3,9.5-1.3c4.1,0,7.3,0.4,9.4,1.2c2.1,0.8,3.2,2.1,3.2,4c0,1.2-0.2,1.9-0.7,2.2c-0.5,0.3-1,0.6-1.5,1.1
	c-0.5,0.4-1,1.2-1.5,2.3c-0.5,1.1-0.7,3.1-0.7,6l0,14.5c0,2.7,0.1,4.8,0.2,6.3c0.1,1.5,0.4,2.7,0.8,3.4c0.4,0.7,1,1.2,1.8,1.4
	c0.8,0.2,1.9,0.3,3.2,0.3c1.4,0,2.5-0.1,3.3-0.3c0.8-0.2,1.5-0.7,1.9-1.4c0.4-0.7,0.7-1.9,0.8-3.4c0.1-1.5,0.2-3.6,0.2-6.3l0-14.5
	c0-2.9-0.2-4.9-0.7-6c-0.5-1.1-1-1.9-1.5-2.3c-0.5-0.4-1-0.7-1.5-1c-0.5-0.3-0.7-1-0.7-2.2c0-1.9,1.1-3.2,3.3-4.1
	c2.2-0.8,5.6-1.3,10.2-1.3c3.6,0,6.5,0.4,8.8,1.2c2.3,0.8,3.4,2.2,3.4,3.9c0,1.7-0.7,2.8-2.1,3.3c-1.2,0.4-2,1.5-2.4,3.3
	c-0.4,1.7-0.6,4.7-0.6,8.8l0,13.5c0,2,0,3.5,0.1,4.7c0.1,1.2,0.2,2,0.3,2.6c0.1,0.6,0.3,1,0.5,1.1c0.2,0.2,0.4,0.3,0.7,0.2
	c0.6,0,1-0.1,1.3-0.3c0.3-0.2,0.9-0.3,1.8-0.3c1.3,0,2.3,0.9,3,2.6c0.3,0.7,0.5,1.4,0.6,2.1c0-0.1,0-0.2,0-0.3
	c0-0.8,0.1-1.4,0.3-1.8c0.2-0.4,0.6-0.7,1-0.9c0.4-0.2,0.9-0.5,1.5-0.7c0.6-0.2,1.2-0.6,1.8-1.1c0.8-0.6,1.7-2.1,2.6-4.4
	c1-2.4,2.3-5.5,4-9.5c1.9-4.4,3.5-8.2,4.8-11.3C372.1,157.8,373.2,156.1,375,153z M376.4,164.1c-0.8,1.7-1.8,4.1-3,7.4l10.2-0.1
	c-1.2-3.3-2.2-5.8-3.1-7.4c-0.9-1.6-1.6-2.4-2.1-2.4C377.8,161.7,377.2,162.5,376.4,164.1z M290.2,185.3c-0.9,0-1.5,0.1-1.8,0.3
	c-0.3,0.2-0.7,0.3-1.3,0.3c-0.3,0-0.5-0.1-0.7-0.2c-0.2-0.2-0.4-0.5-0.5-1.1c-0.1-0.6-0.2-1.5-0.3-2.6c-0.1-1.2-0.1-2.7-0.1-4.7
	l0-13.5c0-4.1,0.2-7.1,0.6-8.8c0.4-1.7,1.2-2.8,2.4-3.3c1.4-0.5,2.1-1.6,2.1-3.3c0-1.8-1.2-3.1-3.4-3.9c-2.3-0.8-5.2-1.3-8.8-1.2
	c-4.6,0-8,0.5-10.2,1.3c-2.2,0.8-3.3,2.2-3.3,4.1c0,1.2,0.2,1.9,0.7,2.2c0.5,0.3,1,0.6,1.5,1c0.5,0.4,1,1.2,1.5,2.3
	c0.5,1.1,0.7,3.1,0.7,6l0,14.5c0,2.7,0,4.8-0.2,6.3c-0.1,1.5-0.4,2.7-0.8,3.4c-0.4,0.7-1.1,1.2-1.9,1.4c-0.8,0.2-1.9,0.3-3.3,0.3
	c-1.3,0-2.4-0.1-3.2-0.3c-0.8-0.2-1.4-0.6-1.8-1.4c-0.4-0.7-0.7-1.9-0.8-3.4c-0.1-1.5-0.2-3.6-0.2-6.3l0-14.5c0-2.9,0.2-4.9,0.7-6
	c0.5-1.1,1-1.9,1.5-2.3c0.5-0.4,1-0.8,1.5-1.1c0.5-0.3,0.7-1,0.7-2.2c0-1.9-1.1-3.2-3.2-4c-2.1-0.8-5.3-1.2-9.4-1.2
	c-4,0-7.1,0.5-9.5,1.3c-2.3,0.8-3.5,2.2-3.5,4.1c0,0.9,0.3,1.6,0.9,2.2c0.6,0.5,1.3,0.9,2.1,1.1c0.4,0.1,0.8,0.4,1,0.8
	c0.3,0.4,0.5,1.2,0.7,2.4c0.2,1.2,0.3,2.9,0.4,5.2c0.1,2.3,0.1,5.3,0.1,9.1c0,3.9,0,6.9-0.1,9.1c-0.1,2.2-0.2,3.8-0.4,4.9
	c-0.2,1.1-0.5,1.8-0.8,2.1c-0.3,0.3-0.8,0.5-1.3,0.6c-0.7,0.2-1.3,0.6-1.8,1.4c-0.5,0.8-0.7,1.5-0.7,2.3c0,1.6,1.2,2.7,3.5,3.5
	c2.3,0.7,5.4,1.1,9.2,1.1c2.1,0,3.7-0.1,4.9-0.1c1.2-0.1,2.3-0.2,3.4-0.2c1-0.1,2.2-0.2,3.4-0.2c1.2-0.1,3-0.1,5.1-0.1
	c3.9,0,7.1,0,9.6,0.2c2.5,0.1,4.5,0.4,6.1,0.7c1.5,0.3,2.7,0.8,3.4,1.3c0.8,0.5,1.4,1.2,1.8,1.9c0.9,1.5,1.7,2.5,2.3,3.1
	c0.7,0.6,1.4,0.9,2.2,0.9c0.6,0,1.1-0.3,1.5-0.8c0.5-0.6,0.8-1.2,1.2-2.1c0.3-0.8,0.6-1.7,0.7-2.7c0.2-1,0.2-1.9,0.2-2.8
	c0-2.1-0.3-4-1-5.7C292.5,186.1,291.5,185.3,290.2,185.3z M333.2,57.2c0.4,4.3,1.6,4.3,4.2,4.9c2.4,0.6,5.8,1.4,8.3,1.4
	c-0.5-0.6-2.3-1.3-3-1.6C340.4,60.7,335.1,57.9,333.2,57.2z M478.8,164.5c-0.9-1.7-2.6-2.7-4.6-2.8c-1.4-0.1-2.9-0.1-4.3,0.1
	c-1.3,0.1-2.8,0.1-4.1,0l-4.6-0.2l0.4-6.6c0.1-1.5,0.2-3.2,0.5-4.7c0.2-1.2,0.4-2.4,0.5-3.5c0.2-3.7-2.3-6.2-5.9-6.4
	c-1.2-0.1-2.5,0.2-3.7,0.4c-1.5,0.3-3,0.8-4.4,1.4c-1.5,0.6-2.9,1.3-4.2,2.2c-1.7,1.2-3.1,2.8-3.2,5c-0.1,1.8,0,3.5,0.1,5.3
	c0.1,1.1,0.2,2.3,0.1,3.4l-0.1,2.6l-0.3,0c-0.9,0-1.9-0.3-2.8-0.4c-1.8-0.3-3.7-0.5-5.6-0.6c-1.9-0.1-3.7,0.7-5.1,2
	c-1.2,1.1-2.1,2.3-2.9,3.7c-0.8,1.4-1.5,2.9-2,4.5c-0.5,1.5-0.9,3.1-1,4.7c-0.1,1.4,0.4,2.8,1.2,4c1.1,1.6,2.7,2.5,4.5,2.6
	c1.9,0.1,3.8,0.1,5.8-0.1c1.8-0.1,3.7-0.1,5.6,0l1.4,0.1l-0.1,1.3c-0.1,1.9-0.3,3.8-0.6,5.7c-0.4,2.1-0.6,4.1-0.7,6.2
	c-0.1,1.8,0.2,3.6,1.2,5.1c1.1,1.6,2.6,2.7,4.6,2.8c1.6,0.1,3.1-0.1,4.6-0.5c1.6-0.4,3-1,4.5-1.7c1.4-0.7,2.8-1.6,3.9-2.7
	c1.3-1.3,2.3-2.9,2.4-4.8c0.1-2,0.1-4,0-6c-0.1-1.4-0.1-2.9,0-4.3l0-0.1l1.2,0.1c0.9,0,2.1,0.1,3,0.4c1.5,0.5,3.4,0.6,5,0.7
	c2.2,0.1,4.1-1,5.5-2.7c1-1.2,1.8-2.5,2.5-3.9c0.7-1.4,1.3-3,1.7-4.5c0.3-1.2,0.6-2.5,0.7-3.7C479.7,166.9,479.4,165.6,478.8,164.5z
	 M317.8,78.1c-0.2-0.8-2.7-4.1-5.9-3c-1.7,0.6-4.6,2.9-5.2,4.5C310.8,79.1,308.5,78.1,317.8,78.1z M335.6,73c0.4,0,5.2-2.7,9.6-3.6
	c0.8-0.2,3.5-0.3,3.8-0.4C347.8,67.9,335.5,63.8,335.6,73z M421.5,118.5c-0.8-0.4-1.4-1.1-2.3-1.7c-3.4-2.2-11.8-2.6-15.5-1.3
	c-0.9,0.3-1.6,0.8-2.3,1.2l-1.9,1.6c-2.5,2.3-5.4,4.2-8.1,6.3c-1.6,1.2-2.2,1.8-3.3,3.9c-0.9,1.6-1.7,3.3-2.5,5
	c-1.4,2.8-2.9,5.5-4.3,8.1c-0.7,0-1.4-0.1-2.1-0.1c-0.3,0-0.6,0-0.9,0c0.5-0.9,1.1-1.7,1.6-2.6c1.4-2.3,5-8,5.8-10.3
	c-2.3,0.2-4.1,1.9-6.8,1.1c-2.9-0.8-1.2-2.3-5.5,0.6c-1.6,1-3.3,2.2-5.1,3.2c-0.7,0.4-5,2.9-5.9,1.6c-0.5-0.7,4-7,3.8-9.5
	c-1.4-0.1-2.3,0.9-3.1,1.5c-2.6,1.9-4.8,4.3-7,6.9c-1.2,1.5-3,4.2-4.1,5.2c-0.7,0.6-4.5,3-5.7,3.3c0.6-1.7,3.5-6.1,4.5-7.8
	c1.1-1.7,3.9-6.1,4.5-7.8c-0.7,0.1-8.6,4.1-10.3,4.8c-3.5,1.5-7.1,2.8-11,3.7c-8.8,2.1-17.6,2.2-25.9-1.8
	c-6.9-3.3-12.9-9.7-15.6-15.4c-6.9-14.5-2.7-36.9,7.3-48.7c7.4-8.8,16.6-15,27.8-17.5c4.7-1.1,9-0.5,14,0c6.9,0.6,11.8,2.9,17.4,6.5
	c1.3,0.9,3.3,2.6,4.6,3.2c0-1.9-0.5-4.3-0.7-6.2c-0.4-4.1-1.4-17.7-0.2-20.4c1.2,0.3,2.9,2.6,3.2,4c0.4,1.8-0.5,4.9-0.7,6.9
	c1.4-0.4,2.6-2.2,3.7-3.3c8.8-9.8,4.1-25.6-7.5-30.6c-3.5-1.5-7.7-2.1-11.7-1.8c-7.8,0.5-5.7,3.5-9.5,0.3
	c-4.4-3.8-12.2-7.8-19.7-7.8c-7.6,0-13.9,5.2-17.1,9c-2.1,2.5-3.8,5.4-5.5,8.3c-1.1,2-2.3,1.3-4.7,1.7c-7.7,1.6-15.1,8-15.7,18.1
	c-0.3,4.4,1,9.7,4,12.3c1.3,1.2,4.5,3.8,6.3,3.7c-0.8-3.7-3.3-5.8,2.1-12.1l3.1-3.3c0.5-0.5,0.4-0.5,1-1c0.8-0.6,1.4-1.4,2.2-2.1
	c3.8-3.5,7.3-6.2,12.1-8.5c2.6-1.3,9.1-3.4,12.5-3.1c-1.5,0.9-7.6,2.1-13.4,5.4l-5.8,3.8c-4,3.1-12.9,12.5-12.3,16.9
	c0.2,1.5,3.6,13,5.3,13.7c1.4-1.7,2.4-3,4-4.2c1.4-1,3.3-2.5,5-3.2c-0.3,0.5,0,0.1-0.4,0.6l-2.7,2.8c-5.8,6-9.4,15.9-13.9,18.2
	c-3.3,1.6-6.8,1.8-8.7-1.3c-3.7-5.9,1.5-16.2,8.2-14.5c3.5,0.9,4.9,5,2.3,8.1c-0.7,0.9-2.8,2.1-4.3,0.9c-1.1-0.8-1.8-3-0.7-4.6
	c0.6,0.8,0.4,1.6,1.6,2c1,0.3,1.9-0.2,2.2-1.1c0.7-1.9-0.5-4.1-2.6-3.8c-6.3,1-6.1,13.3,0.2,11.5c1.6-0.5,3-1.6,4.1-2.8
	c1.2-1.4,1.9-2.3,3-4.2c1.7-2.8,1.6-1.9,0.4-4.8c-0.7-1.6-1.4-3.4-2.2-4.9c-1.2-2.4-1.4-2.1-3.9-3.2c-3.3-1.5-6.5-4.1-8-6.2
	c-2.2-3-3.2-5.6-3-10.8c0.3-8.4,3.7-14.8,10.1-19c4.6-3,6.5-2,10.1-3.3c2.1-0.7,5.4-9.8,13.5-15C315.1-1,323-0.9,331,2.5
	c3.7,1.6,6.3,3.3,9.2,5.4c1.9,1.4,2.2,2.1,4.7,1.3c1.7-0.6,3.4-1,5.4-1.2c5.9-0.7,12,1,16.7,4.5c1.6,1.2,2.5,2.1,3.7,3.4
	c4.1,4.3,7.2,13.2,3.8,21.7c-1.5,3.7-4,6.3-6.1,8.4c-3.6,3.4-4.2,2.9-4,10c0,1,0.1,6.1,0.2,6.6c0.6,1.7,6.6,6.9,8.4,12.5
	c1.2,3.7,0.7,8.9-0.8,12.5c-1.4,3.4-4.1,6.1-6.7,7.5c-10.6,5.7-23.6-2-30.6,1.3c-1.9,0.9-2.4,1.9-3.8,3.2c-0.9,0.9-1.3,0.3-2.4-0.2
	c-2.6-1.1-6.5-0.9-8.8,0.2c-3.5,1.8-10,8-14.3,5.1c-0.9-0.6-3-2.7-3.2-3.8c1,0.2,1.6,1.5,2.7,2.1c3.6,1.9,9.1-3.5,11.8-5.7
	c3.5-2.8,5.2-3.3,9.9-3.4c-3.6-2.7-10.1-2-5.8-8.9c1-1.6,2.6-3.4,3.4-5.4c0.9-2.5-0.4-4.3-1.6-6.2c1.4,0.4,3.3,3.1,3.3,5
	c0.1,2-1.6,4.9-2.4,6.5c-2.5,5-0.2,5.3,3.2,7.6c0.6,0.4,1.9,1.7,2.5,1.7c0.5-3.6,0.7-7.2,3.2-9c1.2-0.8,3.3-0.8,4.1,0.6
	c0.8,1.6-0.5,3.5-2.2,2.8c0.3-0.3,0.5-0.3,0.6-0.7c0.7-1.9-2-1-3.2,1c-0.8,1.3-1.2,2.8-1.1,4.5c0.9-0.2,2-1.3,2.9-1.9
	c1-0.6,2.2-0.9,3.5-1.1c7.7-0.8,17.5,6.3,24.3,2.3c3.2-1.9,6.1-8.3,5.9-13.9c-0.3-5.9-3.4-9.9-6-12.7c-0.7-0.7-1.7-1.7-2.5-2.3
	c-7.7-6.2-15.3-9-25.6-7.9c-4.9,0.5-10.4,1.9-14.4,3.8c-2.3,1.1-4.1,2.1-5.9,3.4c-4.5,3.2-1.2,2.9-0.6,5.5c-1.1,0.7-2.1,1.7-3,2.6
	c-0.9,0.8-1.9,2-3,2.5c0.5-1.6,3.9-6.2,3.3-8c-1.4,0.4-5.2,5.4-6.5,7.1c-6.2,8.5-9.5,22.5-8,33.2c2,13.6,12.5,24.5,27.2,27
	c8.5,1.5,15-0.7,21.6-3.7c3.1-1.4,6-2.7,8.9-4.2c3.3-1.6,5.3-3,7.3-5.9c1.9-2.8,3.6-5.6,5.5-8.4c1.9-2.8,3.7-5.6,5.5-8.3
	c2.1-3.1,9.9-14.8,12-15.2c2.8,2.5,2.6,10.2,0.7,14.3c-2.1,4.6-6.1,9.4-9.9,12.5l-3.6,3.1l-9,6.1c-1.2,0.8-3.4,3.5-3.6,5.2
	c1.9-1.7,3.2-3.4,5.5-4.8c1.5-0.9,6.1-3.3,7.3-0.4c0.1,2.4-3.7,5.7-3.7,8.3c1.4,0.3,4.4-1.6,5.4-2.2c0.8-0.5,1.8-1.1,2.3-1.5
	c2.3-1.8,0.8-7.7,6.6-13.3c6.2-6,6.9,0.1,5.4,3.5c-1.5,3.4-6.8,7.6-7,8.6c3.1,2.5,10.1-2.4,10.1-6.3c-0.7,0.1-2.2,1.3-3.2,1.7
	c0.2-0.9,3.1-2.5,4-3.5c1.1-1.4,2-2.8,3.1-4.7c1.9-3.4,3.8-6.7,5.7-10c1.9-3.3,4-6.6,6-9.7c1.1-1.8,5.2-8,7-8.3
	c1.3,0.9,1.5,5.1,1.5,7c-0.1,2.7-0.7,5.5-1.5,7.9c-0.8,2.2-1.8,4.4-2.9,6.2c-0.5,0.8-3.4,4.8-3.4,5.2c3.6-0.3,6.4-1.5,10.3-0.4
	C419.1,112.6,421.3,115.1,421.5,118.5z M363.9,118.4c1.3-0.5,4.2-3,5.5-4.1c1.7-1.3,3.6-3,5-4.7c2.4-2.7,6.8-8.1,6.6-13.6l0-1.7
	c-1.8,1.5-7.1,9.2-8.8,11.6C370.8,107.9,364.5,116.7,363.9,118.4z M384,116c-1.2-0.1-3,2-3.7,3c-1,1.4-1.9,3.4-1.6,5.5
	C379.9,123.7,384.1,118.6,384,116z M397.2,117.1c-2.4-0.3-5.7,3.8-6,5.5c0.7-0.1,2.8-2,3.3-2.5C395,119.7,397,117.9,397.2,117.1z
	 M407.6,102.2c0.6-1.5,2.2-6.1,1.5-7.6c-1,0.6-6.3,8.7-7.5,10.5c-2.8,4-4.6,7.4-7,11.1c0.8-0.1,5.3-2.2,6-2.7
	C402.9,111.9,406.4,105.3,407.6,102.2z M375.7,142.1c-0.8,0.3-1.5,0.6-1.9,1c-0.4,0.4-0.7,0.7-0.8,1.1c-0.1,0.4-0.2,0.7-0.2,0.9
	c0,1.1,0.1,1.7,0.2,2c0.2,0.3,0.2,0.8,0.2,1.3c0,0.2,0,0.4,0,0.6c1.7-2.4,3.4-4.9,4.9-7.3C377.2,141.7,376.4,141.9,375.7,142.1z
	 M373.4,149c-3.3,4.6-6.8,9-10.5,12.6c-1,0.9-3.5,3-4,3.9c1.5-0.5,3.1-1.7,4.6-2.5c1.5-0.8,3-1.7,4.5-2.5c0.7-0.3,1.2-0.7,1.7-1
	c0.5-1.1,0.9-2.1,1.3-3.1C372.4,153.1,373.2,150.7,373.4,149z"/>
</svg>
