<?xml version="1.0" encoding="utf-8"?>
<!-- Generator: Adobe Illustrator 19.0.0, SVG Export Plug-In . SVG Version: 6.00 Build 0)  -->
<svg version="1.1" id="Layer_1" xmlns="http://www.w3.org/2000/svg" xmlns:xlink="http://www.w3.org/1999/xlink" x="0px" y="0px"
	 viewBox="-14 16.2 469.8 469.8" style="enable-background:new -14 16.2 469.8 469.8;" xml:space="preserve">
<path d="M455.1,478.1c0,0-1.1-2.4-3.2-6.8c-2.1-4.4-5.3-10.8-9.5-18.9c-2.1-4.1-4.4-8.5-7-13.4c-2.6-4.8-5.4-10-8.6-15.5
	c-3.1-5.6-6.4-11.4-10-17.5c-3.5-6.2-7.4-12.6-11.4-19.3c-8.1-13.3-17-27.7-26.9-42.7c-9.8-15-20.5-30.6-31.8-46.6
	c-5.7-7.9-11.5-16-17.6-24.1c-3-4-6-8.1-9.1-12.2c-3.1-4-6.3-8.1-9.4-12.1c-1.4-1.9-2.9-3.7-4.4-5.6c11.8-14.7,22.8-29.6,33.6-44
	c1.4-2,2.9-3.9,4.3-5.8c1.4-2,2.8-3.9,4.2-5.8c2.8-3.9,5.5-7.7,8.2-11.5c5.4-7.6,10.8-15,15.8-22.3c5-7.3,9.9-14.5,14.6-21.4
	c4.7-6.9,9.1-13.7,13.4-20.2c4.2-6.5,8.3-12.7,12.1-18.7c3.8-6,7.3-11.7,10.6-17c6.6-10.7,12.2-20.2,16.8-28
	c4.5-7.9,8.1-14,10.4-18.3c1.2-2.1,2.1-3.8,2.7-4.9c0.6-1.1,0.9-1.7,0.9-1.7c1-1.9,0.7-4.4-0.9-6c-2-2-5.2-2-7.2,0l0,0
	c0,0-0.5,0.5-1.3,1.3c-0.9,0.9-2.2,2.2-3.9,3.9c-3.4,3.4-8.4,8.3-14.8,14.6c-3.2,3.2-6.8,6.6-10.7,10.3c-3.9,3.8-8,7.9-12.5,12.1
	c-4.5,4.3-9.3,8.9-14.3,13.7c-5.1,4.8-10.4,9.8-16,15.1c-5.6,5.3-11.3,10.7-17.4,16.3c-6,5.6-12.2,11.4-18.6,17.3
	c-3.2,3-6.5,5.9-9.8,9c-3.3,3-6.7,6.1-10,9.2c-3.4,3.1-6.8,6.2-10.3,9.3c-1.7,1.6-3.5,3.1-5.2,4.7c-1.8,1.6-3.5,3.1-5.3,4.7
	c-11.1,9.9-22.3,20-33.9,30.2c-3.7-4.4-7.3-8.8-10.9-13.2c-3.4-4-6.7-8.1-10-12.2c-3.3-4.1-6.6-8.2-9.9-12.2c-3.3-4-6.7-8-10-11.9
	c-1.7-2-3.3-3.9-5-5.9c-1.7-1.9-3.5-3.8-5.2-5.7c-3.5-3.7-7-7.4-10.5-11c-1.8-1.8-3.6-3.5-5.4-5.3c-1.8-1.7-3.7-3.4-5.5-5
	c-3.7-3.3-7.4-6.5-11.2-9.6c-1.9-1.5-3.8-3.1-5.7-4.5c-1.9-1.5-3.8-2.9-5.8-4.3c-7.7-5.6-15.5-10.9-23.3-15.7
	c-7.8-4.8-15.5-9.3-23-13.5c-7.6-4.1-15.1-7.8-22.4-11.3c-7.2-3.5-14.4-6.5-21.3-9.3c-3.4-1.4-6.8-2.7-10.1-3.9
	c-3.3-1.2-6.5-2.4-9.7-3.4c-12.7-4.1-24-7.3-33.5-9.3c-4.8-1-9.1-1.8-12.9-2.4c-3.8-0.6-7.1-1.1-9.7-1.4c-5.3-0.7-8.3-0.8-8.3-0.8
	c-1,0-2,0.1-2.9,0.6c-2.9,1.4-4.1,4.9-2.6,7.8l0.1,0.1c0,0,1.3,2.7,4,7.3c1.3,2.3,3,5.1,5,8.3c2,3.2,4.3,6.8,7,10.8
	c1.3,1.9,2.7,4,4.2,6.2c1.5,2.2,3,4.4,4.6,6.7c3.2,4.6,6.8,9.5,10.7,14.5c3.9,5.1,7.9,10.5,12.4,16c4.4,5.5,9.2,11.1,14,17
	c4.9,5.9,10.1,11.8,15.6,17.8c5.4,6.1,11,12.3,17,18.5c3,3.1,5.9,6.3,9,9.4c3.1,3.1,6.2,6.3,9.4,9.4c1.6,1.6,3.3,3.1,4.9,4.6
	c1.6,1.6,3.3,3.1,5,4.7c3.4,3.1,6.8,6.1,10.4,9.1c1.8,1.5,3.6,3,5.4,4.4c1.8,1.5,3.6,3,5.5,4.4c3.7,2.9,7.5,5.8,11.4,8.7
	c3.9,2.8,7.8,5.7,11.8,8.5c3.9,2.9,8,5.7,12,8.5c8.1,5.7,16.1,11.6,24.2,17.6c2.7,2,5.3,4.1,8,6.2c-1.1,0.9-2.1,1.8-3.2,2.7
	l-5.8,4.8c-2,1.6-4,3.1-6,4.6c-8,6.1-16.1,12-24.1,17.9c-8,5.9-15.8,11.8-23.6,17.6c-7.7,5.9-15.1,11.9-22.1,18.1
	c-13.8,12.6-26.5,25.5-37.8,38.6c-5.7,6.5-11.1,13-16.3,19.4c-5.3,6.3-10.3,12.4-15,18.5c-4.7,6.1-9.1,12-13.2,17.9
	c-2.1,2.9-4,5.8-5.9,8.6c-1.9,2.8-3.7,5.6-5.5,8.2c-7.2,10.5-13.2,20.3-18,28.5c-2.4,4.1-4.4,8-6.2,11.3c-1.7,3.4-3.2,6.3-4.4,8.7
	c-2.3,4.8-3.4,7.6-3.4,7.6l-0.1,0.2c-0.4,0.9-0.5,1.9-0.4,2.9c0.4,3.2,3.3,5.4,6.5,5c0,0,2.9-0.4,8.1-1.4c2.6-0.5,5.8-1.2,9.5-2.1
	c3.7-0.9,7.9-2,12.6-3.4c9.3-2.7,20.4-6.3,32.7-11.1c1.5-0.6,3.1-1.2,4.7-1.9c1.5-0.7,3.1-1.4,4.7-2.1c3.2-1.4,6.4-2.9,9.7-4.4
	c6.6-3.1,13.5-6.5,20.5-10.2c7.1-3.7,14.3-7.7,21.7-12c7.2-4.5,14.6-9.2,22.1-14.3c7.4-5.1,15-10.4,22.5-16.1
	c7.6-5.7,14.7-12.1,21.8-18.8c7.1-6.7,14-13.9,20.7-21.4c6.8-7.5,13.1-15.5,19.5-23.6c6.4-8.1,12.8-16.2,19.4-24.3
	c5.5-6.6,10.8-13.4,16.3-20c3.1,2.8,6.1,5.5,9.2,8.3c3.6,3.3,7.2,6.6,10.8,9.9c7.3,6.5,14.3,13.1,21.2,19.6
	c3.5,3.2,6.9,6.4,10.3,9.6c3.4,3.2,6.8,6.4,10.1,9.5c3.3,3.2,6.6,6.3,9.8,9.4c3.2,3.1,6.4,6.2,9.5,9.2c3.1,3.1,6.2,6.1,9.3,9
	c3,3,6,5.9,8.9,8.8c5.9,5.8,11.4,11.4,16.9,16.9c10.7,10.9,20.5,21,29.1,30c8.6,9,16,17,22.2,23.5c6.1,6.6,10.8,11.8,14,15.4
	c3.2,3.6,4.9,5.5,4.9,5.5l0.1,0.1c1.5,1.6,3.9,2.2,6,1.2C455.2,483.6,456.3,480.6,455.1,478.1z"/>
</svg>
