<?xml version="1.0" encoding="utf-8"?>
<!-- Generator: Adobe Illustrator 19.0.0, SVG Export Plug-In . SVG Version: 6.00 Build 0)  -->
<svg version="1.1" id="Capa_1" xmlns="http://www.w3.org/2000/svg" xmlns:xlink="http://www.w3.org/1999/xlink" x="0px" y="0px"
	 viewBox="-367.8 -116.2 661.5 489.9" enable-background="new -367.8 -116.2 661.5 489.9" xml:space="preserve">
<path fill="#ffc808" d="M-271.9,202.2c-33.3-0.7-73-25-88.2-49.1c-20-31.7,4-71.7,17.2-92.9C-280.5-40.4-133-105.6,10.9-114.5
	c46.9-2.9,130-7,202,35.6c17.1,10.1,59.3,42.2,77.9,89.6c27.9,71.4-155.1,87.4-149.2,115.1c2.9,13.4,46-4.9,60.1-5.9
	c112.7-8.2,84.7,46.2,74.6,64.3C244,242.3,46,342.6-82.6,363.9c-59.8,9.9-170.9,20.2-204.2-11.7c-20.2-19.3-27.4-57.2-11.4-80.3
	c26.7-38.7,47-47.6,142.6-89c38.1-16.5,125.2-43.2,119.2-61C-44.9,96.9-189.1,204.1-271.9,202.2z"/>
<path fill="#ce2a0d" d="M-167.8-51.4h273.1c25.9,0,47.1,19.2,47.1,47.1v273.1c0,27.9-21.2,47.1-47.1,47.1h-273.1
	c-25.9,0-47.2-19.2-47.2-47.1V-4.2C-215-32.2-193.8-51.4-167.8-51.4L-167.8-51.4z M52.6-10.6c-9.1,0-16.5,7.4-16.5,16.5v39.6
	c0,9.1,7.4,16.5,16.5,16.5h41.5c9.1,0,16.5-7.4,16.5-16.5V6c0-9.1-7.4-16.5-16.5-16.5H52.6L52.6-10.6z M110.9,104H78.5
	c3.1,10,4.7,20.6,4.7,31.5c0,61.1-51.1,110.6-114.2,110.6c-63.1,0-114.2-49.5-114.2-110.6c0-11,1.7-21.5,4.7-31.5h-33.7v155.2
	c0,8,6.6,14.6,14.6,14.6H96.3c8,0,14.6-6.6,14.6-14.6L110.9,104L110.9,104z M-31,60c-40.7,0-73.8,32-73.8,71.5S-71.7,203-31,203
	c40.7,0,73.8-32,73.8-71.5S9.8,60-31,60z"/>
</svg>
