<?xml version="1.0" encoding="utf-8"?>
<!-- Generator: Adobe Illustrator 19.0.0, SVG Export Plug-In . SVG Version: 6.00 Build 0)  -->
<svg version="1.1" id="Слой_1" xmlns="http://www.w3.org/2000/svg" xmlns:xlink="http://www.w3.org/1999/xlink" x="0px" y="0px"
	 viewBox="0 0 500 500" style="enable-background:new 0 0 500 500;" xml:space="preserve">
<path d="M417.2,219.7c0,0,0,1.2-0.1,3.5c0,1.2-0.1,2.6-0.1,4.3c0,0.9,0,1.8-0.1,2.8c-0.1,1-0.2,2.1-0.3,3.2
	c-0.1,1.1-0.2,2.3-0.3,3.6c-0.1,1.3-0.2,2.6-0.4,4c-0.4,2.8-0.7,5.8-1.2,9.1c-0.6,3.2-1.2,6.7-1.9,10.4c-0.4,1.8-0.9,3.7-1.3,5.7
	c-0.2,1-0.4,2-0.7,3c-0.3,1-0.6,2-0.8,3c-0.6,2-1.2,4.1-1.8,6.3c-0.7,2.1-1.4,4.3-2.2,6.5c-0.7,2.2-1.6,4.5-2.5,6.8
	c-0.9,2.3-1.7,4.6-2.8,7c-3.9,9.4-9,19.3-15.4,29.3c-6.3,10-13.9,20.2-23,30c-9.1,9.8-19.5,19.3-31.6,27.8
	c-12,8.5-25.5,16.1-40.4,22.1c-14.8,6-30.9,10.3-47.9,12.5c-2.1,0.3-4.2,0.5-6.4,0.7c-2.1,0.2-4.3,0.4-6.4,0.6
	c-2.2,0.1-4.3,0.2-6.5,0.3c-1.1,0-2.2,0.1-3.3,0.1c0,0-0.5,0-0.6,0l-0.4,0l-0.8,0l-1.6,0c-2.1,0-4.3-0.1-6.4-0.1
	c-2.2-0.1-4.5-0.3-6.7-0.4c-4.5-0.2-8.9-0.8-13.4-1.3c-8.9-1.3-17.9-2.9-26.7-5.4c-4.5-1.1-8.8-2.7-13.2-4.1
	c-2.2-0.8-4.4-1.6-6.5-2.5l-3.3-1.2l-3.2-1.4c-17.3-7.3-33.7-17.3-48.8-29.6c-1.8-1.6-3.7-3.1-5.6-4.7c-1.8-1.6-3.6-3.3-5.4-4.9
	c-0.9-0.8-1.8-1.7-2.7-2.5l-2.6-2.6l-2.6-2.6c-0.9-0.9-1.7-1.7-2.5-2.7c-1.6-1.8-3.3-3.7-4.9-5.5c-1.6-1.9-3.1-3.8-4.7-5.7l-2.3-2.9
	l-2.2-3l-2.2-3c-0.7-1-1.5-2-2.1-3c-1.4-2.1-2.7-4.1-4.1-6.2c-1.3-2.1-2.5-4.3-3.8-6.4c-0.6-1.1-1.3-2.1-1.9-3.2l-1.7-3.3l-1.7-3.3
	c-0.6-1.1-1.2-2.2-1.7-3.4l-3.2-6.8c-1-2.3-1.9-4.6-2.9-6.9c-0.5-1.2-1-2.3-1.4-3.5l-1.2-3.6l-1.2-3.6c-0.4-1.2-0.8-2.4-1.2-3.6
	l-2.1-7.2c-0.7-2.4-1.2-4.9-1.8-7.3l-0.9-3.7l-0.7-3.7c-0.4-2.5-1-5-1.4-7.5l-1-7.5c-0.2-1.3-0.3-2.5-0.4-3.8l-0.3-3.8l-0.3-3.8
	c-0.1-1.3-0.1-2.5-0.2-3.8l-0.3-7.8l0.1-7.2l0-1.8c0-0.6,0-1.2,0.1-1.9l0.2-3.9l0.2-3.9l0.1-1.9c0-0.6,0.1-1.3,0.2-1.9l0.9-7.6
	c0.3-2.5,0.8-5,1.2-7.5l0.6-3.7l0.8-3.7c0.6-2.5,1-5,1.6-7.4l2-7.3c0.3-1.2,0.7-2.4,1.1-3.6l1.2-3.6l1.2-3.6
	c0.4-1.2,0.9-2.4,1.3-3.6c0.9-2.4,1.7-4.8,2.7-7.1l3-7c0.5-1.2,1-2.3,1.6-3.4l1.7-3.4l1.7-3.4c0.6-1.1,1.2-2.2,1.8-3.3
	c1.2-2.2,2.4-4.4,3.7-6.6c1.3-2.1,2.6-4.3,4-6.4c0.6-1.1,1.4-2.1,2.1-3.1l2.1-3.1l2.1-3.1l2.3-3c1.5-2,3-4,4.6-5.9
	c1.6-1.9,3.2-3.8,4.8-5.7c6.6-7.5,13.6-14.6,21.1-21c15-12.9,31.8-23.4,49.3-31.3l3.3-1.5l3.3-1.3c2.2-0.9,4.5-1.8,6.7-2.6
	c4.5-1.5,9-3.1,13.6-4.3c9.1-2.7,18.3-4.4,27.5-5.8c4.6-0.5,9.2-1.2,13.7-1.4c2.3-0.1,4.6-0.3,6.8-0.4c2.3,0,4.5-0.1,6.8-0.1l1.7,0
	l0.8,0l0.4,0c0.1,0,0.9,0,0.7,0l3.2,0.1c2.1,0.1,4.2,0.2,6.3,0.3c2.2,0.2,4.5,0.4,6.8,0.6c2.3,0.2,4.6,0.4,6.7,0.7
	c17.4,2.4,34,6.9,49.2,13.3c15.2,6.4,28.9,14.4,41.1,23.3c12.2,9,22.6,19,31.6,29.2c9,10.2,16.4,20.8,22.6,31.2
	c6.1,10.4,11,20.5,14.7,30.1c1,2.4,1.8,4.8,2.6,7.1c0.8,2.3,1.7,4.6,2.3,6.9c0.7,2.3,1.4,4.5,2,6.6c0.6,2.2,1.1,4.3,1.6,6.4
	c0.3,1,0.5,2.1,0.8,3.1c0.2,1,0.4,2,0.6,3c0.4,2,0.8,3.9,1.2,5.8c0.7,3.7,1.2,7.3,1.7,10.5c0.4,3.3,0.7,6.3,1,9.1
	c0.2,1.4,0.2,2.7,0.3,4c0.1,1.3,0.2,2.5,0.2,3.6c0.1,1.1,0.1,2.2,0.2,3.2c0.1,1,0,1.9,0.1,2.8c0,1.7,0,3.2,0,4.4
	C417.2,218.5,417.3,219.7,417.2,219.7L417.2,219.7z M414.8,219.7c0,0,0-1.2-0.1-3.5c0-1.2-0.1-2.6-0.2-4.3c0-0.9,0-1.8-0.1-2.8
	c-0.1-1-0.2-2-0.3-3.2c-0.1-1.1-0.2-2.3-0.3-3.5c-0.1-1.2-0.2-2.6-0.4-3.9c-0.4-2.7-0.8-5.7-1.3-8.9c-0.7-3.2-1.3-6.6-2.1-10.2
	c-0.5-1.8-0.9-3.7-1.4-5.6c-0.3-1-0.5-1.9-0.8-2.9c-0.3-1-0.6-1.9-0.9-2.9c-0.6-2-1.3-4-1.9-6.1c-0.8-2.1-1.6-4.2-2.4-6.3
	c-0.8-2.2-1.7-4.3-2.7-6.5c-1-2.2-1.9-4.5-3.1-6.7c-4.3-9-9.8-18.4-16.6-27.6c-13.5-18.5-32.3-36.9-56.1-51
	c-11.9-7.1-25-13.1-39-17.8c-1.7-0.7-3.5-1.1-5.3-1.6c-1.8-0.5-3.6-1.1-5.4-1.6c-1.8-0.4-3.6-0.9-5.5-1.3c-0.9-0.2-1.8-0.5-2.7-0.7
	c-0.9-0.2-1.9-0.4-2.8-0.6c-1.9-0.4-3.7-0.7-5.6-1.1c-1.9-0.4-3.8-0.6-5.7-0.9c-0.9-0.1-1.9-0.3-2.9-0.4l-1.4-0.2l-1.4-0.1
	c-1.9-0.2-3.9-0.4-5.8-0.6c-2-0.3-3.8-0.3-5.7-0.4c-1.9-0.1-3.7-0.2-5.7-0.3c-2.1,0-4.2,0-6.3,0l-3.2,0l-2.7,0.1c-2,0.1-4,0.2-6,0.2
	c-2,0.1-4,0.3-6,0.5c-4,0.3-8,0.9-12,1.5c-8,1.3-16.1,3-24,5.4c-4,1.1-7.9,2.6-11.9,3.8c-2,0.7-3.9,1.5-5.9,2.3l-2.9,1.2l-2.9,1.3
	c-15.5,6.7-30.2,15.8-43.7,26.8c-1.7,1.4-3.3,2.8-5,4.2c-1.7,1.4-3.2,3-4.8,4.4c-0.8,0.7-1.6,1.5-2.4,2.2l-2.3,2.3l-2.3,2.3
	c-0.8,0.8-1.6,1.6-2.3,2.4c-1.5,1.6-3,3.3-4.4,4.9c-1.5,1.7-2.8,3.4-4.2,5.1l-2.1,2.6l-2,2.7l-2,2.7c-0.7,0.9-1.3,1.8-1.9,2.7
	c-1.2,1.9-2.5,3.7-3.7,5.6c-1.2,1.9-2.3,3.8-3.5,5.7c-0.6,1-1.2,1.9-1.7,2.9l-1.6,3l-1.6,3c-0.5,1-1.1,2-1.5,3l-2.9,6.1
	c-0.9,2.1-1.7,4.2-2.6,6.2c-0.4,1-0.9,2.1-1.3,3.1l-1.1,3.2l-1.1,3.2c-0.4,1.1-0.8,2.1-1.1,3.2c-2.8,8.6-4.8,17.5-6.3,26.5l-1,6.8
	c-0.1,0.6-0.2,1.1-0.2,1.7l-0.1,1.7l-0.3,3.3l-0.3,3.3c-0.1,0.5-0.1,1.1-0.1,1.7l-0.1,1.8l-0.3,7.2l0.1,6.6c0,1.1,0,2.3,0.1,3.4
	l0.2,3.4l0.2,3.4c0.1,1.1,0.1,2.3,0.3,3.4l0.8,6.8c0.3,2.3,0.7,4.5,1.1,6.8l0.6,3.4l0.7,3.4c0.5,2.2,0.9,4.5,1.5,6.7l1.8,6.6
	c0.3,1.1,0.6,2.2,1,3.3l1.1,3.3l1.1,3.3c0.4,1.1,0.8,2.1,1.2,3.2c0.8,2.1,1.6,4.3,2.5,6.4l2.7,6.3c0.4,1.1,0.9,2.1,1.5,3.1l1.5,3.1
	l1.5,3.1c0.5,1,1.1,2,1.7,3c1.1,2,2.2,4,3.4,5.9c1.2,1.9,2.4,3.8,3.6,5.8c0.6,1,1.2,1.9,1.9,2.8l1.9,2.8l1.9,2.8l2.1,2.7
	c1.4,1.8,2.7,3.6,4.2,5.3c1.5,1.7,2.9,3.4,4.4,5.2c0.7,0.9,1.5,1.7,2.3,2.5l2.3,2.5l2.3,2.5c0.8,0.8,1.6,1.6,2.4,2.4
	c1.6,1.6,3.2,3.2,4.8,4.7c1.7,1.5,3.3,3,5,4.5c13.5,11.6,28.5,21.3,44.3,28.5l2.9,1.4l3,1.2c2,0.8,4,1.7,6,2.4
	c4.1,1.4,8.1,3,12.2,4.1c8.2,2.6,16.5,4.3,24.8,5.7c4.2,0.6,8.3,1.3,12.4,1.5c2.1,0.2,4,0.4,6.1,0.5c2.1,0.1,4.3,0.2,6.4,0.2
	l1.6,0.1l0.8,0l0.4,0c0.2,0,0,0,0.2,0l3.1,0c2,0,4.1,0,6.1,0c2-0.1,4.1-0.2,6.1-0.3c2-0.1,4-0.2,6-0.5c2-0.2,4-0.4,6-0.6l1.5-0.2
	l1.5-0.2c1-0.2,2-0.3,2.9-0.5c2-0.3,3.9-0.6,5.8-1c1.9-0.4,3.9-0.8,5.8-1.2c1-0.2,1.9-0.4,2.9-0.6c0.9-0.2,1.9-0.5,2.8-0.7
	c1.9-0.5,3.8-1,5.6-1.4c1.9-0.5,3.7-1.1,5.5-1.7c1.8-0.6,3.7-1.1,5.4-1.8c14.3-5.1,27.7-11.5,39.7-19.1c12-7.5,22.7-16.2,32-25.3
	c9.3-9.1,17.2-18.7,23.8-28.3c6.6-9.6,11.9-19.2,16-28.4c1.1-2.3,2-4.6,2.9-6.8c0.9-2.2,1.8-4.4,2.5-6.6c0.8-2.2,1.5-4.3,2.2-6.4
	c0.6-2.1,1.2-4.2,1.8-6.2c4.6-16.2,6-29.4,6.5-38.3c0.1-1.1,0.1-2.2,0.2-3.2c0.1-1,0-1.9,0.1-2.8c0-1.7,0.1-3.2,0.1-4.3
	C414.7,220.8,414.8,219.6,414.8,219.7L414.8,219.7z"/>
<path d="M57.3,162.2c0,0,0.4-1,1.1-2.9c0.4-0.9,0.8-2.1,1.4-3.5c0.5-1.4,1.2-3,2.1-4.8c0.8-1.8,1.7-3.9,2.8-6
	c1.1-2.2,2.3-4.6,3.6-7.1c1.4-2.5,2.9-5.2,4.6-8c0.9-1.4,1.8-2.8,2.7-4.3c0.5-0.7,0.9-1.5,1.4-2.2c0.5-0.7,1-1.5,1.6-2.2
	c1.1-1.5,2.2-3.1,3.3-4.6c1.2-1.5,2.4-3.1,3.7-4.7c1.2-1.6,2.6-3.2,4-4.8c1.4-1.6,2.8-3.3,4.3-4.9c6-6.6,13-13.3,21.2-19.6
	c8.1-6.4,17.3-12.5,27.6-17.9c10.3-5.4,21.7-10.2,34-13.6c12.4-3.4,25.6-5.7,39.5-6.3c13.9-0.6,28.4,0.6,42.9,3.7
	c1.8,0.3,3.6,0.8,5.4,1.3c1.8,0.5,3.6,0.9,5.4,1.4c1.8,0.6,3.6,1.1,5.4,1.7l2.7,0.8c0,0,0.4,0.1,0.5,0.2l0.3,0.1l0.7,0.2l1.3,0.5
	c1.7,0.6,3.5,1.3,5.2,1.9c1.8,0.7,3.6,1.5,5.4,2.2c3.7,1.5,7.1,3.3,10.6,5c6.9,3.6,13.8,7.6,20.3,12.2c3.3,2.2,6.5,4.7,9.7,7.2
	c1.6,1.3,3.1,2.6,4.6,3.9l2.3,2l2.2,2.1c12,11,22.6,24,31.4,38.4c4.4,7.2,8.2,14.8,11.6,22.6c3.4,7.8,6,16,8.3,24.3
	c2.2,8.3,3.7,16.9,4.7,25.5l0.6,6.5c0.2,2.2,0.2,4.3,0.3,6.5c0,1.1,0.1,2.2,0.1,3.3l0,3.3l0,3.3c0,1.1,0,2.2-0.1,3.3l-0.4,6.6
	c-0.1,2.2-0.4,4.4-0.6,6.5l-0.3,3.3l-0.5,3.2c-0.4,2.2-0.6,4.3-1.1,6.5c-1.6,8.6-3.9,17.1-6.7,25.5l-2.3,6.1c-0.4,1-0.7,1.9-1.1,3
	l-1.3,3.1l-1.3,3.1c-0.4,1-0.9,2.1-1.4,3l-2.9,5.9c-1,2-2.1,3.9-3.2,5.8l-1.6,2.9l-1.7,2.8c-1.2,1.9-2.3,3.8-3.5,5.6l-3.7,5.4
	c-0.6,0.9-1.3,1.8-1.9,2.7l-2,2.6l-2,2.6c-0.7,0.9-1.4,1.7-2.1,2.5c-1.4,1.7-2.8,3.4-4.3,5l-4.5,4.8c-6.1,6.3-12.6,12.2-19.5,17.5
	c-6.9,5.3-14.1,10.2-21.7,14.4c-7.6,4.2-15.4,8-23.4,11c-16,6.2-32.8,10-49.4,11.3l-3.1,0.3l-3.1,0.1c-2.1,0.1-4.2,0.2-6.2,0.2
	c-4.1-0.1-8.3,0-12.4-0.4c-2-0.2-4.1-0.2-6.1-0.5c-2-0.2-4.1-0.5-6.1-0.7c-2-0.2-4-0.6-6-0.9c-2-0.4-4-0.6-5.9-1.1
	c-3.9-0.9-7.8-1.7-11.6-2.8c-1.9-0.5-3.8-1-5.7-1.6c-1.9-0.6-3.7-1.3-5.6-1.9l-1.4-0.5l-0.7-0.2l-0.3-0.1c-0.1,0-0.7-0.2-0.6-0.2
	l-2.6-1c-1.7-0.7-3.4-1.4-5.1-2.1c-1.8-0.8-3.6-1.6-5.4-2.4c-1.8-0.8-3.6-1.6-5.3-2.5c-13.6-7-25.9-15.4-36.5-25
	c-10.6-9.6-19.6-20.1-27-30.9c-7.4-10.8-13.2-22.1-17.6-33c-4.5-11-7.5-21.8-9.6-32.1c-2.1-10.3-3.2-20-3.4-29
	c-0.2-2.2-0.1-4.5-0.1-6.6c0-2.2,0-4.3,0.1-6.3c0.1-2.1,0.2-4.1,0.3-6c0.2-2,0.3-3.9,0.5-5.7c0.1-0.9,0.2-1.8,0.2-2.7
	c0.1-0.9,0.2-1.8,0.4-2.7c0.2-1.7,0.5-3.4,0.7-5.1c0.5-3.3,1.1-6.3,1.6-9.1c0.6-2.8,1.3-5.4,1.8-7.8c0.6-2.4,1.2-4.5,1.8-6.4
	c0.5-1.9,1-3.6,1.5-5c0.5-1.4,0.9-2.6,1.2-3.6C56.9,163.3,57.3,162.3,57.3,162.2L57.3,162.2z M59.2,162.9c0,0-0.3,1-0.9,2.9
	c-0.3,1-0.7,2.2-1.1,3.6c-0.5,1.4-0.9,3.1-1.4,5c-0.5,1.9-1.1,4-1.6,6.4c-0.5,2.4-1,4.9-1.5,7.7c-0.4,2.8-0.9,5.8-1.2,9
	c-0.1,1.6-0.3,3.3-0.4,5c-0.1,0.9-0.2,1.7-0.2,2.6c0,0.9-0.1,1.8-0.1,2.7c-0.7,14.5,0.6,32.4,6.3,51.6c5.6,19.2,15.7,39.8,31.1,58.6
	c7.7,9.4,16.7,18.2,26.9,26.2c1.2,1,2.6,1.9,3.9,2.9c1.3,0.9,2.6,1.9,4,2.9c1.4,0.9,2.7,1.8,4.1,2.7l2.1,1.4
	c0.7,0.4,1.4,0.8,2.1,1.3c1.4,0.9,2.9,1.7,4.3,2.6c1.4,0.9,2.9,1.6,4.4,2.4l2.2,1.2l1.1,0.6l1.1,0.5c1.5,0.7,3.1,1.5,4.6,2.2
	c1.5,0.8,3.1,1.4,4.6,2c1.5,0.6,3.1,1.3,4.6,1.9c1.7,0.6,3.4,1.3,5.2,1.9l2.6,0.9l2.3,0.7c1.7,0.5,3.3,1,5,1.6
	c1.7,0.5,3.4,0.9,5.1,1.4c3.4,1,6.9,1.6,10.4,2.3c7,1.2,14.2,2.2,21.4,2.6c3.6,0.3,7.3,0.2,10.9,0.3c1.8,0,3.7-0.1,5.5-0.2l2.8-0.1
	l2.8-0.2c14.8-1,29.6-4.3,44-9.4c1.8-0.7,3.6-1.4,5.4-2c1.8-0.7,3.5-1.5,5.3-2.3l2.6-1.2l2.6-1.3c1.7-0.9,3.5-1.6,5.2-2.6
	c6.9-3.6,13.4-7.8,19.8-12.3c6.4-4.6,12.3-9.7,18-15.2l4.2-4.2c1.4-1.4,2.7-2.9,4-4.4c0.7-0.7,1.3-1.5,2-2.2l1.9-2.3l1.9-2.3
	c0.6-0.8,1.3-1.5,1.8-2.4c4.8-6.3,9.1-13.1,13-20.1l2.8-5.3c0.5-0.9,0.9-1.8,1.3-2.7l1.2-2.7l1.2-2.7c0.4-0.9,0.8-1.9,1.2-2.9
	l2.2-5.7c2.7-7.6,4.9-15.3,6.6-23.1c0.4-2,0.7-3.9,1.1-5.9l0.5-3l0.4-3c0.2-2,0.5-4,0.7-6l0.4-6c0.1-1,0.1-2,0.1-3l0.1-3l0.1-3
	c0-1,0-2-0.1-3c-0.1-2-0.1-4-0.2-6l-0.4-6c-0.8-7.9-2-15.8-3.9-23.5c-1.9-7.7-4.2-15.3-7.2-22.6c-0.7-1.8-1.5-3.6-2.3-5.4l-1.2-2.7
	c-0.4-0.9-0.9-1.8-1.3-2.6c-0.9-1.8-1.7-3.5-2.6-5.3c-0.9-1.7-1.9-3.4-2.8-5.1c-7.8-13.5-17.3-25.9-28.3-36.4l-2-2l-2.1-1.9
	c-1.4-1.3-2.8-2.5-4.2-3.8c-3-2.3-5.8-4.8-8.9-6.9c-6-4.5-12.4-8.3-18.8-11.9c-3.3-1.7-6.5-3.5-9.8-4.9c-1.6-0.7-3.2-1.5-4.9-2.2
	c-1.7-0.7-3.5-1.4-5.2-2.1l-1.3-0.5l-0.6-0.3l-0.3-0.1c-0.1-0.1,0,0-0.2-0.1l-2.5-0.9c-1.7-0.6-3.4-1.2-5.1-1.7
	c-1.7-0.5-3.4-1-5.1-1.5c-1.7-0.5-3.4-1-5.1-1.4c-1.7-0.4-3.4-0.8-5.1-1.2l-1.3-0.3l-1.3-0.2l-2.6-0.5c-1.7-0.3-3.4-0.7-5.1-0.9
	c-1.7-0.2-3.4-0.5-5.1-0.7c-0.8-0.1-1.7-0.2-2.5-0.3l-2.5-0.2c-1.7-0.1-3.4-0.3-5.1-0.4c-1.7-0.1-3.4-0.1-5-0.2
	c-1.7,0-3.3-0.2-5-0.1c-13.3,0-26.2,1.5-38.2,4.2c-12.1,2.7-23.4,6.8-33.7,11.6c-10.3,4.8-19.6,10.4-27.8,16.5
	c-16.4,12-28.4,25.5-36.7,37.5c-8.4,12-13.4,22.4-16.5,29.6c-0.8,1.8-1.5,3.4-2,4.8c-0.5,1.4-1,2.6-1.3,3.5
	C59.5,162,59.2,163,59.2,162.9L59.2,162.9z"/>
<path d="M368.9,347.2c1.7,1.5,3.5,3,5.2,4.5c4.2,3.6,8.4,7.1,12.5,10.6c4.1,3.5,8.3,7,12.3,10.5c4,3.5,7.8,7.1,11.4,10.7
	c7.3,7.3,13.8,14.8,19.8,22.2c6,7.4,11.4,14.5,16.2,21.3c4.8,6.8,9,13.2,12.6,19.1c3.6,5.8,6.6,11.1,8.9,15.5
	c4.7,8.8,6.9,14.4,6.9,14.4c0.4,1.1-0.1,2.4-1.2,2.8c-0.5,0.2-1.1,0.2-1.6,0c0,0-5.5-2.3-14.3-7.1c-4.4-2.4-9.6-5.5-15.4-9.2
	c-5.8-3.7-12.1-8-18.8-13c-6.7-4.9-13.8-10.5-21-16.6c-7.3-6.1-14.6-12.8-21.8-20.2c-3.5-3.7-7.1-7.6-10.5-11.6
	c-3.4-4-6.8-8.2-10.2-12.4c-3.4-4.2-6.8-8.5-10.3-12.7c-1.4-1.8-2.9-3.5-4.3-5.2"/>
</svg>
