<?xml version="1.0" encoding="utf-8"?>
<!-- Generator: Adobe Illustrator 19.0.0, SVG Export Plug-In . SVG Version: 6.00 Build 0)  -->
<svg version="1.1" id="Capa_1" xmlns="http://www.w3.org/2000/svg" xmlns:xlink="http://www.w3.org/1999/xlink" x="0px" y="0px"
	 viewBox="-111.6 101 81 60" enable-background="new -111.6 101 81 60" xml:space="preserve">
<path d="M-99.8,140c-4.1-0.1-8.9-3.1-10.8-6c-2.5-3.9,0.5-8.8,2.1-11.4c7.6-12.3,25.7-20.3,43.3-21.4
	c5.7-0.4,15.9-0.9,24.7,4.4c2.1,1.2,7.3,5.2,9.5,11c3.4,8.7-19,10.7-18.3,14.1c0.4,1.6,5.6-0.6,7.4-0.7c13.8-1,10.4,5.7,9.1,7.9
	c-4,7.1-28.2,19.4-44,22c-7.3,1.2-20.9,2.5-25-1.4c-2.5-2.4-3.4-7-1.4-9.8c3.3-4.7,5.8-5.8,17.5-10.9c4.7-2,15.3-5.3,14.6-7.5
	C-72,127.1-89.7,140.2-99.8,140z"/>
<path fill="#3E1F00" d="M-41,116h-4v-2v-6v-4c0-1.6-1.3-3-3-3h-4c-1.6,0-3,1.3-3,3v4v6v2h-46v33h46v2.3l4,7v1.7c0,0.6,0.4,1,1,1
	s1-0.4,1-1v-1.7l4-7V149h4V116z M-47,112h-6v-2h6V112z M-53,104c0-0.5,0.4-1,1-1h4c0.5,0,1,0.4,1,1v4h-6V104z M-99,147v-29h44v29
	H-99z M-50,156l-2.3-4h4.6L-50,156z M-47,150h-6v-1v-33v-2h6v2v33V150z M-43,147h-2v-29h2V147z M-62,127h-3c-0.6,0-1,0.4-1,1
	c0,0.6,0.4,1,1,1h3c0.6,0,1-0.4,1-1C-61,127.4-61.4,127-62,127z M-80,125h3c0.6,0,1-0.4,1-1s-0.4-1-1-1h-3c-0.6,0-1,0.4-1,1
	S-80.6,125-80,125z M-62,123h-7c-0.6,0-1,0.4-1,1s0.4,1,1,1h7c0.6,0,1-0.4,1-1S-61.4,123-62,123z M-73,125c0.3,0,0.5-0.1,0.7-0.3
	c0.2-0.2,0.3-0.4,0.3-0.7s-0.1-0.5-0.3-0.7c-0.4-0.4-1-0.4-1.4,0c-0.2,0.2-0.3,0.4-0.3,0.7s0.1,0.5,0.3,0.7
	C-73.5,124.9-73.3,125-73,125z M-77,128c0,0.6,0.4,1,1,1h7c0.6,0,1-0.4,1-1c0-0.6-0.4-1-1-1h-7C-76.6,127-77,127.4-77,128z M-80,129
	c0.3,0,0.5-0.1,0.7-0.3s0.3-0.4,0.3-0.7s-0.1-0.5-0.3-0.7c-0.4-0.4-1-0.4-1.4,0c-0.2,0.2-0.3,0.4-0.3,0.7c0,0.3,0.1,0.5,0.3,0.7
	S-80.3,129-80,129z M-76.9,134.4c-2.2,1.1-2.9,3.3-3.2,5.6c-0.4-0.3-0.8-0.7-1.2-1c-1-0.8-2.4,0.6-1.4,1.4c0.9,0.8,1.9,1.6,2.8,2.4
	c0.7,0.6,1.7,0.2,1.7-0.7c0.1-2.2,0.2-4.7,2.3-5.9C-74.7,135.5-75.7,133.8-76.9,134.4z M-70.2,138.4c-1.4,0.3-3,2.1-3.9,0.1
	c-0.6-1.2-2.3-0.1-1.7,1c0.5,1,1.5,1.8,2.7,1.9c0.6,0.1,1.1,0,1.7-0.2c0.4-0.2,1.9-1.3,2.3-0.7c0.6,1.1,2.4,0.1,1.7-1
	C-68.1,138.5-69.1,138.1-70.2,138.4z M-91,132.3c2.5,0,4.6-2.3,4.6-5.2c0-2.8-2.1-5.2-4.6-5.2l0,0h-3.8l0,0c-0.4,0-0.8,0.4-0.8,0.9
	l0,0v8.5v2.7h-0.8c-0.4,0-0.8,0.4-0.8,0.9s0.4,0.9,0.8,0.9h0.8v5.2c0,0.5,0.4,0.9,0.8,0.9s0.8-0.4,0.8-0.9v-5.2h3
	c0.4,0,0.8-0.4,0.8-0.9s-0.4-0.9-0.8-0.9h-3v-1.8L-91,132.3L-91,132.3z M-91,123.8L-91,123.8c1.7,0,3,1.5,3,3.3s-1.3,3.3-3,3.3h-3
	v-6.7L-91,123.8L-91,123.8z"/>
</svg>
