<?xml version="1.0" encoding="utf-8"?>
<!-- Generator: Adobe Illustrator 19.0.0, SVG Export Plug-In . SVG Version: 6.00 Build 0)  -->
<svg version="1.1" id="Layer_1" xmlns="http://www.w3.org/2000/svg" xmlns:xlink="http://www.w3.org/1999/xlink" x="0px" y="0px"
	 viewBox="-39.1 38.8 248.1 184" enable-background="new -39.1 38.8 248.1 184" xml:space="preserve">
<path d="M-3.1,158.4c-12.5-0.3-27.4-9.4-33.1-18.5c-7.5-11.9,1.5-26.9,6.4-34.9c23.5-37.8,78.8-62.3,132.9-65.6
	c17.6-1.1,48.8-2.6,75.9,13.4c6.4,3.8,22.3,15.8,29.3,33.6c10.5,26.8-58.3,32.8-56,43.2c1.1,5,17.3-1.8,22.6-2.2
	c42.3-3.1,31.8,17.4,28,24.2c-12.2,21.8-86.5,59.5-134.8,67.5c-22.4,3.7-64.2,7.6-76.7-4.4c-7.6-7.3-10.3-21.5-4.3-30.2
	c10-14.5,17.7-17.9,53.6-33.4c14.3-6.2,47-16.2,44.8-22.9C82.2,118.9,28,159.1-3.1,158.4z"/>
<path fill="#3E1F00" d="M67.1,104.8H18.5c-1.4,0-2.7,0.8-3.3,2l-36.9,73.9v0.1c0,0.1-0.1,0.2-0.1,0.2c-0.1,0.4-0.2,0.8-0.2,1.1v0.1
	v36.9c0,2,1.7,3.7,3.7,3.7h206.9c2,0,3.7-1.7,3.7-3.7v-36.9v-0.1c0-0.4-0.1-0.8-0.2-1.1c0-0.1-0.1-0.2-0.1-0.2v-0.1l-37.1-73.8
	c-0.6-1.3-1.9-2-3.3-2h-40.8 M81.2,104.8h-6.6 M103.3,104.8H88.9 M110.6,112.2h38.6l33.3,66.5h-71.6h-7.4h-37h-7.4h-71.6l33.3-66.5
	h46.8 M90.1,112.2h13.1 M75,112.2h7.8 M103.2,186.1c-1.7,8.4-9.2,14.8-18.1,14.8s-16.4-6.4-18.1-14.8H103.2z M184.8,215.7
	L184.8,215.7H-14.7v-29.6h74.2c1.8,12.5,12.6,22.2,25.6,22.2s23.8-9.7,25.6-22.2h74.2v29.6H184.8z M88.9,38.8c0,0,0.4,0.3,1.1,1
	s1.7,1.8,2.9,3.2c2.3,2.9,5.4,7.4,7.6,13.6c1.1,3.1,2,6.7,2.2,10.6c0.3,3.9,0,8.1-1.2,12.3c-1.2,4.2-3.2,8.4-5.8,12
	c-2.6,3.7-5.9,7-9.3,9.8c-0.9,0.7-1.8,1.3-2.7,2l-2.4,1.8c-1.8,1.3-3,2.3-4.4,3.4c-0.6,0.6-1.3,1.2-1.9,1.8
	c-0.5,0.6-1.2,1.2-1.6,1.9l-0.7,0.9c-0.1,0.2-0.2,0.3-0.3,0.5l-0.2,0.5c-0.2,0.3-0.3,0.6-0.5,0.9c-0.1,0.3-0.2,0.6-0.4,0.9
	c-0.4,1.2-0.6,2.4-0.4,3.5c0.2,1.2,0.6,2.4,1.3,3.6c0.1,0.3,0.4,0.6,0.6,0.9s0.4,0.6,0.6,0.9c0.5,0.6,0.9,1.1,1.4,1.7
	c0.3,0.3,0.5,0.5,0.8,0.8s0.5,0.5,0.8,0.8c0.5,0.5,1.1,1,1.6,1.5c2.2,1.9,4.5,3.5,6.6,4.8s3.9,2.5,5.5,3.4s2.8,1.6,3.7,2.1
	c0.9,0.5,1.3,0.7,1.3,0.7s-0.5,0-1.5-0.2c-1-0.1-2.4-0.3-4.2-0.7c-1.8-0.4-4-0.9-6.5-1.7s-5.2-1.9-8.1-3.5s-6-3.6-8.7-7
	c-0.3-0.4-0.7-0.9-1-1.3c-0.3-0.5-0.6-1-0.9-1.5c-0.3-0.5-0.5-1.1-0.8-1.6c-0.2-0.6-0.5-1.1-0.6-1.8c-0.8-2.4-0.6-5.2-0.1-7.7
	c0.2-0.6,0.3-1.2,0.5-1.9c0.2-0.6,0.5-1.1,0.7-1.7l0.4-0.9c0.1-0.3,0.3-0.5,0.5-0.8l0.9-1.5c0.7-1,1.4-1.9,2.1-2.8
	c0.8-0.9,1.6-1.7,2.4-2.5c1.7-1.6,3.5-3.2,5.1-4.3c1.6-1.2,3.2-2.4,4.8-3.6c3-2.3,5.6-5,7.8-7.8l0.8-1.1l0.7-1.1l0.8-1.1
	c0.2-0.4,0.4-0.8,0.7-1.1l0.6-1.1l0.5-1.2l0.6-1.2l0.5-1.2c1.2-3.1,1.9-6.4,2.1-9.6c0.3-3.2,0.1-6.3-0.3-9.2
	c-0.8-5.8-2.5-10.6-3.7-14c-0.7-1.7-1.2-3-1.6-3.9C89.2,39.2,88.9,38.8,88.9,38.8z M108,59.3c0.4,0.5,0.9,1.3,1.4,2.3
	c1.1,2.1,2.1,5.3,2.1,9.1c0,1.9-0.1,4-0.5,6.1c-0.4,2.1-1,4.4-1.8,6.7c-0.8,2.3-1.8,4.6-2.9,6.9s-2.3,4.7-3.7,6.9l-0.5,0.9l-0.5,1
	c-0.3,0.6-0.6,1.1-1,1.9c-0.7,1.5-1.2,2.9-1.7,4.4s-0.8,3-1,4.4c-0.2,1.5-0.3,3-0.3,4.4c0,2.9,0.5,5.7,1.3,8.2s1.8,4.7,3,6.6
	c1.2,1.9,2.4,3.5,3.6,4.8c1.2,1.3,2.3,2.3,3.3,3.1s1.8,1.3,2.4,1.7s0.9,0.5,0.9,0.5s-0.8-1.2-1.9-3.3c-0.5-1.1-1.2-2.4-1.8-3.9
	c-0.6-1.5-1.3-3.2-1.9-5c-0.6-1.9-1-3.9-1.3-6c-0.1-0.5-0.1-1.1-0.2-1.6c0-0.5-0.1-1.1-0.1-1.6s0-1.1,0-1.7c0-0.6,0-1.1,0.1-1.7
	c0.1-1.1,0.3-2.2,0.5-3.4c0.2-1.1,0.6-2.2,0.9-3.4c0.4-1.1,0.8-2.2,1.3-3.3c0.2-0.5,0.6-1.2,0.9-1.8l0.9-1.8
	c1.3-2.5,2.5-5.2,3.6-7.8c1-2.7,1.8-5.4,2.4-8.1s0.9-5.4,0.9-7.9c0-2.6-0.3-5-0.8-7.2s-1.4-4.1-2.3-5.7s-1.9-2.8-2.8-3.7
	s-1.7-1.4-2.3-1.8c-0.6-0.3-0.9-0.5-0.9-0.5S107.6,58.8,108,59.3z M62.6,58.6c0.8,0,2,0.1,3.4,0.4c1.4,0.2,3.2,0.5,5.1,1.1
	c1.8,0.6,3.9,1.5,5.3,3c0.7,0.7,1.2,1.6,1.4,2.5c0.2,0.9,0.3,2,0.1,3.2c-0.4,2.3-1.6,4.9-3.1,7.4s-3.4,5-5.4,7.5s-4.2,5-6.4,7.4
	c-1.1,1.2-2.2,2.4-3.4,3.6c-0.6,0.6-1.1,1.2-1.7,1.8L57,97.4l-0.9,1c-2.6,2.8-4.7,6.2-5.8,9.9c-1.1,3.7-1,7.5-0.3,10.7
	c0.7,3.3,2,6.1,3.5,8.4c1.4,2.3,3,4.2,4.5,5.8c1.5,1.6,2.9,2.8,4.1,3.7c1.2,0.9,2.2,1.6,2.9,2s1.1,0.6,1.1,0.6s-0.2-0.4-0.7-1
	c-0.4-0.7-1.1-1.7-1.8-2.9c-0.7-1.3-1.6-2.8-2.5-4.6s-1.8-3.8-2.6-6s-1.4-4.6-1.6-7.1c-0.2-2.5,0-4.9,0.8-7.3
	c0.8-2.4,2.2-4.7,4.1-6.8c0.6-0.6,1.1-1.2,1.7-1.8c0.6-0.6,1.2-1.3,1.7-1.9c1.1-1.3,2.3-2.6,3.4-3.9c4.4-5.3,8.6-10.9,11.5-17.1
	c1.4-3.1,2.6-6.3,2.7-9.8c0.1-1.7-0.2-3.5-0.9-5.2c-0.7-1.6-1.9-2.9-3.1-3.8c-1.3-0.9-2.5-1.5-3.8-1.8c-1.2-0.4-2.4-0.6-3.5-0.7
	c-2.2-0.2-4-0.1-5.5,0c-3,0.3-4.6,0.8-4.6,0.8S61.8,58.6,62.6,58.6z"/>
</svg>
