<?xml version="1.0" encoding="utf-8"?>
<!-- Generator: Adobe Illustrator 19.0.0, SVG Export Plug-In . SVG Version: 6.00 Build 0)  -->
<svg version="1.1" id="Layer_1" xmlns="http://www.w3.org/2000/svg" xmlns:xlink="http://www.w3.org/1999/xlink" x="0px" y="0px"
	 viewBox="21.4 -120 675.2 500" enable-background="new 21.4 -120 675.2 500" xml:space="preserve">
<path d="M119.3,204.9c-34-0.8-74.5-25.5-90.1-50.2C8.8,122.5,33.3,81.6,46.7,60C110.4-42.7,261-109.3,407.9-118.3
	c47.9-2.9,132.7-7.2,206.2,36.3c17.5,10.3,60.6,43,79.5,91.4C722.1,82.3,535.2,98.7,541.3,127c2.9,13.6,47-5,61.3-6.1
	c115-8.3,86.5,47.2,76.1,65.7c-33,59.2-235,161.6-366.3,183.4c-61,10.1-174.5,20.6-208.4-11.9c-20.6-19.7-27.9-58.4-11.7-81.9
	c27.3-39.5,48-48.6,145.5-90.8c38.9-16.8,127.8-44,121.6-62.3C350.9,97.5,203.7,206.8,119.3,204.9z"/>
<path fill="#3E1F00" d="M559.4,61.4c0,0,0.5,1.3,1.6,3.8c1.1,2.5,2.5,6.2,4.3,11.1c1.7,5,3.8,11.1,5.7,18.5
	c1.9,7.4,3.9,16.1,5.2,25.9c1.4,9.8,2.3,20.9,2.2,32.8c-0.1,12.1-1.3,25.1-4,38.9c-0.7,3.5-1.5,6.9-2.3,10.4c-0.5,1.7-1,3.5-1.4,5.3
	c-0.5,1.7-1.1,3.5-1.6,5.3c-2.2,7.1-4.9,14.3-8.1,21.5c-6.4,14.4-14.8,28.7-25.5,42.3c-10.6,13.6-23.5,26.3-38.4,37.4
	c-14.9,10.9-31.8,20.5-50.1,27.3c-18.3,6.9-38.1,11.5-58.6,12.9c-20.4,1.5-41.5,0-62.2-5s-40.8-13.4-59.3-24.6
	c-18.6-11.4-35.6-25.5-50.5-41.7s-27.7-34.7-37.8-54.7s-17.3-41.6-21.5-63.9c-4.1-22.3-5.1-45.3-2.7-68c1.2-11.4,3.3-22.6,6.2-33.7
	c1.5-5.5,3.1-10.9,5-16.4c1.9-5.3,4-10.6,6.3-15.9c9.1-20.9,21.6-39.9,36.3-56.6s31.7-30.9,50-42.2c18.3-11.4,38-19.7,58.1-25
	c10-2.7,20.1-4.5,30.2-5.6c2.5-0.3,5-0.5,7.5-0.7c2.5-0.1,5-0.4,7.5-0.4c1.2,0,2.5-0.1,3.7-0.1s2.5,0,3.7,0h1.9h1.9
	c1.2,0,2.3,0,3.5,0.1c39.7,1.1,76,13.5,105.2,31.5c7.3,4.5,14.2,9.3,20.7,14.4c6.4,5.1,12.5,10.4,18,16c5.6,5.5,10.7,11.1,15.4,16.9
	s8.9,11.6,12.8,17.4c7.7,11.6,13.9,23.1,18.6,34.2c2.4,5.5,4.5,10.9,6.2,16.2c1.8,5.2,3.3,10.2,4.5,15c5,19.2,6.3,34.9,6.7,45.4
	c0.2,5.3,0.1,9.3,0.1,12.1c-0.1,2.8-0.1,4.1-0.1,4.1l-2.1,0.1c0,0-0.1-1.3-0.4-4.1c-0.3-2.7-0.8-6.6-1.5-11.8
	c-0.8-5.1-1.9-11.4-3.7-18.6s-4-15.5-7.3-24.4c-6.5-17.9-16.7-38.8-32.5-59.4c-4-5.1-8.3-10.2-13-15.3c-4.7-5-9.7-10-15.1-14.7
	c-10.8-9.6-23.1-18.5-36.8-26.1c-14.1-8.1-29.2-14.4-45.4-18.9c-8.1-2.3-16.4-4-24.9-5.2c-4.3-0.6-8.6-1.1-12.9-1.5
	c-2.2-0.2-4.4-0.3-6.6-0.4s-4.3-0.1-6.5-0.2c-1.2,0-2.3,0-3.5,0h-1.6h-1.7c-1.1,0-2.2,0-3.4,0c-1.1,0-2.2,0.1-3.4,0.1
	c-2.2,0.1-4.5,0.3-6.8,0.4c-2.3,0.2-4.5,0.4-6.8,0.6l-3.4,0.4l-3.4,0.5c-2.3,0.3-4.5,0.7-6.8,1c-4.5,0.8-9.1,1.7-13.6,3
	c-18.1,4.5-36,11.7-52.9,21.5s-32.7,22.3-46.6,37.1c-13.9,14.8-25.8,31.9-35.3,50.6c-4.7,9.4-8.8,19.1-12.2,29.3s-6,20.5-7.9,31.1
	c-3.8,21.2-4.4,43.3-1.4,64.8c2.9,21.7,9.4,42.9,19,62.4s22.4,37.3,37.5,52.4c15.1,15,32.4,27.3,50.8,36.5s37.7,15.3,57.1,18.7
	c38.7,6.6,77.5,3.1,111.2-9.1c16.8-6.1,32.4-14.4,46.2-24.2c13.8-9.8,25.9-21.2,36.1-33.3c10.2-12.2,18.5-25.1,25-38.2
	c6.5-13.1,11.2-26.2,14.5-39c3.3-12.7,5.1-25,6-36.4c0.9-11.5,0.7-22,0.1-31.6c-0.6-9.5-1.7-18.1-3-25.5c-0.3-1.8-0.6-3.6-1-5.3
	c-0.4-1.7-0.7-3.3-1-4.9c-0.6-3.2-1.3-5.9-1.9-8.5c-1.2-5-2.3-8.8-3-11.5c-0.7-2.6-1.1-3.9-1.1-3.9L559.4,61.4z M302.8-93.7
	c0,0,1.5-0.5,4.3-1.5c2.8-1.1,7.1-2.6,12.7-4.3s12.6-3.8,20.9-5.5c8.3-1.8,18-3.6,28.9-4.7c10.9-1,23.2-1.6,36.5-0.8
	c13.3,0.7,27.6,2.8,42.6,6.5c3.8,0.9,7.5,2,11.4,3.2c1.9,0.6,3.8,1.2,5.7,1.9c1.9,0.6,3.8,1.4,5.8,2c7.7,2.9,15.5,6.3,23.3,10.3
	c15.5,8,31,18.3,45.4,31.2c14.5,12.8,27.9,28.1,39.5,45.7c11.5,17.6,21.1,37.3,28,58.7c6.8,21.4,11.1,44.3,11.9,67.8
	c1,23.5-1.4,47.8-7.4,71.4s-15.7,46.6-28.6,67.8c-6.5,10.5-13.7,20.8-21.6,30.4c-4,4.8-8.1,9.4-12.4,14c-4.3,4.5-8.8,8.9-13.4,13.1
	c-18.5,16.8-39.4,31.1-62,41.9s-46.9,18.4-71.8,22.1c-24.9,3.7-50.4,3.7-75.3-0.2c-25-4-49.4-11.9-71.8-23.4
	c-5.6-2.9-11.1-5.9-16.4-9.3c-5.3-3.3-10.5-6.9-15.6-10.5c-10.1-7.5-19.7-15.5-28.5-24.3c-17.7-17.6-32.6-37.6-44.2-59.2
	c-11.6-21.5-20-44.4-25-67.6c-1.3-5.8-2.2-11.6-3.1-17.4c-0.8-5.8-1.5-11.6-1.9-17.4c-0.2-2.9-0.3-5.7-0.5-8.7
	c-0.1-2.9-0.2-5.7-0.2-8.6c0-1.4,0-2.9,0-4.3c0-1.4,0.1-2.9,0.1-4.3v-2.1l0.1-2.1c0.1-1.3,0.1-2.8,0.2-4.1c0.2-2.9,0.4-5.7,0.7-8.5
	s0.5-5.5,0.9-8.3c0.7-5.5,1.6-10.9,2.6-16.4c2.1-10.7,4.8-21.2,8.1-31.3c3.3-10,7.1-19.7,11.5-28.9c4.3-9.2,9.1-18,14.3-26.3
	s10.6-16.1,16.4-23.3c5.8-7.3,11.9-14,18.1-20.3c6.2-6.2,12.6-12.1,19-17.3c6.4-5.3,13-10,19.4-14.3c13-8.6,25.9-15.4,38.2-20.7
	c6.2-2.7,12.1-4.9,17.9-6.9s11.4-3.6,16.7-4.9c21.3-5.3,38.6-6.5,50.3-7c5.9-0.1,10.4,0,13.4,0.1s4.6,0.2,4.6,0.2v1.6
	c0,0-1.5,0.1-4.5,0.2s-7.4,0.5-13.2,1c-5.8,0.6-12.8,1.5-21,3.2c-8.2,1.6-17.6,3.8-27.8,7.2c-20.4,6.5-44.5,17.4-68.6,35
	c-6,4.4-12,9.2-17.9,14.5c-5.9,5.2-11.8,10.9-17.5,17.1C190.6-27.9,180-13.7,170.7,2c-9.3,15.9-17.2,33.4-23,52.4
	c-2.9,9.5-5.3,19.3-7.1,29.4c-0.9,5-1.7,10.1-2.2,15.3c-0.3,2.6-0.5,5.2-0.8,7.8c-0.2,2.7-0.4,5.1-0.5,7.8c-0.1,1.3-0.1,2.8-0.2,4.1
	l-0.1,1.9v1.9c0,1.3-0.1,2.7-0.1,4c0,1.3,0,2.7,0,4c0,2.7,0.1,5.3,0.2,8.1c0.2,2.7,0.2,5.4,0.5,8.1c0.1,1.3,0.2,2.7,0.3,4.1
	c0.1,1.3,0.3,2.7,0.4,4.1c0.2,2.7,0.6,5.4,1,8.1c0.8,5.4,1.7,10.8,2.8,16.3c4.5,21.7,11.9,43.2,22.6,63.5
	c10.6,20.4,24.2,39.5,40.6,56.5c4.1,4.2,8.3,8.4,12.7,12.3s8.9,7.8,13.7,11.4c9.4,7.3,19.4,13.8,29.8,19.7
	c20.9,11.7,43.7,20.4,67.5,25.3c23.8,4.9,48.5,6.1,72.9,3.3s48.3-9.7,70.6-20.3c22.2-10.5,42.7-24.8,60.2-41.8
	c8.8-8.5,16.9-17.7,24.1-27.3c3.6-4.8,7.1-9.8,10.4-14.8c3.2-5.1,6.3-10.3,9.1-15.5c11.4-21.1,19.3-43.6,24.2-66.3
	c1.2-5.7,2.2-11.4,3-17.1s1.5-11.4,1.9-17.1c0.3-2.9,0.4-5.6,0.5-8.4c0.1-1.4,0.1-2.9,0.2-4.4V137v-1v-2.1c0-2.9,0.1-5.6,0-8.4
	c0-1.4,0-2.8-0.1-4.2c-0.1-1.4-0.1-2.8-0.2-4.2c-1-22.3-4.9-43.9-11.1-64c-6.4-20.1-15.2-38.9-25.8-55.6S545.6-34,532.2-46.5
	s-27.8-22.6-42.4-30.7s-29.3-14-43.5-18.2s-28-6.8-40.8-8c-12.8-1.3-24.7-1.4-35.5-0.9c-10.7,0.5-20.3,1.6-28.6,3
	c-2.1,0.3-4.1,0.7-6,1c-1.9,0.4-3.7,0.7-5.5,1.1c-3.5,0.6-6.6,1.4-9.5,2c-5.6,1.7-9.9,2.9-12.8,3.7s-4.4,1.2-4.4,1.2L302.8-93.7z
	 M395.5,150.5c42.6,0,77.2-35.4,77.2-79S438.1-7.5,395.5-7.5c-0.2,0-0.3,0-0.5,0h-63.1l0,0c-7.5,0-13.6,6.2-13.6,13.9l0,0v130.1
	v41.8h-13.6c-7.5,0-13.6,6.2-13.6,13.9c0,7.7,6.1,13.9,13.6,13.9h13.6v79c0,7.7,6.1,13.9,13.6,13.9s13.6-6.2,13.6-13.9v-79h50
	c7.5,0,13.6-6.2,13.6-13.9c0-7.7-6.1-13.9-13.6-13.9h-50v-27.9L395.5,150.5L395.5,150.5z M395.5,20.4c0.1,0,0.3,0,0.4,0
	c27.3,0.2,49.5,23.1,49.5,51.1c0,28.1-22.4,51.1-50,51.1h-50V20.4H395.5z"/>
</svg>
