<?xml version="1.0" encoding="utf-8"?>
<!-- Generator: Adobe Illustrator 19.0.0, SVG Export Plug-In . SVG Version: 6.00 Build 0)  -->
<svg version="1.1" id="Layer_1" xmlns="http://www.w3.org/2000/svg" xmlns:xlink="http://www.w3.org/1999/xlink" x="0px" y="0px"
	 viewBox="36.3 -126 691.4 512" enable-background="new 36.3 -126 691.4 512" xml:space="preserve">
<path d="M136.6,206.7c-34.8-0.8-76.3-26.1-92.2-51.4c-20.9-33.1,4.2-75,17.9-97.1C127.5-46.9,281.6-115,432.1-124.3
	c49-3,135.8-7.4,211.1,37.2c17.9,10.6,62,44.1,81.4,93.6c29.2,74.6-162.1,91.4-155.9,120.3c3,14,48.1-5.1,62.8-6.2
	c117.8-8.5,88.5,48.3,78,67.2c-33.8,60.7-240.7,165.5-375.1,187.8c-62.5,10.3-178.7,21.1-213.4-12.2c-21.1-20.2-28.6-59.8-12-83.9
	c27.9-40.4,49.1-49.8,149-93c39.8-17.2,130.9-45.1,124.6-63.8C373.7,96.7,223,208.7,136.6,206.7z"/>
<g>
	<path fill="#3E1F00" d="M624.4,49.7L462.3-112.4c-8.8-8.8-20.4-13.6-32.9-13.6c-12.4,0-24.1,4.8-32.9,13.6l-257,257
		c-8.8,8.8-13.6,20.4-13.6,32.9c0,12.4,4.8,24.1,13.6,32.9l20,20c0,0,0,0,0,0s0,0,0,0l134.4,134.4h-18.6c-5.9,0-10.7,4.8-10.7,10.7
		c0,5.9,4.8,10.7,10.7,10.7h59.2c0,0,0,0,0,0c0,0,0,0,0,0l154.1,0c5.9,0,10.7-4.8,10.7-10.7c0-5.9-4.8-10.7-10.7-10.7l-113.5,0
		l249.2-249.2C642.5,97.3,642.5,67.8,624.4,49.7z M609.3,100.3l-257,257c-4.7,4.7-11,7.3-17.7,7.3h-0.1c-6.7,0-13-2.6-17.7-7.3
		L182.2,222.7L429-24.1c4.2-4.2,4.2-10.9,0-15.1c-4.2-4.2-10.9-4.2-15.1,0L167.1,207.7l-12.5-12.5c-4.7-4.7-7.3-11-7.3-17.8
		c0-6.7,2.6-13.1,7.3-17.8l257-257c4.7-4.7,11-7.3,17.8-7.3c6.7,0,13.1,2.6,17.8,7.3l57.7,57.7L258.1,207.2
		c-4.2,4.2-4.2,10.9,0,15.1c2.1,2.1,4.8,3.1,7.5,3.1s5.5-1,7.5-3.1L520-24.5l89.3,89.3C619.1,74.6,619.1,90.5,609.3,100.3z"/>
	<path fill="#3E1F00" d="M388.8,182.1c-4.2-4.2-10.9-4.2-15.1,0L289.8,266c-4.2,4.2-4.2,10.9,0,15.1c2.1,2.1,4.8,3.1,7.5,3.1
		s5.5-1,7.5-3.1l83.9-83.9C393,193,393,186.2,388.8,182.1z"/>
	<path fill="#3E1F00" d="M354.4,261.7L320,296.2c-4.2,4.2-4.2,10.9,0,15.1c2.1,2.1,4.8,3.1,7.5,3.1c2.7,0,5.5-1,7.5-3.1l34.4-34.4
		c4.2-4.2,4.2-10.9,0-15.1C365.3,257.6,358.5,257.6,354.4,261.7z"/>
	<path fill="#3E1F00" d="M386.1,230.1l-4.5,4.5c-4.2,4.2-4.2,10.9,0,15.1c2.1,2.1,4.8,3.1,7.5,3.1s5.5-1,7.5-3.1l4.5-4.5
		c4.2-4.2,4.2-10.9,0-15.1C397,225.9,390.2,225.9,386.1,230.1z"/>
	<path fill="#3E1F00" d="M533.1,37.8c-2-2-4.7-3.1-7.5-3.1s-5.5,1.1-7.5,3.1L472.7,83c-2,2-3.1,4.7-3.1,7.5s1.1,5.5,3.1,7.5
		l30.2,30.2c2.1,2.1,4.8,3.1,7.5,3.1c2.7,0,5.5-1,7.5-3.1L563.2,83c4.2-4.2,4.2-10.9,0-15.1L533.1,37.8z M510.4,105.7l-15.1-15.1
		l30.2-30.2l15.1,15.1L510.4,105.7z"/>
	<path fill="#3E1F00" d="M446.3-45.8c2.7,0,5.5-1,7.5-3.1l4.5-4.5c4.2-4.2,4.2-10.9,0-15.1c-4.2-4.2-10.9-4.2-15.1,0l-4.5,4.5
		c-4.2,4.2-4.2,10.9,0,15.1C440.9-46.9,443.6-45.8,446.3-45.8z"/>
	<path fill="#3E1F00" d="M233.2,232.1l-4.5,4.5c-4.2,4.2-4.2,10.9,0,15.1c2.1,2.1,4.8,3.1,7.5,3.1s5.5-1,7.5-3.1l4.5-4.5
		c4.2-4.2,4.2-10.9,0-15.1C244.1,227.9,237.4,227.9,233.2,232.1z"/>
</g>
</svg>
